<svg xmlns="http://www.w3.org/2000/svg" viewBox="0 -0.5 1024 1024" shape-rendering="crispEdges">
<metadata>Made with Pixels to Svg https://codepen.io/shshaw/pen/XbxvNj</metadata>
<path stroke="#81ff00" d="M768 64h64M768 65h64M768 66h64M768 67h64M768 68h64M768 69h64M768 70h64M768 71h64M768 72h64M768 73h64M768 74h64M768 75h64M768 76h64M768 77h64M768 78h64M768 79h64M768 80h64M768 81h64M768 82h64M768 83h64M768 84h64M768 85h64M768 86h64M768 87h64M768 88h64M768 89h64M768 90h64M768 91h64M768 92h64M768 93h64M768 94h64M768 95h64M768 96h64M768 97h64M768 98h64M768 99h64M768 100h64M768 101h64M768 102h64M768 103h64M768 104h64M768 105h64M768 106h64M768 107h64M768 108h64M768 109h64M768 110h64M768 111h64M768 112h64M768 113h64M768 114h64M768 115h64M768 116h64M768 117h64M768 118h64M768 119h64M768 120h64M768 121h64M768 122h64M768 123h64M768 124h64M768 125h64M768 126h64M768 127h64M704 128h192M704 129h192M704 130h192M704 131h192M704 132h192M704 133h192M704 134h192M704 135h192M704 136h192M704 137h192M704 138h192M704 139h192M704 140h192M704 141h192M704 142h192M704 143h192M704 144h192M704 145h192M704 146h192M704 147h192M704 148h192M704 149h192M704 150h192M704 151h192M704 152h192M704 153h192M704 154h192M704 155h192M704 156h192M704 157h192M704 158h192M704 159h192M704 160h192M704 161h192M704 162h192M704 163h192M704 164h192M704 165h192M704 166h192M704 167h192M704 168h192M704 169h192M704 170h192M704 171h192M704 172h192M704 173h192M704 174h192M704 175h192M704 176h192M704 177h192M704 178h192M704 179h192M704 180h192M704 181h192M704 182h192M704 183h192M704 184h192M704 185h192M704 186h192M704 187h192M704 188h192M704 189h192M704 190h192M704 191h192M768 192h64M768 193h64M768 194h64M768 195h64M768 196h64M768 197h64M768 198h64M768 199h64M768 200h64M768 201h64M768 202h64M768 203h64M768 204h64M768 205h64M768 206h64M768 207h64M768 208h64M768 209h64M768 210h64M768 211h64M768 212h64M768 213h64M768 214h64M768 215h64M768 216h64M768 217h64M768 218h64M768 219h64M768 220h64M768 221h64M768 222h64M768 223h64M768 224h64M768 225h64M768 226h64M768 227h64M768 228h64M768 229h64M768 230h64M768 231h64M768 232h64M768 233h64M768 234h64M768 235h64M768 236h64M768 237h64M768 238h64M768 239h64M768 240h64M768 241h64M768 242h64M768 243h64M768 244h64M768 245h64M768 246h64M768 247h64M768 248h64M768 249h64M768 250h64M768 251h64M768 252h64M768 253h64M768 254h64M768 255h64" />
<path stroke="#1b1b1b" d="M416 128h192M416 129h192M416 130h192M416 131h192M416 132h192M416 133h192M416 134h192M416 135h192M416 136h192M416 137h192M416 138h192M416 139h192M416 140h192M416 141h192M416 142h192M416 143h192M416 144h192M416 145h192M416 146h192M416 147h192M416 148h192M416 149h192M416 150h192M416 151h192M416 152h192M416 153h192M416 154h192M416 155h192M416 156h192M416 157h192M416 158h192M416 159h192M384 160h32M608 160h32M384 161h32M608 161h32M384 162h32M608 162h32M384 163h32M608 163h32M384 164h32M608 164h32M384 165h32M608 165h32M384 166h32M608 166h32M384 167h32M608 167h32M384 168h32M608 168h32M384 169h32M608 169h32M384 170h32M608 170h32M384 171h32M608 171h32M384 172h32M608 172h32M384 173h32M608 173h32M384 174h32M608 174h32M384 175h32M608 175h32M384 176h32M608 176h32M384 177h32M608 177h32M384 178h32M608 178h32M384 179h32M608 179h32M384 180h32M608 180h32M384 181h32M608 181h32M384 182h32M608 182h32M384 183h32M608 183h32M384 184h32M608 184h32M384 185h32M608 185h32M384 186h32M608 186h32M384 187h32M608 187h32M384 188h32M608 188h32M384 189h32M608 189h32M384 190h32M608 190h32M384 191h32M608 191h32M352 192h32M640 192h32M352 193h32M640 193h32M352 194h32M640 194h32M352 195h32M640 195h32M352 196h32M640 196h32M352 197h32M640 197h32M352 198h32M640 198h32M352 199h32M640 199h32M352 200h32M640 200h32M352 201h32M640 201h32M352 202h32M640 202h32M352 203h32M640 203h32M352 204h32M640 204h32M352 205h32M640 205h32M352 206h32M640 206h32M352 207h32M640 207h32M352 208h32M640 208h32M352 209h32M640 209h32M352 210h32M640 210h32M352 211h32M640 211h32M352 212h32M640 212h32M352 213h32M640 213h32M352 214h32M640 214h32M352 215h32M640 215h32M352 216h32M640 216h32M352 217h32M640 217h32M352 218h32M640 218h32M352 219h32M640 219h32M352 220h32M640 220h32M352 221h32M640 221h32M352 222h32M640 222h32M352 223h32M640 223h32M320 224h32M672 224h32M320 225h32M672 225h32M320 226h32M672 226h32M320 227h32M672 227h32M320 228h32M672 228h32M320 229h32M672 229h32M320 230h32M672 230h32M320 231h32M672 231h32M320 232h32M672 232h32M320 233h32M672 233h32M320 234h32M672 234h32M320 235h32M672 235h32M320 236h32M672 236h32M320 237h32M672 237h32M320 238h32M672 238h32M320 239h32M672 239h32M320 240h32M672 240h32M320 241h32M672 241h32M320 242h32M672 242h32M320 243h32M672 243h32M320 244h32M672 244h32M320 245h32M672 245h32M320 246h32M672 246h32M320 247h32M672 247h32M320 248h32M672 248h32M320 249h32M672 249h32M320 250h32M672 250h32M320 251h32M672 251h32M320 252h32M672 252h32M320 253h32M672 253h32M320 254h32M672 254h32M320 255h32M672 255h32M320 256h32M672 256h32M320 257h32M672 257h32M320 258h32M672 258h32M320 259h32M672 259h32M320 260h32M672 260h32M320 261h32M672 261h32M320 262h32M672 262h32M320 263h32M672 263h32M320 264h32M672 264h32M320 265h32M672 265h32M320 266h32M672 266h32M320 267h32M672 267h32M320 268h32M672 268h32M320 269h32M672 269h32M320 270h32M672 270h32M320 271h32M672 271h32M320 272h32M672 272h32M320 273h32M672 273h32M320 274h32M672 274h32M320 275h32M672 275h32M320 276h32M672 276h32M320 277h32M672 277h32M320 278h32M672 278h32M320 279h32M672 279h32M320 280h32M672 280h32M320 281h32M672 281h32M320 282h32M672 282h32M320 283h32M672 283h32M320 284h32M672 284h32M320 285h32M672 285h32M320 286h32M672 286h32M320 287h32M672 287h32M320 288h32M672 288h32M320 289h32M672 289h32M320 290h32M672 290h32M320 291h32M672 291h32M320 292h32M672 292h32M320 293h32M672 293h32M320 294h32M672 294h32M320 295h32M672 295h32M320 296h32M672 296h32M320 297h32M672 297h32M320 298h32M672 298h32M320 299h32M672 299h32M320 300h32M672 300h32M320 301h32M672 301h32M320 302h32M672 302h32M320 303h32M672 303h32M320 304h32M672 304h32M320 305h32M672 305h32M320 306h32M672 306h32M320 307h32M672 307h32M320 308h32M672 308h32M320 309h32M672 309h32M320 310h32M672 310h32M320 311h32M672 311h32M320 312h32M672 312h32M320 313h32M672 313h32M320 314h32M672 314h32M320 315h32M672 315h32M320 316h32M672 316h32M320 317h32M672 317h32M320 318h32M672 318h32M320 319h32M672 319h32M320 320h32M672 320h32M320 321h32M672 321h32M320 322h32M672 322h32M320 323h32M672 323h32M320 324h32M672 324h32M320 325h32M672 325h32M320 326h32M672 326h32M320 327h32M672 327h32M320 328h32M672 328h32M320 329h32M672 329h32M320 330h32M672 330h32M320 331h32M672 331h32M320 332h32M672 332h32M320 333h32M672 333h32M320 334h32M672 334h32M320 335h32M672 335h32M320 336h32M672 336h32M320 337h32M672 337h32M320 338h32M672 338h32M320 339h32M672 339h32M320 340h32M672 340h32M320 341h32M672 341h32M320 342h32M672 342h32M320 343h32M672 343h32M320 344h32M672 344h32M320 345h32M672 345h32M320 346h32M672 346h32M320 347h32M672 347h32M320 348h32M672 348h32M320 349h32M672 349h32M320 350h32M672 350h32M320 351h32M672 351h32M320 352h32M672 352h32M320 353h32M672 353h32M320 354h32M672 354h32M320 355h32M672 355h32M320 356h32M672 356h32M320 357h32M672 357h32M320 358h32M672 358h32M320 359h32M672 359h32M320 360h32M672 360h32M320 361h32M672 361h32M320 362h32M672 362h32M320 363h32M672 363h32M320 364h32M672 364h32M320 365h32M672 365h32M320 366h32M672 366h32M320 367h32M672 367h32M320 368h32M672 368h32M320 369h32M672 369h32M320 370h32M672 370h32M320 371h32M672 371h32M320 372h32M672 372h32M320 373h32M672 373h32M320 374h32M672 374h32M320 375h32M672 375h32M320 376h32M672 376h32M320 377h32M672 377h32M320 378h32M672 378h32M320 379h32M672 379h32M320 380h32M672 380h32M320 381h32M672 381h32M320 382h32M672 382h32M320 383h32M672 383h32M320 384h32M672 384h32M320 385h32M672 385h32M320 386h32M672 386h32M320 387h32M672 387h32M320 388h32M672 388h32M320 389h32M672 389h32M320 390h32M672 390h32M320 391h32M672 391h32M320 392h32M672 392h32M320 393h32M672 393h32M320 394h32M672 394h32M320 395h32M672 395h32M320 396h32M672 396h32M320 397h32M672 397h32M320 398h32M672 398h32M320 399h32M672 399h32M320 400h32M672 400h32M320 401h32M672 401h32M320 402h32M672 402h32M320 403h32M672 403h32M320 404h32M672 404h32M320 405h32M672 405h32M320 406h32M672 406h32M320 407h32M672 407h32M320 408h32M672 408h32M320 409h32M672 409h32M320 410h32M672 410h32M320 411h32M672 411h32M320 412h32M672 412h32M320 413h32M672 413h32M320 414h32M672 414h32M320 415h32M672 415h32M320 416h32M672 416h32M320 417h32M672 417h32M320 418h32M672 418h32M320 419h32M672 419h32M320 420h32M672 420h32M320 421h32M672 421h32M320 422h32M672 422h32M320 423h32M672 423h32M320 424h32M672 424h32M320 425h32M672 425h32M320 426h32M672 426h32M320 427h32M672 427h32M320 428h32M672 428h32M320 429h32M672 429h32M320 430h32M672 430h32M320 431h32M672 431h32M320 432h32M672 432h32M320 433h32M672 433h32M320 434h32M672 434h32M320 435h32M672 435h32M320 436h32M672 436h32M320 437h32M672 437h32M320 438h32M672 438h32M320 439h32M672 439h32M320 440h32M672 440h32M320 441h32M672 441h32M320 442h32M672 442h32M320 443h32M672 443h32M320 444h32M672 444h32M320 445h32M672 445h32M320 446h32M672 446h32M320 447h32M672 447h32M352 448h32M640 448h32M352 449h32M640 449h32M352 450h32M640 450h32M352 451h32M640 451h32M352 452h32M640 452h32M352 453h32M640 453h32M352 454h32M640 454h32M352 455h32M640 455h32M352 456h32M640 456h32M352 457h32M640 457h32M352 458h32M640 458h32M352 459h32M640 459h32M352 460h32M640 460h32M352 461h32M640 461h32M352 462h32M640 462h32M352 463h32M640 463h32M352 464h32M640 464h32M352 465h32M640 465h32M352 466h32M640 466h32M352 467h32M640 467h32M352 468h32M640 468h32M352 469h32M640 469h32M352 470h32M640 470h32M352 471h32M640 471h32M352 472h32M640 472h32M352 473h32M640 473h32M352 474h32M640 474h32M352 475h32M640 475h32M352 476h32M640 476h32M352 477h32M640 477h32M352 478h32M640 478h32M352 479h32M640 479h32M384 480h64M576 480h64M384 481h64M576 481h64M384 482h64M576 482h64M384 483h64M576 483h64M384 484h64M576 484h64M384 485h64M576 485h64M384 486h64M576 486h64M384 487h64M576 487h64M384 488h64M576 488h64M384 489h64M576 489h64M384 490h64M576 490h64M384 491h64M576 491h64M384 492h64M576 492h64M384 493h64M576 493h64M384 494h64M576 494h64M384 495h64M576 495h64M384 496h64M576 496h64M384 497h64M576 497h64M384 498h64M576 498h64M384 499h64M576 499h64M384 500h64M576 500h64M384 501h64M576 501h64M384 502h64M576 502h64M384 503h64M576 503h64M384 504h64M576 504h64M384 505h64M576 505h64M384 506h64M576 506h64M384 507h64M576 507h64M384 508h64M576 508h64M384 509h64M576 509h64M384 510h64M576 510h64M384 511h64M576 511h64M384 512h32M448 512h128M608 512h32M384 513h32M448 513h128M608 513h32M384 514h32M448 514h128M608 514h32M384 515h32M448 515h128M608 515h32M384 516h32M448 516h128M608 516h32M384 517h32M448 517h128M608 517h32M384 518h32M448 518h128M608 518h32M384 519h32M448 519h128M608 519h32M384 520h32M448 520h128M608 520h32M384 521h32M448 521h128M608 521h32M384 522h32M448 522h128M608 522h32M384 523h32M448 523h128M608 523h32M384 524h32M448 524h128M608 524h32M384 525h32M448 525h128M608 525h32M384 526h32M448 526h128M608 526h32M384 527h32M448 527h128M608 527h32M384 528h32M448 528h128M608 528h32M384 529h32M448 529h128M608 529h32M384 530h32M448 530h128M608 530h32M384 531h32M448 531h128M608 531h32M384 532h32M448 532h128M608 532h32M384 533h32M448 533h128M608 533h32M384 534h32M448 534h128M608 534h32M384 535h32M448 535h128M608 535h32M384 536h32M448 536h128M608 536h32M384 537h32M448 537h128M608 537h32M384 538h32M448 538h128M608 538h32M384 539h32M448 539h128M608 539h32M384 540h32M448 540h128M608 540h32M384 541h32M448 541h128M608 541h32M384 542h32M448 542h128M608 542h32M384 543h32M448 543h128M608 543h32M320 544h64M640 544h64M320 545h64M640 545h64M320 546h64M640 546h64M320 547h64M640 547h64M320 548h64M640 548h64M320 549h64M640 549h64M320 550h64M640 550h64M320 551h64M640 551h64M320 552h64M640 552h64M320 553h64M640 553h64M320 554h64M640 554h64M320 555h64M640 555h64M320 556h64M640 556h64M320 557h64M640 557h64M320 558h64M640 558h64M320 559h64M640 559h64M320 560h64M640 560h64M320 561h64M640 561h64M320 562h64M640 562h64M320 563h64M640 563h64M320 564h64M640 564h64M320 565h64M640 565h64M320 566h64M640 566h64M320 567h64M640 567h64M320 568h64M640 568h64M320 569h64M640 569h64M320 570h64M640 570h64M320 571h64M640 571h64M320 572h64M640 572h64M320 573h64M640 573h64M320 574h64M640 574h64M320 575h64M640 575h64M256 576h64M704 576h64M256 577h64M704 577h64M256 578h64M704 578h64M256 579h64M704 579h64M256 580h64M704 580h64M256 581h64M704 581h64M256 582h64M704 582h64M256 583h64M704 583h64M256 584h64M704 584h64M256 585h64M704 585h64M256 586h64M704 586h64M256 587h64M704 587h64M256 588h64M704 588h64M256 589h64M704 589h64M256 590h64M704 590h64M256 591h64M704 591h64M256 592h64M704 592h64M256 593h64M704 593h64M256 594h64M704 594h64M256 595h64M704 595h64M256 596h64M704 596h64M256 597h64M704 597h64M256 598h64M704 598h64M256 599h64M704 599h64M256 600h64M704 600h64M256 601h64M704 601h64M256 602h64M704 602h64M256 603h64M704 603h64M256 604h64M704 604h64M256 605h64M704 605h64M256 606h64M704 606h64M256 607h64M704 607h64M224 608h32M768 608h32M224 609h32M768 609h32M224 610h32M768 610h32M224 611h32M768 611h32M224 612h32M768 612h32M224 613h32M768 613h32M224 614h32M768 614h32M224 615h32M768 615h32M224 616h32M768 616h32M224 617h32M768 617h32M224 618h32M768 618h32M224 619h32M768 619h32M224 620h32M768 620h32M224 621h32M768 621h32M224 622h32M768 622h32M224 623h32M768 623h32M224 624h32M768 624h32M224 625h32M768 625h32M224 626h32M768 626h32M224 627h32M768 627h32M224 628h32M768 628h32M224 629h32M768 629h32M224 630h32M768 630h32M224 631h32M768 631h32M224 632h32M768 632h32M224 633h32M768 633h32M224 634h32M768 634h32M224 635h32M768 635h32M224 636h32M768 636h32M224 637h32M768 637h32M224 638h32M768 638h32M224 639h32M768 639h32M192 640h32M800 640h32M192 641h32M800 641h32M192 642h32M800 642h32M192 643h32M800 643h32M192 644h32M800 644h32M192 645h32M800 645h32M192 646h32M800 646h32M192 647h32M800 647h32M192 648h32M800 648h32M192 649h32M800 649h32M192 650h32M800 650h32M192 651h32M800 651h32M192 652h32M800 652h32M192 653h32M800 653h32M192 654h32M800 654h32M192 655h32M800 655h32M192 656h32M800 656h32M192 657h32M800 657h32M192 658h32M800 658h32M192 659h32M800 659h32M192 660h32M800 660h32M192 661h32M800 661h32M192 662h32M800 662h32M192 663h32M800 663h32M192 664h32M800 664h32M192 665h32M800 665h32M192 666h32M800 666h32M192 667h32M800 667h32M192 668h32M800 668h32M192 669h32M800 669h32M192 670h32M800 670h32M192 671h32M800 671h32M160 672h32M800 672h64M160 673h32M800 673h64M160 674h32M800 674h64M160 675h32M800 675h64M160 676h32M800 676h64M160 677h32M800 677h64M160 678h32M800 678h64M160 679h32M800 679h64M160 680h32M800 680h64M160 681h32M800 681h64M160 682h32M800 682h64M160 683h32M800 683h64M160 684h32M800 684h64M160 685h32M800 685h64M160 686h32M800 686h64M160 687h32M800 687h64M160 688h32M800 688h64M160 689h32M800 689h64M160 690h32M800 690h64M160 691h32M800 691h64M160 692h32M800 692h64M160 693h32M800 693h64M160 694h32M800 694h64M160 695h32M800 695h64M160 696h32M800 696h64M160 697h32M800 697h64M160 698h32M800 698h64M160 699h32M800 699h64M160 700h32M800 700h64M160 701h32M800 701h64M160 702h32M800 702h64M160 703h32M800 703h64M160 704h32M832 704h32M160 705h32M832 705h32M160 706h32M832 706h32M160 707h32M832 707h32M160 708h32M832 708h32M160 709h32M832 709h32M160 710h32M832 710h32M160 711h32M832 711h32M160 712h32M832 712h32M160 713h32M832 713h32M160 714h32M832 714h32M160 715h32M832 715h32M160 716h32M832 716h32M160 717h32M832 717h32M160 718h32M832 718h32M160 719h32M832 719h32M160 720h32M832 720h32M160 721h32M832 721h32M160 722h32M832 722h32M160 723h32M832 723h32M160 724h32M832 724h32M160 725h32M832 725h32M160 726h32M832 726h32M160 727h32M832 727h32M160 728h32M832 728h32M160 729h32M832 729h32M160 730h32M832 730h32M160 731h32M832 731h32M160 732h32M832 732h32M160 733h32M832 733h32M160 734h32M832 734h32M160 735h32M832 735h32M160 736h32M832 736h32M160 737h32M832 737h32M160 738h32M832 738h32M160 739h32M832 739h32M160 740h32M832 740h32M160 741h32M832 741h32M160 742h32M832 742h32M160 743h32M832 743h32M160 744h32M832 744h32M160 745h32M832 745h32M160 746h32M832 746h32M160 747h32M832 747h32M160 748h32M832 748h32M160 749h32M832 749h32M160 750h32M832 750h32M160 751h32M832 751h32M160 752h32M832 752h32M160 753h32M832 753h32M160 754h32M832 754h32M160 755h32M832 755h32M160 756h32M832 756h32M160 757h32M832 757h32M160 758h32M832 758h32M160 759h32M832 759h32M160 760h32M832 760h32M160 761h32M832 761h32M160 762h32M832 762h32M160 763h32M832 763h32M160 764h32M832 764h32M160 765h32M832 765h32M160 766h32M832 766h32M160 767h32M832 767h32M160 768h32M832 768h32M160 769h32M832 769h32M160 770h32M832 770h32M160 771h32M832 771h32M160 772h32M832 772h32M160 773h32M832 773h32M160 774h32M832 774h32M160 775h32M832 775h32M160 776h32M832 776h32M160 777h32M832 777h32M160 778h32M832 778h32M160 779h32M832 779h32M160 780h32M832 780h32M160 781h32M832 781h32M160 782h32M832 782h32M160 783h32M832 783h32M160 784h32M832 784h32M160 785h32M832 785h32M160 786h32M832 786h32M160 787h32M832 787h32M160 788h32M832 788h32M160 789h32M832 789h32M160 790h32M832 790h32M160 791h32M832 791h32M160 792h32M832 792h32M160 793h32M832 793h32M160 794h32M832 794h32M160 795h32M832 795h32M160 796h32M832 796h32M160 797h32M832 797h32M160 798h32M832 798h32M160 799h32M832 799h32M160 800h32M832 800h32M160 801h32M832 801h32M160 802h32M832 802h32M160 803h32M832 803h32M160 804h32M832 804h32M160 805h32M832 805h32M160 806h32M832 806h32M160 807h32M832 807h32M160 808h32M832 808h32M160 809h32M832 809h32M160 810h32M832 810h32M160 811h32M832 811h32M160 812h32M832 812h32M160 813h32M832 813h32M160 814h32M832 814h32M160 815h32M832 815h32M160 816h32M832 816h32M160 817h32M832 817h32M160 818h32M832 818h32M160 819h32M832 819h32M160 820h32M832 820h32M160 821h32M832 821h32M160 822h32M832 822h32M160 823h32M832 823h32M160 824h32M832 824h32M160 825h32M832 825h32M160 826h32M832 826h32M160 827h32M832 827h32M160 828h32M832 828h32M160 829h32M832 829h32M160 830h32M832 830h32M160 831h32M832 831h32M160 832h32M832 832h32M160 833h32M832 833h32M160 834h32M832 834h32M160 835h32M832 835h32M160 836h32M832 836h32M160 837h32M832 837h32M160 838h32M832 838h32M160 839h32M832 839h32M160 840h32M832 840h32M160 841h32M832 841h32M160 842h32M832 842h32M160 843h32M832 843h32M160 844h32M832 844h32M160 845h32M832 845h32M160 846h32M832 846h32M160 847h32M832 847h32M160 848h32M832 848h32M160 849h32M832 849h32M160 850h32M832 850h32M160 851h32M832 851h32M160 852h32M832 852h32M160 853h32M832 853h32M160 854h32M832 854h32M160 855h32M832 855h32M160 856h32M832 856h32M160 857h32M832 857h32M160 858h32M832 858h32M160 859h32M832 859h32M160 860h32M832 860h32M160 861h32M832 861h32M160 862h32M832 862h32M160 863h32M832 863h32M160 864h704M160 865h704M160 866h704M160 867h704M160 868h704M160 869h704M160 870h704M160 871h704M160 872h704M160 873h704M160 874h704M160 875h704M160 876h704M160 877h704M160 878h704M160 879h704M160 880h704M160 881h704M160 882h704M160 883h704M160 884h704M160 885h704M160 886h704M160 887h704M160 888h704M160 889h704M160 890h704M160 891h704M160 892h704M160 893h704M160 894h704M160 895h704" />
<path stroke="#0066ff" d="M416 160h192M416 161h192M416 162h192M416 163h192M416 164h192M416 165h192M416 166h192M416 167h192M416 168h192M416 169h192M416 170h192M416 171h192M416 172h192M416 173h192M416 174h192M416 175h192M416 176h192M416 177h192M416 178h192M416 179h192M416 180h192M416 181h192M416 182h192M416 183h192M416 184h192M416 185h192M416 186h192M416 187h192M416 188h192M416 189h192M416 190h192M416 191h192M384 192h256M384 193h256M384 194h256M384 195h256M384 196h256M384 197h256M384 198h256M384 199h256M384 200h256M384 201h256M384 202h256M384 203h256M384 204h256M384 205h256M384 206h256M384 207h256M384 208h256M384 209h256M384 210h256M384 211h256M384 212h256M384 213h256M384 214h256M384 215h256M384 216h256M384 217h256M384 218h256M384 219h256M384 220h256M384 221h256M384 222h256M384 223h256M352 224h320M352 225h320M352 226h320M352 227h320M352 228h320M352 229h320M352 230h320M352 231h320M352 232h320M352 233h320M352 234h320M352 235h320M352 236h320M352 237h320M352 238h320M352 239h320M352 240h320M352 241h320M352 242h320M352 243h320M352 244h320M352 245h320M352 246h320M352 247h320M352 248h320M352 249h320M352 250h320M352 251h320M352 252h320M352 253h320M352 254h320M352 255h320M352 256h320M352 257h320M352 258h320M352 259h320M352 260h320M352 261h320M352 262h320M352 263h320M352 264h320M352 265h320M352 266h320M352 267h320M352 268h320M352 269h320M352 270h320M352 271h320M352 272h320M352 273h320M352 274h320M352 275h320M352 276h320M352 277h320M352 278h320M352 279h320M352 280h320M352 281h320M352 282h320M352 283h320M352 284h320M352 285h320M352 286h320M352 287h320M352 288h320M352 289h320M352 290h320M352 291h320M352 292h320M352 293h320M352 294h320M352 295h320M352 296h320M352 297h320M352 298h320M352 299h320M352 300h320M352 301h320M352 302h320M352 303h320M352 304h320M352 305h320M352 306h320M352 307h320M352 308h320M352 309h320M352 310h320M352 311h320M352 312h320M352 313h320M352 314h320M352 315h320M352 316h320M352 317h320M352 318h320M352 319h320M352 320h320M352 321h320M352 322h320M352 323h320M352 324h320M352 325h320M352 326h320M352 327h320M352 328h320M352 329h320M352 330h320M352 331h320M352 332h320M352 333h320M352 334h320M352 335h320M352 336h320M352 337h320M352 338h320M352 339h320M352 340h320M352 341h320M352 342h320M352 343h320M352 344h320M352 345h320M352 346h320M352 347h320M352 348h320M352 349h320M352 350h320M352 351h320M352 352h320M352 353h320M352 354h320M352 355h320M352 356h320M352 357h320M352 358h320M352 359h320M352 360h320M352 361h320M352 362h320M352 363h320M352 364h320M352 365h320M352 366h320M352 367h320M352 368h320M352 369h320M352 370h320M352 371h320M352 372h320M352 373h320M352 374h320M352 375h320M352 376h320M352 377h320M352 378h320M352 379h320M352 380h320M352 381h320M352 382h320M352 383h320M352 384h320M352 385h320M352 386h320M352 387h320M352 388h320M352 389h320M352 390h320M352 391h320M352 392h320M352 393h320M352 394h320M352 395h320M352 396h320M352 397h320M352 398h320M352 399h320M352 400h320M352 401h320M352 402h320M352 403h320M352 404h320M352 405h320M352 406h320M352 407h320M352 408h320M352 409h320M352 410h320M352 411h320M352 412h320M352 413h320M352 414h320M352 415h320M352 416h320M352 417h320M352 418h320M352 419h320M352 420h320M352 421h320M352 422h320M352 423h320M352 424h320M352 425h320M352 426h320M352 427h320M352 428h320M352 429h320M352 430h320M352 431h320M352 432h320M352 433h320M352 434h320M352 435h320M352 436h320M352 437h320M352 438h320M352 439h320M352 440h320M352 441h320M352 442h320M352 443h320M352 444h320M352 445h320M352 446h320M352 447h320M384 448h256M384 449h256M384 450h256M384 451h256M384 452h256M384 453h256M384 454h256M384 455h256M384 456h256M384 457h256M384 458h256M384 459h256M384 460h256M384 461h256M384 462h256M384 463h256M384 464h256M384 465h256M384 466h256M384 467h256M384 468h256M384 469h256M384 470h256M384 471h256M384 472h256M384 473h256M384 474h256M384 475h256M384 476h256M384 477h256M384 478h256M384 479h256M448 480h128M448 481h128M448 482h128M448 483h128M448 484h128M448 485h128M448 486h128M448 487h128M448 488h128M448 489h128M448 490h128M448 491h128M448 492h128M448 493h128M448 494h128M448 495h128M448 496h128M448 497h128M448 498h128M448 499h128M448 500h128M448 501h128M448 502h128M448 503h128M448 504h128M448 505h128M448 506h128M448 507h128M448 508h128M448 509h128M448 510h128M448 511h128M416 512h32M576 512h32M416 513h32M576 513h32M416 514h32M576 514h32M416 515h32M576 515h32M416 516h32M576 516h32M416 517h32M576 517h32M416 518h32M576 518h32M416 519h32M576 519h32M416 520h32M576 520h32M416 521h32M576 521h32M416 522h32M576 522h32M416 523h32M576 523h32M416 524h32M576 524h32M416 525h32M576 525h32M416 526h32M576 526h32M416 527h32M576 527h32M416 528h32M576 528h32M416 529h32M576 529h32M416 530h32M576 530h32M416 531h32M576 531h32M416 532h32M576 532h32M416 533h32M576 533h32M416 534h32M576 534h32M416 535h32M576 535h32M416 536h32M576 536h32M416 537h32M576 537h32M416 538h32M576 538h32M416 539h32M576 539h32M416 540h32M576 540h32M416 541h32M576 541h32M416 542h32M576 542h32M416 543h32M576 543h32M384 544h256M384 545h256M384 546h256M384 547h256M384 548h256M384 549h256M384 550h256M384 551h256M384 552h256M384 553h256M384 554h256M384 555h256M384 556h256M384 557h256M384 558h256M384 559h256M384 560h256M384 561h256M384 562h256M384 563h256M384 564h256M384 565h256M384 566h256M384 567h256M384 568h256M384 569h256M384 570h256M384 571h256M384 572h256M384 573h256M384 574h256M384 575h256M320 576h384M320 577h384M320 578h384M320 579h384M320 580h384M320 581h384M320 582h384M320 583h384M320 584h384M320 585h384M320 586h384M320 587h384M320 588h384M320 589h384M320 590h384M320 591h384M320 592h384M320 593h384M320 594h384M320 595h384M320 596h384M320 597h384M320 598h384M320 599h384M320 600h384M320 601h384M320 602h384M320 603h384M320 604h384M320 605h384M320 606h384M320 607h384M256 608h512M256 609h512M256 610h512M256 611h512M256 612h512M256 613h512M256 614h512M256 615h512M256 616h512M256 617h512M256 618h512M256 619h512M256 620h512M256 621h512M256 622h512M256 623h512M256 624h512M256 625h512M256 626h512M256 627h512M256 628h512M256 629h512M256 630h512M256 631h512M256 632h512M256 633h512M256 634h512M256 635h512M256 636h512M256 637h512M256 638h512M256 639h512M224 640h576M224 641h576M224 642h576M224 643h576M224 644h576M224 645h576M224 646h576M224 647h576M224 648h576M224 649h576M224 650h576M224 651h576M224 652h576M224 653h576M224 654h576M224 655h576M224 656h576M224 657h576M224 658h576M224 659h576M224 660h576M224 661h576M224 662h576M224 663h576M224 664h576M224 665h576M224 666h576M224 667h576M224 668h576M224 669h576M224 670h576M224 671h576M192 672h608M192 673h608M192 674h608M192 675h608M192 676h608M192 677h608M192 678h608M192 679h608M192 680h608M192 681h608M192 682h608M192 683h608M192 684h608M192 685h608M192 686h608M192 687h608M192 688h608M192 689h608M192 690h608M192 691h608M192 692h608M192 693h608M192 694h608M192 695h608M192 696h608M192 697h608M192 698h608M192 699h608M192 700h608M192 701h608M192 702h608M192 703h608M192 704h640M192 705h640M192 706h640M192 707h640M192 708h640M192 709h640M192 710h640M192 711h640M192 712h640M192 713h640M192 714h640M192 715h640M192 716h640M192 717h640M192 718h640M192 719h640M192 720h640M192 721h640M192 722h640M192 723h640M192 724h640M192 725h640M192 726h640M192 727h640M192 728h640M192 729h640M192 730h640M192 731h640M192 732h640M192 733h640M192 734h640M192 735h640M192 736h640M192 737h640M192 738h640M192 739h640M192 740h640M192 741h640M192 742h640M192 743h640M192 744h640M192 745h640M192 746h640M192 747h640M192 748h640M192 749h640M192 750h640M192 751h640M192 752h640M192 753h640M192 754h640M192 755h640M192 756h640M192 757h640M192 758h640M192 759h640M192 760h640M192 761h640M192 762h640M192 763h640M192 764h640M192 765h640M192 766h640M192 767h640M192 768h640M192 769h640M192 770h640M192 771h640M192 772h640M192 773h640M192 774h640M192 775h640M192 776h640M192 777h640M192 778h640M192 779h640M192 780h640M192 781h640M192 782h640M192 783h640M192 784h640M192 785h640M192 786h640M192 787h640M192 788h640M192 789h640M192 790h640M192 791h640M192 792h640M192 793h640M192 794h640M192 795h640M192 796h640M192 797h640M192 798h640M192 799h640M192 800h640M192 801h640M192 802h640M192 803h640M192 804h640M192 805h640M192 806h640M192 807h640M192 808h640M192 809h640M192 810h640M192 811h640M192 812h640M192 813h640M192 814h640M192 815h640M192 816h640M192 817h640M192 818h640M192 819h640M192 820h640M192 821h640M192 822h640M192 823h640M192 824h640M192 825h640M192 826h640M192 827h640M192 828h640M192 829h640M192 830h640M192 831h640M192 832h640M192 833h640M192 834h640M192 835h640M192 836h640M192 837h640M192 838h640M192 839h640M192 840h640M192 841h640M192 842h640M192 843h640M192 844h640M192 845h640M192 846h640M192 847h640M192 848h640M192 849h640M192 850h640M192 851h640M192 852h640M192 853h640M192 854h640M192 855h640M192 856h640M192 857h640M192 858h640M192 859h640M192 860h640M192 861h640M192 862h640M192 863h640" />
</svg>