<svg xmlns="http://www.w3.org/2000/svg" viewBox="0 -0.5 1024 1024" shape-rendering="crispEdges">
<metadata>Made with Pixels to Svg https://codepen.io/shshaw/pen/XbxvNj</metadata>
<path stroke="#000000" d="M320 64h128M320 65h128M320 66h128M320 67h128M320 68h128M320 69h128M320 70h128M320 71h128M320 72h128M320 73h128M320 74h128M320 75h128M320 76h128M320 77h128M320 78h128M320 79h128M320 80h128M320 81h128M320 82h128M320 83h128M320 84h128M320 85h128M320 86h128M320 87h128M320 88h128M320 89h128M320 90h128M320 91h128M320 92h128M320 93h128M320 94h128M320 95h128M288 96h32M448 96h32M640 96h32M288 97h32M448 97h32M640 97h32M288 98h32M448 98h32M640 98h32M288 99h32M448 99h32M640 99h32M288 100h32M448 100h32M640 100h32M288 101h32M448 101h32M640 101h32M288 102h32M448 102h32M640 102h32M288 103h32M448 103h32M640 103h32M288 104h32M448 104h32M640 104h32M288 105h32M448 105h32M640 105h32M288 106h32M448 106h32M640 106h32M288 107h32M448 107h32M640 107h32M288 108h32M448 108h32M640 108h32M288 109h32M448 109h32M640 109h32M288 110h32M448 110h32M640 110h32M288 111h32M448 111h32M640 111h32M288 112h32M448 112h32M640 112h32M288 113h32M448 113h32M640 113h32M288 114h32M448 114h32M640 114h32M288 115h32M448 115h32M640 115h32M288 116h32M448 116h32M640 116h32M288 117h32M448 117h32M640 117h32M288 118h32M448 118h32M640 118h32M288 119h32M448 119h32M640 119h32M288 120h32M448 120h32M640 120h32M288 121h32M448 121h32M640 121h32M288 122h32M448 122h32M640 122h32M288 123h32M448 123h32M640 123h32M288 124h32M448 124h32M640 124h32M288 125h32M448 125h32M640 125h32M288 126h32M448 126h32M640 126h32M288 127h32M448 127h32M640 127h32M256 128h32M480 128h64M672 128h32M256 129h32M480 129h64M672 129h32M256 130h32M480 130h64M672 130h32M256 131h32M480 131h64M672 131h32M256 132h32M480 132h64M672 132h32M256 133h32M480 133h64M672 133h32M256 134h32M480 134h64M672 134h32M256 135h32M480 135h64M672 135h32M256 136h32M480 136h64M672 136h32M256 137h32M480 137h64M672 137h32M256 138h32M480 138h64M672 138h32M256 139h32M480 139h64M672 139h32M256 140h32M480 140h64M672 140h32M256 141h32M480 141h64M672 141h32M256 142h32M480 142h64M672 142h32M256 143h32M480 143h64M672 143h32M256 144h32M480 144h64M672 144h32M256 145h32M480 145h64M672 145h32M256 146h32M480 146h64M672 146h32M256 147h32M480 147h64M672 147h32M256 148h32M480 148h64M672 148h32M256 149h32M480 149h64M672 149h32M256 150h32M480 150h64M672 150h32M256 151h32M480 151h64M672 151h32M256 152h32M480 152h64M672 152h32M256 153h32M480 153h64M672 153h32M256 154h32M480 154h64M672 154h32M256 155h32M480 155h64M672 155h32M256 156h32M480 156h64M672 156h32M256 157h32M480 157h64M672 157h32M256 158h32M480 158h64M672 158h32M256 159h32M480 159h64M672 159h32M224 160h32M288 160h32M544 160h64M672 160h32M224 161h32M288 161h32M544 161h64M672 161h32M224 162h32M288 162h32M544 162h64M672 162h32M224 163h32M288 163h32M544 163h64M672 163h32M224 164h32M288 164h32M544 164h64M672 164h32M224 165h32M288 165h32M544 165h64M672 165h32M224 166h32M288 166h32M544 166h64M672 166h32M224 167h32M288 167h32M544 167h64M672 167h32M224 168h32M288 168h32M544 168h64M672 168h32M224 169h32M288 169h32M544 169h64M672 169h32M224 170h32M288 170h32M544 170h64M672 170h32M224 171h32M288 171h32M544 171h64M672 171h32M224 172h32M288 172h32M544 172h64M672 172h32M224 173h32M288 173h32M544 173h64M672 173h32M224 174h32M288 174h32M544 174h64M672 174h32M224 175h32M288 175h32M544 175h64M672 175h32M224 176h32M288 176h32M544 176h64M672 176h32M224 177h32M288 177h32M544 177h64M672 177h32M224 178h32M288 178h32M544 178h64M672 178h32M224 179h32M288 179h32M544 179h64M672 179h32M224 180h32M288 180h32M544 180h64M672 180h32M224 181h32M288 181h32M544 181h64M672 181h32M224 182h32M288 182h32M544 182h64M672 182h32M224 183h32M288 183h32M544 183h64M672 183h32M224 184h32M288 184h32M544 184h64M672 184h32M224 185h32M288 185h32M544 185h64M672 185h32M224 186h32M288 186h32M544 186h64M672 186h32M224 187h32M288 187h32M544 187h64M672 187h32M224 188h32M288 188h32M544 188h64M672 188h32M224 189h32M288 189h32M544 189h64M672 189h32M224 190h32M288 190h32M544 190h64M672 190h32M224 191h32M288 191h32M544 191h64M672 191h32M256 192h32M320 192h32M608 192h32M256 193h32M320 193h32M608 193h32M256 194h32M320 194h32M608 194h32M256 195h32M320 195h32M608 195h32M256 196h32M320 196h32M608 196h32M256 197h32M320 197h32M608 197h32M256 198h32M320 198h32M608 198h32M256 199h32M320 199h32M608 199h32M256 200h32M320 200h32M608 200h32M256 201h32M320 201h32M608 201h32M256 202h32M320 202h32M608 202h32M256 203h32M320 203h32M608 203h32M256 204h32M320 204h32M608 204h32M256 205h32M320 205h32M608 205h32M256 206h32M320 206h32M608 206h32M256 207h32M320 207h32M608 207h32M256 208h32M320 208h32M608 208h32M256 209h32M320 209h32M608 209h32M256 210h32M320 210h32M608 210h32M256 211h32M320 211h32M608 211h32M256 212h32M320 212h32M608 212h32M256 213h32M320 213h32M608 213h32M256 214h32M320 214h32M608 214h32M256 215h32M320 215h32M608 215h32M256 216h32M320 216h32M608 216h32M256 217h32M320 217h32M608 217h32M256 218h32M320 218h32M608 218h32M256 219h32M320 219h32M608 219h32M256 220h32M320 220h32M608 220h32M256 221h32M320 221h32M608 221h32M256 222h32M320 222h32M608 222h32M256 223h32M320 223h32M608 223h32M352 256h128M544 256h96M352 257h128M544 257h96M352 258h128M544 258h96M352 259h128M544 259h96M352 260h128M544 260h96M352 261h128M544 261h96M352 262h128M544 262h96M352 263h128M544 263h96M352 264h128M544 264h96M352 265h128M544 265h96M352 266h128M544 266h96M352 267h128M544 267h96M352 268h128M544 268h96M352 269h128M544 269h96M352 270h128M544 270h96M352 271h128M544 271h96M352 272h128M544 272h96M352 273h128M544 273h96M352 274h128M544 274h96M352 275h128M544 275h96M352 276h128M544 276h96M352 277h128M544 277h96M352 278h128M544 278h96M352 279h128M544 279h96M352 280h128M544 280h96M352 281h128M544 281h96M352 282h128M544 282h96M352 283h128M544 283h96M352 284h128M544 284h96M352 285h128M544 285h96M352 286h128M544 286h96M352 287h128M544 287h96M320 288h32M640 288h96M320 289h32M640 289h96M320 290h32M640 290h96M320 291h32M640 291h96M320 292h32M640 292h96M320 293h32M640 293h96M320 294h32M640 294h96M320 295h32M640 295h96M320 296h32M640 296h96M320 297h32M640 297h96M320 298h32M640 298h96M320 299h32M640 299h96M320 300h32M640 300h96M320 301h32M640 301h96M320 302h32M640 302h96M320 303h32M640 303h96M320 304h32M640 304h96M320 305h32M640 305h96M320 306h32M640 306h96M320 307h32M640 307h96M320 308h32M640 308h96M320 309h32M640 309h96M320 310h32M640 310h96M320 311h32M640 311h96M320 312h32M640 312h96M320 313h32M640 313h96M320 314h32M640 314h96M320 315h32M640 315h96M320 316h32M640 316h96M320 317h32M640 317h96M320 318h32M640 318h96M320 319h32M640 319h96M256 320h32M736 320h64M256 321h32M736 321h64M256 322h32M736 322h64M256 323h32M736 323h64M256 324h32M736 324h64M256 325h32M736 325h64M256 326h32M736 326h64M256 327h32M736 327h64M256 328h32M736 328h64M256 329h32M736 329h64M256 330h32M736 330h64M256 331h32M736 331h64M256 332h32M736 332h64M256 333h32M736 333h64M256 334h32M736 334h64M256 335h32M736 335h64M256 336h32M736 336h64M256 337h32M736 337h64M256 338h32M736 338h64M256 339h32M736 339h64M256 340h32M736 340h64M256 341h32M736 341h64M256 342h32M736 342h64M256 343h32M736 343h64M256 344h32M736 344h64M256 345h32M736 345h64M256 346h32M736 346h64M256 347h32M736 347h64M256 348h32M736 348h64M256 349h32M736 349h64M256 350h32M736 350h64M256 351h32M736 351h64M224 352h32M800 352h32M224 353h32M800 353h32M224 354h32M800 354h32M224 355h32M800 355h32M224 356h32M800 356h32M224 357h32M800 357h32M224 358h32M800 358h32M224 359h32M800 359h32M224 360h32M800 360h32M224 361h32M800 361h32M224 362h32M800 362h32M224 363h32M800 363h32M224 364h32M800 364h32M224 365h32M800 365h32M224 366h32M800 366h32M224 367h32M800 367h32M224 368h32M800 368h32M224 369h32M800 369h32M224 370h32M800 370h32M224 371h32M800 371h32M224 372h32M800 372h32M224 373h32M800 373h32M224 374h32M800 374h32M224 375h32M800 375h32M224 376h32M800 376h32M224 377h32M800 377h32M224 378h32M800 378h32M224 379h32M800 379h32M224 380h32M800 380h32M224 381h32M800 381h32M224 382h32M800 382h32M224 383h32M800 383h32M192 384h32M800 384h64M192 385h32M800 385h64M192 386h32M800 386h64M192 387h32M800 387h64M192 388h32M800 388h64M192 389h32M800 389h64M192 390h32M800 390h64M192 391h32M800 391h64M192 392h32M800 392h64M192 393h32M800 393h64M192 394h32M800 394h64M192 395h32M800 395h64M192 396h32M800 396h64M192 397h32M800 397h64M192 398h32M800 398h64M192 399h32M800 399h64M192 400h32M800 400h64M192 401h32M800 401h64M192 402h32M800 402h64M192 403h32M800 403h64M192 404h32M800 404h64M192 405h32M800 405h64M192 406h32M800 406h64M192 407h32M800 407h64M192 408h32M800 408h64M192 409h32M800 409h64M192 410h32M800 410h64M192 411h32M800 411h64M192 412h32M800 412h64M192 413h32M800 413h64M192 414h32M800 414h64M192 415h32M800 415h64M160 416h32M832 416h32M160 417h32M832 417h32M160 418h32M832 418h32M160 419h32M832 419h32M160 420h32M832 420h32M160 421h32M832 421h32M160 422h32M832 422h32M160 423h32M832 423h32M160 424h32M832 424h32M160 425h32M832 425h32M160 426h32M832 426h32M160 427h32M832 427h32M160 428h32M832 428h32M160 429h32M832 429h32M160 430h32M832 430h32M160 431h32M832 431h32M160 432h32M832 432h32M160 433h32M832 433h32M160 434h32M832 434h32M160 435h32M832 435h32M160 436h32M832 436h32M160 437h32M832 437h32M160 438h32M832 438h32M160 439h32M832 439h32M160 440h32M832 440h32M160 441h32M832 441h32M160 442h32M832 442h32M160 443h32M832 443h32M160 444h32M832 444h32M160 445h32M832 445h32M160 446h32M832 446h32M160 447h32M832 447h32M128 448h32M864 448h32M128 449h32M864 449h32M128 450h32M864 450h32M128 451h32M864 451h32M128 452h32M864 452h32M128 453h32M864 453h32M128 454h32M864 454h32M128 455h32M864 455h32M128 456h32M864 456h32M128 457h32M864 457h32M128 458h32M864 458h32M128 459h32M864 459h32M128 460h32M864 460h32M128 461h32M864 461h32M128 462h32M864 462h32M128 463h32M864 463h32M128 464h32M864 464h32M128 465h32M864 465h32M128 466h32M864 466h32M128 467h32M864 467h32M128 468h32M864 468h32M128 469h32M864 469h32M128 470h32M864 470h32M128 471h32M864 471h32M128 472h32M864 472h32M128 473h32M864 473h32M128 474h32M864 474h32M128 475h32M864 475h32M128 476h32M864 476h32M128 477h32M864 477h32M128 478h32M864 478h32M128 479h32M864 479h32M128 480h32M864 480h32M128 481h32M864 481h32M128 482h32M864 482h32M128 483h32M864 483h32M128 484h32M864 484h32M128 485h32M864 485h32M128 486h32M864 486h32M128 487h32M864 487h32M128 488h32M864 488h32M128 489h32M864 489h32M128 490h32M864 490h32M128 491h32M864 491h32M128 492h32M864 492h32M128 493h32M864 493h32M128 494h32M864 494h32M128 495h32M864 495h32M128 496h32M864 496h32M128 497h32M864 497h32M128 498h32M864 498h32M128 499h32M864 499h32M128 500h32M864 500h32M128 501h32M864 501h32M128 502h32M864 502h32M128 503h32M864 503h32M128 504h32M864 504h32M128 505h32M864 505h32M128 506h32M864 506h32M128 507h32M864 507h32M128 508h32M864 508h32M128 509h32M864 509h32M128 510h32M864 510h32M128 511h32M864 511h32M128 512h32M864 512h32M128 513h32M864 513h32M128 514h32M864 514h32M128 515h32M864 515h32M128 516h32M864 516h32M128 517h32M864 517h32M128 518h32M864 518h32M128 519h32M864 519h32M128 520h32M864 520h32M128 521h32M864 521h32M128 522h32M864 522h32M128 523h32M864 523h32M128 524h32M864 524h32M128 525h32M864 525h32M128 526h32M864 526h32M128 527h32M864 527h32M128 528h32M864 528h32M128 529h32M864 529h32M128 530h32M864 530h32M128 531h32M864 531h32M128 532h32M864 532h32M128 533h32M864 533h32M128 534h32M864 534h32M128 535h32M864 535h32M128 536h32M864 536h32M128 537h32M864 537h32M128 538h32M864 538h32M128 539h32M864 539h32M128 540h32M864 540h32M128 541h32M864 541h32M128 542h32M864 542h32M128 543h32M864 543h32M128 544h32M864 544h32M128 545h32M864 545h32M128 546h32M864 546h32M128 547h32M864 547h32M128 548h32M864 548h32M128 549h32M864 549h32M128 550h32M864 550h32M128 551h32M864 551h32M128 552h32M864 552h32M128 553h32M864 553h32M128 554h32M864 554h32M128 555h32M864 555h32M128 556h32M864 556h32M128 557h32M864 557h32M128 558h32M864 558h32M128 559h32M864 559h32M128 560h32M864 560h32M128 561h32M864 561h32M128 562h32M864 562h32M128 563h32M864 563h32M128 564h32M864 564h32M128 565h32M864 565h32M128 566h32M864 566h32M128 567h32M864 567h32M128 568h32M864 568h32M128 569h32M864 569h32M128 570h32M864 570h32M128 571h32M864 571h32M128 572h32M864 572h32M128 573h32M864 573h32M128 574h32M864 574h32M128 575h32M864 575h32M128 576h32M864 576h32M128 577h32M864 577h32M128 578h32M864 578h32M128 579h32M864 579h32M128 580h32M864 580h32M128 581h32M864 581h32M128 582h32M864 582h32M128 583h32M864 583h32M128 584h32M864 584h32M128 585h32M864 585h32M128 586h32M864 586h32M128 587h32M864 587h32M128 588h32M864 588h32M128 589h32M864 589h32M128 590h32M864 590h32M128 591h32M864 591h32M128 592h32M864 592h32M128 593h32M864 593h32M128 594h32M864 594h32M128 595h32M864 595h32M128 596h32M864 596h32M128 597h32M864 597h32M128 598h32M864 598h32M128 599h32M864 599h32M128 600h32M864 600h32M128 601h32M864 601h32M128 602h32M864 602h32M128 603h32M864 603h32M128 604h32M864 604h32M128 605h32M864 605h32M128 606h32M864 606h32M128 607h32M864 607h32M128 608h32M864 608h32M128 609h32M864 609h32M128 610h32M864 610h32M128 611h32M864 611h32M128 612h32M864 612h32M128 613h32M864 613h32M128 614h32M864 614h32M128 615h32M864 615h32M128 616h32M864 616h32M128 617h32M864 617h32M128 618h32M864 618h32M128 619h32M864 619h32M128 620h32M864 620h32M128 621h32M864 621h32M128 622h32M864 622h32M128 623h32M864 623h32M128 624h32M864 624h32M128 625h32M864 625h32M128 626h32M864 626h32M128 627h32M864 627h32M128 628h32M864 628h32M128 629h32M864 629h32M128 630h32M864 630h32M128 631h32M864 631h32M128 632h32M864 632h32M128 633h32M864 633h32M128 634h32M864 634h32M128 635h32M864 635h32M128 636h32M864 636h32M128 637h32M864 637h32M128 638h32M864 638h32M128 639h32M864 639h32M128 640h32M864 640h32M128 641h32M864 641h32M128 642h32M864 642h32M128 643h32M864 643h32M128 644h32M864 644h32M128 645h32M864 645h32M128 646h32M864 646h32M128 647h32M864 647h32M128 648h32M864 648h32M128 649h32M864 649h32M128 650h32M864 650h32M128 651h32M864 651h32M128 652h32M864 652h32M128 653h32M864 653h32M128 654h32M864 654h32M128 655h32M864 655h32M128 656h32M864 656h32M128 657h32M864 657h32M128 658h32M864 658h32M128 659h32M864 659h32M128 660h32M864 660h32M128 661h32M864 661h32M128 662h32M864 662h32M128 663h32M864 663h32M128 664h32M864 664h32M128 665h32M864 665h32M128 666h32M864 666h32M128 667h32M864 667h32M128 668h32M864 668h32M128 669h32M864 669h32M128 670h32M864 670h32M128 671h32M864 671h32M128 672h32M864 672h32M128 673h32M864 673h32M128 674h32M864 674h32M128 675h32M864 675h32M128 676h32M864 676h32M128 677h32M864 677h32M128 678h32M864 678h32M128 679h32M864 679h32M128 680h32M864 680h32M128 681h32M864 681h32M128 682h32M864 682h32M128 683h32M864 683h32M128 684h32M864 684h32M128 685h32M864 685h32M128 686h32M864 686h32M128 687h32M864 687h32M128 688h32M864 688h32M128 689h32M864 689h32M128 690h32M864 690h32M128 691h32M864 691h32M128 692h32M864 692h32M128 693h32M864 693h32M128 694h32M864 694h32M128 695h32M864 695h32M128 696h32M864 696h32M128 697h32M864 697h32M128 698h32M864 698h32M128 699h32M864 699h32M128 700h32M864 700h32M128 701h32M864 701h32M128 702h32M864 702h32M128 703h32M864 703h32M128 704h32M832 704h64M128 705h32M832 705h64M128 706h32M832 706h64M128 707h32M832 707h64M128 708h32M832 708h64M128 709h32M832 709h64M128 710h32M832 710h64M128 711h32M832 711h64M128 712h32M832 712h64M128 713h32M832 713h64M128 714h32M832 714h64M128 715h32M832 715h64M128 716h32M832 716h64M128 717h32M832 717h64M128 718h32M832 718h64M128 719h32M832 719h64M128 720h32M832 720h64M128 721h32M832 721h64M128 722h32M832 722h64M128 723h32M832 723h64M128 724h32M832 724h64M128 725h32M832 725h64M128 726h32M832 726h64M128 727h32M832 727h64M128 728h32M832 728h64M128 729h32M832 729h64M128 730h32M832 730h64M128 731h32M832 731h64M128 732h32M832 732h64M128 733h32M832 733h64M128 734h32M832 734h64M128 735h32M832 735h64M160 736h32M800 736h64M160 737h32M800 737h64M160 738h32M800 738h64M160 739h32M800 739h64M160 740h32M800 740h64M160 741h32M800 741h64M160 742h32M800 742h64M160 743h32M800 743h64M160 744h32M800 744h64M160 745h32M800 745h64M160 746h32M800 746h64M160 747h32M800 747h64M160 748h32M800 748h64M160 749h32M800 749h64M160 750h32M800 750h64M160 751h32M800 751h64M160 752h32M800 752h64M160 753h32M800 753h64M160 754h32M800 754h64M160 755h32M800 755h64M160 756h32M800 756h64M160 757h32M800 757h64M160 758h32M800 758h64M160 759h32M800 759h64M160 760h32M800 760h64M160 761h32M800 761h64M160 762h32M800 762h64M160 763h32M800 763h64M160 764h32M800 764h64M160 765h32M800 765h64M160 766h32M800 766h64M160 767h32M800 767h64M192 768h64M768 768h64M192 769h64M768 769h64M192 770h64M768 770h64M192 771h64M768 771h64M192 772h64M768 772h64M192 773h64M768 773h64M192 774h64M768 774h64M192 775h64M768 775h64M192 776h64M768 776h64M192 777h64M768 777h64M192 778h64M768 778h64M192 779h64M768 779h64M192 780h64M768 780h64M192 781h64M768 781h64M192 782h64M768 782h64M192 783h64M768 783h64M192 784h64M768 784h64M192 785h64M768 785h64M192 786h64M768 786h64M192 787h64M768 787h64M192 788h64M768 788h64M192 789h64M768 789h64M192 790h64M768 790h64M192 791h64M768 791h64M192 792h64M768 792h64M192 793h64M768 793h64M192 794h64M768 794h64M192 795h64M768 795h64M192 796h64M768 796h64M192 797h64M768 797h64M192 798h64M768 798h64M192 799h64M768 799h64M224 800h64M736 800h64M224 801h64M736 801h64M224 802h64M736 802h64M224 803h64M736 803h64M224 804h64M736 804h64M224 805h64M736 805h64M224 806h64M736 806h64M224 807h64M736 807h64M224 808h64M736 808h64M224 809h64M736 809h64M224 810h64M736 810h64M224 811h64M736 811h64M224 812h64M736 812h64M224 813h64M736 813h64M224 814h64M736 814h64M224 815h64M736 815h64M224 816h64M736 816h64M224 817h64M736 817h64M224 818h64M736 818h64M224 819h64M736 819h64M224 820h64M736 820h64M224 821h64M736 821h64M224 822h64M736 822h64M224 823h64M736 823h64M224 824h64M736 824h64M224 825h64M736 825h64M224 826h64M736 826h64M224 827h64M736 827h64M224 828h64M736 828h64M224 829h64M736 829h64M224 830h64M736 830h64M224 831h64M736 831h64M288 832h64M672 832h64M288 833h64M672 833h64M288 834h64M672 834h64M288 835h64M672 835h64M288 836h64M672 836h64M288 837h64M672 837h64M288 838h64M672 838h64M288 839h64M672 839h64M288 840h64M672 840h64M288 841h64M672 841h64M288 842h64M672 842h64M288 843h64M672 843h64M288 844h64M672 844h64M288 845h64M672 845h64M288 846h64M672 846h64M288 847h64M672 847h64M288 848h64M672 848h64M288 849h64M672 849h64M288 850h64M672 850h64M288 851h64M672 851h64M288 852h64M672 852h64M288 853h64M672 853h64M288 854h64M672 854h64M288 855h64M672 855h64M288 856h64M672 856h64M288 857h64M672 857h64M288 858h64M672 858h64M288 859h64M672 859h64M288 860h64M672 860h64M288 861h64M672 861h64M288 862h64M672 862h64M288 863h64M672 863h64M352 864h320M352 865h320M352 866h320M352 867h320M352 868h320M352 869h320M352 870h320M352 871h320M352 872h320M352 873h320M352 874h320M352 875h320M352 876h320M352 877h320M352 878h320M352 879h320M352 880h320M352 881h320M352 882h320M352 883h320M352 884h320M352 885h320M352 886h320M352 887h320M352 888h320M352 889h320M352 890h320M352 891h320M352 892h320M352 893h320M352 894h320M352 895h320" />
<path stroke="#267300" d="M320 96h128M320 97h128M320 98h128M320 99h128M320 100h128M320 101h128M320 102h128M320 103h128M320 104h128M320 105h128M320 106h128M320 107h128M320 108h128M320 109h128M320 110h128M320 111h128M320 112h128M320 113h128M320 114h128M320 115h128M320 116h128M320 117h128M320 118h128M320 119h128M320 120h128M320 121h128M320 122h128M320 123h128M320 124h128M320 125h128M320 126h128M320 127h128M288 128h32M448 128h32M640 128h32M288 129h32M448 129h32M640 129h32M288 130h32M448 130h32M640 130h32M288 131h32M448 131h32M640 131h32M288 132h32M448 132h32M640 132h32M288 133h32M448 133h32M640 133h32M288 134h32M448 134h32M640 134h32M288 135h32M448 135h32M640 135h32M288 136h32M448 136h32M640 136h32M288 137h32M448 137h32M640 137h32M288 138h32M448 138h32M640 138h32M288 139h32M448 139h32M640 139h32M288 140h32M448 140h32M640 140h32M288 141h32M448 141h32M640 141h32M288 142h32M448 142h32M640 142h32M288 143h32M448 143h32M640 143h32M288 144h32M448 144h32M640 144h32M288 145h32M448 145h32M640 145h32M288 146h32M448 146h32M640 146h32M288 147h32M448 147h32M640 147h32M288 148h32M448 148h32M640 148h32M288 149h32M448 149h32M640 149h32M288 150h32M448 150h32M640 150h32M288 151h32M448 151h32M640 151h32M288 152h32M448 152h32M640 152h32M288 153h32M448 153h32M640 153h32M288 154h32M448 154h32M640 154h32M288 155h32M448 155h32M640 155h32M288 156h32M448 156h32M640 156h32M288 157h32M448 157h32M640 157h32M288 158h32M448 158h32M640 158h32M288 159h32M448 159h32M640 159h32M256 160h32M320 160h32M480 160h64M608 160h64M256 161h32M320 161h32M480 161h64M608 161h64M256 162h32M320 162h32M480 162h64M608 162h64M256 163h32M320 163h32M480 163h64M608 163h64M256 164h32M320 164h32M480 164h64M608 164h64M256 165h32M320 165h32M480 165h64M608 165h64M256 166h32M320 166h32M480 166h64M608 166h64M256 167h32M320 167h32M480 167h64M608 167h64M256 168h32M320 168h32M480 168h64M608 168h64M256 169h32M320 169h32M480 169h64M608 169h64M256 170h32M320 170h32M480 170h64M608 170h64M256 171h32M320 171h32M480 171h64M608 171h64M256 172h32M320 172h32M480 172h64M608 172h64M256 173h32M320 173h32M480 173h64M608 173h64M256 174h32M320 174h32M480 174h64M608 174h64M256 175h32M320 175h32M480 175h64M608 175h64M256 176h32M320 176h32M480 176h64M608 176h64M256 177h32M320 177h32M480 177h64M608 177h64M256 178h32M320 178h32M480 178h64M608 178h64M256 179h32M320 179h32M480 179h64M608 179h64M256 180h32M320 180h32M480 180h64M608 180h64M256 181h32M320 181h32M480 181h64M608 181h64M256 182h32M320 182h32M480 182h64M608 182h64M256 183h32M320 183h32M480 183h64M608 183h64M256 184h32M320 184h32M480 184h64M608 184h64M256 185h32M320 185h32M480 185h64M608 185h64M256 186h32M320 186h32M480 186h64M608 186h64M256 187h32M320 187h32M480 187h64M608 187h64M256 188h32M320 188h32M480 188h64M608 188h64M256 189h32M320 189h32M480 189h64M608 189h64M256 190h32M320 190h32M480 190h64M608 190h64M256 191h32M320 191h32M480 191h64M608 191h64M352 192h32M576 192h32M352 193h32M576 193h32M352 194h32M576 194h32M352 195h32M576 195h32M352 196h32M576 196h32M352 197h32M576 197h32M352 198h32M576 198h32M352 199h32M576 199h32M352 200h32M576 200h32M352 201h32M576 201h32M352 202h32M576 202h32M352 203h32M576 203h32M352 204h32M576 204h32M352 205h32M576 205h32M352 206h32M576 206h32M352 207h32M576 207h32M352 208h32M576 208h32M352 209h32M576 209h32M352 210h32M576 210h32M352 211h32M576 211h32M352 212h32M576 212h32M352 213h32M576 213h32M352 214h32M576 214h32M352 215h32M576 215h32M352 216h32M576 216h32M352 217h32M576 217h32M352 218h32M576 218h32M352 219h32M576 219h32M352 220h32M576 220h32M352 221h32M576 221h32M352 222h32M576 222h32M352 223h32M576 223h32M384 224h224M384 225h224M384 226h224M384 227h224M384 228h224M384 229h224M384 230h224M384 231h224M384 232h224M384 233h224M384 234h224M384 235h224M384 236h224M384 237h224M384 238h224M384 239h224M384 240h224M384 241h224M384 242h224M384 243h224M384 244h224M384 245h224M384 246h224M384 247h224M384 248h224M384 249h224M384 250h224M384 251h224M384 252h224M384 253h224M384 254h224M384 255h224" />
<path stroke="#40c100" d="M320 128h128M608 128h32M320 129h128M608 129h32M320 130h128M608 130h32M320 131h128M608 131h32M320 132h128M608 132h32M320 133h128M608 133h32M320 134h128M608 134h32M320 135h128M608 135h32M320 136h128M608 136h32M320 137h128M608 137h32M320 138h128M608 138h32M320 139h128M608 139h32M320 140h128M608 140h32M320 141h128M608 141h32M320 142h128M608 142h32M320 143h128M608 143h32M320 144h128M608 144h32M320 145h128M608 145h32M320 146h128M608 146h32M320 147h128M608 147h32M320 148h128M608 148h32M320 149h128M608 149h32M320 150h128M608 150h32M320 151h128M608 151h32M320 152h128M608 152h32M320 153h128M608 153h32M320 154h128M608 154h32M320 155h128M608 155h32M320 156h128M608 156h32M320 157h128M608 157h32M320 158h128M608 158h32M320 159h128M608 159h32M352 160h128M352 161h128M352 162h128M352 163h128M352 164h128M352 165h128M352 166h128M352 167h128M352 168h128M352 169h128M352 170h128M352 171h128M352 172h128M352 173h128M352 174h128M352 175h128M352 176h128M352 177h128M352 178h128M352 179h128M352 180h128M352 181h128M352 182h128M352 183h128M352 184h128M352 185h128M352 186h128M352 187h128M352 188h128M352 189h128M352 190h128M352 191h128M384 192h192M384 193h192M384 194h192M384 195h192M384 196h192M384 197h192M384 198h192M384 199h192M384 200h192M384 201h192M384 202h192M384 203h192M384 204h192M384 205h192M384 206h192M384 207h192M384 208h192M384 209h192M384 210h192M384 211h192M384 212h192M384 213h192M384 214h192M384 215h192M384 216h192M384 217h192M384 218h192M384 219h192M384 220h192M384 221h192M384 222h192M384 223h192" />
<path stroke="#6d2323" d="M480 256h64M480 257h64M480 258h64M480 259h64M480 260h64M480 261h64M480 262h64M480 263h64M480 264h64M480 265h64M480 266h64M480 267h64M480 268h64M480 269h64M480 270h64M480 271h64M480 272h64M480 273h64M480 274h64M480 275h64M480 276h64M480 277h64M480 278h64M480 279h64M480 280h64M480 281h64M480 282h64M480 283h64M480 284h64M480 285h64M480 286h64M480 287h64M480 288h64M480 289h64M480 290h64M480 291h64M480 292h64M480 293h64M480 294h64M480 295h64M480 296h64M480 297h64M480 298h64M480 299h64M480 300h64M480 301h64M480 302h64M480 303h64M480 304h64M480 305h64M480 306h64M480 307h64M480 308h64M480 309h64M480 310h64M480 311h64M480 312h64M480 313h64M480 314h64M480 315h64M480 316h64M480 317h64M480 318h64M480 319h64M480 320h64M480 321h64M480 322h64M480 323h64M480 324h64M480 325h64M480 326h64M480 327h64M480 328h64M480 329h64M480 330h64M480 331h64M480 332h64M480 333h64M480 334h64M480 335h64M480 336h64M480 337h64M480 338h64M480 339h64M480 340h64M480 341h64M480 342h64M480 343h64M480 344h64M480 345h64M480 346h64M480 347h64M480 348h64M480 349h64M480 350h64M480 351h64M480 352h64M480 353h64M480 354h64M480 355h64M480 356h64M480 357h64M480 358h64M480 359h64M480 360h64M480 361h64M480 362h64M480 363h64M480 364h64M480 365h64M480 366h64M480 367h64M480 368h64M480 369h64M480 370h64M480 371h64M480 372h64M480 373h64M480 374h64M480 375h64M480 376h64M480 377h64M480 378h64M480 379h64M480 380h64M480 381h64M480 382h64M480 383h64M480 384h64M480 385h64M480 386h64M480 387h64M480 388h64M480 389h64M480 390h64M480 391h64M480 392h64M480 393h64M480 394h64M480 395h64M480 396h64M480 397h64M480 398h64M480 399h64M480 400h64M480 401h64M480 402h64M480 403h64M480 404h64M480 405h64M480 406h64M480 407h64M480 408h64M480 409h64M480 410h64M480 411h64M480 412h64M480 413h64M480 414h64M480 415h64" />
<path stroke="#c30a0a" d="M352 288h128M544 288h96M352 289h128M544 289h96M352 290h128M544 290h96M352 291h128M544 291h96M352 292h128M544 292h96M352 293h128M544 293h96M352 294h128M544 294h96M352 295h128M544 295h96M352 296h128M544 296h96M352 297h128M544 297h96M352 298h128M544 298h96M352 299h128M544 299h96M352 300h128M544 300h96M352 301h128M544 301h96M352 302h128M544 302h96M352 303h128M544 303h96M352 304h128M544 304h96M352 305h128M544 305h96M352 306h128M544 306h96M352 307h128M544 307h96M352 308h128M544 308h96M352 309h128M544 309h96M352 310h128M544 310h96M352 311h128M544 311h96M352 312h128M544 312h96M352 313h128M544 313h96M352 314h128M544 314h96M352 315h128M544 315h96M352 316h128M544 316h96M352 317h128M544 317h96M352 318h128M544 318h96M352 319h128M544 319h96M288 320h128M608 320h128M288 321h128M608 321h128M288 322h128M608 322h128M288 323h128M608 323h128M288 324h128M608 324h128M288 325h128M608 325h128M288 326h128M608 326h128M288 327h128M608 327h128M288 328h128M608 328h128M288 329h128M608 329h128M288 330h128M608 330h128M288 331h128M608 331h128M288 332h128M608 332h128M288 333h128M608 333h128M288 334h128M608 334h128M288 335h128M608 335h128M288 336h128M608 336h128M288 337h128M608 337h128M288 338h128M608 338h128M288 339h128M608 339h128M288 340h128M608 340h128M288 341h128M608 341h128M288 342h128M608 342h128M288 343h128M608 343h128M288 344h128M608 344h128M288 345h128M608 345h128M288 346h128M608 346h128M288 347h128M608 347h128M288 348h128M608 348h128M288 349h128M608 349h128M288 350h128M608 350h128M288 351h128M608 351h128M256 352h96M672 352h128M256 353h96M672 353h128M256 354h96M672 354h128M256 355h96M672 355h128M256 356h96M672 356h128M256 357h96M672 357h128M256 358h96M672 358h128M256 359h96M672 359h128M256 360h96M672 360h128M256 361h96M672 361h128M256 362h96M672 362h128M256 363h96M672 363h128M256 364h96M672 364h128M256 365h96M672 365h128M256 366h96M672 366h128M256 367h96M672 367h128M256 368h96M672 368h128M256 369h96M672 369h128M256 370h96M672 370h128M256 371h96M672 371h128M256 372h96M672 372h128M256 373h96M672 373h128M256 374h96M672 374h128M256 375h96M672 375h128M256 376h96M672 376h128M256 377h96M672 377h128M256 378h96M672 378h128M256 379h96M672 379h128M256 380h96M672 380h128M256 381h96M672 381h128M256 382h96M672 382h128M256 383h96M672 383h128M224 384h64M736 384h64M224 385h64M736 385h64M224 386h64M736 386h64M224 387h64M736 387h64M224 388h64M736 388h64M224 389h64M736 389h64M224 390h64M736 390h64M224 391h64M736 391h64M224 392h64M736 392h64M224 393h64M736 393h64M224 394h64M736 394h64M224 395h64M736 395h64M224 396h64M736 396h64M224 397h64M736 397h64M224 398h64M736 398h64M224 399h64M736 399h64M224 400h64M736 400h64M224 401h64M736 401h64M224 402h64M736 402h64M224 403h64M736 403h64M224 404h64M736 404h64M224 405h64M736 405h64M224 406h64M736 406h64M224 407h64M736 407h64M224 408h64M736 408h64M224 409h64M736 409h64M224 410h64M736 410h64M224 411h64M736 411h64M224 412h64M736 412h64M224 413h64M736 413h64M224 414h64M736 414h64M224 415h64M736 415h64M192 416h64M768 416h64M192 417h64M768 417h64M192 418h64M768 418h64M192 419h64M768 419h64M192 420h64M768 420h64M192 421h64M768 421h64M192 422h64M768 422h64M192 423h64M768 423h64M192 424h64M768 424h64M192 425h64M768 425h64M192 426h64M768 426h64M192 427h64M768 427h64M192 428h64M768 428h64M192 429h64M768 429h64M192 430h64M768 430h64M192 431h64M768 431h64M192 432h64M768 432h64M192 433h64M768 433h64M192 434h64M768 434h64M192 435h64M768 435h64M192 436h64M768 436h64M192 437h64M768 437h64M192 438h64M768 438h64M192 439h64M768 439h64M192 440h64M768 440h64M192 441h64M768 441h64M192 442h64M768 442h64M192 443h64M768 443h64M192 444h64M768 444h64M192 445h64M768 445h64M192 446h64M768 446h64M192 447h64M768 447h64M160 448h64M800 448h64M160 449h64M800 449h64M160 450h64M800 450h64M160 451h64M800 451h64M160 452h64M800 452h64M160 453h64M800 453h64M160 454h64M800 454h64M160 455h64M800 455h64M160 456h64M800 456h64M160 457h64M800 457h64M160 458h64M800 458h64M160 459h64M800 459h64M160 460h64M800 460h64M160 461h64M800 461h64M160 462h64M800 462h64M160 463h64M800 463h64M160 464h64M800 464h64M160 465h64M800 465h64M160 466h64M800 466h64M160 467h64M800 467h64M160 468h64M800 468h64M160 469h64M800 469h64M160 470h64M800 470h64M160 471h64M800 471h64M160 472h64M800 472h64M160 473h64M800 473h64M160 474h64M800 474h64M160 475h64M800 475h64M160 476h64M800 476h64M160 477h64M800 477h64M160 478h64M800 478h64M160 479h64M800 479h64M160 480h32M832 480h32M160 481h32M832 481h32M160 482h32M832 482h32M160 483h32M832 483h32M160 484h32M832 484h32M160 485h32M832 485h32M160 486h32M832 486h32M160 487h32M832 487h32M160 488h32M832 488h32M160 489h32M832 489h32M160 490h32M832 490h32M160 491h32M832 491h32M160 492h32M832 492h32M160 493h32M832 493h32M160 494h32M832 494h32M160 495h32M832 495h32M160 496h32M832 496h32M160 497h32M832 497h32M160 498h32M832 498h32M160 499h32M832 499h32M160 500h32M832 500h32M160 501h32M832 501h32M160 502h32M832 502h32M160 503h32M832 503h32M160 504h32M832 504h32M160 505h32M832 505h32M160 506h32M832 506h32M160 507h32M832 507h32M160 508h32M832 508h32M160 509h32M832 509h32M160 510h32M832 510h32M160 511h32M832 511h32M160 512h32M832 512h32M160 513h32M832 513h32M160 514h32M832 514h32M160 515h32M832 515h32M160 516h32M832 516h32M160 517h32M832 517h32M160 518h32M832 518h32M160 519h32M832 519h32M160 520h32M832 520h32M160 521h32M832 521h32M160 522h32M832 522h32M160 523h32M832 523h32M160 524h32M832 524h32M160 525h32M832 525h32M160 526h32M832 526h32M160 527h32M832 527h32M160 528h32M832 528h32M160 529h32M832 529h32M160 530h32M832 530h32M160 531h32M832 531h32M160 532h32M832 532h32M160 533h32M832 533h32M160 534h32M832 534h32M160 535h32M832 535h32M160 536h32M832 536h32M160 537h32M832 537h32M160 538h32M832 538h32M160 539h32M832 539h32M160 540h32M832 540h32M160 541h32M832 541h32M160 542h32M832 542h32M160 543h32M832 543h32M160 544h32M832 544h32M160 545h32M832 545h32M160 546h32M832 546h32M160 547h32M832 547h32M160 548h32M832 548h32M160 549h32M832 549h32M160 550h32M832 550h32M160 551h32M832 551h32M160 552h32M832 552h32M160 553h32M832 553h32M160 554h32M832 554h32M160 555h32M832 555h32M160 556h32M832 556h32M160 557h32M832 557h32M160 558h32M832 558h32M160 559h32M832 559h32M160 560h32M832 560h32M160 561h32M832 561h32M160 562h32M832 562h32M160 563h32M832 563h32M160 564h32M832 564h32M160 565h32M832 565h32M160 566h32M832 566h32M160 567h32M832 567h32M160 568h32M832 568h32M160 569h32M832 569h32M160 570h32M832 570h32M160 571h32M832 571h32M160 572h32M832 572h32M160 573h32M832 573h32M160 574h32M832 574h32M160 575h32M832 575h32M160 576h32M832 576h32M160 577h32M832 577h32M160 578h32M832 578h32M160 579h32M832 579h32M160 580h32M832 580h32M160 581h32M832 581h32M160 582h32M832 582h32M160 583h32M832 583h32M160 584h32M832 584h32M160 585h32M832 585h32M160 586h32M832 586h32M160 587h32M832 587h32M160 588h32M832 588h32M160 589h32M832 589h32M160 590h32M832 590h32M160 591h32M832 591h32M160 592h32M832 592h32M160 593h32M832 593h32M160 594h32M832 594h32M160 595h32M832 595h32M160 596h32M832 596h32M160 597h32M832 597h32M160 598h32M832 598h32M160 599h32M832 599h32M160 600h32M832 600h32M160 601h32M832 601h32M160 602h32M832 602h32M160 603h32M832 603h32M160 604h32M832 604h32M160 605h32M832 605h32M160 606h32M832 606h32M160 607h32M832 607h32M160 608h32M832 608h32M160 609h32M832 609h32M160 610h32M832 610h32M160 611h32M832 611h32M160 612h32M832 612h32M160 613h32M832 613h32M160 614h32M832 614h32M160 615h32M832 615h32M160 616h32M832 616h32M160 617h32M832 617h32M160 618h32M832 618h32M160 619h32M832 619h32M160 620h32M832 620h32M160 621h32M832 621h32M160 622h32M832 622h32M160 623h32M832 623h32M160 624h32M832 624h32M160 625h32M832 625h32M160 626h32M832 626h32M160 627h32M832 627h32M160 628h32M832 628h32M160 629h32M832 629h32M160 630h32M832 630h32M160 631h32M832 631h32M160 632h32M832 632h32M160 633h32M832 633h32M160 634h32M832 634h32M160 635h32M832 635h32M160 636h32M832 636h32M160 637h32M832 637h32M160 638h32M832 638h32M160 639h32M832 639h32M160 640h32M832 640h32M160 641h32M832 641h32M160 642h32M832 642h32M160 643h32M832 643h32M160 644h32M832 644h32M160 645h32M832 645h32M160 646h32M832 646h32M160 647h32M832 647h32M160 648h32M832 648h32M160 649h32M832 649h32M160 650h32M832 650h32M160 651h32M832 651h32M160 652h32M832 652h32M160 653h32M832 653h32M160 654h32M832 654h32M160 655h32M832 655h32M160 656h32M832 656h32M160 657h32M832 657h32M160 658h32M832 658h32M160 659h32M832 659h32M160 660h32M832 660h32M160 661h32M832 661h32M160 662h32M832 662h32M160 663h32M832 663h32M160 664h32M832 664h32M160 665h32M832 665h32M160 666h32M832 666h32M160 667h32M832 667h32M160 668h32M832 668h32M160 669h32M832 669h32M160 670h32M832 670h32M160 671h32M832 671h32M160 672h64M800 672h64M160 673h64M800 673h64M160 674h64M800 674h64M160 675h64M800 675h64M160 676h64M800 676h64M160 677h64M800 677h64M160 678h64M800 678h64M160 679h64M800 679h64M160 680h64M800 680h64M160 681h64M800 681h64M160 682h64M800 682h64M160 683h64M800 683h64M160 684h64M800 684h64M160 685h64M800 685h64M160 686h64M800 686h64M160 687h64M800 687h64M160 688h64M800 688h64M160 689h64M800 689h64M160 690h64M800 690h64M160 691h64M800 691h64M160 692h64M800 692h64M160 693h64M800 693h64M160 694h64M800 694h64M160 695h64M800 695h64M160 696h64M800 696h64M160 697h64M800 697h64M160 698h64M800 698h64M160 699h64M800 699h64M160 700h64M800 700h64M160 701h64M800 701h64M160 702h64M800 702h64M160 703h64M800 703h64M160 704h96M768 704h64M160 705h96M768 705h64M160 706h96M768 706h64M160 707h96M768 707h64M160 708h96M768 708h64M160 709h96M768 709h64M160 710h96M768 710h64M160 711h96M768 711h64M160 712h96M768 712h64M160 713h96M768 713h64M160 714h96M768 714h64M160 715h96M768 715h64M160 716h96M768 716h64M160 717h96M768 717h64M160 718h96M768 718h64M160 719h96M768 719h64M160 720h96M768 720h64M160 721h96M768 721h64M160 722h96M768 722h64M160 723h96M768 723h64M160 724h96M768 724h64M160 725h96M768 725h64M160 726h96M768 726h64M160 727h96M768 727h64M160 728h96M768 728h64M160 729h96M768 729h64M160 730h96M768 730h64M160 731h96M768 731h64M160 732h96M768 732h64M160 733h96M768 733h64M160 734h96M768 734h64M160 735h96M768 735h64M192 736h96M736 736h64M192 737h96M736 737h64M192 738h96M736 738h64M192 739h96M736 739h64M192 740h96M736 740h64M192 741h96M736 741h64M192 742h96M736 742h64M192 743h96M736 743h64M192 744h96M736 744h64M192 745h96M736 745h64M192 746h96M736 746h64M192 747h96M736 747h64M192 748h96M736 748h64M192 749h96M736 749h64M192 750h96M736 750h64M192 751h96M736 751h64M192 752h96M736 752h64M192 753h96M736 753h64M192 754h96M736 754h64M192 755h96M736 755h64M192 756h96M736 756h64M192 757h96M736 757h64M192 758h96M736 758h64M192 759h96M736 759h64M192 760h96M736 760h64M192 761h96M736 761h64M192 762h96M736 762h64M192 763h96M736 763h64M192 764h96M736 764h64M192 765h96M736 765h64M192 766h96M736 766h64M192 767h96M736 767h64M256 768h96M672 768h96M256 769h96M672 769h96M256 770h96M672 770h96M256 771h96M672 771h96M256 772h96M672 772h96M256 773h96M672 773h96M256 774h96M672 774h96M256 775h96M672 775h96M256 776h96M672 776h96M256 777h96M672 777h96M256 778h96M672 778h96M256 779h96M672 779h96M256 780h96M672 780h96M256 781h96M672 781h96M256 782h96M672 782h96M256 783h96M672 783h96M256 784h96M672 784h96M256 785h96M672 785h96M256 786h96M672 786h96M256 787h96M672 787h96M256 788h96M672 788h96M256 789h96M672 789h96M256 790h96M672 790h96M256 791h96M672 791h96M256 792h96M672 792h96M256 793h96M672 793h96M256 794h96M672 794h96M256 795h96M672 795h96M256 796h96M672 796h96M256 797h96M672 797h96M256 798h96M672 798h96M256 799h96M672 799h96M288 800h128M608 800h128M288 801h128M608 801h128M288 802h128M608 802h128M288 803h128M608 803h128M288 804h128M608 804h128M288 805h128M608 805h128M288 806h128M608 806h128M288 807h128M608 807h128M288 808h128M608 808h128M288 809h128M608 809h128M288 810h128M608 810h128M288 811h128M608 811h128M288 812h128M608 812h128M288 813h128M608 813h128M288 814h128M608 814h128M288 815h128M608 815h128M288 816h128M608 816h128M288 817h128M608 817h128M288 818h128M608 818h128M288 819h128M608 819h128M288 820h128M608 820h128M288 821h128M608 821h128M288 822h128M608 822h128M288 823h128M608 823h128M288 824h128M608 824h128M288 825h128M608 825h128M288 826h128M608 826h128M288 827h128M608 827h128M288 828h128M608 828h128M288 829h128M608 829h128M288 830h128M608 830h128M288 831h128M608 831h128M352 832h320M352 833h320M352 834h320M352 835h320M352 836h320M352 837h320M352 838h320M352 839h320M352 840h320M352 841h320M352 842h320M352 843h320M352 844h320M352 845h320M352 846h320M352 847h320M352 848h320M352 849h320M352 850h320M352 851h320M352 852h320M352 853h320M352 854h320M352 855h320M352 856h320M352 857h320M352 858h320M352 859h320M352 860h320M352 861h320M352 862h320M352 863h320" />
<path stroke="#e11d1d" d="M416 320h64M544 320h64M416 321h64M544 321h64M416 322h64M544 322h64M416 323h64M544 323h64M416 324h64M544 324h64M416 325h64M544 325h64M416 326h64M544 326h64M416 327h64M544 327h64M416 328h64M544 328h64M416 329h64M544 329h64M416 330h64M544 330h64M416 331h64M544 331h64M416 332h64M544 332h64M416 333h64M544 333h64M416 334h64M544 334h64M416 335h64M544 335h64M416 336h64M544 336h64M416 337h64M544 337h64M416 338h64M544 338h64M416 339h64M544 339h64M416 340h64M544 340h64M416 341h64M544 341h64M416 342h64M544 342h64M416 343h64M544 343h64M416 344h64M544 344h64M416 345h64M544 345h64M416 346h64M544 346h64M416 347h64M544 347h64M416 348h64M544 348h64M416 349h64M544 349h64M416 350h64M544 350h64M416 351h64M544 351h64M352 352h64M608 352h64M352 353h64M608 353h64M352 354h64M608 354h64M352 355h64M608 355h64M352 356h64M608 356h64M352 357h64M608 357h64M352 358h64M608 358h64M352 359h64M608 359h64M352 360h64M608 360h64M352 361h64M608 361h64M352 362h64M608 362h64M352 363h64M608 363h64M352 364h64M608 364h64M352 365h64M608 365h64M352 366h64M608 366h64M352 367h64M608 367h64M352 368h64M608 368h64M352 369h64M608 369h64M352 370h64M608 370h64M352 371h64M608 371h64M352 372h64M608 372h64M352 373h64M608 373h64M352 374h64M608 374h64M352 375h64M608 375h64M352 376h64M608 376h64M352 377h64M608 377h64M352 378h64M608 378h64M352 379h64M608 379h64M352 380h64M608 380h64M352 381h64M608 381h64M352 382h64M608 382h64M352 383h64M608 383h64M288 384h32M704 384h32M288 385h32M704 385h32M288 386h32M704 386h32M288 387h32M704 387h32M288 388h32M704 388h32M288 389h32M704 389h32M288 390h32M704 390h32M288 391h32M704 391h32M288 392h32M704 392h32M288 393h32M704 393h32M288 394h32M704 394h32M288 395h32M704 395h32M288 396h32M704 396h32M288 397h32M704 397h32M288 398h32M704 398h32M288 399h32M704 399h32M288 400h32M704 400h32M288 401h32M704 401h32M288 402h32M704 402h32M288 403h32M704 403h32M288 404h32M704 404h32M288 405h32M704 405h32M288 406h32M704 406h32M288 407h32M704 407h32M288 408h32M704 408h32M288 409h32M704 409h32M288 410h32M704 410h32M288 411h32M704 411h32M288 412h32M704 412h32M288 413h32M704 413h32M288 414h32M704 414h32M288 415h32M704 415h32M256 416h32M736 416h32M256 417h32M736 417h32M256 418h32M736 418h32M256 419h32M736 419h32M256 420h32M736 420h32M256 421h32M736 421h32M256 422h32M736 422h32M256 423h32M736 423h32M256 424h32M736 424h32M256 425h32M736 425h32M256 426h32M736 426h32M256 427h32M736 427h32M256 428h32M736 428h32M256 429h32M736 429h32M256 430h32M736 430h32M256 431h32M736 431h32M256 432h32M736 432h32M256 433h32M736 433h32M256 434h32M736 434h32M256 435h32M736 435h32M256 436h32M736 436h32M256 437h32M736 437h32M256 438h32M736 438h32M256 439h32M736 439h32M256 440h32M736 440h32M256 441h32M736 441h32M256 442h32M736 442h32M256 443h32M736 443h32M256 444h32M736 444h32M256 445h32M736 445h32M256 446h32M736 446h32M256 447h32M736 447h32M224 448h32M768 448h32M224 449h32M768 449h32M224 450h32M768 450h32M224 451h32M768 451h32M224 452h32M768 452h32M224 453h32M768 453h32M224 454h32M768 454h32M224 455h32M768 455h32M224 456h32M768 456h32M224 457h32M768 457h32M224 458h32M768 458h32M224 459h32M768 459h32M224 460h32M768 460h32M224 461h32M768 461h32M224 462h32M768 462h32M224 463h32M768 463h32M224 464h32M768 464h32M224 465h32M768 465h32M224 466h32M768 466h32M224 467h32M768 467h32M224 468h32M768 468h32M224 469h32M768 469h32M224 470h32M768 470h32M224 471h32M768 471h32M224 472h32M768 472h32M224 473h32M768 473h32M224 474h32M768 474h32M224 475h32M768 475h32M224 476h32M768 476h32M224 477h32M768 477h32M224 478h32M768 478h32M224 479h32M768 479h32M192 480h32M800 480h32M192 481h32M800 481h32M192 482h32M800 482h32M192 483h32M800 483h32M192 484h32M800 484h32M192 485h32M800 485h32M192 486h32M800 486h32M192 487h32M800 487h32M192 488h32M800 488h32M192 489h32M800 489h32M192 490h32M800 490h32M192 491h32M800 491h32M192 492h32M800 492h32M192 493h32M800 493h32M192 494h32M800 494h32M192 495h32M800 495h32M192 496h32M800 496h32M192 497h32M800 497h32M192 498h32M800 498h32M192 499h32M800 499h32M192 500h32M800 500h32M192 501h32M800 501h32M192 502h32M800 502h32M192 503h32M800 503h32M192 504h32M800 504h32M192 505h32M800 505h32M192 506h32M800 506h32M192 507h32M800 507h32M192 508h32M800 508h32M192 509h32M800 509h32M192 510h32M800 510h32M192 511h32M800 511h32M192 512h32M800 512h32M192 513h32M800 513h32M192 514h32M800 514h32M192 515h32M800 515h32M192 516h32M800 516h32M192 517h32M800 517h32M192 518h32M800 518h32M192 519h32M800 519h32M192 520h32M800 520h32M192 521h32M800 521h32M192 522h32M800 522h32M192 523h32M800 523h32M192 524h32M800 524h32M192 525h32M800 525h32M192 526h32M800 526h32M192 527h32M800 527h32M192 528h32M800 528h32M192 529h32M800 529h32M192 530h32M800 530h32M192 531h32M800 531h32M192 532h32M800 532h32M192 533h32M800 533h32M192 534h32M800 534h32M192 535h32M800 535h32M192 536h32M800 536h32M192 537h32M800 537h32M192 538h32M800 538h32M192 539h32M800 539h32M192 540h32M800 540h32M192 541h32M800 541h32M192 542h32M800 542h32M192 543h32M800 543h32M192 544h32M800 544h32M192 545h32M800 545h32M192 546h32M800 546h32M192 547h32M800 547h32M192 548h32M800 548h32M192 549h32M800 549h32M192 550h32M800 550h32M192 551h32M800 551h32M192 552h32M800 552h32M192 553h32M800 553h32M192 554h32M800 554h32M192 555h32M800 555h32M192 556h32M800 556h32M192 557h32M800 557h32M192 558h32M800 558h32M192 559h32M800 559h32M192 560h32M800 560h32M192 561h32M800 561h32M192 562h32M800 562h32M192 563h32M800 563h32M192 564h32M800 564h32M192 565h32M800 565h32M192 566h32M800 566h32M192 567h32M800 567h32M192 568h32M800 568h32M192 569h32M800 569h32M192 570h32M800 570h32M192 571h32M800 571h32M192 572h32M800 572h32M192 573h32M800 573h32M192 574h32M800 574h32M192 575h32M800 575h32M192 576h32M800 576h32M192 577h32M800 577h32M192 578h32M800 578h32M192 579h32M800 579h32M192 580h32M800 580h32M192 581h32M800 581h32M192 582h32M800 582h32M192 583h32M800 583h32M192 584h32M800 584h32M192 585h32M800 585h32M192 586h32M800 586h32M192 587h32M800 587h32M192 588h32M800 588h32M192 589h32M800 589h32M192 590h32M800 590h32M192 591h32M800 591h32M192 592h32M800 592h32M192 593h32M800 593h32M192 594h32M800 594h32M192 595h32M800 595h32M192 596h32M800 596h32M192 597h32M800 597h32M192 598h32M800 598h32M192 599h32M800 599h32M192 600h32M800 600h32M192 601h32M800 601h32M192 602h32M800 602h32M192 603h32M800 603h32M192 604h32M800 604h32M192 605h32M800 605h32M192 606h32M800 606h32M192 607h32M800 607h32M192 608h32M800 608h32M192 609h32M800 609h32M192 610h32M800 610h32M192 611h32M800 611h32M192 612h32M800 612h32M192 613h32M800 613h32M192 614h32M800 614h32M192 615h32M800 615h32M192 616h32M800 616h32M192 617h32M800 617h32M192 618h32M800 618h32M192 619h32M800 619h32M192 620h32M800 620h32M192 621h32M800 621h32M192 622h32M800 622h32M192 623h32M800 623h32M192 624h32M800 624h32M192 625h32M800 625h32M192 626h32M800 626h32M192 627h32M800 627h32M192 628h32M800 628h32M192 629h32M800 629h32M192 630h32M800 630h32M192 631h32M800 631h32M192 632h32M800 632h32M192 633h32M800 633h32M192 634h32M800 634h32M192 635h32M800 635h32M192 636h32M800 636h32M192 637h32M800 637h32M192 638h32M800 638h32M192 639h32M800 639h32M192 640h32M800 640h32M192 641h32M800 641h32M192 642h32M800 642h32M192 643h32M800 643h32M192 644h32M800 644h32M192 645h32M800 645h32M192 646h32M800 646h32M192 647h32M800 647h32M192 648h32M800 648h32M192 649h32M800 649h32M192 650h32M800 650h32M192 651h32M800 651h32M192 652h32M800 652h32M192 653h32M800 653h32M192 654h32M800 654h32M192 655h32M800 655h32M192 656h32M800 656h32M192 657h32M800 657h32M192 658h32M800 658h32M192 659h32M800 659h32M192 660h32M800 660h32M192 661h32M800 661h32M192 662h32M800 662h32M192 663h32M800 663h32M192 664h32M800 664h32M192 665h32M800 665h32M192 666h32M800 666h32M192 667h32M800 667h32M192 668h32M800 668h32M192 669h32M800 669h32M192 670h32M800 670h32M192 671h32M800 671h32M224 672h32M768 672h32M224 673h32M768 673h32M224 674h32M768 674h32M224 675h32M768 675h32M224 676h32M768 676h32M224 677h32M768 677h32M224 678h32M768 678h32M224 679h32M768 679h32M224 680h32M768 680h32M224 681h32M768 681h32M224 682h32M768 682h32M224 683h32M768 683h32M224 684h32M768 684h32M224 685h32M768 685h32M224 686h32M768 686h32M224 687h32M768 687h32M224 688h32M768 688h32M224 689h32M768 689h32M224 690h32M768 690h32M224 691h32M768 691h32M224 692h32M768 692h32M224 693h32M768 693h32M224 694h32M768 694h32M224 695h32M768 695h32M224 696h32M768 696h32M224 697h32M768 697h32M224 698h32M768 698h32M224 699h32M768 699h32M224 700h32M768 700h32M224 701h32M768 701h32M224 702h32M768 702h32M224 703h32M768 703h32M256 704h32M736 704h32M256 705h32M736 705h32M256 706h32M736 706h32M256 707h32M736 707h32M256 708h32M736 708h32M256 709h32M736 709h32M256 710h32M736 710h32M256 711h32M736 711h32M256 712h32M736 712h32M256 713h32M736 713h32M256 714h32M736 714h32M256 715h32M736 715h32M256 716h32M736 716h32M256 717h32M736 717h32M256 718h32M736 718h32M256 719h32M736 719h32M256 720h32M736 720h32M256 721h32M736 721h32M256 722h32M736 722h32M256 723h32M736 723h32M256 724h32M736 724h32M256 725h32M736 725h32M256 726h32M736 726h32M256 727h32M736 727h32M256 728h32M736 728h32M256 729h32M736 729h32M256 730h32M736 730h32M256 731h32M736 731h32M256 732h32M736 732h32M256 733h32M736 733h32M256 734h32M736 734h32M256 735h32M736 735h32M288 736h96M640 736h96M288 737h96M640 737h96M288 738h96M640 738h96M288 739h96M640 739h96M288 740h96M640 740h96M288 741h96M640 741h96M288 742h96M640 742h96M288 743h96M640 743h96M288 744h96M640 744h96M288 745h96M640 745h96M288 746h96M640 746h96M288 747h96M640 747h96M288 748h96M640 748h96M288 749h96M640 749h96M288 750h96M640 750h96M288 751h96M640 751h96M288 752h96M640 752h96M288 753h96M640 753h96M288 754h96M640 754h96M288 755h96M640 755h96M288 756h96M640 756h96M288 757h96M640 757h96M288 758h96M640 758h96M288 759h96M640 759h96M288 760h96M640 760h96M288 761h96M640 761h96M288 762h96M640 762h96M288 763h96M640 763h96M288 764h96M640 764h96M288 765h96M640 765h96M288 766h96M640 766h96M288 767h96M640 767h96M352 768h64M608 768h64M352 769h64M608 769h64M352 770h64M608 770h64M352 771h64M608 771h64M352 772h64M608 772h64M352 773h64M608 773h64M352 774h64M608 774h64M352 775h64M608 775h64M352 776h64M608 776h64M352 777h64M608 777h64M352 778h64M608 778h64M352 779h64M608 779h64M352 780h64M608 780h64M352 781h64M608 781h64M352 782h64M608 782h64M352 783h64M608 783h64M352 784h64M608 784h64M352 785h64M608 785h64M352 786h64M608 786h64M352 787h64M608 787h64M352 788h64M608 788h64M352 789h64M608 789h64M352 790h64M608 790h64M352 791h64M608 791h64M352 792h64M608 792h64M352 793h64M608 793h64M352 794h64M608 794h64M352 795h64M608 795h64M352 796h64M608 796h64M352 797h64M608 797h64M352 798h64M608 798h64M352 799h64M608 799h64M416 800h192M416 801h192M416 802h192M416 803h192M416 804h192M416 805h192M416 806h192M416 807h192M416 808h192M416 809h192M416 810h192M416 811h192M416 812h192M416 813h192M416 814h192M416 815h192M416 816h192M416 817h192M416 818h192M416 819h192M416 820h192M416 821h192M416 822h192M416 823h192M416 824h192M416 825h192M416 826h192M416 827h192M416 828h192M416 829h192M416 830h192M416 831h192" />
<path stroke="#d40000" d="M416 352h64M544 352h64M416 353h64M544 353h64M416 354h64M544 354h64M416 355h64M544 355h64M416 356h64M544 356h64M416 357h64M544 357h64M416 358h64M544 358h64M416 359h64M544 359h64M416 360h64M544 360h64M416 361h64M544 361h64M416 362h64M544 362h64M416 363h64M544 363h64M416 364h64M544 364h64M416 365h64M544 365h64M416 366h64M544 366h64M416 367h64M544 367h64M416 368h64M544 368h64M416 369h64M544 369h64M416 370h64M544 370h64M416 371h64M544 371h64M416 372h64M544 372h64M416 373h64M544 373h64M416 374h64M544 374h64M416 375h64M544 375h64M416 376h64M544 376h64M416 377h64M544 377h64M416 378h64M544 378h64M416 379h64M544 379h64M416 380h64M544 380h64M416 381h64M544 381h64M416 382h64M544 382h64M416 383h64M544 383h64M416 384h64M544 384h64M416 385h64M544 385h64M416 386h64M544 386h64M416 387h64M544 387h64M416 388h64M544 388h64M416 389h64M544 389h64M416 390h64M544 390h64M416 391h64M544 391h64M416 392h64M544 392h64M416 393h64M544 393h64M416 394h64M544 394h64M416 395h64M544 395h64M416 396h64M544 396h64M416 397h64M544 397h64M416 398h64M544 398h64M416 399h64M544 399h64M416 400h64M544 400h64M416 401h64M544 401h64M416 402h64M544 402h64M416 403h64M544 403h64M416 404h64M544 404h64M416 405h64M544 405h64M416 406h64M544 406h64M416 407h64M544 407h64M416 408h64M544 408h64M416 409h64M544 409h64M416 410h64M544 410h64M416 411h64M544 411h64M416 412h64M544 412h64M416 413h64M544 413h64M416 414h64M544 414h64M416 415h64M544 415h64M416 416h192M416 417h192M416 418h192M416 419h192M416 420h192M416 421h192M416 422h192M416 423h192M416 424h192M416 425h192M416 426h192M416 427h192M416 428h192M416 429h192M416 430h192M416 431h192M416 432h192M416 433h192M416 434h192M416 435h192M416 436h192M416 437h192M416 438h192M416 439h192M416 440h192M416 441h192M416 442h192M416 443h192M416 444h192M416 445h192M416 446h192M416 447h192M480 448h64M480 449h64M480 450h64M480 451h64M480 452h64M480 453h64M480 454h64M480 455h64M480 456h64M480 457h64M480 458h64M480 459h64M480 460h64M480 461h64M480 462h64M480 463h64M480 464h64M480 465h64M480 466h64M480 467h64M480 468h64M480 469h64M480 470h64M480 471h64M480 472h64M480 473h64M480 474h64M480 475h64M480 476h64M480 477h64M480 478h64M480 479h64" />
<path stroke="#ff0000" d="M320 384h96M608 384h96M320 385h96M608 385h96M320 386h96M608 386h96M320 387h96M608 387h96M320 388h96M608 388h96M320 389h96M608 389h96M320 390h96M608 390h96M320 391h96M608 391h96M320 392h96M608 392h96M320 393h96M608 393h96M320 394h96M608 394h96M320 395h96M608 395h96M320 396h96M608 396h96M320 397h96M608 397h96M320 398h96M608 398h96M320 399h96M608 399h96M320 400h96M608 400h96M320 401h96M608 401h96M320 402h96M608 402h96M320 403h96M608 403h96M320 404h96M608 404h96M320 405h96M608 405h96M320 406h96M608 406h96M320 407h96M608 407h96M320 408h96M608 408h96M320 409h96M608 409h96M320 410h96M608 410h96M320 411h96M608 411h96M320 412h96M608 412h96M320 413h96M608 413h96M320 414h96M608 414h96M320 415h96M608 415h96M288 416h128M672 416h64M288 417h128M672 417h64M288 418h128M672 418h64M288 419h128M672 419h64M288 420h128M672 420h64M288 421h128M672 421h64M288 422h128M672 422h64M288 423h128M672 423h64M288 424h128M672 424h64M288 425h128M672 425h64M288 426h128M672 426h64M288 427h128M672 427h64M288 428h128M672 428h64M288 429h128M672 429h64M288 430h128M672 430h64M288 431h128M672 431h64M288 432h128M672 432h64M288 433h128M672 433h64M288 434h128M672 434h64M288 435h128M672 435h64M288 436h128M672 436h64M288 437h128M672 437h64M288 438h128M672 438h64M288 439h128M672 439h64M288 440h128M672 440h64M288 441h128M672 441h64M288 442h128M672 442h64M288 443h128M672 443h64M288 444h128M672 444h64M288 445h128M672 445h64M288 446h128M672 446h64M288 447h128M672 447h64M256 448h224M672 448h96M256 449h224M672 449h96M256 450h224M672 450h96M256 451h224M672 451h96M256 452h224M672 452h96M256 453h224M672 453h96M256 454h224M672 454h96M256 455h224M672 455h96M256 456h224M672 456h96M256 457h224M672 457h96M256 458h224M672 458h96M256 459h224M672 459h96M256 460h224M672 460h96M256 461h224M672 461h96M256 462h224M672 462h96M256 463h224M672 463h96M256 464h224M672 464h96M256 465h224M672 465h96M256 466h224M672 466h96M256 467h224M672 467h96M256 468h224M672 468h96M256 469h224M672 469h96M256 470h224M672 470h96M256 471h224M672 471h96M256 472h224M672 472h96M256 473h224M672 473h96M256 474h224M672 474h96M256 475h224M672 475h96M256 476h224M672 476h96M256 477h224M672 477h96M256 478h224M672 478h96M256 479h224M672 479h96M224 480h288M736 480h64M224 481h288M736 481h64M224 482h288M736 482h64M224 483h288M736 483h64M224 484h288M736 484h64M224 485h288M736 485h64M224 486h288M736 486h64M224 487h288M736 487h64M224 488h288M736 488h64M224 489h288M736 489h64M224 490h288M736 490h64M224 491h288M736 491h64M224 492h288M736 492h64M224 493h288M736 493h64M224 494h288M736 494h64M224 495h288M736 495h64M224 496h288M736 496h64M224 497h288M736 497h64M224 498h288M736 498h64M224 499h288M736 499h64M224 500h288M736 500h64M224 501h288M736 501h64M224 502h288M736 502h64M224 503h288M736 503h64M224 504h288M736 504h64M224 505h288M736 505h64M224 506h288M736 506h64M224 507h288M736 507h64M224 508h288M736 508h64M224 509h288M736 509h64M224 510h288M736 510h64M224 511h288M736 511h64M224 512h288M736 512h64M224 513h288M736 513h64M224 514h288M736 514h64M224 515h288M736 515h64M224 516h288M736 516h64M224 517h288M736 517h64M224 518h288M736 518h64M224 519h288M736 519h64M224 520h288M736 520h64M224 521h288M736 521h64M224 522h288M736 522h64M224 523h288M736 523h64M224 524h288M736 524h64M224 525h288M736 525h64M224 526h288M736 526h64M224 527h288M736 527h64M224 528h288M736 528h64M224 529h288M736 529h64M224 530h288M736 530h64M224 531h288M736 531h64M224 532h288M736 532h64M224 533h288M736 533h64M224 534h288M736 534h64M224 535h288M736 535h64M224 536h288M736 536h64M224 537h288M736 537h64M224 538h288M736 538h64M224 539h288M736 539h64M224 540h288M736 540h64M224 541h288M736 541h64M224 542h288M736 542h64M224 543h288M736 543h64M224 544h320M736 544h64M224 545h320M736 545h64M224 546h320M736 546h64M224 547h320M736 547h64M224 548h320M736 548h64M224 549h320M736 549h64M224 550h320M736 550h64M224 551h320M736 551h64M224 552h320M736 552h64M224 553h320M736 553h64M224 554h320M736 554h64M224 555h320M736 555h64M224 556h320M736 556h64M224 557h320M736 557h64M224 558h320M736 558h64M224 559h320M736 559h64M224 560h320M736 560h64M224 561h320M736 561h64M224 562h320M736 562h64M224 563h320M736 563h64M224 564h320M736 564h64M224 565h320M736 565h64M224 566h320M736 566h64M224 567h320M736 567h64M224 568h320M736 568h64M224 569h320M736 569h64M224 570h320M736 570h64M224 571h320M736 571h64M224 572h320M736 572h64M224 573h320M736 573h64M224 574h320M736 574h64M224 575h320M736 575h64M224 576h256M704 576h96M224 577h256M704 577h96M224 578h256M704 578h96M224 579h256M704 579h96M224 580h256M704 580h96M224 581h256M704 581h96M224 582h256M704 582h96M224 583h256M704 583h96M224 584h256M704 584h96M224 585h256M704 585h96M224 586h256M704 586h96M224 587h256M704 587h96M224 588h256M704 588h96M224 589h256M704 589h96M224 590h256M704 590h96M224 591h256M704 591h96M224 592h256M704 592h96M224 593h256M704 593h96M224 594h256M704 594h96M224 595h256M704 595h96M224 596h256M704 596h96M224 597h256M704 597h96M224 598h256M704 598h96M224 599h256M704 599h96M224 600h256M704 600h96M224 601h256M704 601h96M224 602h256M704 602h96M224 603h256M704 603h96M224 604h256M704 604h96M224 605h256M704 605h96M224 606h256M704 606h96M224 607h256M704 607h96M224 608h256M544 608h32M672 608h128M224 609h256M544 609h32M672 609h128M224 610h256M544 610h32M672 610h128M224 611h256M544 611h32M672 611h128M224 612h256M544 612h32M672 612h128M224 613h256M544 613h32M672 613h128M224 614h256M544 614h32M672 614h128M224 615h256M544 615h32M672 615h128M224 616h256M544 616h32M672 616h128M224 617h256M544 617h32M672 617h128M224 618h256M544 618h32M672 618h128M224 619h256M544 619h32M672 619h128M224 620h256M544 620h32M672 620h128M224 621h256M544 621h32M672 621h128M224 622h256M544 622h32M672 622h128M224 623h256M544 623h32M672 623h128M224 624h256M544 624h32M672 624h128M224 625h256M544 625h32M672 625h128M224 626h256M544 626h32M672 626h128M224 627h256M544 627h32M672 627h128M224 628h256M544 628h32M672 628h128M224 629h256M544 629h32M672 629h128M224 630h256M544 630h32M672 630h128M224 631h256M544 631h32M672 631h128M224 632h256M544 632h32M672 632h128M224 633h256M544 633h32M672 633h128M224 634h256M544 634h32M672 634h128M224 635h256M544 635h32M672 635h128M224 636h256M544 636h32M672 636h128M224 637h256M544 637h32M672 637h128M224 638h256M544 638h32M672 638h128M224 639h256M544 639h32M672 639h128M224 640h576M224 641h576M224 642h576M224 643h576M224 644h576M224 645h576M224 646h576M224 647h576M224 648h576M224 649h576M224 650h576M224 651h576M224 652h576M224 653h576M224 654h576M224 655h576M224 656h576M224 657h576M224 658h576M224 659h576M224 660h576M224 661h576M224 662h576M224 663h576M224 664h576M224 665h576M224 666h576M224 667h576M224 668h576M224 669h576M224 670h576M224 671h576M256 672h512M256 673h512M256 674h512M256 675h512M256 676h512M256 677h512M256 678h512M256 679h512M256 680h512M256 681h512M256 682h512M256 683h512M256 684h512M256 685h512M256 686h512M256 687h512M256 688h512M256 689h512M256 690h512M256 691h512M256 692h512M256 693h512M256 694h512M256 695h512M256 696h512M256 697h512M256 698h512M256 699h512M256 700h512M256 701h512M256 702h512M256 703h512M288 704h448M288 705h448M288 706h448M288 707h448M288 708h448M288 709h448M288 710h448M288 711h448M288 712h448M288 713h448M288 714h448M288 715h448M288 716h448M288 717h448M288 718h448M288 719h448M288 720h448M288 721h448M288 722h448M288 723h448M288 724h448M288 725h448M288 726h448M288 727h448M288 728h448M288 729h448M288 730h448M288 731h448M288 732h448M288 733h448M288 734h448M288 735h448M384 736h256M384 737h256M384 738h256M384 739h256M384 740h256M384 741h256M384 742h256M384 743h256M384 744h256M384 745h256M384 746h256M384 747h256M384 748h256M384 749h256M384 750h256M384 751h256M384 752h256M384 753h256M384 754h256M384 755h256M384 756h256M384 757h256M384 758h256M384 759h256M384 760h256M384 761h256M384 762h256M384 763h256M384 764h256M384 765h256M384 766h256M384 767h256M416 768h192M416 769h192M416 770h192M416 771h192M416 772h192M416 773h192M416 774h192M416 775h192M416 776h192M416 777h192M416 778h192M416 779h192M416 780h192M416 781h192M416 782h192M416 783h192M416 784h192M416 785h192M416 786h192M416 787h192M416 788h192M416 789h192M416 790h192M416 791h192M416 792h192M416 793h192M416 794h192M416 795h192M416 796h192M416 797h192M416 798h192M416 799h192" />
<path stroke="#ff3f3f" d="M608 416h64M608 417h64M608 418h64M608 419h64M608 420h64M608 421h64M608 422h64M608 423h64M608 424h64M608 425h64M608 426h64M608 427h64M608 428h64M608 429h64M608 430h64M608 431h64M608 432h64M608 433h64M608 434h64M608 435h64M608 436h64M608 437h64M608 438h64M608 439h64M608 440h64M608 441h64M608 442h64M608 443h64M608 444h64M608 445h64M608 446h64M608 447h64M544 448h128M544 449h128M544 450h128M544 451h128M544 452h128M544 453h128M544 454h128M544 455h128M544 456h128M544 457h128M544 458h128M544 459h128M544 460h128M544 461h128M544 462h128M544 463h128M544 464h128M544 465h128M544 466h128M544 467h128M544 468h128M544 469h128M544 470h128M544 471h128M544 472h128M544 473h128M544 474h128M544 475h128M544 476h128M544 477h128M544 478h128M544 479h128M512 480h224M512 481h224M512 482h224M512 483h224M512 484h224M512 485h224M512 486h224M512 487h224M512 488h224M512 489h224M512 490h224M512 491h224M512 492h224M512 493h224M512 494h224M512 495h224M512 496h224M512 497h224M512 498h224M512 499h224M512 500h224M512 501h224M512 502h224M512 503h224M512 504h224M512 505h224M512 506h224M512 507h224M512 508h224M512 509h224M512 510h224M512 511h224M512 512h64M672 512h64M512 513h64M672 513h64M512 514h64M672 514h64M512 515h64M672 515h64M512 516h64M672 516h64M512 517h64M672 517h64M512 518h64M672 518h64M512 519h64M672 519h64M512 520h64M672 520h64M512 521h64M672 521h64M512 522h64M672 522h64M512 523h64M672 523h64M512 524h64M672 524h64M512 525h64M672 525h64M512 526h64M672 526h64M512 527h64M672 527h64M512 528h64M672 528h64M512 529h64M672 529h64M512 530h64M672 530h64M512 531h64M672 531h64M512 532h64M672 532h64M512 533h64M672 533h64M512 534h64M672 534h64M512 535h64M672 535h64M512 536h64M672 536h64M512 537h64M672 537h64M512 538h64M672 538h64M512 539h64M672 539h64M512 540h64M672 540h64M512 541h64M672 541h64M512 542h64M672 542h64M512 543h64M672 543h64M640 544h96M640 545h96M640 546h96M640 547h96M640 548h96M640 549h96M640 550h96M640 551h96M640 552h96M640 553h96M640 554h96M640 555h96M640 556h96M640 557h96M640 558h96M640 559h96M640 560h96M640 561h96M640 562h96M640 563h96M640 564h96M640 565h96M640 566h96M640 567h96M640 568h96M640 569h96M640 570h96M640 571h96M640 572h96M640 573h96M640 574h96M640 575h96M480 576h64M576 576h128M480 577h64M576 577h128M480 578h64M576 578h128M480 579h64M576 579h128M480 580h64M576 580h128M480 581h64M576 581h128M480 582h64M576 582h128M480 583h64M576 583h128M480 584h64M576 584h128M480 585h64M576 585h128M480 586h64M576 586h128M480 587h64M576 587h128M480 588h64M576 588h128M480 589h64M576 589h128M480 590h64M576 590h128M480 591h64M576 591h128M480 592h64M576 592h128M480 593h64M576 593h128M480 594h64M576 594h128M480 595h64M576 595h128M480 596h64M576 596h128M480 597h64M576 597h128M480 598h64M576 598h128M480 599h64M576 599h128M480 600h64M576 600h128M480 601h64M576 601h128M480 602h64M576 602h128M480 603h64M576 603h128M480 604h64M576 604h128M480 605h64M576 605h128M480 606h64M576 606h128M480 607h64M576 607h128M480 608h64M576 608h96M480 609h64M576 609h96M480 610h64M576 610h96M480 611h64M576 611h96M480 612h64M576 612h96M480 613h64M576 613h96M480 614h64M576 614h96M480 615h64M576 615h96M480 616h64M576 616h96M480 617h64M576 617h96M480 618h64M576 618h96M480 619h64M576 619h96M480 620h64M576 620h96M480 621h64M576 621h96M480 622h64M576 622h96M480 623h64M576 623h96M480 624h64M576 624h96M480 625h64M576 625h96M480 626h64M576 626h96M480 627h64M576 627h96M480 628h64M576 628h96M480 629h64M576 629h96M480 630h64M576 630h96M480 631h64M576 631h96M480 632h64M576 632h96M480 633h64M576 633h96M480 634h64M576 634h96M480 635h64M576 635h96M480 636h64M576 636h96M480 637h64M576 637h96M480 638h64M576 638h96M480 639h64M576 639h96" />
<path stroke="#ff6868" d="M576 512h96M576 513h96M576 514h96M576 515h96M576 516h96M576 517h96M576 518h96M576 519h96M576 520h96M576 521h96M576 522h96M576 523h96M576 524h96M576 525h96M576 526h96M576 527h96M576 528h96M576 529h96M576 530h96M576 531h96M576 532h96M576 533h96M576 534h96M576 535h96M576 536h96M576 537h96M576 538h96M576 539h96M576 540h96M576 541h96M576 542h96M576 543h96M544 544h96M544 545h96M544 546h96M544 547h96M544 548h96M544 549h96M544 550h96M544 551h96M544 552h96M544 553h96M544 554h96M544 555h96M544 556h96M544 557h96M544 558h96M544 559h96M544 560h96M544 561h96M544 562h96M544 563h96M544 564h96M544 565h96M544 566h96M544 567h96M544 568h96M544 569h96M544 570h96M544 571h96M544 572h96M544 573h96M544 574h96M544 575h96M544 576h32M544 577h32M544 578h32M544 579h32M544 580h32M544 581h32M544 582h32M544 583h32M544 584h32M544 585h32M544 586h32M544 587h32M544 588h32M544 589h32M544 590h32M544 591h32M544 592h32M544 593h32M544 594h32M544 595h32M544 596h32M544 597h32M544 598h32M544 599h32M544 600h32M544 601h32M544 602h32M544 603h32M544 604h32M544 605h32M544 606h32M544 607h32" />
</svg>