<svg xmlns="http://www.w3.org/2000/svg" viewBox="0 -0.5 1024 1024" shape-rendering="crispEdges">
<metadata>Made with Pixels to Svg https://codepen.io/shshaw/pen/XbxvNj</metadata>
<path stroke="#000000" d="M416 224h192M416 225h192M416 226h192M416 227h192M416 228h192M416 229h192M416 230h192M416 231h192M416 232h192M416 233h192M416 234h192M416 235h192M416 236h192M416 237h192M416 238h192M416 239h192M416 240h192M416 241h192M416 242h192M416 243h192M416 244h192M416 245h192M416 246h192M416 247h192M416 248h192M416 249h192M416 250h192M416 251h192M416 252h192M416 253h192M416 254h192M416 255h192M384 256h32M608 256h32M384 257h32M608 257h32M384 258h32M608 258h32M384 259h32M608 259h32M384 260h32M608 260h32M384 261h32M608 261h32M384 262h32M608 262h32M384 263h32M608 263h32M384 264h32M608 264h32M384 265h32M608 265h32M384 266h32M608 266h32M384 267h32M608 267h32M384 268h32M608 268h32M384 269h32M608 269h32M384 270h32M608 270h32M384 271h32M608 271h32M384 272h32M608 272h32M384 273h32M608 273h32M384 274h32M608 274h32M384 275h32M608 275h32M384 276h32M608 276h32M384 277h32M608 277h32M384 278h32M608 278h32M384 279h32M608 279h32M384 280h32M608 280h32M384 281h32M608 281h32M384 282h32M608 282h32M384 283h32M608 283h32M384 284h32M608 284h32M384 285h32M608 285h32M384 286h32M608 286h32M384 287h32M608 287h32M352 288h32M608 288h64M352 289h32M608 289h64M352 290h32M608 290h64M352 291h32M608 291h64M352 292h32M608 292h64M352 293h32M608 293h64M352 294h32M608 294h64M352 295h32M608 295h64M352 296h32M608 296h64M352 297h32M608 297h64M352 298h32M608 298h64M352 299h32M608 299h64M352 300h32M608 300h64M352 301h32M608 301h64M352 302h32M608 302h64M352 303h32M608 303h64M352 304h32M608 304h64M352 305h32M608 305h64M352 306h32M608 306h64M352 307h32M608 307h64M352 308h32M608 308h64M352 309h32M608 309h64M352 310h32M608 310h64M352 311h32M608 311h64M352 312h32M608 312h64M352 313h32M608 313h64M352 314h32M608 314h64M352 315h32M608 315h64M352 316h32M608 316h64M352 317h32M608 317h64M352 318h32M608 318h64M352 319h32M608 319h64M320 320h32M672 320h32M320 321h32M672 321h32M320 322h32M672 322h32M320 323h32M672 323h32M320 324h32M672 324h32M320 325h32M672 325h32M320 326h32M672 326h32M320 327h32M672 327h32M320 328h32M672 328h32M320 329h32M672 329h32M320 330h32M672 330h32M320 331h32M672 331h32M320 332h32M672 332h32M320 333h32M672 333h32M320 334h32M672 334h32M320 335h32M672 335h32M320 336h32M672 336h32M320 337h32M672 337h32M320 338h32M672 338h32M320 339h32M672 339h32M320 340h32M672 340h32M320 341h32M672 341h32M320 342h32M672 342h32M320 343h32M672 343h32M320 344h32M672 344h32M320 345h32M672 345h32M320 346h32M672 346h32M320 347h32M672 347h32M320 348h32M672 348h32M320 349h32M672 349h32M320 350h32M672 350h32M320 351h32M672 351h32M288 352h32M704 352h32M288 353h32M704 353h32M288 354h32M704 354h32M288 355h32M704 355h32M288 356h32M704 356h32M288 357h32M704 357h32M288 358h32M704 358h32M288 359h32M704 359h32M288 360h32M704 360h32M288 361h32M704 361h32M288 362h32M704 362h32M288 363h32M704 363h32M288 364h32M704 364h32M288 365h32M704 365h32M288 366h32M704 366h32M288 367h32M704 367h32M288 368h32M704 368h32M288 369h32M704 369h32M288 370h32M704 370h32M288 371h32M704 371h32M288 372h32M704 372h32M288 373h32M704 373h32M288 374h32M704 374h32M288 375h32M704 375h32M288 376h32M704 376h32M288 377h32M704 377h32M288 378h32M704 378h32M288 379h32M704 379h32M288 380h32M704 380h32M288 381h32M704 381h32M288 382h32M704 382h32M288 383h32M704 383h32M288 384h32M416 384h64M544 384h64M704 384h32M288 385h32M416 385h64M544 385h64M704 385h32M288 386h32M416 386h64M544 386h64M704 386h32M288 387h32M416 387h64M544 387h64M704 387h32M288 388h32M416 388h64M544 388h64M704 388h32M288 389h32M416 389h64M544 389h64M704 389h32M288 390h32M416 390h64M544 390h64M704 390h32M288 391h32M416 391h64M544 391h64M704 391h32M288 392h32M416 392h64M544 392h64M704 392h32M288 393h32M416 393h64M544 393h64M704 393h32M288 394h32M416 394h64M544 394h64M704 394h32M288 395h32M416 395h64M544 395h64M704 395h32M288 396h32M416 396h64M544 396h64M704 396h32M288 397h32M416 397h64M544 397h64M704 397h32M288 398h32M416 398h64M544 398h64M704 398h32M288 399h32M416 399h64M544 399h64M704 399h32M288 400h32M416 400h64M544 400h64M704 400h32M288 401h32M416 401h64M544 401h64M704 401h32M288 402h32M416 402h64M544 402h64M704 402h32M288 403h32M416 403h64M544 403h64M704 403h32M288 404h32M416 404h64M544 404h64M704 404h32M288 405h32M416 405h64M544 405h64M704 405h32M288 406h32M416 406h64M544 406h64M704 406h32M288 407h32M416 407h64M544 407h64M704 407h32M288 408h32M416 408h64M544 408h64M704 408h32M288 409h32M416 409h64M544 409h64M704 409h32M288 410h32M416 410h64M544 410h64M704 410h32M288 411h32M416 411h64M544 411h64M704 411h32M288 412h32M416 412h64M544 412h64M704 412h32M288 413h32M416 413h64M544 413h64M704 413h32M288 414h32M416 414h64M544 414h64M704 414h32M288 415h32M416 415h64M544 415h64M704 415h32M256 416h64M416 416h64M544 416h64M736 416h32M256 417h64M416 417h64M544 417h64M736 417h32M256 418h64M416 418h64M544 418h64M736 418h32M256 419h64M416 419h64M544 419h64M736 419h32M256 420h64M416 420h64M544 420h64M736 420h32M256 421h64M416 421h64M544 421h64M736 421h32M256 422h64M416 422h64M544 422h64M736 422h32M256 423h64M416 423h64M544 423h64M736 423h32M256 424h64M416 424h64M544 424h64M736 424h32M256 425h64M416 425h64M544 425h64M736 425h32M256 426h64M416 426h64M544 426h64M736 426h32M256 427h64M416 427h64M544 427h64M736 427h32M256 428h64M416 428h64M544 428h64M736 428h32M256 429h64M416 429h64M544 429h64M736 429h32M256 430h64M416 430h64M544 430h64M736 430h32M256 431h64M416 431h64M544 431h64M736 431h32M256 432h64M416 432h64M544 432h64M736 432h32M256 433h64M416 433h64M544 433h64M736 433h32M256 434h64M416 434h64M544 434h64M736 434h32M256 435h64M416 435h64M544 435h64M736 435h32M256 436h64M416 436h64M544 436h64M736 436h32M256 437h64M416 437h64M544 437h64M736 437h32M256 438h64M416 438h64M544 438h64M736 438h32M256 439h64M416 439h64M544 439h64M736 439h32M256 440h64M416 440h64M544 440h64M736 440h32M256 441h64M416 441h64M544 441h64M736 441h32M256 442h64M416 442h64M544 442h64M736 442h32M256 443h64M416 443h64M544 443h64M736 443h32M256 444h64M416 444h64M544 444h64M736 444h32M256 445h64M416 445h64M544 445h64M736 445h32M256 446h64M416 446h64M544 446h64M736 446h32M256 447h64M416 447h64M544 447h64M736 447h32M256 448h32M736 448h32M256 449h32M736 449h32M256 450h32M736 450h32M256 451h32M736 451h32M256 452h32M736 452h32M256 453h32M736 453h32M256 454h32M736 454h32M256 455h32M736 455h32M256 456h32M736 456h32M256 457h32M736 457h32M256 458h32M736 458h32M256 459h32M736 459h32M256 460h32M736 460h32M256 461h32M736 461h32M256 462h32M736 462h32M256 463h32M736 463h32M256 464h32M736 464h32M256 465h32M736 465h32M256 466h32M736 466h32M256 467h32M736 467h32M256 468h32M736 468h32M256 469h32M736 469h32M256 470h32M736 470h32M256 471h32M736 471h32M256 472h32M736 472h32M256 473h32M736 473h32M256 474h32M736 474h32M256 475h32M736 475h32M256 476h32M736 476h32M256 477h32M736 477h32M256 478h32M736 478h32M256 479h32M736 479h32M160 480h128M736 480h128M160 481h128M736 481h128M160 482h128M736 482h128M160 483h128M736 483h128M160 484h128M736 484h128M160 485h128M736 485h128M160 486h128M736 486h128M160 487h128M736 487h128M160 488h128M736 488h128M160 489h128M736 489h128M160 490h128M736 490h128M160 491h128M736 491h128M160 492h128M736 492h128M160 493h128M736 493h128M160 494h128M736 494h128M160 495h128M736 495h128M160 496h128M736 496h128M160 497h128M736 497h128M160 498h128M736 498h128M160 499h128M736 499h128M160 500h128M736 500h128M160 501h128M736 501h128M160 502h128M736 502h128M160 503h128M736 503h128M160 504h128M736 504h128M160 505h128M736 505h128M160 506h128M736 506h128M160 507h128M736 507h128M160 508h128M736 508h128M160 509h128M736 509h128M160 510h128M736 510h128M160 511h128M736 511h128M256 512h32M736 512h32M256 513h32M736 513h32M256 514h32M736 514h32M256 515h32M736 515h32M256 516h32M736 516h32M256 517h32M736 517h32M256 518h32M736 518h32M256 519h32M736 519h32M256 520h32M736 520h32M256 521h32M736 521h32M256 522h32M736 522h32M256 523h32M736 523h32M256 524h32M736 524h32M256 525h32M736 525h32M256 526h32M736 526h32M256 527h32M736 527h32M256 528h32M736 528h32M256 529h32M736 529h32M256 530h32M736 530h32M256 531h32M736 531h32M256 532h32M736 532h32M256 533h32M736 533h32M256 534h32M736 534h32M256 535h32M736 535h32M256 536h32M736 536h32M256 537h32M736 537h32M256 538h32M736 538h32M256 539h32M736 539h32M256 540h32M736 540h32M256 541h32M736 541h32M256 542h32M736 542h32M256 543h32M736 543h32M256 544h32M384 544h32M608 544h32M736 544h32M256 545h32M384 545h32M608 545h32M736 545h32M256 546h32M384 546h32M608 546h32M736 546h32M256 547h32M384 547h32M608 547h32M736 547h32M256 548h32M384 548h32M608 548h32M736 548h32M256 549h32M384 549h32M608 549h32M736 549h32M256 550h32M384 550h32M608 550h32M736 550h32M256 551h32M384 551h32M608 551h32M736 551h32M256 552h32M384 552h32M608 552h32M736 552h32M256 553h32M384 553h32M608 553h32M736 553h32M256 554h32M384 554h32M608 554h32M736 554h32M256 555h32M384 555h32M608 555h32M736 555h32M256 556h32M384 556h32M608 556h32M736 556h32M256 557h32M384 557h32M608 557h32M736 557h32M256 558h32M384 558h32M608 558h32M736 558h32M256 559h32M384 559h32M608 559h32M736 559h32M256 560h32M384 560h32M608 560h32M736 560h32M256 561h32M384 561h32M608 561h32M736 561h32M256 562h32M384 562h32M608 562h32M736 562h32M256 563h32M384 563h32M608 563h32M736 563h32M256 564h32M384 564h32M608 564h32M736 564h32M256 565h32M384 565h32M608 565h32M736 565h32M256 566h32M384 566h32M608 566h32M736 566h32M256 567h32M384 567h32M608 567h32M736 567h32M256 568h32M384 568h32M608 568h32M736 568h32M256 569h32M384 569h32M608 569h32M736 569h32M256 570h32M384 570h32M608 570h32M736 570h32M256 571h32M384 571h32M608 571h32M736 571h32M256 572h32M384 572h32M608 572h32M736 572h32M256 573h32M384 573h32M608 573h32M736 573h32M256 574h32M384 574h32M608 574h32M736 574h32M256 575h32M384 575h32M608 575h32M736 575h32M288 576h32M416 576h32M576 576h32M704 576h32M288 577h32M416 577h32M576 577h32M704 577h32M288 578h32M416 578h32M576 578h32M704 578h32M288 579h32M416 579h32M576 579h32M704 579h32M288 580h32M416 580h32M576 580h32M704 580h32M288 581h32M416 581h32M576 581h32M704 581h32M288 582h32M416 582h32M576 582h32M704 582h32M288 583h32M416 583h32M576 583h32M704 583h32M288 584h32M416 584h32M576 584h32M704 584h32M288 585h32M416 585h32M576 585h32M704 585h32M288 586h32M416 586h32M576 586h32M704 586h32M288 587h32M416 587h32M576 587h32M704 587h32M288 588h32M416 588h32M576 588h32M704 588h32M288 589h32M416 589h32M576 589h32M704 589h32M288 590h32M416 590h32M576 590h32M704 590h32M288 591h32M416 591h32M576 591h32M704 591h32M288 592h32M416 592h32M576 592h32M704 592h32M288 593h32M416 593h32M576 593h32M704 593h32M288 594h32M416 594h32M576 594h32M704 594h32M288 595h32M416 595h32M576 595h32M704 595h32M288 596h32M416 596h32M576 596h32M704 596h32M288 597h32M416 597h32M576 597h32M704 597h32M288 598h32M416 598h32M576 598h32M704 598h32M288 599h32M416 599h32M576 599h32M704 599h32M288 600h32M416 600h32M576 600h32M704 600h32M288 601h32M416 601h32M576 601h32M704 601h32M288 602h32M416 602h32M576 602h32M704 602h32M288 603h32M416 603h32M576 603h32M704 603h32M288 604h32M416 604h32M576 604h32M704 604h32M288 605h32M416 605h32M576 605h32M704 605h32M288 606h32M416 606h32M576 606h32M704 606h32M288 607h32M416 607h32M576 607h32M704 607h32M288 608h32M448 608h128M704 608h32M288 609h32M448 609h128M704 609h32M288 610h32M448 610h128M704 610h32M288 611h32M448 611h128M704 611h32M288 612h32M448 612h128M704 612h32M288 613h32M448 613h128M704 613h32M288 614h32M448 614h128M704 614h32M288 615h32M448 615h128M704 615h32M288 616h32M448 616h128M704 616h32M288 617h32M448 617h128M704 617h32M288 618h32M448 618h128M704 618h32M288 619h32M448 619h128M704 619h32M288 620h32M448 620h128M704 620h32M288 621h32M448 621h128M704 621h32M288 622h32M448 622h128M704 622h32M288 623h32M448 623h128M704 623h32M288 624h32M448 624h128M704 624h32M288 625h32M448 625h128M704 625h32M288 626h32M448 626h128M704 626h32M288 627h32M448 627h128M704 627h32M288 628h32M448 628h128M704 628h32M288 629h32M448 629h128M704 629h32M288 630h32M448 630h128M704 630h32M288 631h32M448 631h128M704 631h32M288 632h32M448 632h128M704 632h32M288 633h32M448 633h128M704 633h32M288 634h32M448 634h128M704 634h32M288 635h32M448 635h128M704 635h32M288 636h32M448 636h128M704 636h32M288 637h32M448 637h128M704 637h32M288 638h32M448 638h128M704 638h32M288 639h32M448 639h128M704 639h32M320 640h32M672 640h32M320 641h32M672 641h32M320 642h32M672 642h32M320 643h32M672 643h32M320 644h32M672 644h32M320 645h32M672 645h32M320 646h32M672 646h32M320 647h32M672 647h32M320 648h32M672 648h32M320 649h32M672 649h32M320 650h32M672 650h32M320 651h32M672 651h32M320 652h32M672 652h32M320 653h32M672 653h32M320 654h32M672 654h32M320 655h32M672 655h32M320 656h32M672 656h32M320 657h32M672 657h32M320 658h32M672 658h32M320 659h32M672 659h32M320 660h32M672 660h32M320 661h32M672 661h32M320 662h32M672 662h32M320 663h32M672 663h32M320 664h32M672 664h32M320 665h32M672 665h32M320 666h32M672 666h32M320 667h32M672 667h32M320 668h32M672 668h32M320 669h32M672 669h32M320 670h32M672 670h32M320 671h32M672 671h32M352 672h32M640 672h32M352 673h32M640 673h32M352 674h32M640 674h32M352 675h32M640 675h32M352 676h32M640 676h32M352 677h32M640 677h32M352 678h32M640 678h32M352 679h32M640 679h32M352 680h32M640 680h32M352 681h32M640 681h32M352 682h32M640 682h32M352 683h32M640 683h32M352 684h32M640 684h32M352 685h32M640 685h32M352 686h32M640 686h32M352 687h32M640 687h32M352 688h32M640 688h32M352 689h32M640 689h32M352 690h32M640 690h32M352 691h32M640 691h32M352 692h32M640 692h32M352 693h32M640 693h32M352 694h32M640 694h32M352 695h32M640 695h32M352 696h32M640 696h32M352 697h32M640 697h32M352 698h32M640 698h32M352 699h32M640 699h32M352 700h32M640 700h32M352 701h32M640 701h32M352 702h32M640 702h32M352 703h32M640 703h32M384 704h32M608 704h32M384 705h32M608 705h32M384 706h32M608 706h32M384 707h32M608 707h32M384 708h32M608 708h32M384 709h32M608 709h32M384 710h32M608 710h32M384 711h32M608 711h32M384 712h32M608 712h32M384 713h32M608 713h32M384 714h32M608 714h32M384 715h32M608 715h32M384 716h32M608 716h32M384 717h32M608 717h32M384 718h32M608 718h32M384 719h32M608 719h32M384 720h32M608 720h32M384 721h32M608 721h32M384 722h32M608 722h32M384 723h32M608 723h32M384 724h32M608 724h32M384 725h32M608 725h32M384 726h32M608 726h32M384 727h32M608 727h32M384 728h32M608 728h32M384 729h32M608 729h32M384 730h32M608 730h32M384 731h32M608 731h32M384 732h32M608 732h32M384 733h32M608 733h32M384 734h32M608 734h32M384 735h32M608 735h32M416 736h192M416 737h192M416 738h192M416 739h192M416 740h192M416 741h192M416 742h192M416 743h192M416 744h192M416 745h192M416 746h192M416 747h192M416 748h192M416 749h192M416 750h192M416 751h192M416 752h192M416 753h192M416 754h192M416 755h192M416 756h192M416 757h192M416 758h192M416 759h192M416 760h192M416 761h192M416 762h192M416 763h192M416 764h192M416 765h192M416 766h192M416 767h192M448 768h32M576 768h32M448 769h32M576 769h32M448 770h32M576 770h32M448 771h32M576 771h32M448 772h32M576 772h32M448 773h32M576 773h32M448 774h32M576 774h32M448 775h32M576 775h32M448 776h32M576 776h32M448 777h32M576 777h32M448 778h32M576 778h32M448 779h32M576 779h32M448 780h32M576 780h32M448 781h32M576 781h32M448 782h32M576 782h32M448 783h32M576 783h32M448 784h32M576 784h32M448 785h32M576 785h32M448 786h32M576 786h32M448 787h32M576 787h32M448 788h32M576 788h32M448 789h32M576 789h32M448 790h32M576 790h32M448 791h32M576 791h32M448 792h32M576 792h32M448 793h32M576 793h32M448 794h32M576 794h32M448 795h32M576 795h32M448 796h32M576 796h32M448 797h32M576 797h32M448 798h32M576 798h32M448 799h32M576 799h32M448 800h32M576 800h32M448 801h32M576 801h32M448 802h32M576 802h32M448 803h32M576 803h32M448 804h32M576 804h32M448 805h32M576 805h32M448 806h32M576 806h32M448 807h32M576 807h32M448 808h32M576 808h32M448 809h32M576 809h32M448 810h32M576 810h32M448 811h32M576 811h32M448 812h32M576 812h32M448 813h32M576 813h32M448 814h32M576 814h32M448 815h32M576 815h32M448 816h32M576 816h32M448 817h32M576 817h32M448 818h32M576 818h32M448 819h32M576 819h32M448 820h32M576 820h32M448 821h32M576 821h32M448 822h32M576 822h32M448 823h32M576 823h32M448 824h32M576 824h32M448 825h32M576 825h32M448 826h32M576 826h32M448 827h32M576 827h32M448 828h32M576 828h32M448 829h32M576 829h32M448 830h32M576 830h32M448 831h32M576 831h32M448 832h32M576 832h32M448 833h32M576 833h32M448 834h32M576 834h32M448 835h32M576 835h32M448 836h32M576 836h32M448 837h32M576 837h32M448 838h32M576 838h32M448 839h32M576 839h32M448 840h32M576 840h32M448 841h32M576 841h32M448 842h32M576 842h32M448 843h32M576 843h32M448 844h32M576 844h32M448 845h32M576 845h32M448 846h32M576 846h32M448 847h32M576 847h32M448 848h32M576 848h32M448 849h32M576 849h32M448 850h32M576 850h32M448 851h32M576 851h32M448 852h32M576 852h32M448 853h32M576 853h32M448 854h32M576 854h32M448 855h32M576 855h32M448 856h32M576 856h32M448 857h32M576 857h32M448 858h32M576 858h32M448 859h32M576 859h32M448 860h32M576 860h32M448 861h32M576 861h32M448 862h32M576 862h32M448 863h32M576 863h32M384 864h96M512 864h96M384 865h96M512 865h96M384 866h96M512 866h96M384 867h96M512 867h96M384 868h96M512 868h96M384 869h96M512 869h96M384 870h96M512 870h96M384 871h96M512 871h96M384 872h96M512 872h96M384 873h96M512 873h96M384 874h96M512 874h96M384 875h96M512 875h96M384 876h96M512 876h96M384 877h96M512 877h96M384 878h96M512 878h96M384 879h96M512 879h96M384 880h96M512 880h96M384 881h96M512 881h96M384 882h96M512 882h96M384 883h96M512 883h96M384 884h96M512 884h96M384 885h96M512 885h96M384 886h96M512 886h96M384 887h96M512 887h96M384 888h96M512 888h96M384 889h96M512 889h96M384 890h96M512 890h96M384 891h96M512 891h96M384 892h96M512 892h96M384 893h96M512 893h96M384 894h96M512 894h96M384 895h96M512 895h96" />
<path stroke="#07c1ff" d="M416 256h192M416 257h192M416 258h192M416 259h192M416 260h192M416 261h192M416 262h192M416 263h192M416 264h192M416 265h192M416 266h192M416 267h192M416 268h192M416 269h192M416 270h192M416 271h192M416 272h192M416 273h192M416 274h192M416 275h192M416 276h192M416 277h192M416 278h192M416 279h192M416 280h192M416 281h192M416 282h192M416 283h192M416 284h192M416 285h192M416 286h192M416 287h192M384 288h224M384 289h224M384 290h224M384 291h224M384 292h224M384 293h224M384 294h224M384 295h224M384 296h224M384 297h224M384 298h224M384 299h224M384 300h224M384 301h224M384 302h224M384 303h224M384 304h224M384 305h224M384 306h224M384 307h224M384 308h224M384 309h224M384 310h224M384 311h224M384 312h224M384 313h224M384 314h224M384 315h224M384 316h224M384 317h224M384 318h224M384 319h224M352 320h320M352 321h320M352 322h320M352 323h320M352 324h320M352 325h320M352 326h320M352 327h320M352 328h320M352 329h320M352 330h320M352 331h320M352 332h320M352 333h320M352 334h320M352 335h320M352 336h320M352 337h320M352 338h320M352 339h320M352 340h320M352 341h320M352 342h320M352 343h320M352 344h320M352 345h320M352 346h320M352 347h320M352 348h320M352 349h320M352 350h320M352 351h320M320 352h384M320 353h384M320 354h384M320 355h384M320 356h384M320 357h384M320 358h384M320 359h384M320 360h384M320 361h384M320 362h384M320 363h384M320 364h384M320 365h384M320 366h384M320 367h384M320 368h384M320 369h384M320 370h384M320 371h384M320 372h384M320 373h384M320 374h384M320 375h384M320 376h384M320 377h384M320 378h384M320 379h384M320 380h384M320 381h384M320 382h384M320 383h384M320 384h96M480 384h64M608 384h96M320 385h96M480 385h64M608 385h96M320 386h96M480 386h64M608 386h96M320 387h96M480 387h64M608 387h96M320 388h96M480 388h64M608 388h96M320 389h96M480 389h64M608 389h96M320 390h96M480 390h64M608 390h96M320 391h96M480 391h64M608 391h96M320 392h96M480 392h64M608 392h96M320 393h96M480 393h64M608 393h96M320 394h96M480 394h64M608 394h96M320 395h96M480 395h64M608 395h96M320 396h96M480 396h64M608 396h96M320 397h96M480 397h64M608 397h96M320 398h96M480 398h64M608 398h96M320 399h96M480 399h64M608 399h96M320 400h96M480 400h64M608 400h96M320 401h96M480 401h64M608 401h96M320 402h96M480 402h64M608 402h96M320 403h96M480 403h64M608 403h96M320 404h96M480 404h64M608 404h96M320 405h96M480 405h64M608 405h96M320 406h96M480 406h64M608 406h96M320 407h96M480 407h64M608 407h96M320 408h96M480 408h64M608 408h96M320 409h96M480 409h64M608 409h96M320 410h96M480 410h64M608 410h96M320 411h96M480 411h64M608 411h96M320 412h96M480 412h64M608 412h96M320 413h96M480 413h64M608 413h96M320 414h96M480 414h64M608 414h96M320 415h96M480 415h64M608 415h96M320 416h96M480 416h64M608 416h128M320 417h96M480 417h64M608 417h128M320 418h96M480 418h64M608 418h128M320 419h96M480 419h64M608 419h128M320 420h96M480 420h64M608 420h128M320 421h96M480 421h64M608 421h128M320 422h96M480 422h64M608 422h128M320 423h96M480 423h64M608 423h128M320 424h96M480 424h64M608 424h128M320 425h96M480 425h64M608 425h128M320 426h96M480 426h64M608 426h128M320 427h96M480 427h64M608 427h128M320 428h96M480 428h64M608 428h128M320 429h96M480 429h64M608 429h128M320 430h96M480 430h64M608 430h128M320 431h96M480 431h64M608 431h128M320 432h96M480 432h64M608 432h128M320 433h96M480 433h64M608 433h128M320 434h96M480 434h64M608 434h128M320 435h96M480 435h64M608 435h128M320 436h96M480 436h64M608 436h128M320 437h96M480 437h64M608 437h128M320 438h96M480 438h64M608 438h128M320 439h96M480 439h64M608 439h128M320 440h96M480 440h64M608 440h128M320 441h96M480 441h64M608 441h128M320 442h96M480 442h64M608 442h128M320 443h96M480 443h64M608 443h128M320 444h96M480 444h64M608 444h128M320 445h96M480 445h64M608 445h128M320 446h96M480 446h64M608 446h128M320 447h96M480 447h64M608 447h128M288 448h448M288 449h448M288 450h448M288 451h448M288 452h448M288 453h448M288 454h448M288 455h448M288 456h448M288 457h448M288 458h448M288 459h448M288 460h448M288 461h448M288 462h448M288 463h448M288 464h448M288 465h448M288 466h448M288 467h448M288 468h448M288 469h448M288 470h448M288 471h448M288 472h448M288 473h448M288 474h448M288 475h448M288 476h448M288 477h448M288 478h448M288 479h448M288 480h448M288 481h448M288 482h448M288 483h448M288 484h448M288 485h448M288 486h448M288 487h448M288 488h448M288 489h448M288 490h448M288 491h448M288 492h448M288 493h448M288 494h448M288 495h448M288 496h448M288 497h448M288 498h448M288 499h448M288 500h448M288 501h448M288 502h448M288 503h448M288 504h448M288 505h448M288 506h448M288 507h448M288 508h448M288 509h448M288 510h448M288 511h448M288 512h448M288 513h448M288 514h448M288 515h448M288 516h448M288 517h448M288 518h448M288 519h448M288 520h448M288 521h448M288 522h448M288 523h448M288 524h448M288 525h448M288 526h448M288 527h448M288 528h448M288 529h448M288 530h448M288 531h448M288 532h448M288 533h448M288 534h448M288 535h448M288 536h448M288 537h448M288 538h448M288 539h448M288 540h448M288 541h448M288 542h448M288 543h448M288 544h96M416 544h192M640 544h96M288 545h96M416 545h192M640 545h96M288 546h96M416 546h192M640 546h96M288 547h96M416 547h192M640 547h96M288 548h96M416 548h192M640 548h96M288 549h96M416 549h192M640 549h96M288 550h96M416 550h192M640 550h96M288 551h96M416 551h192M640 551h96M288 552h96M416 552h192M640 552h96M288 553h96M416 553h192M640 553h96M288 554h96M416 554h192M640 554h96M288 555h96M416 555h192M640 555h96M288 556h96M416 556h192M640 556h96M288 557h96M416 557h192M640 557h96M288 558h96M416 558h192M640 558h96M288 559h96M416 559h192M640 559h96M288 560h96M416 560h192M640 560h96M288 561h96M416 561h192M640 561h96M288 562h96M416 562h192M640 562h96M288 563h96M416 563h192M640 563h96M288 564h96M416 564h192M640 564h96M288 565h96M416 565h192M640 565h96M288 566h96M416 566h192M640 566h96M288 567h96M416 567h192M640 567h96M288 568h96M416 568h192M640 568h96M288 569h96M416 569h192M640 569h96M288 570h96M416 570h192M640 570h96M288 571h96M416 571h192M640 571h96M288 572h96M416 572h192M640 572h96M288 573h96M416 573h192M640 573h96M288 574h96M416 574h192M640 574h96M288 575h96M416 575h192M640 575h96M320 576h96M448 576h128M608 576h96M320 577h96M448 577h128M608 577h96M320 578h96M448 578h128M608 578h96M320 579h96M448 579h128M608 579h96M320 580h96M448 580h128M608 580h96M320 581h96M448 581h128M608 581h96M320 582h96M448 582h128M608 582h96M320 583h96M448 583h128M608 583h96M320 584h96M448 584h128M608 584h96M320 585h96M448 585h128M608 585h96M320 586h96M448 586h128M608 586h96M320 587h96M448 587h128M608 587h96M320 588h96M448 588h128M608 588h96M320 589h96M448 589h128M608 589h96M320 590h96M448 590h128M608 590h96M320 591h96M448 591h128M608 591h96M320 592h96M448 592h128M608 592h96M320 593h96M448 593h128M608 593h96M320 594h96M448 594h128M608 594h96M320 595h96M448 595h128M608 595h96M320 596h96M448 596h128M608 596h96M320 597h96M448 597h128M608 597h96M320 598h96M448 598h128M608 598h96M320 599h96M448 599h128M608 599h96M320 600h96M448 600h128M608 600h96M320 601h96M448 601h128M608 601h96M320 602h96M448 602h128M608 602h96M320 603h96M448 603h128M608 603h96M320 604h96M448 604h128M608 604h96M320 605h96M448 605h128M608 605h96M320 606h96M448 606h128M608 606h96M320 607h96M448 607h128M608 607h96M320 608h128M576 608h128M320 609h128M576 609h128M320 610h128M576 610h128M320 611h128M576 611h128M320 612h128M576 612h128M320 613h128M576 613h128M320 614h128M576 614h128M320 615h128M576 615h128M320 616h128M576 616h128M320 617h128M576 617h128M320 618h128M576 618h128M320 619h128M576 619h128M320 620h128M576 620h128M320 621h128M576 621h128M320 622h128M576 622h128M320 623h128M576 623h128M320 624h128M576 624h128M320 625h128M576 625h128M320 626h128M576 626h128M320 627h128M576 627h128M320 628h128M576 628h128M320 629h128M576 629h128M320 630h128M576 630h128M320 631h128M576 631h128M320 632h128M576 632h128M320 633h128M576 633h128M320 634h128M576 634h128M320 635h128M576 635h128M320 636h128M576 636h128M320 637h128M576 637h128M320 638h128M576 638h128M320 639h128M576 639h128M352 640h320M352 641h320M352 642h320M352 643h320M352 644h320M352 645h320M352 646h320M352 647h320M352 648h320M352 649h320M352 650h320M352 651h320M352 652h320M352 653h320M352 654h320M352 655h320M352 656h320M352 657h320M352 658h320M352 659h320M352 660h320M352 661h320M352 662h320M352 663h320M352 664h320M352 665h320M352 666h320M352 667h320M352 668h320M352 669h320M352 670h320M352 671h320M384 672h256M384 673h256M384 674h256M384 675h256M384 676h256M384 677h256M384 678h256M384 679h256M384 680h256M384 681h256M384 682h256M384 683h256M384 684h256M384 685h256M384 686h256M384 687h256M384 688h256M384 689h256M384 690h256M384 691h256M384 692h256M384 693h256M384 694h256M384 695h256M384 696h256M384 697h256M384 698h256M384 699h256M384 700h256M384 701h256M384 702h256M384 703h256M416 704h192M416 705h192M416 706h192M416 707h192M416 708h192M416 709h192M416 710h192M416 711h192M416 712h192M416 713h192M416 714h192M416 715h192M416 716h192M416 717h192M416 718h192M416 719h192M416 720h192M416 721h192M416 722h192M416 723h192M416 724h192M416 725h192M416 726h192M416 727h192M416 728h192M416 729h192M416 730h192M416 731h192M416 732h192M416 733h192M416 734h192M416 735h192" />
</svg>