<svg xmlns="http://www.w3.org/2000/svg" viewBox="0 -0.5 32 32" shape-rendering="crispEdges">
<metadata>Made with Pixels to Svg https://codepen.io/shshaw/pen/XbxvNj</metadata>
<path stroke="#000000" d="M12 2h1M19 2h1M10 3h12M10 4h1M21 4h1M9 5h1M22 5h1M9 6h1M22 6h1M2 7h5M9 7h1M13 7h2M17 7h2M22 7h1M25 7h5M2 8h1M6 8h1M9 8h1M13 8h2M17 8h2M22 8h1M25 8h1M29 8h1M2 9h1M6 9h1M9 9h1M22 9h1M25 9h1M29 9h1M2 10h1M6 10h1M9 10h1M22 10h1M25 10h1M29 10h1M2 11h1M6 11h4M14 11h4M22 11h4M29 11h1M2 12h1M7 12h2M23 12h2M29 12h1M2 13h1M29 13h1M2 14h2M28 14h2M3 15h1M28 15h1M4 16h5M23 16h5M8 17h1M23 17h1M8 18h1M23 18h1M8 19h1M23 19h1M8 20h1M23 20h1M8 21h1M23 21h1M8 22h1M12 22h1M19 22h1M23 22h1M8 23h1M11 23h2M19 23h2M23 23h1M8 24h1M11 24h2M19 24h2M23 24h1M8 25h1M11 25h2M19 25h2M23 25h1M8 26h1M11 26h2M19 26h2M23 26h1M8 27h2M11 27h3M18 27h3M22 27h2M9 28h3M13 28h6M20 28h3M15 29h2" />
<path stroke="#b9ff00" d="M11 4h10M10 5h12M10 6h12M10 7h3M15 7h2M19 7h3M3 8h3M10 8h3M15 8h2M19 8h3M26 8h3M3 9h3M10 9h12M26 9h3M3 10h3M10 10h12M26 10h3M3 11h3M10 11h4M18 11h4M26 11h3M3 12h4M9 12h3M13 12h6M20 12h3M25 12h4M3 13h26M4 14h24M4 15h24M9 16h14M9 17h14M9 18h14M9 19h14M9 20h14M9 21h14M9 22h3M13 22h6M20 22h3M9 23h2M13 23h6M21 23h2M9 24h2M13 24h6M21 24h2M9 25h2M13 25h6M21 25h2M9 26h2M13 26h6M21 26h2M10 27h1M14 27h4M21 27h1" />
<path stroke="#ff0b00" d="M12 12h1M19 12h1" />
</svg>