<svg xmlns="http://www.w3.org/2000/svg" viewBox="0 -0.5 32 32" shape-rendering="crispEdges">
<metadata>Made with Pixels to Svg https://codepen.io/shshaw/pen/XbxvNj</metadata>
<path stroke="#000000" d="M3 5h26M3 6h26M3 7h2M27 7h2M3 8h2M27 8h2M3 9h2M27 9h2M3 10h2M27 10h2M3 11h2M13 11h6M27 11h2M3 12h2M12 12h1M15 12h2M19 12h1M27 12h2M3 13h2M12 13h1M15 13h2M27 13h2M3 14h2M12 14h1M15 14h2M27 14h2M3 15h2M8 15h1M13 15h6M23 15h1M27 15h2M3 16h2M7 16h1M9 16h1M15 16h2M19 16h1M22 16h1M24 16h1M27 16h2M3 17h2M8 17h1M15 17h2M19 17h1M23 17h1M27 17h2M3 18h2M15 18h2M19 18h1M27 18h2M3 19h2M12 19h7M27 19h2M3 20h2M27 20h2M3 21h2M27 21h2M3 22h2M27 22h2M3 23h2M27 23h2M3 24h26M3 25h26" />
<path stroke="#006a15" d="M5 7h22M5 8h22M5 9h2M25 9h2M5 10h2M25 10h2M5 11h2M25 11h2M5 12h2M25 12h2M5 13h2M25 13h2M5 14h2M25 14h2M5 15h2M25 15h2M5 16h2M25 16h2M5 17h2M25 17h2M5 18h2M25 18h2M5 19h2M25 19h2M5 20h2M25 20h2M5 21h2M25 21h2M5 22h22M5 23h22" />
<path stroke="#30df53" d="M7 9h18M7 10h18M7 11h6M19 11h6M7 12h5M13 12h2M17 12h2M20 12h5M7 13h5M13 13h2M17 13h8M7 14h5M13 14h2M17 14h8M7 15h1M9 15h4M19 15h4M24 15h1M8 16h1M10 16h5M17 16h2M20 16h2M23 16h1M7 17h1M9 17h6M17 17h2M20 17h3M24 17h1M7 18h8M17 18h2M20 18h5M7 19h5M19 19h6M7 20h18M7 21h18" />
</svg>