<svg xmlns="http://www.w3.org/2000/svg" viewBox="0 -0.5 1024 1024" shape-rendering="crispEdges">
<metadata>Made with Pixels to Svg https://codepen.io/shshaw/pen/XbxvNj</metadata>
<path stroke="#1b1b1b" d="M288 224h448M288 225h448M288 226h448M288 227h448M288 228h448M288 229h448M288 230h448M288 231h448M288 232h448M288 233h448M288 234h448M288 235h448M288 236h448M288 237h448M288 238h448M288 239h448M288 240h448M288 241h448M288 242h448M288 243h448M288 244h448M288 245h448M288 246h448M288 247h448M288 248h448M288 249h448M288 250h448M288 251h448M288 252h448M288 253h448M288 254h448M288 255h448M224 256h64M736 256h64M224 257h64M736 257h64M224 258h64M736 258h64M224 259h64M736 259h64M224 260h64M736 260h64M224 261h64M736 261h64M224 262h64M736 262h64M224 263h64M736 263h64M224 264h64M736 264h64M224 265h64M736 265h64M224 266h64M736 266h64M224 267h64M736 267h64M224 268h64M736 268h64M224 269h64M736 269h64M224 270h64M736 270h64M224 271h64M736 271h64M224 272h64M736 272h64M224 273h64M736 273h64M224 274h64M736 274h64M224 275h64M736 275h64M224 276h64M736 276h64M224 277h64M736 277h64M224 278h64M736 278h64M224 279h64M736 279h64M224 280h64M736 280h64M224 281h64M736 281h64M224 282h64M736 282h64M224 283h64M736 283h64M224 284h64M736 284h64M224 285h64M736 285h64M224 286h64M736 286h64M224 287h64M736 287h64M160 288h96M768 288h96M160 289h96M768 289h96M160 290h96M768 290h96M160 291h96M768 291h96M160 292h96M768 292h96M160 293h96M768 293h96M160 294h96M768 294h96M160 295h96M768 295h96M160 296h96M768 296h96M160 297h96M768 297h96M160 298h96M768 298h96M160 299h96M768 299h96M160 300h96M768 300h96M160 301h96M768 301h96M160 302h96M768 302h96M160 303h96M768 303h96M160 304h96M768 304h96M160 305h96M768 305h96M160 306h96M768 306h96M160 307h96M768 307h96M160 308h96M768 308h96M160 309h96M768 309h96M160 310h96M768 310h96M160 311h96M768 311h96M160 312h96M768 312h96M160 313h96M768 313h96M160 314h96M768 314h96M160 315h96M768 315h96M160 316h96M768 316h96M160 317h96M768 317h96M160 318h96M768 318h96M160 319h96M768 319h96M160 320h32M832 320h32M160 321h32M832 321h32M160 322h32M832 322h32M160 323h32M832 323h32M160 324h32M832 324h32M160 325h32M832 325h32M160 326h32M832 326h32M160 327h32M832 327h32M160 328h32M832 328h32M160 329h32M832 329h32M160 330h32M832 330h32M160 331h32M832 331h32M160 332h32M832 332h32M160 333h32M832 333h32M160 334h32M832 334h32M160 335h32M832 335h32M160 336h32M832 336h32M160 337h32M832 337h32M160 338h32M832 338h32M160 339h32M832 339h32M160 340h32M832 340h32M160 341h32M832 341h32M160 342h32M832 342h32M160 343h32M832 343h32M160 344h32M832 344h32M160 345h32M832 345h32M160 346h32M832 346h32M160 347h32M832 347h32M160 348h32M832 348h32M160 349h32M832 349h32M160 350h32M832 350h32M160 351h32M832 351h32M160 352h32M832 352h32M160 353h32M832 353h32M160 354h32M832 354h32M160 355h32M832 355h32M160 356h32M832 356h32M160 357h32M832 357h32M160 358h32M832 358h32M160 359h32M832 359h32M160 360h32M832 360h32M160 361h32M832 361h32M160 362h32M832 362h32M160 363h32M832 363h32M160 364h32M832 364h32M160 365h32M832 365h32M160 366h32M832 366h32M160 367h32M832 367h32M160 368h32M832 368h32M160 369h32M832 369h32M160 370h32M832 370h32M160 371h32M832 371h32M160 372h32M832 372h32M160 373h32M832 373h32M160 374h32M832 374h32M160 375h32M832 375h32M160 376h32M832 376h32M160 377h32M832 377h32M160 378h32M832 378h32M160 379h32M832 379h32M160 380h32M832 380h32M160 381h32M832 381h32M160 382h32M832 382h32M160 383h32M832 383h32M160 384h32M832 384h32M160 385h32M832 385h32M160 386h32M832 386h32M160 387h32M832 387h32M160 388h32M832 388h32M160 389h32M832 389h32M160 390h32M832 390h32M160 391h32M832 391h32M160 392h32M832 392h32M160 393h32M832 393h32M160 394h32M832 394h32M160 395h32M832 395h32M160 396h32M832 396h32M160 397h32M832 397h32M160 398h32M832 398h32M160 399h32M832 399h32M160 400h32M832 400h32M160 401h32M832 401h32M160 402h32M832 402h32M160 403h32M832 403h32M160 404h32M832 404h32M160 405h32M832 405h32M160 406h32M832 406h32M160 407h32M832 407h32M160 408h32M832 408h32M160 409h32M832 409h32M160 410h32M832 410h32M160 411h32M832 411h32M160 412h32M832 412h32M160 413h32M832 413h32M160 414h32M832 414h32M160 415h32M832 415h32M160 416h32M832 416h32M160 417h32M832 417h32M160 418h32M832 418h32M160 419h32M832 419h32M160 420h32M832 420h32M160 421h32M832 421h32M160 422h32M832 422h32M160 423h32M832 423h32M160 424h32M832 424h32M160 425h32M832 425h32M160 426h32M832 426h32M160 427h32M832 427h32M160 428h32M832 428h32M160 429h32M832 429h32M160 430h32M832 430h32M160 431h32M832 431h32M160 432h32M832 432h32M160 433h32M832 433h32M160 434h32M832 434h32M160 435h32M832 435h32M160 436h32M832 436h32M160 437h32M832 437h32M160 438h32M832 438h32M160 439h32M832 439h32M160 440h32M832 440h32M160 441h32M832 441h32M160 442h32M832 442h32M160 443h32M832 443h32M160 444h32M832 444h32M160 445h32M832 445h32M160 446h32M832 446h32M160 447h32M832 447h32M160 448h32M832 448h32M160 449h32M832 449h32M160 450h32M832 450h32M160 451h32M832 451h32M160 452h32M832 452h32M160 453h32M832 453h32M160 454h32M832 454h32M160 455h32M832 455h32M160 456h32M832 456h32M160 457h32M832 457h32M160 458h32M832 458h32M160 459h32M832 459h32M160 460h32M832 460h32M160 461h32M832 461h32M160 462h32M832 462h32M160 463h32M832 463h32M160 464h32M832 464h32M160 465h32M832 465h32M160 466h32M832 466h32M160 467h32M832 467h32M160 468h32M832 468h32M160 469h32M832 469h32M160 470h32M832 470h32M160 471h32M832 471h32M160 472h32M832 472h32M160 473h32M832 473h32M160 474h32M832 474h32M160 475h32M832 475h32M160 476h32M832 476h32M160 477h32M832 477h32M160 478h32M832 478h32M160 479h32M832 479h32M160 480h32M832 480h32M160 481h32M832 481h32M160 482h32M832 482h32M160 483h32M832 483h32M160 484h32M832 484h32M160 485h32M832 485h32M160 486h32M832 486h32M160 487h32M832 487h32M160 488h32M832 488h32M160 489h32M832 489h32M160 490h32M832 490h32M160 491h32M832 491h32M160 492h32M832 492h32M160 493h32M832 493h32M160 494h32M832 494h32M160 495h32M832 495h32M160 496h32M832 496h32M160 497h32M832 497h32M160 498h32M832 498h32M160 499h32M832 499h32M160 500h32M832 500h32M160 501h32M832 501h32M160 502h32M832 502h32M160 503h32M832 503h32M160 504h32M832 504h32M160 505h32M832 505h32M160 506h32M832 506h32M160 507h32M832 507h32M160 508h32M832 508h32M160 509h32M832 509h32M160 510h32M832 510h32M160 511h32M832 511h32M160 512h32M832 512h32M160 513h32M832 513h32M160 514h32M832 514h32M160 515h32M832 515h32M160 516h32M832 516h32M160 517h32M832 517h32M160 518h32M832 518h32M160 519h32M832 519h32M160 520h32M832 520h32M160 521h32M832 521h32M160 522h32M832 522h32M160 523h32M832 523h32M160 524h32M832 524h32M160 525h32M832 525h32M160 526h32M832 526h32M160 527h32M832 527h32M160 528h32M832 528h32M160 529h32M832 529h32M160 530h32M832 530h32M160 531h32M832 531h32M160 532h32M832 532h32M160 533h32M832 533h32M160 534h32M832 534h32M160 535h32M832 535h32M160 536h32M832 536h32M160 537h32M832 537h32M160 538h32M832 538h32M160 539h32M832 539h32M160 540h32M832 540h32M160 541h32M832 541h32M160 542h32M832 542h32M160 543h32M832 543h32M160 544h32M832 544h32M160 545h32M832 545h32M160 546h32M832 546h32M160 547h32M832 547h32M160 548h32M832 548h32M160 549h32M832 549h32M160 550h32M832 550h32M160 551h32M832 551h32M160 552h32M832 552h32M160 553h32M832 553h32M160 554h32M832 554h32M160 555h32M832 555h32M160 556h32M832 556h32M160 557h32M832 557h32M160 558h32M832 558h32M160 559h32M832 559h32M160 560h32M832 560h32M160 561h32M832 561h32M160 562h32M832 562h32M160 563h32M832 563h32M160 564h32M832 564h32M160 565h32M832 565h32M160 566h32M832 566h32M160 567h32M832 567h32M160 568h32M832 568h32M160 569h32M832 569h32M160 570h32M832 570h32M160 571h32M832 571h32M160 572h32M832 572h32M160 573h32M832 573h32M160 574h32M832 574h32M160 575h32M832 575h32M160 576h32M832 576h32M160 577h32M832 577h32M160 578h32M832 578h32M160 579h32M832 579h32M160 580h32M832 580h32M160 581h32M832 581h32M160 582h32M832 582h32M160 583h32M832 583h32M160 584h32M832 584h32M160 585h32M832 585h32M160 586h32M832 586h32M160 587h32M832 587h32M160 588h32M832 588h32M160 589h32M832 589h32M160 590h32M832 590h32M160 591h32M832 591h32M160 592h32M832 592h32M160 593h32M832 593h32M160 594h32M832 594h32M160 595h32M832 595h32M160 596h32M832 596h32M160 597h32M832 597h32M160 598h32M832 598h32M160 599h32M832 599h32M160 600h32M832 600h32M160 601h32M832 601h32M160 602h32M832 602h32M160 603h32M832 603h32M160 604h32M832 604h32M160 605h32M832 605h32M160 606h32M832 606h32M160 607h32M832 607h32M160 608h32M832 608h32M160 609h32M832 609h32M160 610h32M832 610h32M160 611h32M832 611h32M160 612h32M832 612h32M160 613h32M832 613h32M160 614h32M832 614h32M160 615h32M832 615h32M160 616h32M832 616h32M160 617h32M832 617h32M160 618h32M832 618h32M160 619h32M832 619h32M160 620h32M832 620h32M160 621h32M832 621h32M160 622h32M832 622h32M160 623h32M832 623h32M160 624h32M832 624h32M160 625h32M832 625h32M160 626h32M832 626h32M160 627h32M832 627h32M160 628h32M832 628h32M160 629h32M832 629h32M160 630h32M832 630h32M160 631h32M832 631h32M160 632h32M832 632h32M160 633h32M832 633h32M160 634h32M832 634h32M160 635h32M832 635h32M160 636h32M832 636h32M160 637h32M832 637h32M160 638h32M832 638h32M160 639h32M832 639h32M160 640h32M832 640h32M160 641h32M832 641h32M160 642h32M832 642h32M160 643h32M832 643h32M160 644h32M832 644h32M160 645h32M832 645h32M160 646h32M832 646h32M160 647h32M832 647h32M160 648h32M832 648h32M160 649h32M832 649h32M160 650h32M832 650h32M160 651h32M832 651h32M160 652h32M832 652h32M160 653h32M832 653h32M160 654h32M832 654h32M160 655h32M832 655h32M160 656h32M832 656h32M160 657h32M832 657h32M160 658h32M832 658h32M160 659h32M832 659h32M160 660h32M832 660h32M160 661h32M832 661h32M160 662h32M832 662h32M160 663h32M832 663h32M160 664h32M832 664h32M160 665h32M832 665h32M160 666h32M832 666h32M160 667h32M832 667h32M160 668h32M832 668h32M160 669h32M832 669h32M160 670h32M832 670h32M160 671h32M832 671h32M160 672h32M832 672h32M160 673h32M832 673h32M160 674h32M832 674h32M160 675h32M832 675h32M160 676h32M832 676h32M160 677h32M832 677h32M160 678h32M832 678h32M160 679h32M832 679h32M160 680h32M832 680h32M160 681h32M832 681h32M160 682h32M832 682h32M160 683h32M832 683h32M160 684h32M832 684h32M160 685h32M832 685h32M160 686h32M832 686h32M160 687h32M832 687h32M160 688h32M832 688h32M160 689h32M832 689h32M160 690h32M832 690h32M160 691h32M832 691h32M160 692h32M832 692h32M160 693h32M832 693h32M160 694h32M832 694h32M160 695h32M832 695h32M160 696h32M832 696h32M160 697h32M832 697h32M160 698h32M832 698h32M160 699h32M832 699h32M160 700h32M832 700h32M160 701h32M832 701h32M160 702h32M832 702h32M160 703h32M832 703h32M160 704h32M832 704h32M160 705h32M832 705h32M160 706h32M832 706h32M160 707h32M832 707h32M160 708h32M832 708h32M160 709h32M832 709h32M160 710h32M832 710h32M160 711h32M832 711h32M160 712h32M832 712h32M160 713h32M832 713h32M160 714h32M832 714h32M160 715h32M832 715h32M160 716h32M832 716h32M160 717h32M832 717h32M160 718h32M832 718h32M160 719h32M832 719h32M160 720h32M832 720h32M160 721h32M832 721h32M160 722h32M832 722h32M160 723h32M832 723h32M160 724h32M832 724h32M160 725h32M832 725h32M160 726h32M832 726h32M160 727h32M832 727h32M160 728h32M832 728h32M160 729h32M832 729h32M160 730h32M832 730h32M160 731h32M832 731h32M160 732h32M832 732h32M160 733h32M832 733h32M160 734h32M832 734h32M160 735h32M832 735h32M160 736h32M832 736h32M160 737h32M832 737h32M160 738h32M832 738h32M160 739h32M832 739h32M160 740h32M832 740h32M160 741h32M832 741h32M160 742h32M832 742h32M160 743h32M832 743h32M160 744h32M832 744h32M160 745h32M832 745h32M160 746h32M832 746h32M160 747h32M832 747h32M160 748h32M832 748h32M160 749h32M832 749h32M160 750h32M832 750h32M160 751h32M832 751h32M160 752h32M832 752h32M160 753h32M832 753h32M160 754h32M832 754h32M160 755h32M832 755h32M160 756h32M832 756h32M160 757h32M832 757h32M160 758h32M832 758h32M160 759h32M832 759h32M160 760h32M832 760h32M160 761h32M832 761h32M160 762h32M832 762h32M160 763h32M832 763h32M160 764h32M832 764h32M160 765h32M832 765h32M160 766h32M832 766h32M160 767h32M832 767h32M160 768h32M832 768h32M160 769h32M832 769h32M160 770h32M832 770h32M160 771h32M832 771h32M160 772h32M832 772h32M160 773h32M832 773h32M160 774h32M832 774h32M160 775h32M832 775h32M160 776h32M832 776h32M160 777h32M832 777h32M160 778h32M832 778h32M160 779h32M832 779h32M160 780h32M832 780h32M160 781h32M832 781h32M160 782h32M832 782h32M160 783h32M832 783h32M160 784h32M832 784h32M160 785h32M832 785h32M160 786h32M832 786h32M160 787h32M832 787h32M160 788h32M832 788h32M160 789h32M832 789h32M160 790h32M832 790h32M160 791h32M832 791h32M160 792h32M832 792h32M160 793h32M832 793h32M160 794h32M832 794h32M160 795h32M832 795h32M160 796h32M832 796h32M160 797h32M832 797h32M160 798h32M832 798h32M160 799h32M832 799h32M160 800h32M832 800h32M160 801h32M832 801h32M160 802h32M832 802h32M160 803h32M832 803h32M160 804h32M832 804h32M160 805h32M832 805h32M160 806h32M832 806h32M160 807h32M832 807h32M160 808h32M832 808h32M160 809h32M832 809h32M160 810h32M832 810h32M160 811h32M832 811h32M160 812h32M832 812h32M160 813h32M832 813h32M160 814h32M832 814h32M160 815h32M832 815h32M160 816h32M832 816h32M160 817h32M832 817h32M160 818h32M832 818h32M160 819h32M832 819h32M160 820h32M832 820h32M160 821h32M832 821h32M160 822h32M832 822h32M160 823h32M832 823h32M160 824h32M832 824h32M160 825h32M832 825h32M160 826h32M832 826h32M160 827h32M832 827h32M160 828h32M832 828h32M160 829h32M832 829h32M160 830h32M832 830h32M160 831h32M832 831h32M160 832h32M832 832h32M160 833h32M832 833h32M160 834h32M832 834h32M160 835h32M832 835h32M160 836h32M832 836h32M160 837h32M832 837h32M160 838h32M832 838h32M160 839h32M832 839h32M160 840h32M832 840h32M160 841h32M832 841h32M160 842h32M832 842h32M160 843h32M832 843h32M160 844h32M832 844h32M160 845h32M832 845h32M160 846h32M832 846h32M160 847h32M832 847h32M160 848h32M832 848h32M160 849h32M832 849h32M160 850h32M832 850h32M160 851h32M832 851h32M160 852h32M832 852h32M160 853h32M832 853h32M160 854h32M832 854h32M160 855h32M832 855h32M160 856h32M832 856h32M160 857h32M832 857h32M160 858h32M832 858h32M160 859h32M832 859h32M160 860h32M832 860h32M160 861h32M832 861h32M160 862h32M832 862h32M160 863h32M832 863h32M160 864h32M832 864h32M160 865h32M832 865h32M160 866h32M832 866h32M160 867h32M832 867h32M160 868h32M832 868h32M160 869h32M832 869h32M160 870h32M832 870h32M160 871h32M832 871h32M160 872h32M832 872h32M160 873h32M832 873h32M160 874h32M832 874h32M160 875h32M832 875h32M160 876h32M832 876h32M160 877h32M832 877h32M160 878h32M832 878h32M160 879h32M832 879h32M160 880h32M832 880h32M160 881h32M832 881h32M160 882h32M832 882h32M160 883h32M832 883h32M160 884h32M832 884h32M160 885h32M832 885h32M160 886h32M832 886h32M160 887h32M832 887h32M160 888h32M832 888h32M160 889h32M832 889h32M160 890h32M832 890h32M160 891h32M832 891h32M160 892h32M832 892h32M160 893h32M832 893h32M160 894h32M832 894h32M160 895h32M832 895h32M160 896h32M832 896h32M160 897h32M832 897h32M160 898h32M832 898h32M160 899h32M832 899h32M160 900h32M832 900h32M160 901h32M832 901h32M160 902h32M832 902h32M160 903h32M832 903h32M160 904h32M832 904h32M160 905h32M832 905h32M160 906h32M832 906h32M160 907h32M832 907h32M160 908h32M832 908h32M160 909h32M832 909h32M160 910h32M832 910h32M160 911h32M832 911h32M160 912h32M832 912h32M160 913h32M832 913h32M160 914h32M832 914h32M160 915h32M832 915h32M160 916h32M832 916h32M160 917h32M832 917h32M160 918h32M832 918h32M160 919h32M832 919h32M160 920h32M832 920h32M160 921h32M832 921h32M160 922h32M832 922h32M160 923h32M832 923h32M160 924h32M832 924h32M160 925h32M832 925h32M160 926h32M832 926h32M160 927h32M832 927h32M192 928h640M192 929h640M192 930h640M192 931h640M192 932h640M192 933h640M192 934h640M192 935h640M192 936h640M192 937h640M192 938h640M192 939h640M192 940h640M192 941h640M192 942h640M192 943h640M192 944h640M192 945h640M192 946h640M192 947h640M192 948h640M192 949h640M192 950h640M192 951h640M192 952h640M192 953h640M192 954h640M192 955h640M192 956h640M192 957h640M192 958h640M192 959h640" />
<path stroke="#6d2323" d="M288 256h448M288 257h448M288 258h448M288 259h448M288 260h448M288 261h448M288 262h448M288 263h448M288 264h448M288 265h448M288 266h448M288 267h448M288 268h448M288 269h448M288 270h448M288 271h448M288 272h448M288 273h448M288 274h448M288 275h448M288 276h448M288 277h448M288 278h448M288 279h448M288 280h448M288 281h448M288 282h448M288 283h448M288 284h448M288 285h448M288 286h448M288 287h448M256 288h512M256 289h512M256 290h512M256 291h512M256 292h512M256 293h512M256 294h512M256 295h512M256 296h512M256 297h512M256 298h512M256 299h512M256 300h512M256 301h512M256 302h512M256 303h512M256 304h512M256 305h512M256 306h512M256 307h512M256 308h512M256 309h512M256 310h512M256 311h512M256 312h512M256 313h512M256 314h512M256 315h512M256 316h512M256 317h512M256 318h512M256 319h512M288 320h448M288 321h448M288 322h448M288 323h448M288 324h448M288 325h448M288 326h448M288 327h448M288 328h448M288 329h448M288 330h448M288 331h448M288 332h448M288 333h448M288 334h448M288 335h448M288 336h448M288 337h448M288 338h448M288 339h448M288 340h448M288 341h448M288 342h448M288 343h448M288 344h448M288 345h448M288 346h448M288 347h448M288 348h448M288 349h448M288 350h448M288 351h448M288 352h448M288 353h448M288 354h448M288 355h448M288 356h448M288 357h448M288 358h448M288 359h448M288 360h448M288 361h448M288 362h448M288 363h448M288 364h448M288 365h448M288 366h448M288 367h448M288 368h448M288 369h448M288 370h448M288 371h448M288 372h448M288 373h448M288 374h448M288 375h448M288 376h448M288 377h448M288 378h448M288 379h448M288 380h448M288 381h448M288 382h448M288 383h448M288 384h448M288 385h448M288 386h448M288 387h448M288 388h448M288 389h448M288 390h448M288 391h448M288 392h448M288 393h448M288 394h448M288 395h448M288 396h448M288 397h448M288 398h448M288 399h448M288 400h448M288 401h448M288 402h448M288 403h448M288 404h448M288 405h448M288 406h448M288 407h448M288 408h448M288 409h448M288 410h448M288 411h448M288 412h448M288 413h448M288 414h448M288 415h448M448 416h128M448 417h128M448 418h128M448 419h128M448 420h128M448 421h128M448 422h128M448 423h128M448 424h128M448 425h128M448 426h128M448 427h128M448 428h128M448 429h128M448 430h128M448 431h128M448 432h128M448 433h128M448 434h128M448 435h128M448 436h128M448 437h128M448 438h128M448 439h128M448 440h128M448 441h128M448 442h128M448 443h128M448 444h128M448 445h128M448 446h128M448 447h128M288 640h64M640 640h96M288 641h64M640 641h96M288 642h64M640 642h96M288 643h64M640 643h96M288 644h64M640 644h96M288 645h64M640 645h96M288 646h64M640 646h96M288 647h64M640 647h96M288 648h64M640 648h96M288 649h64M640 649h96M288 650h64M640 650h96M288 651h64M640 651h96M288 652h64M640 652h96M288 653h64M640 653h96M288 654h64M640 654h96M288 655h64M640 655h96M288 656h64M640 656h96M288 657h64M640 657h96M288 658h64M640 658h96M288 659h64M640 659h96M288 660h64M640 660h96M288 661h64M640 661h96M288 662h64M640 662h96M288 663h64M640 663h96M288 664h64M640 664h96M288 665h64M640 665h96M288 666h64M640 666h96M288 667h64M640 667h96M288 668h64M640 668h96M288 669h64M640 669h96M288 670h64M640 670h96M288 671h64M640 671h96M288 672h448M288 673h448M288 674h448M288 675h448M288 676h448M288 677h448M288 678h448M288 679h448M288 680h448M288 681h448M288 682h448M288 683h448M288 684h448M288 685h448M288 686h448M288 687h448M288 688h448M288 689h448M288 690h448M288 691h448M288 692h448M288 693h448M288 694h448M288 695h448M288 696h448M288 697h448M288 698h448M288 699h448M288 700h448M288 701h448M288 702h448M288 703h448M288 704h448M288 705h448M288 706h448M288 707h448M288 708h448M288 709h448M288 710h448M288 711h448M288 712h448M288 713h448M288 714h448M288 715h448M288 716h448M288 717h448M288 718h448M288 719h448M288 720h448M288 721h448M288 722h448M288 723h448M288 724h448M288 725h448M288 726h448M288 727h448M288 728h448M288 729h448M288 730h448M288 731h448M288 732h448M288 733h448M288 734h448M288 735h448M288 736h448M288 737h448M288 738h448M288 739h448M288 740h448M288 741h448M288 742h448M288 743h448M288 744h448M288 745h448M288 746h448M288 747h448M288 748h448M288 749h448M288 750h448M288 751h448M288 752h448M288 753h448M288 754h448M288 755h448M288 756h448M288 757h448M288 758h448M288 759h448M288 760h448M288 761h448M288 762h448M288 763h448M288 764h448M288 765h448M288 766h448M288 767h448M288 832h448M288 833h448M288 834h448M288 835h448M288 836h448M288 837h448M288 838h448M288 839h448M288 840h448M288 841h448M288 842h448M288 843h448M288 844h448M288 845h448M288 846h448M288 847h448M288 848h448M288 849h448M288 850h448M288 851h448M288 852h448M288 853h448M288 854h448M288 855h448M288 856h448M288 857h448M288 858h448M288 859h448M288 860h448M288 861h448M288 862h448M288 863h448M288 864h448M288 865h448M288 866h448M288 867h448M288 868h448M288 869h448M288 870h448M288 871h448M288 872h448M288 873h448M288 874h448M288 875h448M288 876h448M288 877h448M288 878h448M288 879h448M288 880h448M288 881h448M288 882h448M288 883h448M288 884h448M288 885h448M288 886h448M288 887h448M288 888h448M288 889h448M288 890h448M288 891h448M288 892h448M288 893h448M288 894h448M288 895h448M288 896h448M288 897h448M288 898h448M288 899h448M288 900h448M288 901h448M288 902h448M288 903h448M288 904h448M288 905h448M288 906h448M288 907h448M288 908h448M288 909h448M288 910h448M288 911h448M288 912h448M288 913h448M288 914h448M288 915h448M288 916h448M288 917h448M288 918h448M288 919h448M288 920h448M288 921h448M288 922h448M288 923h448M288 924h448M288 925h448M288 926h448M288 927h448" />
<path stroke="#f1ff00" d="M192 320h96M736 320h96M192 321h96M736 321h96M192 322h96M736 322h96M192 323h96M736 323h96M192 324h96M736 324h96M192 325h96M736 325h96M192 326h96M736 326h96M192 327h96M736 327h96M192 328h96M736 328h96M192 329h96M736 329h96M192 330h96M736 330h96M192 331h96M736 331h96M192 332h96M736 332h96M192 333h96M736 333h96M192 334h96M736 334h96M192 335h96M736 335h96M192 336h96M736 336h96M192 337h96M736 337h96M192 338h96M736 338h96M192 339h96M736 339h96M192 340h96M736 340h96M192 341h96M736 341h96M192 342h96M736 342h96M192 343h96M736 343h96M192 344h96M736 344h96M192 345h96M736 345h96M192 346h96M736 346h96M192 347h96M736 347h96M192 348h96M736 348h96M192 349h96M736 349h96M192 350h96M736 350h96M192 351h96M736 351h96M192 352h96M736 352h96M192 353h96M736 353h96M192 354h96M736 354h96M192 355h96M736 355h96M192 356h96M736 356h96M192 357h96M736 357h96M192 358h96M736 358h96M192 359h96M736 359h96M192 360h96M736 360h96M192 361h96M736 361h96M192 362h96M736 362h96M192 363h96M736 363h96M192 364h96M736 364h96M192 365h96M736 365h96M192 366h96M736 366h96M192 367h96M736 367h96M192 368h96M736 368h96M192 369h96M736 369h96M192 370h96M736 370h96M192 371h96M736 371h96M192 372h96M736 372h96M192 373h96M736 373h96M192 374h96M736 374h96M192 375h96M736 375h96M192 376h96M736 376h96M192 377h96M736 377h96M192 378h96M736 378h96M192 379h96M736 379h96M192 380h96M736 380h96M192 381h96M736 381h96M192 382h96M736 382h96M192 383h96M736 383h96M192 384h96M736 384h96M192 385h96M736 385h96M192 386h96M736 386h96M192 387h96M736 387h96M192 388h96M736 388h96M192 389h96M736 389h96M192 390h96M736 390h96M192 391h96M736 391h96M192 392h96M736 392h96M192 393h96M736 393h96M192 394h96M736 394h96M192 395h96M736 395h96M192 396h96M736 396h96M192 397h96M736 397h96M192 398h96M736 398h96M192 399h96M736 399h96M192 400h96M736 400h96M192 401h96M736 401h96M192 402h96M736 402h96M192 403h96M736 403h96M192 404h96M736 404h96M192 405h96M736 405h96M192 406h96M736 406h96M192 407h96M736 407h96M192 408h96M736 408h96M192 409h96M736 409h96M192 410h96M736 410h96M192 411h96M736 411h96M192 412h96M736 412h96M192 413h96M736 413h96M192 414h96M736 414h96M192 415h96M736 415h96M192 416h96M736 416h96M192 417h96M736 417h96M192 418h96M736 418h96M192 419h96M736 419h96M192 420h96M736 420h96M192 421h96M736 421h96M192 422h96M736 422h96M192 423h96M736 423h96M192 424h96M736 424h96M192 425h96M736 425h96M192 426h96M736 426h96M192 427h96M736 427h96M192 428h96M736 428h96M192 429h96M736 429h96M192 430h96M736 430h96M192 431h96M736 431h96M192 432h96M736 432h96M192 433h96M736 433h96M192 434h96M736 434h96M192 435h96M736 435h96M192 436h96M736 436h96M192 437h96M736 437h96M192 438h96M736 438h96M192 439h96M736 439h96M192 440h96M736 440h96M192 441h96M736 441h96M192 442h96M736 442h96M192 443h96M736 443h96M192 444h96M736 444h96M192 445h96M736 445h96M192 446h96M736 446h96M192 447h96M736 447h96M192 448h96M448 448h128M736 448h96M192 449h96M448 449h128M736 449h96M192 450h96M448 450h128M736 450h96M192 451h96M448 451h128M736 451h96M192 452h96M448 452h128M736 452h96M192 453h96M448 453h128M736 453h96M192 454h96M448 454h128M736 454h96M192 455h96M448 455h128M736 455h96M192 456h96M448 456h128M736 456h96M192 457h96M448 457h128M736 457h96M192 458h96M448 458h128M736 458h96M192 459h96M448 459h128M736 459h96M192 460h96M448 460h128M736 460h96M192 461h96M448 461h128M736 461h96M192 462h96M448 462h128M736 462h96M192 463h96M448 463h128M736 463h96M192 464h96M448 464h128M736 464h96M192 465h96M448 465h128M736 465h96M192 466h96M448 466h128M736 466h96M192 467h96M448 467h128M736 467h96M192 468h96M448 468h128M736 468h96M192 469h96M448 469h128M736 469h96M192 470h96M448 470h128M736 470h96M192 471h96M448 471h128M736 471h96M192 472h96M448 472h128M736 472h96M192 473h96M448 473h128M736 473h96M192 474h96M448 474h128M736 474h96M192 475h96M448 475h128M736 475h96M192 476h96M448 476h128M736 476h96M192 477h96M448 477h128M736 477h96M192 478h96M448 478h128M736 478h96M192 479h96M448 479h128M736 479h96M288 480h96M512 480h224M288 481h96M512 481h224M288 482h96M512 482h224M288 483h96M512 483h224M288 484h96M512 484h224M288 485h96M512 485h224M288 486h96M512 486h224M288 487h96M512 487h224M288 488h96M512 488h224M288 489h96M512 489h224M288 490h96M512 490h224M288 491h96M512 491h224M288 492h96M512 492h224M288 493h96M512 493h224M288 494h96M512 494h224M288 495h96M512 495h224M288 496h96M512 496h224M288 497h96M512 497h224M288 498h96M512 498h224M288 499h96M512 499h224M288 500h96M512 500h224M288 501h96M512 501h224M288 502h96M512 502h224M288 503h96M512 503h224M288 504h96M512 504h224M288 505h96M512 505h224M288 506h96M512 506h224M288 507h96M512 507h224M288 508h96M512 508h224M288 509h96M512 509h224M288 510h96M512 510h224M288 511h96M512 511h224M288 512h96M512 512h224M288 513h96M512 513h224M288 514h96M512 514h224M288 515h96M512 515h224M288 516h96M512 516h224M288 517h96M512 517h224M288 518h96M512 518h224M288 519h96M512 519h224M288 520h96M512 520h224M288 521h96M512 521h224M288 522h96M512 522h224M288 523h96M512 523h224M288 524h96M512 524h224M288 525h96M512 525h224M288 526h96M512 526h224M288 527h96M512 527h224M288 528h96M512 528h224M288 529h96M512 529h224M288 530h96M512 530h224M288 531h96M512 531h224M288 532h96M512 532h224M288 533h96M512 533h224M288 534h96M512 534h224M288 535h96M512 535h224M288 536h96M512 536h224M288 537h96M512 537h224M288 538h96M512 538h224M288 539h96M512 539h224M288 540h96M512 540h224M288 541h96M512 541h224M288 542h96M512 542h224M288 543h96M512 543h224M192 736h96M736 736h96M192 737h96M736 737h96M192 738h96M736 738h96M192 739h96M736 739h96M192 740h96M736 740h96M192 741h96M736 741h96M192 742h96M736 742h96M192 743h96M736 743h96M192 744h96M736 744h96M192 745h96M736 745h96M192 746h96M736 746h96M192 747h96M736 747h96M192 748h96M736 748h96M192 749h96M736 749h96M192 750h96M736 750h96M192 751h96M736 751h96M192 752h96M736 752h96M192 753h96M736 753h96M192 754h96M736 754h96M192 755h96M736 755h96M192 756h96M736 756h96M192 757h96M736 757h96M192 758h96M736 758h96M192 759h96M736 759h96M192 760h96M736 760h96M192 761h96M736 761h96M192 762h96M736 762h96M192 763h96M736 763h96M192 764h96M736 764h96M192 765h96M736 765h96M192 766h96M736 766h96M192 767h96M736 767h96M192 768h96M736 768h96M192 769h96M736 769h96M192 770h96M736 770h96M192 771h96M736 771h96M192 772h96M736 772h96M192 773h96M736 773h96M192 774h96M736 774h96M192 775h96M736 775h96M192 776h96M736 776h96M192 777h96M736 777h96M192 778h96M736 778h96M192 779h96M736 779h96M192 780h96M736 780h96M192 781h96M736 781h96M192 782h96M736 782h96M192 783h96M736 783h96M192 784h96M736 784h96M192 785h96M736 785h96M192 786h96M736 786h96M192 787h96M736 787h96M192 788h96M736 788h96M192 789h96M736 789h96M192 790h96M736 790h96M192 791h96M736 791h96M192 792h96M736 792h96M192 793h96M736 793h96M192 794h96M736 794h96M192 795h96M736 795h96M192 796h96M736 796h96M192 797h96M736 797h96M192 798h96M736 798h96M192 799h96M736 799h96M192 800h96M736 800h96M192 801h96M736 801h96M192 802h96M736 802h96M192 803h96M736 803h96M192 804h96M736 804h96M192 805h96M736 805h96M192 806h96M736 806h96M192 807h96M736 807h96M192 808h96M736 808h96M192 809h96M736 809h96M192 810h96M736 810h96M192 811h96M736 811h96M192 812h96M736 812h96M192 813h96M736 813h96M192 814h96M736 814h96M192 815h96M736 815h96M192 816h96M736 816h96M192 817h96M736 817h96M192 818h96M736 818h96M192 819h96M736 819h96M192 820h96M736 820h96M192 821h96M736 821h96M192 822h96M736 822h96M192 823h96M736 823h96M192 824h96M736 824h96M192 825h96M736 825h96M192 826h96M736 826h96M192 827h96M736 827h96M192 828h96M736 828h96M192 829h96M736 829h96M192 830h96M736 830h96M192 831h96M736 831h96M192 832h96M736 832h96M192 833h96M736 833h96M192 834h96M736 834h96M192 835h96M736 835h96M192 836h96M736 836h96M192 837h96M736 837h96M192 838h96M736 838h96M192 839h96M736 839h96M192 840h96M736 840h96M192 841h96M736 841h96M192 842h96M736 842h96M192 843h96M736 843h96M192 844h96M736 844h96M192 845h96M736 845h96M192 846h96M736 846h96M192 847h96M736 847h96M192 848h96M736 848h96M192 849h96M736 849h96M192 850h96M736 850h96M192 851h96M736 851h96M192 852h96M736 852h96M192 853h96M736 853h96M192 854h96M736 854h96M192 855h96M736 855h96M192 856h96M736 856h96M192 857h96M736 857h96M192 858h96M736 858h96M192 859h96M736 859h96M192 860h96M736 860h96M192 861h96M736 861h96M192 862h96M736 862h96M192 863h96M736 863h96M256 864h32M736 864h32M256 865h32M736 865h32M256 866h32M736 866h32M256 867h32M736 867h32M256 868h32M736 868h32M256 869h32M736 869h32M256 870h32M736 870h32M256 871h32M736 871h32M256 872h32M736 872h32M256 873h32M736 873h32M256 874h32M736 874h32M256 875h32M736 875h32M256 876h32M736 876h32M256 877h32M736 877h32M256 878h32M736 878h32M256 879h32M736 879h32M256 880h32M736 880h32M256 881h32M736 881h32M256 882h32M736 882h32M256 883h32M736 883h32M256 884h32M736 884h32M256 885h32M736 885h32M256 886h32M736 886h32M256 887h32M736 887h32M256 888h32M736 888h32M256 889h32M736 889h32M256 890h32M736 890h32M256 891h32M736 891h32M256 892h32M736 892h32M256 893h32M736 893h32M256 894h32M736 894h32M256 895h32M736 895h32M256 896h32M736 896h32M256 897h32M736 897h32M256 898h32M736 898h32M256 899h32M736 899h32M256 900h32M736 900h32M256 901h32M736 901h32M256 902h32M736 902h32M256 903h32M736 903h32M256 904h32M736 904h32M256 905h32M736 905h32M256 906h32M736 906h32M256 907h32M736 907h32M256 908h32M736 908h32M256 909h32M736 909h32M256 910h32M736 910h32M256 911h32M736 911h32M256 912h32M736 912h32M256 913h32M736 913h32M256 914h32M736 914h32M256 915h32M736 915h32M256 916h32M736 916h32M256 917h32M736 917h32M256 918h32M736 918h32M256 919h32M736 919h32M256 920h32M736 920h32M256 921h32M736 921h32M256 922h32M736 922h32M256 923h32M736 923h32M256 924h32M736 924h32M256 925h32M736 925h32M256 926h32M736 926h32M256 927h32M736 927h32" />
<path stroke="#3f1616" d="M288 416h160M576 416h160M288 417h160M576 417h160M288 418h160M576 418h160M288 419h160M576 419h160M288 420h160M576 420h160M288 421h160M576 421h160M288 422h160M576 422h160M288 423h160M576 423h160M288 424h160M576 424h160M288 425h160M576 425h160M288 426h160M576 426h160M288 427h160M576 427h160M288 428h160M576 428h160M288 429h160M576 429h160M288 430h160M576 430h160M288 431h160M576 431h160M288 432h160M576 432h160M288 433h160M576 433h160M288 434h160M576 434h160M288 435h160M576 435h160M288 436h160M576 436h160M288 437h160M576 437h160M288 438h160M576 438h160M288 439h160M576 439h160M288 440h160M576 440h160M288 441h160M576 441h160M288 442h160M576 442h160M288 443h160M576 443h160M288 444h160M576 444h160M288 445h160M576 445h160M288 446h160M576 446h160M288 447h160M576 447h160M288 448h160M576 448h160M288 449h160M576 449h160M288 450h160M576 450h160M288 451h160M576 451h160M288 452h160M576 452h160M288 453h160M576 453h160M288 454h160M576 454h160M288 455h160M576 455h160M288 456h160M576 456h160M288 457h160M576 457h160M288 458h160M576 458h160M288 459h160M576 459h160M288 460h160M576 460h160M288 461h160M576 461h160M288 462h160M576 462h160M288 463h160M576 463h160M288 464h160M576 464h160M288 465h160M576 465h160M288 466h160M576 466h160M288 467h160M576 467h160M288 468h160M576 468h160M288 469h160M576 469h160M288 470h160M576 470h160M288 471h160M576 471h160M288 472h160M576 472h160M288 473h160M576 473h160M288 474h160M576 474h160M288 475h160M576 475h160M288 476h160M576 476h160M288 477h160M576 477h160M288 478h160M576 478h160M288 479h160M576 479h160M288 576h128M576 576h160M288 577h128M576 577h160M288 578h128M576 578h160M288 579h128M576 579h160M288 580h128M576 580h160M288 581h128M576 581h160M288 582h128M576 582h160M288 583h128M576 583h160M288 584h128M576 584h160M288 585h128M576 585h160M288 586h128M576 586h160M288 587h128M576 587h160M288 588h128M576 588h160M288 589h128M576 589h160M288 590h128M576 590h160M288 591h128M576 591h160M288 592h128M576 592h160M288 593h128M576 593h160M288 594h128M576 594h160M288 595h128M576 595h160M288 596h128M576 596h160M288 597h128M576 597h160M288 598h128M576 598h160M288 599h128M576 599h160M288 600h128M576 600h160M288 601h128M576 601h160M288 602h128M576 602h160M288 603h128M576 603h160M288 604h128M576 604h160M288 605h128M576 605h160M288 606h128M576 606h160M288 607h128M576 607h160M288 608h448M288 609h448M288 610h448M288 611h448M288 612h448M288 613h448M288 614h448M288 615h448M288 616h448M288 617h448M288 618h448M288 619h448M288 620h448M288 621h448M288 622h448M288 623h448M288 624h448M288 625h448M288 626h448M288 627h448M288 628h448M288 629h448M288 630h448M288 631h448M288 632h448M288 633h448M288 634h448M288 635h448M288 636h448M288 637h448M288 638h448M288 639h448M352 640h288M352 641h288M352 642h288M352 643h288M352 644h288M352 645h288M352 646h288M352 647h288M352 648h288M352 649h288M352 650h288M352 651h288M352 652h288M352 653h288M352 654h288M352 655h288M352 656h288M352 657h288M352 658h288M352 659h288M352 660h288M352 661h288M352 662h288M352 663h288M352 664h288M352 665h288M352 666h288M352 667h288M352 668h288M352 669h288M352 670h288M352 671h288M288 768h448M288 769h448M288 770h448M288 771h448M288 772h448M288 773h448M288 774h448M288 775h448M288 776h448M288 777h448M288 778h448M288 779h448M288 780h448M288 781h448M288 782h448M288 783h448M288 784h448M288 785h448M288 786h448M288 787h448M288 788h448M288 789h448M288 790h448M288 791h448M288 792h448M288 793h448M288 794h448M288 795h448M288 796h448M288 797h448M288 798h448M288 799h448M288 800h448M288 801h448M288 802h448M288 803h448M288 804h448M288 805h448M288 806h448M288 807h448M288 808h448M288 809h448M288 810h448M288 811h448M288 812h448M288 813h448M288 814h448M288 815h448M288 816h448M288 817h448M288 818h448M288 819h448M288 820h448M288 821h448M288 822h448M288 823h448M288 824h448M288 825h448M288 826h448M288 827h448M288 828h448M288 829h448M288 830h448M288 831h448" />
<path stroke="#e9cf1b" d="M192 480h96M384 480h128M736 480h96M192 481h96M384 481h128M736 481h96M192 482h96M384 482h128M736 482h96M192 483h96M384 483h128M736 483h96M192 484h96M384 484h128M736 484h96M192 485h96M384 485h128M736 485h96M192 486h96M384 486h128M736 486h96M192 487h96M384 487h128M736 487h96M192 488h96M384 488h128M736 488h96M192 489h96M384 489h128M736 489h96M192 490h96M384 490h128M736 490h96M192 491h96M384 491h128M736 491h96M192 492h96M384 492h128M736 492h96M192 493h96M384 493h128M736 493h96M192 494h96M384 494h128M736 494h96M192 495h96M384 495h128M736 495h96M192 496h96M384 496h128M736 496h96M192 497h96M384 497h128M736 497h96M192 498h96M384 498h128M736 498h96M192 499h96M384 499h128M736 499h96M192 500h96M384 500h128M736 500h96M192 501h96M384 501h128M736 501h96M192 502h96M384 502h128M736 502h96M192 503h96M384 503h128M736 503h96M192 504h96M384 504h128M736 504h96M192 505h96M384 505h128M736 505h96M192 506h96M384 506h128M736 506h96M192 507h96M384 507h128M736 507h96M192 508h96M384 508h128M736 508h96M192 509h96M384 509h128M736 509h96M192 510h96M384 510h128M736 510h96M192 511h96M384 511h128M736 511h96M192 512h96M384 512h128M736 512h96M192 513h96M384 513h128M736 513h96M192 514h96M384 514h128M736 514h96M192 515h96M384 515h128M736 515h96M192 516h96M384 516h128M736 516h96M192 517h96M384 517h128M736 517h96M192 518h96M384 518h128M736 518h96M192 519h96M384 519h128M736 519h96M192 520h96M384 520h128M736 520h96M192 521h96M384 521h128M736 521h96M192 522h96M384 522h128M736 522h96M192 523h96M384 523h128M736 523h96M192 524h96M384 524h128M736 524h96M192 525h96M384 525h128M736 525h96M192 526h96M384 526h128M736 526h96M192 527h96M384 527h128M736 527h96M192 528h96M384 528h128M736 528h96M192 529h96M384 529h128M736 529h96M192 530h96M384 530h128M736 530h96M192 531h96M384 531h128M736 531h96M192 532h96M384 532h128M736 532h96M192 533h96M384 533h128M736 533h96M192 534h96M384 534h128M736 534h96M192 535h96M384 535h128M736 535h96M192 536h96M384 536h128M736 536h96M192 537h96M384 537h128M736 537h96M192 538h96M384 538h128M736 538h96M192 539h96M384 539h128M736 539h96M192 540h96M384 540h128M736 540h96M192 541h96M384 541h128M736 541h96M192 542h96M384 542h128M736 542h96M192 543h96M384 543h128M736 543h96M192 544h96M448 544h128M736 544h96M192 545h96M448 545h128M736 545h96M192 546h96M448 546h128M736 546h96M192 547h96M448 547h128M736 547h96M192 548h96M448 548h128M736 548h96M192 549h96M448 549h128M736 549h96M192 550h96M448 550h128M736 550h96M192 551h96M448 551h128M736 551h96M192 552h96M448 552h128M736 552h96M192 553h96M448 553h128M736 553h96M192 554h96M448 554h128M736 554h96M192 555h96M448 555h128M736 555h96M192 556h96M448 556h128M736 556h96M192 557h96M448 557h128M736 557h96M192 558h96M448 558h128M736 558h96M192 559h96M448 559h128M736 559h96M192 560h96M448 560h128M736 560h96M192 561h96M448 561h128M736 561h96M192 562h96M448 562h128M736 562h96M192 563h96M448 563h128M736 563h96M192 564h96M448 564h128M736 564h96M192 565h96M448 565h128M736 565h96M192 566h96M448 566h128M736 566h96M192 567h96M448 567h128M736 567h96M192 568h96M448 568h128M736 568h96M192 569h96M448 569h128M736 569h96M192 570h96M448 570h128M736 570h96M192 571h96M448 571h128M736 571h96M192 572h96M448 572h128M736 572h96M192 573h96M448 573h128M736 573h96M192 574h96M448 574h128M736 574h96M192 575h96M448 575h128M736 575h96M192 576h96M736 576h96M192 577h96M736 577h96M192 578h96M736 578h96M192 579h96M736 579h96M192 580h96M736 580h96M192 581h96M736 581h96M192 582h96M736 582h96M192 583h96M736 583h96M192 584h96M736 584h96M192 585h96M736 585h96M192 586h96M736 586h96M192 587h96M736 587h96M192 588h96M736 588h96M192 589h96M736 589h96M192 590h96M736 590h96M192 591h96M736 591h96M192 592h96M736 592h96M192 593h96M736 593h96M192 594h96M736 594h96M192 595h96M736 595h96M192 596h96M736 596h96M192 597h96M736 597h96M192 598h96M736 598h96M192 599h96M736 599h96M192 600h96M736 600h96M192 601h96M736 601h96M192 602h96M736 602h96M192 603h96M736 603h96M192 604h96M736 604h96M192 605h96M736 605h96M192 606h96M736 606h96M192 607h96M736 607h96M192 608h96M736 608h96M192 609h96M736 609h96M192 610h96M736 610h96M192 611h96M736 611h96M192 612h96M736 612h96M192 613h96M736 613h96M192 614h96M736 614h96M192 615h96M736 615h96M192 616h96M736 616h96M192 617h96M736 617h96M192 618h96M736 618h96M192 619h96M736 619h96M192 620h96M736 620h96M192 621h96M736 621h96M192 622h96M736 622h96M192 623h96M736 623h96M192 624h96M736 624h96M192 625h96M736 625h96M192 626h96M736 626h96M192 627h96M736 627h96M192 628h96M736 628h96M192 629h96M736 629h96M192 630h96M736 630h96M192 631h96M736 631h96M192 632h96M736 632h96M192 633h96M736 633h96M192 634h96M736 634h96M192 635h96M736 635h96M192 636h96M736 636h96M192 637h96M736 637h96M192 638h96M736 638h96M192 639h96M736 639h96M192 640h96M736 640h96M192 641h96M736 641h96M192 642h96M736 642h96M192 643h96M736 643h96M192 644h96M736 644h96M192 645h96M736 645h96M192 646h96M736 646h96M192 647h96M736 647h96M192 648h96M736 648h96M192 649h96M736 649h96M192 650h96M736 650h96M192 651h96M736 651h96M192 652h96M736 652h96M192 653h96M736 653h96M192 654h96M736 654h96M192 655h96M736 655h96M192 656h96M736 656h96M192 657h96M736 657h96M192 658h96M736 658h96M192 659h96M736 659h96M192 660h96M736 660h96M192 661h96M736 661h96M192 662h96M736 662h96M192 663h96M736 663h96M192 664h96M736 664h96M192 665h96M736 665h96M192 666h96M736 666h96M192 667h96M736 667h96M192 668h96M736 668h96M192 669h96M736 669h96M192 670h96M736 670h96M192 671h96M736 671h96M192 672h96M736 672h96M192 673h96M736 673h96M192 674h96M736 674h96M192 675h96M736 675h96M192 676h96M736 676h96M192 677h96M736 677h96M192 678h96M736 678h96M192 679h96M736 679h96M192 680h96M736 680h96M192 681h96M736 681h96M192 682h96M736 682h96M192 683h96M736 683h96M192 684h96M736 684h96M192 685h96M736 685h96M192 686h96M736 686h96M192 687h96M736 687h96M192 688h96M736 688h96M192 689h96M736 689h96M192 690h96M736 690h96M192 691h96M736 691h96M192 692h96M736 692h96M192 693h96M736 693h96M192 694h96M736 694h96M192 695h96M736 695h96M192 696h96M736 696h96M192 697h96M736 697h96M192 698h96M736 698h96M192 699h96M736 699h96M192 700h96M736 700h96M192 701h96M736 701h96M192 702h96M736 702h96M192 703h96M736 703h96M192 704h96M736 704h96M192 705h96M736 705h96M192 706h96M736 706h96M192 707h96M736 707h96M192 708h96M736 708h96M192 709h96M736 709h96M192 710h96M736 710h96M192 711h96M736 711h96M192 712h96M736 712h96M192 713h96M736 713h96M192 714h96M736 714h96M192 715h96M736 715h96M192 716h96M736 716h96M192 717h96M736 717h96M192 718h96M736 718h96M192 719h96M736 719h96M192 720h96M736 720h96M192 721h96M736 721h96M192 722h96M736 722h96M192 723h96M736 723h96M192 724h96M736 724h96M192 725h96M736 725h96M192 726h96M736 726h96M192 727h96M736 727h96M192 728h96M736 728h96M192 729h96M736 729h96M192 730h96M736 730h96M192 731h96M736 731h96M192 732h96M736 732h96M192 733h96M736 733h96M192 734h96M736 734h96M192 735h96M736 735h96M192 864h64M768 864h64M192 865h64M768 865h64M192 866h64M768 866h64M192 867h64M768 867h64M192 868h64M768 868h64M192 869h64M768 869h64M192 870h64M768 870h64M192 871h64M768 871h64M192 872h64M768 872h64M192 873h64M768 873h64M192 874h64M768 874h64M192 875h64M768 875h64M192 876h64M768 876h64M192 877h64M768 877h64M192 878h64M768 878h64M192 879h64M768 879h64M192 880h64M768 880h64M192 881h64M768 881h64M192 882h64M768 882h64M192 883h64M768 883h64M192 884h64M768 884h64M192 885h64M768 885h64M192 886h64M768 886h64M192 887h64M768 887h64M192 888h64M768 888h64M192 889h64M768 889h64M192 890h64M768 890h64M192 891h64M768 891h64M192 892h64M768 892h64M192 893h64M768 893h64M192 894h64M768 894h64M192 895h64M768 895h64M192 896h64M768 896h64M192 897h64M768 897h64M192 898h64M768 898h64M192 899h64M768 899h64M192 900h64M768 900h64M192 901h64M768 901h64M192 902h64M768 902h64M192 903h64M768 903h64M192 904h64M768 904h64M192 905h64M768 905h64M192 906h64M768 906h64M192 907h64M768 907h64M192 908h64M768 908h64M192 909h64M768 909h64M192 910h64M768 910h64M192 911h64M768 911h64M192 912h64M768 912h64M192 913h64M768 913h64M192 914h64M768 914h64M192 915h64M768 915h64M192 916h64M768 916h64M192 917h64M768 917h64M192 918h64M768 918h64M192 919h64M768 919h64M192 920h64M768 920h64M192 921h64M768 921h64M192 922h64M768 922h64M192 923h64M768 923h64M192 924h64M768 924h64M192 925h64M768 925h64M192 926h64M768 926h64M192 927h64M768 927h64" />
<path stroke="#9e651a" d="M288 544h160M576 544h160M288 545h160M576 545h160M288 546h160M576 546h160M288 547h160M576 547h160M288 548h160M576 548h160M288 549h160M576 549h160M288 550h160M576 550h160M288 551h160M576 551h160M288 552h160M576 552h160M288 553h160M576 553h160M288 554h160M576 554h160M288 555h160M576 555h160M288 556h160M576 556h160M288 557h160M576 557h160M288 558h160M576 558h160M288 559h160M576 559h160M288 560h160M576 560h160M288 561h160M576 561h160M288 562h160M576 562h160M288 563h160M576 563h160M288 564h160M576 564h160M288 565h160M576 565h160M288 566h160M576 566h160M288 567h160M576 567h160M288 568h160M576 568h160M288 569h160M576 569h160M288 570h160M576 570h160M288 571h160M576 571h160M288 572h160M576 572h160M288 573h160M576 573h160M288 574h160M576 574h160M288 575h160M576 575h160M416 576h160M416 577h160M416 578h160M416 579h160M416 580h160M416 581h160M416 582h160M416 583h160M416 584h160M416 585h160M416 586h160M416 587h160M416 588h160M416 589h160M416 590h160M416 591h160M416 592h160M416 593h160M416 594h160M416 595h160M416 596h160M416 597h160M416 598h160M416 599h160M416 600h160M416 601h160M416 602h160M416 603h160M416 604h160M416 605h160M416 606h160M416 607h160" />
</svg>