<svg xmlns="http://www.w3.org/2000/svg" viewBox="0 -0.5 32 32" shape-rendering="crispEdges">
<metadata>Made with Pixels to Svg https://codepen.io/shshaw/pen/XbxvNj</metadata>
<path stroke="#1b1b1b" d="M8 5h4M20 5h4M8 6h4M20 6h4M7 7h1M11 7h1M20 7h1M24 7h1M6 8h1M12 8h8M25 8h1M5 9h1M26 9h1M5 10h1M26 10h1M5 11h1M15 11h3M26 11h1M5 12h1M14 12h2M17 12h2M26 12h1M5 13h1M15 13h3M26 13h1M5 14h1M26 14h1M5 15h1M11 15h3M17 15h3M26 15h1M5 16h1M11 16h3M17 16h3M26 16h1M5 17h1M26 17h1M5 18h1M26 18h1M4 19h1M12 19h8M27 19h1M4 20h1M11 20h1M20 20h1M27 20h1M4 21h1M10 21h1M21 21h1M27 21h1M4 22h1M9 22h1M22 22h1M27 22h1M5 23h4M23 23h4" />
<path stroke="#4c0897" d="M8 7h3M21 7h3M7 8h5M20 8h5M6 9h20M6 10h20M6 11h2M9 11h6M18 11h4M23 11h3M6 12h1M10 12h4M19 12h7M11 13h4M18 13h2M21 13h3M25 13h1M6 14h1M10 14h16M6 15h2M9 15h2M14 15h3M20 15h2M23 15h3M6 16h5M14 16h3M20 16h6M6 17h20M6 18h20M5 19h7M20 19h7M5 20h6M21 20h6M5 21h5M22 21h5M5 22h4M23 22h4" />
<path stroke="#000000" d="M8 11h1M7 12h3M6 13h2M9 13h2M7 14h3M8 15h1" />
<path stroke="#f1ff00" d="M22 11h1" />
<path stroke="#ffffff" d="M16 12h1M8 13h1" />
<path stroke="#4200ff" d="M20 13h1" />
<path stroke="#ff0000" d="M24 13h1" />
<path stroke="#81ff00" d="M22 15h1" />
</svg>