<svg xmlns="http://www.w3.org/2000/svg" viewBox="0 -0.5 32 32" shape-rendering="crispEdges">
<metadata>Made with Pixels to Svg https://codepen.io/shshaw/pen/XbxvNj</metadata>
<path stroke="#000000" d="M12 4h8M10 5h2M20 5h2M9 6h1M22 6h1M7 7h2M23 7h2M7 8h1M24 8h1M6 9h1M25 9h1M5 10h1M26 10h1M5 11h1M26 11h1M4 12h1M10 12h3M19 12h3M27 12h1M4 13h1M10 13h3M19 13h3M27 13h1M4 14h1M10 14h3M19 14h3M27 14h1M4 15h1M27 15h1M4 16h1M27 16h1M4 17h1M27 17h1M4 18h1M27 18h1M4 19h1M27 19h1M5 20h1M11 20h2M19 20h2M26 20h1M5 21h1M11 21h3M18 21h3M26 21h1M6 22h1M12 22h8M25 22h1M7 23h1M13 23h6M24 23h1M7 24h2M23 24h2M9 25h1M22 25h1M10 26h2M20 26h2M12 27h8" />
<path stroke="#fffdc5" d="M12 5h8M10 6h12M9 7h14M8 8h16M7 9h18M6 10h20M6 11h20M5 12h5M13 12h6M22 12h5M5 13h5M13 13h6M22 13h5M5 14h5M13 14h6M22 14h5M5 15h22M5 16h22M5 17h22M5 18h22M5 19h22M6 20h5M13 20h6M21 20h5M6 21h5M14 21h4M21 21h5M7 22h5M20 22h5M8 23h5M19 23h5M9 24h14M10 25h12M12 26h8" />
</svg>