<svg xmlns="http://www.w3.org/2000/svg" viewBox="0 -0.5 32 32" shape-rendering="crispEdges">
<metadata>Made with Pixels to Svg https://codepen.io/shshaw/pen/XbxvNj</metadata>
<path stroke="#000000" d="M8 5h5M19 5h5M6 6h2M12 6h2M18 6h2M24 6h2M6 7h1M13 7h2M17 7h2M25 7h1M5 8h1M15 8h2M26 8h1M5 9h1M15 9h2M26 9h1M5 10h1M26 10h1M5 11h1M26 11h1M5 12h1M26 12h1M5 13h1M26 13h1M5 14h1M26 14h1M5 15h1M26 15h1M5 16h2M25 16h2M6 17h2M24 17h2M7 18h2M23 18h2M8 19h2M22 19h2M9 20h2M21 20h2M10 21h2M20 21h2M11 22h2M19 22h2M12 23h2M18 23h2M13 24h2M17 24h2M14 25h1M17 25h1M15 26h2" />
<path stroke="#ff0b00" d="M8 6h4M20 6h4M7 7h6M19 7h6M6 8h1M9 8h6M17 8h9M6 9h1M9 9h6M17 9h9M6 10h1M9 10h17M6 11h1M9 11h17M6 12h1M9 12h17M6 13h1M10 13h16M6 14h2M10 14h16M6 15h3M11 15h15M7 16h2M11 16h14M8 17h2M12 17h12M9 18h1M12 18h11M10 19h12M11 20h10M12 21h8M13 22h6M14 23h4M15 24h2M15 25h2" />
<path stroke="#ffffff" d="M7 8h2M7 9h2M7 10h2M7 11h2M7 12h2M7 13h3M8 14h2M9 15h2M9 16h2M10 17h2M10 18h2" />
</svg>