<svg xmlns="http://www.w3.org/2000/svg" viewBox="0 -0.5 32 32" shape-rendering="crispEdges">
<metadata>Made with Pixels to Svg https://codepen.io/shshaw/pen/XbxvNj</metadata>
<path stroke="#000000" d="M9 3h7M9 4h7M9 5h9M7 6h2M16 6h2M7 7h2M16 7h4M4 8h5M18 8h2M4 9h3M18 9h2M4 10h3M20 10h4M4 11h3M20 11h4M4 12h3M22 12h2M4 13h3M22 13h2M6 14h3M22 14h2M6 15h3M22 15h2M6 16h3M22 16h2M6 17h3M22 17h2M8 18h3M22 18h2M8 19h3M22 19h2M8 20h4M22 20h3M10 21h2M22 21h4M10 22h12M25 22h1M12 23h10M25 23h3M21 24h1M25 24h3M21 25h4M27 25h1M23 26h2M27 26h1M23 27h5" />
<path stroke="#ff3737" d="M9 6h7M9 7h7M9 8h7M7 9h4M7 10h4M7 11h4M7 12h4M7 13h4" />
<path stroke="#a97841" d="M16 8h2M16 9h2M16 10h4M13 11h7M13 12h9M13 13h9M9 14h13M9 15h13M9 16h13M9 17h13M11 18h11M11 19h11M12 20h10M12 21h10" />
<path stroke="#e5a7a7" d="M11 9h5M11 10h5M11 11h2M11 12h2M11 13h2" />
<path stroke="#ffffff" d="M22 22h3M22 23h3M22 24h3M25 25h2M25 26h2" />
</svg>