<svg xmlns="http://www.w3.org/2000/svg" viewBox="0 -0.5 1024 417" shape-rendering="crispEdges">
<metadata>Made with Pixels to Svg https://codepen.io/shshaw/pen/XbxvNj</metadata>
<path stroke="rgba(111,110,128,0.5450980392156862)" d="M288 17h160" />
<path stroke="#c8c4e6" d="M288 18h160M288 19h160M288 20h160M288 21h160M288 22h160M288 23h160M288 24h160M288 25h160M288 26h160M288 27h160M288 28h160M288 29h160M288 30h160M288 31h160M288 32h160M288 33h160M288 34h160M288 35h160M288 36h160M288 37h160M288 38h160M288 39h160M288 40h160M288 41h160M288 42h160M288 43h160M288 44h160M288 45h160M288 46h160M288 47h160M288 48h160M320 114h96M320 115h96M320 116h96M320 117h96M320 118h96M320 119h96M320 120h96M320 121h96M320 122h96M320 123h96M320 124h96M320 125h96M320 126h96M320 127h96M320 128h96M320 129h96M320 130h96M320 131h96M320 132h96M320 133h96M320 134h96M320 135h96M320 136h96M320 137h96M320 138h96M320 139h96M320 140h96M320 141h96M320 142h96M320 143h96M320 144h96M320 145h96M288 146h160M288 147h160M288 148h160M288 149h160M288 150h160M288 151h160M288 152h160M288 153h160M288 154h160M288 155h160M288 156h160M288 157h160M288 158h160M288 159h160M288 160h160M288 161h160M288 162h160M288 163h160M288 164h160M288 165h160M288 166h160M288 167h160M288 168h160M288 169h160M288 170h160M288 171h160M288 172h160M288 173h160M288 174h160M288 175h160M288 176h160M288 177h160M288 178h160M288 179h160M288 180h160M288 181h160M288 182h160M288 183h160M288 184h160M288 185h160M288 186h160M288 187h160M288 188h160M288 189h160M288 190h160M288 191h160M288 192h160M288 193h160M288 194h160M288 195h160M288 196h160M288 197h160M288 198h160M288 199h160M288 200h160M288 201h160M288 202h160M288 203h160M288 204h160M288 205h160M288 206h160M288 207h160M288 208h160M288 209h160M288 210h160M288 211h160M288 212h160M288 213h160M288 214h160M288 215h160M288 216h160M288 217h160M288 218h160M288 219h160M288 220h160M288 221h160M288 222h160M288 223h160M288 224h160M288 225h160M288 226h160M288 227h160M288 228h160M288 229h160M288 230h160M288 231h160M288 232h160M288 233h160M288 234h160M288 235h160M288 236h160M288 237h160M288 238h160M288 239h160M288 240h160M288 241h160M288 242h160M288 243h160M288 244h160M288 245h160M288 246h160M288 247h160M288 248h160M288 249h160M288 250h160M288 251h160M288 252h160M288 253h160M288 254h160M288 255h160M288 256h160M288 257h160M288 258h160M288 259h160M288 260h160M288 261h160M288 262h160M288 263h160M288 264h160M288 265h160M288 266h160M288 267h160M288 268h160M288 269h160M288 270h160M288 271h160M288 272h160M288 273h160M288 274h160M288 275h160M288 276h160M288 277h160M288 278h160M288 279h160M288 280h160M288 281h160M288 282h160M288 283h160M288 284h160M288 285h160M288 286h160M288 287h160M288 288h160M288 289h160M288 290h160M288 291h160M288 292h160M288 293h160M288 294h160M288 295h160M288 296h160M288 297h160M288 298h160M288 299h160M288 300h160M288 301h160M288 302h160M288 303h160M288 304h160M320 305h96M320 306h96M320 307h96M320 308h96M320 309h96M320 310h96M320 311h96M320 312h96M320 313h96M320 314h96M320 315h96M320 316h96M320 317h96M320 318h96M320 319h96M320 320h96M320 321h96M320 322h96M320 323h96M320 324h96M320 325h96M320 326h96M320 327h96M320 328h96M320 329h96M320 330h96M320 331h96M320 332h96M320 333h96M320 334h96M320 335h96M320 336h96" />
<path stroke="rgba(94,92,107,0.4549019607843137)" d="M288 49h160" />
<path stroke="rgba(135,89,89,0.5450980392156862)" d="M32 81h32M160 81h32M320 81h96M448 81h160M640 81h96M768 81h32M864 81h32M928 81h96M0 113h32M64 113h32M128 113h32M192 113h32M288 113h32M416 113h32M608 113h32M96 145h32M256 145h32M448 145h32M576 145h32M800 209h64M608 305h32M640 337h96M928 337h32M992 337h32" />
<path stroke="#f59e9f" d="M32 82h32M160 82h32M320 82h96M448 82h160M640 82h96M768 82h32M864 82h32M928 82h96M32 83h32M160 83h32M320 83h96M448 83h160M640 83h96M768 83h32M864 83h32M928 83h96M32 84h32M160 84h32M320 84h96M448 84h160M640 84h96M768 84h32M864 84h32M928 84h96M32 85h32M160 85h32M320 85h96M448 85h160M640 85h96M768 85h32M864 85h32M928 85h96M32 86h32M160 86h32M320 86h96M448 86h160M640 86h96M768 86h32M864 86h32M928 86h96M32 87h32M160 87h32M320 87h96M448 87h160M640 87h96M768 87h32M864 87h32M928 87h96M32 88h32M160 88h32M320 88h96M448 88h160M640 88h96M768 88h32M864 88h32M928 88h96M32 89h32M160 89h32M320 89h96M448 89h160M640 89h96M768 89h32M864 89h32M928 89h96M32 90h32M160 90h32M320 90h96M448 90h160M640 90h96M768 90h32M864 90h32M928 90h96M32 91h32M160 91h32M320 91h96M448 91h160M640 91h96M768 91h32M864 91h32M928 91h96M32 92h32M160 92h32M320 92h96M448 92h160M640 92h96M768 92h32M864 92h32M928 92h96M32 93h32M160 93h32M320 93h96M448 93h160M640 93h96M768 93h32M864 93h32M928 93h96M32 94h32M160 94h32M320 94h96M448 94h160M640 94h96M768 94h32M864 94h32M928 94h96M32 95h32M160 95h32M320 95h96M448 95h160M640 95h96M768 95h32M864 95h32M928 95h96M32 96h32M160 96h32M320 96h96M448 96h160M640 96h96M768 96h32M864 96h32M928 96h96M32 97h32M160 97h32M320 97h96M448 97h160M640 97h96M768 97h32M864 97h32M928 97h96M32 98h32M160 98h32M320 98h96M448 98h160M640 98h96M768 98h32M864 98h32M928 98h96M32 99h32M160 99h32M320 99h96M448 99h160M640 99h96M768 99h32M864 99h32M928 99h96M32 100h32M160 100h32M320 100h96M448 100h160M640 100h96M768 100h32M864 100h32M928 100h96M32 101h32M160 101h32M320 101h96M448 101h160M640 101h96M768 101h32M864 101h32M928 101h96M32 102h32M160 102h32M320 102h96M448 102h160M640 102h96M768 102h32M864 102h32M928 102h96M32 103h32M160 103h32M320 103h96M448 103h160M640 103h96M768 103h32M864 103h32M928 103h96M32 104h32M160 104h32M320 104h96M448 104h160M640 104h96M768 104h32M864 104h32M928 104h96M32 105h32M160 105h32M320 105h96M448 105h160M640 105h96M768 105h32M864 105h32M928 105h96M32 106h32M160 106h32M320 106h96M448 106h160M640 106h96M768 106h32M864 106h32M928 106h96M32 107h32M160 107h32M320 107h96M448 107h160M640 107h96M768 107h32M864 107h32M928 107h96M32 108h32M160 108h32M320 108h96M448 108h160M640 108h96M768 108h32M864 108h32M928 108h96M32 109h32M160 109h32M320 109h96M448 109h160M640 109h96M768 109h32M864 109h32M928 109h96M32 110h32M160 110h32M320 110h96M448 110h160M640 110h96M768 110h32M864 110h32M928 110h96M32 111h32M160 111h32M320 111h96M448 111h160M640 111h96M768 111h32M864 111h32M928 111h96M32 112h32M160 112h32M320 112h96M448 112h160M640 112h96M768 112h32M864 112h32M928 112h96M512 113h32M768 113h32M864 113h32M960 113h32M0 114h32M64 114h32M128 114h32M192 114h32M288 114h32M416 114h32M512 114h32M608 114h32M768 114h32M864 114h32M960 114h32M0 115h32M64 115h32M128 115h32M192 115h32M288 115h32M416 115h32M512 115h32M608 115h32M768 115h32M864 115h32M960 115h32M0 116h32M64 116h32M128 116h32M192 116h32M288 116h32M416 116h32M512 116h32M608 116h32M768 116h32M864 116h32M960 116h32M0 117h32M64 117h32M128 117h32M192 117h32M288 117h32M416 117h32M512 117h32M608 117h32M768 117h32M864 117h32M960 117h32M0 118h32M64 118h32M128 118h32M192 118h32M288 118h32M416 118h32M512 118h32M608 118h32M768 118h32M864 118h32M960 118h32M0 119h32M64 119h32M128 119h32M192 119h32M288 119h32M416 119h32M512 119h32M608 119h32M768 119h32M864 119h32M960 119h32M0 120h32M64 120h32M128 120h32M192 120h32M288 120h32M416 120h32M512 120h32M608 120h32M768 120h32M864 120h32M960 120h32M0 121h32M64 121h32M128 121h32M192 121h32M288 121h32M416 121h32M512 121h32M608 121h32M768 121h32M864 121h32M960 121h32M0 122h32M64 122h32M128 122h32M192 122h32M288 122h32M416 122h32M512 122h32M608 122h32M768 122h32M864 122h32M960 122h32M0 123h32M64 123h32M128 123h32M192 123h32M288 123h32M416 123h32M512 123h32M608 123h32M768 123h32M864 123h32M960 123h32M0 124h32M64 124h32M128 124h32M192 124h32M288 124h32M416 124h32M512 124h32M608 124h32M768 124h32M864 124h32M960 124h32M0 125h32M64 125h32M128 125h32M192 125h32M288 125h32M416 125h32M512 125h32M608 125h32M768 125h32M864 125h32M960 125h32M0 126h32M64 126h32M128 126h32M192 126h32M288 126h32M416 126h32M512 126h32M608 126h32M768 126h32M864 126h32M960 126h32M0 127h32M64 127h32M128 127h32M192 127h32M288 127h32M416 127h32M512 127h32M608 127h32M768 127h32M864 127h32M960 127h32M0 128h32M64 128h32M128 128h32M192 128h32M288 128h32M416 128h32M512 128h32M608 128h32M768 128h32M864 128h32M960 128h32M0 129h32M64 129h32M128 129h32M192 129h32M288 129h32M416 129h32M512 129h32M608 129h32M768 129h32M864 129h32M960 129h32M0 130h32M64 130h32M128 130h32M192 130h32M288 130h32M416 130h32M512 130h32M608 130h32M768 130h32M864 130h32M960 130h32M0 131h32M64 131h32M128 131h32M192 131h32M288 131h32M416 131h32M512 131h32M608 131h32M768 131h32M864 131h32M960 131h32M0 132h32M64 132h32M128 132h32M192 132h32M288 132h32M416 132h32M512 132h32M608 132h32M768 132h32M864 132h32M960 132h32M0 133h32M64 133h32M128 133h32M192 133h32M288 133h32M416 133h32M512 133h32M608 133h32M768 133h32M864 133h32M960 133h32M0 134h32M64 134h32M128 134h32M192 134h32M288 134h32M416 134h32M512 134h32M608 134h32M768 134h32M864 134h32M960 134h32M0 135h32M64 135h32M128 135h32M192 135h32M288 135h32M416 135h32M512 135h32M608 135h32M768 135h32M864 135h32M960 135h32M0 136h32M64 136h32M128 136h32M192 136h32M288 136h32M416 136h32M512 136h32M608 136h32M768 136h32M864 136h32M960 136h32M0 137h32M64 137h32M128 137h32M192 137h32M288 137h32M416 137h32M512 137h32M608 137h32M768 137h32M864 137h32M960 137h32M0 138h32M64 138h32M128 138h32M192 138h32M288 138h32M416 138h32M512 138h32M608 138h32M768 138h32M864 138h32M960 138h32M0 139h32M64 139h32M128 139h32M192 139h32M288 139h32M416 139h32M512 139h32M608 139h32M768 139h32M864 139h32M960 139h32M0 140h32M64 140h32M128 140h32M192 140h32M288 140h32M416 140h32M512 140h32M608 140h32M768 140h32M864 140h32M960 140h32M0 141h32M64 141h32M128 141h32M192 141h32M288 141h32M416 141h32M512 141h32M608 141h32M768 141h32M864 141h32M960 141h32M0 142h32M64 142h32M128 142h32M192 142h32M288 142h32M416 142h32M512 142h32M608 142h32M768 142h32M864 142h32M960 142h32M0 143h32M64 143h32M128 143h32M192 143h32M288 143h32M416 143h32M512 143h32M608 143h32M768 143h32M864 143h32M960 143h32M0 144h32M64 144h32M128 144h32M192 144h32M288 144h32M416 144h32M512 144h32M608 144h32M768 144h32M864 144h32M960 144h32M0 145h32M192 145h32M512 145h32M768 145h32M864 145h32M960 145h32M0 146h32M96 146h32M192 146h32M256 146h32M448 146h32M512 146h32M576 146h32M768 146h32M864 146h32M960 146h32M0 147h32M96 147h32M192 147h32M256 147h32M448 147h32M512 147h32M576 147h32M768 147h32M864 147h32M960 147h32M0 148h32M96 148h32M192 148h32M256 148h32M448 148h32M512 148h32M576 148h32M768 148h32M864 148h32M960 148h32M0 149h32M96 149h32M192 149h32M256 149h32M448 149h32M512 149h32M576 149h32M768 149h32M864 149h32M960 149h32M0 150h32M96 150h32M192 150h32M256 150h32M448 150h32M512 150h32M576 150h32M768 150h32M864 150h32M960 150h32M0 151h32M96 151h32M192 151h32M256 151h32M448 151h32M512 151h32M576 151h32M768 151h32M864 151h32M960 151h32M0 152h32M96 152h32M192 152h32M256 152h32M448 152h32M512 152h32M576 152h32M768 152h32M864 152h32M960 152h32M0 153h32M96 153h32M192 153h32M256 153h32M448 153h32M512 153h32M576 153h32M768 153h32M864 153h32M960 153h32M0 154h32M96 154h32M192 154h32M256 154h32M448 154h32M512 154h32M576 154h32M768 154h32M864 154h32M960 154h32M0 155h32M96 155h32M192 155h32M256 155h32M448 155h32M512 155h32M576 155h32M768 155h32M864 155h32M960 155h32M0 156h32M96 156h32M192 156h32M256 156h32M448 156h32M512 156h32M576 156h32M768 156h32M864 156h32M960 156h32M0 157h32M96 157h32M192 157h32M256 157h32M448 157h32M512 157h32M576 157h32M768 157h32M864 157h32M960 157h32M0 158h32M96 158h32M192 158h32M256 158h32M448 158h32M512 158h32M576 158h32M768 158h32M864 158h32M960 158h32M0 159h32M96 159h32M192 159h32M256 159h32M448 159h32M512 159h32M576 159h32M768 159h32M864 159h32M960 159h32M0 160h32M96 160h32M192 160h32M256 160h32M448 160h32M512 160h32M576 160h32M768 160h32M864 160h32M960 160h32M0 161h32M96 161h32M192 161h32M256 161h32M448 161h32M512 161h32M576 161h32M768 161h32M864 161h32M960 161h32M0 162h32M96 162h32M192 162h32M256 162h32M448 162h32M512 162h32M576 162h32M768 162h32M864 162h32M960 162h32M0 163h32M96 163h32M192 163h32M256 163h32M448 163h32M512 163h32M576 163h32M768 163h32M864 163h32M960 163h32M0 164h32M96 164h32M192 164h32M256 164h32M448 164h32M512 164h32M576 164h32M768 164h32M864 164h32M960 164h32M0 165h32M96 165h32M192 165h32M256 165h32M448 165h32M512 165h32M576 165h32M768 165h32M864 165h32M960 165h32M0 166h32M96 166h32M192 166h32M256 166h32M448 166h32M512 166h32M576 166h32M768 166h32M864 166h32M960 166h32M0 167h32M96 167h32M192 167h32M256 167h32M448 167h32M512 167h32M576 167h32M768 167h32M864 167h32M960 167h32M0 168h32M96 168h32M192 168h32M256 168h32M448 168h32M512 168h32M576 168h32M768 168h32M864 168h32M960 168h32M0 169h32M96 169h32M192 169h32M256 169h32M448 169h32M512 169h32M576 169h32M768 169h32M864 169h32M960 169h32M0 170h32M96 170h32M192 170h32M256 170h32M448 170h32M512 170h32M576 170h32M768 170h32M864 170h32M960 170h32M0 171h32M96 171h32M192 171h32M256 171h32M448 171h32M512 171h32M576 171h32M768 171h32M864 171h32M960 171h32M0 172h32M96 172h32M192 172h32M256 172h32M448 172h32M512 172h32M576 172h32M768 172h32M864 172h32M960 172h32M0 173h32M96 173h32M192 173h32M256 173h32M448 173h32M512 173h32M576 173h32M768 173h32M864 173h32M960 173h32M0 174h32M96 174h32M192 174h32M256 174h32M448 174h32M512 174h32M576 174h32M768 174h32M864 174h32M960 174h32M0 175h32M96 175h32M192 175h32M256 175h32M448 175h32M512 175h32M576 175h32M768 175h32M864 175h32M960 175h32M0 176h32M96 176h32M192 176h32M256 176h32M448 176h32M512 176h32M576 176h32M768 176h32M864 176h32M960 176h32M0 177h32M192 177h32M256 177h32M448 177h32M512 177h32M576 177h32M768 177h32M864 177h32M960 177h32M0 178h32M192 178h32M256 178h32M448 178h32M512 178h32M576 178h32M768 178h32M864 178h32M960 178h32M0 179h32M192 179h32M256 179h32M448 179h32M512 179h32M576 179h32M768 179h32M864 179h32M960 179h32M0 180h32M192 180h32M256 180h32M448 180h32M512 180h32M576 180h32M768 180h32M864 180h32M960 180h32M0 181h32M192 181h32M256 181h32M448 181h32M512 181h32M576 181h32M768 181h32M864 181h32M960 181h32M0 182h32M192 182h32M256 182h32M448 182h32M512 182h32M576 182h32M768 182h32M864 182h32M960 182h32M0 183h32M192 183h32M256 183h32M448 183h32M512 183h32M576 183h32M768 183h32M864 183h32M960 183h32M0 184h32M192 184h32M256 184h32M448 184h32M512 184h32M576 184h32M768 184h32M864 184h32M960 184h32M0 185h32M192 185h32M256 185h32M448 185h32M512 185h32M576 185h32M768 185h32M864 185h32M960 185h32M0 186h32M192 186h32M256 186h32M448 186h32M512 186h32M576 186h32M768 186h32M864 186h32M960 186h32M0 187h32M192 187h32M256 187h32M448 187h32M512 187h32M576 187h32M768 187h32M864 187h32M960 187h32M0 188h32M192 188h32M256 188h32M448 188h32M512 188h32M576 188h32M768 188h32M864 188h32M960 188h32M0 189h32M192 189h32M256 189h32M448 189h32M512 189h32M576 189h32M768 189h32M864 189h32M960 189h32M0 190h32M192 190h32M256 190h32M448 190h32M512 190h32M576 190h32M768 190h32M864 190h32M960 190h32M0 191h32M192 191h32M256 191h32M448 191h32M512 191h32M576 191h32M768 191h32M864 191h32M960 191h32M0 192h32M192 192h32M256 192h32M448 192h32M512 192h32M576 192h32M768 192h32M864 192h32M960 192h32M0 193h32M192 193h32M256 193h32M448 193h32M512 193h32M576 193h32M768 193h32M864 193h32M960 193h32M0 194h32M192 194h32M256 194h32M448 194h32M512 194h32M576 194h32M768 194h32M864 194h32M960 194h32M0 195h32M192 195h32M256 195h32M448 195h32M512 195h32M576 195h32M768 195h32M864 195h32M960 195h32M0 196h32M192 196h32M256 196h32M448 196h32M512 196h32M576 196h32M768 196h32M864 196h32M960 196h32M0 197h32M192 197h32M256 197h32M448 197h32M512 197h32M576 197h32M768 197h32M864 197h32M960 197h32M0 198h32M192 198h32M256 198h32M448 198h32M512 198h32M576 198h32M768 198h32M864 198h32M960 198h32M0 199h32M192 199h32M256 199h32M448 199h32M512 199h32M576 199h32M768 199h32M864 199h32M960 199h32M0 200h32M192 200h32M256 200h32M448 200h32M512 200h32M576 200h32M768 200h32M864 200h32M960 200h32M0 201h32M192 201h32M256 201h32M448 201h32M512 201h32M576 201h32M768 201h32M864 201h32M960 201h32M0 202h32M192 202h32M256 202h32M448 202h32M512 202h32M576 202h32M768 202h32M864 202h32M960 202h32M0 203h32M192 203h32M256 203h32M448 203h32M512 203h32M576 203h32M768 203h32M864 203h32M960 203h32M0 204h32M192 204h32M256 204h32M448 204h32M512 204h32M576 204h32M768 204h32M864 204h32M960 204h32M0 205h32M192 205h32M256 205h32M448 205h32M512 205h32M576 205h32M768 205h32M864 205h32M960 205h32M0 206h32M192 206h32M256 206h32M448 206h32M512 206h32M576 206h32M768 206h32M864 206h32M960 206h32M0 207h32M192 207h32M256 207h32M448 207h32M512 207h32M576 207h32M768 207h32M864 207h32M960 207h32M0 208h32M192 208h32M256 208h32M448 208h32M512 208h32M576 208h32M768 208h32M864 208h32M960 208h32M0 209h32M192 209h32M256 209h32M448 209h32M512 209h32M576 209h32M768 209h32M864 209h32M960 209h32M0 210h32M192 210h32M256 210h32M448 210h32M512 210h32M576 210h32M768 210h128M960 210h32M0 211h32M192 211h32M256 211h32M448 211h32M512 211h32M576 211h32M768 211h128M960 211h32M0 212h32M192 212h32M256 212h32M448 212h32M512 212h32M576 212h32M768 212h128M960 212h32M0 213h32M192 213h32M256 213h32M448 213h32M512 213h32M576 213h32M768 213h128M960 213h32M0 214h32M192 214h32M256 214h32M448 214h32M512 214h32M576 214h32M768 214h128M960 214h32M0 215h32M192 215h32M256 215h32M448 215h32M512 215h32M576 215h32M768 215h128M960 215h32M0 216h32M192 216h32M256 216h32M448 216h32M512 216h32M576 216h32M768 216h128M960 216h32M0 217h32M192 217h32M256 217h32M448 217h32M512 217h32M576 217h32M768 217h128M960 217h32M0 218h32M192 218h32M256 218h32M448 218h32M512 218h32M576 218h32M768 218h128M960 218h32M0 219h32M192 219h32M256 219h32M448 219h32M512 219h32M576 219h32M768 219h128M960 219h32M0 220h32M192 220h32M256 220h32M448 220h32M512 220h32M576 220h32M768 220h128M960 220h32M0 221h32M192 221h32M256 221h32M448 221h32M512 221h32M576 221h32M768 221h128M960 221h32M0 222h32M192 222h32M256 222h32M448 222h32M512 222h32M576 222h32M768 222h128M960 222h32M0 223h32M192 223h32M256 223h32M448 223h32M512 223h32M576 223h32M768 223h128M960 223h32M0 224h32M192 224h32M256 224h32M448 224h32M512 224h32M576 224h32M768 224h128M960 224h32M0 225h32M192 225h32M256 225h32M448 225h32M512 225h32M576 225h32M768 225h128M960 225h32M0 226h32M192 226h32M256 226h32M448 226h32M512 226h32M576 226h32M768 226h128M960 226h32M0 227h32M192 227h32M256 227h32M448 227h32M512 227h32M576 227h32M768 227h128M960 227h32M0 228h32M192 228h32M256 228h32M448 228h32M512 228h32M576 228h32M768 228h128M960 228h32M0 229h32M192 229h32M256 229h32M448 229h32M512 229h32M576 229h32M768 229h128M960 229h32M0 230h32M192 230h32M256 230h32M448 230h32M512 230h32M576 230h32M768 230h128M960 230h32M0 231h32M192 231h32M256 231h32M448 231h32M512 231h32M576 231h32M768 231h128M960 231h32M0 232h32M192 232h32M256 232h32M448 232h32M512 232h32M576 232h32M768 232h128M960 232h32M0 233h32M192 233h32M256 233h32M448 233h32M512 233h32M576 233h32M768 233h128M960 233h32M0 234h32M192 234h32M256 234h32M448 234h32M512 234h32M576 234h32M768 234h128M960 234h32M0 235h32M192 235h32M256 235h32M448 235h32M512 235h32M576 235h32M768 235h128M960 235h32M0 236h32M192 236h32M256 236h32M448 236h32M512 236h32M576 236h32M768 236h128M960 236h32M0 237h32M192 237h32M256 237h32M448 237h32M512 237h32M576 237h32M768 237h128M960 237h32M0 238h32M192 238h32M256 238h32M448 238h32M512 238h32M576 238h32M768 238h128M960 238h32M0 239h32M192 239h32M256 239h32M448 239h32M512 239h32M576 239h32M768 239h128M960 239h32M0 240h32M192 240h32M256 240h32M448 240h32M512 240h32M576 240h32M768 240h128M960 240h32M0 241h32M192 241h32M256 241h32M448 241h32M512 241h32M576 241h32M768 241h32M864 241h32M960 241h32M0 242h32M192 242h32M256 242h32M448 242h32M512 242h32M576 242h32M768 242h32M864 242h32M960 242h32M0 243h32M192 243h32M256 243h32M448 243h32M512 243h32M576 243h32M768 243h32M864 243h32M960 243h32M0 244h32M192 244h32M256 244h32M448 244h32M512 244h32M576 244h32M768 244h32M864 244h32M960 244h32M0 245h32M192 245h32M256 245h32M448 245h32M512 245h32M576 245h32M768 245h32M864 245h32M960 245h32M0 246h32M192 246h32M256 246h32M448 246h32M512 246h32M576 246h32M768 246h32M864 246h32M960 246h32M0 247h32M192 247h32M256 247h32M448 247h32M512 247h32M576 247h32M768 247h32M864 247h32M960 247h32M0 248h32M192 248h32M256 248h32M448 248h32M512 248h32M576 248h32M768 248h32M864 248h32M960 248h32M0 249h32M192 249h32M256 249h32M448 249h32M512 249h32M576 249h32M768 249h32M864 249h32M960 249h32M0 250h32M192 250h32M256 250h32M448 250h32M512 250h32M576 250h32M768 250h32M864 250h32M960 250h32M0 251h32M192 251h32M256 251h32M448 251h32M512 251h32M576 251h32M768 251h32M864 251h32M960 251h32M0 252h32M192 252h32M256 252h32M448 252h32M512 252h32M576 252h32M768 252h32M864 252h32M960 252h32M0 253h32M192 253h32M256 253h32M448 253h32M512 253h32M576 253h32M768 253h32M864 253h32M960 253h32M0 254h32M192 254h32M256 254h32M448 254h32M512 254h32M576 254h32M768 254h32M864 254h32M960 254h32M0 255h32M192 255h32M256 255h32M448 255h32M512 255h32M576 255h32M768 255h32M864 255h32M960 255h32M0 256h32M192 256h32M256 256h32M448 256h32M512 256h32M576 256h32M768 256h32M864 256h32M960 256h32M0 257h32M192 257h32M256 257h32M448 257h32M512 257h32M576 257h32M768 257h32M864 257h32M960 257h32M0 258h32M192 258h32M256 258h32M448 258h32M512 258h32M576 258h32M768 258h32M864 258h32M960 258h32M0 259h32M192 259h32M256 259h32M448 259h32M512 259h32M576 259h32M768 259h32M864 259h32M960 259h32M0 260h32M192 260h32M256 260h32M448 260h32M512 260h32M576 260h32M768 260h32M864 260h32M960 260h32M0 261h32M192 261h32M256 261h32M448 261h32M512 261h32M576 261h32M768 261h32M864 261h32M960 261h32M0 262h32M192 262h32M256 262h32M448 262h32M512 262h32M576 262h32M768 262h32M864 262h32M960 262h32M0 263h32M192 263h32M256 263h32M448 263h32M512 263h32M576 263h32M768 263h32M864 263h32M960 263h32M0 264h32M192 264h32M256 264h32M448 264h32M512 264h32M576 264h32M768 264h32M864 264h32M960 264h32M0 265h32M192 265h32M256 265h32M448 265h32M512 265h32M576 265h32M768 265h32M864 265h32M960 265h32M0 266h32M192 266h32M256 266h32M448 266h32M512 266h32M576 266h32M768 266h32M864 266h32M960 266h32M0 267h32M192 267h32M256 267h32M448 267h32M512 267h32M576 267h32M768 267h32M864 267h32M960 267h32M0 268h32M192 268h32M256 268h32M448 268h32M512 268h32M576 268h32M768 268h32M864 268h32M960 268h32M0 269h32M192 269h32M256 269h32M448 269h32M512 269h32M576 269h32M768 269h32M864 269h32M960 269h32M0 270h32M192 270h32M256 270h32M448 270h32M512 270h32M576 270h32M768 270h32M864 270h32M960 270h32M0 271h32M192 271h32M256 271h32M448 271h32M512 271h32M576 271h32M768 271h32M864 271h32M960 271h32M0 272h32M192 272h32M256 272h32M448 272h32M512 272h32M576 272h32M768 272h32M864 272h32M960 272h32M0 273h32M192 273h32M256 273h32M448 273h32M512 273h32M576 273h32M768 273h32M864 273h32M960 273h32M0 274h32M192 274h32M256 274h32M448 274h32M512 274h32M576 274h32M768 274h32M864 274h32M960 274h32M0 275h32M192 275h32M256 275h32M448 275h32M512 275h32M576 275h32M768 275h32M864 275h32M960 275h32M0 276h32M192 276h32M256 276h32M448 276h32M512 276h32M576 276h32M768 276h32M864 276h32M960 276h32M0 277h32M192 277h32M256 277h32M448 277h32M512 277h32M576 277h32M768 277h32M864 277h32M960 277h32M0 278h32M192 278h32M256 278h32M448 278h32M512 278h32M576 278h32M768 278h32M864 278h32M960 278h32M0 279h32M192 279h32M256 279h32M448 279h32M512 279h32M576 279h32M768 279h32M864 279h32M960 279h32M0 280h32M192 280h32M256 280h32M448 280h32M512 280h32M576 280h32M768 280h32M864 280h32M960 280h32M0 281h32M192 281h32M256 281h32M448 281h32M512 281h32M576 281h32M768 281h32M864 281h32M960 281h32M0 282h32M192 282h32M256 282h32M448 282h32M512 282h32M576 282h32M768 282h32M864 282h32M960 282h32M0 283h32M192 283h32M256 283h32M448 283h32M512 283h32M576 283h32M768 283h32M864 283h32M960 283h32M0 284h32M192 284h32M256 284h32M448 284h32M512 284h32M576 284h32M768 284h32M864 284h32M960 284h32M0 285h32M192 285h32M256 285h32M448 285h32M512 285h32M576 285h32M768 285h32M864 285h32M960 285h32M0 286h32M192 286h32M256 286h32M448 286h32M512 286h32M576 286h32M768 286h32M864 286h32M960 286h32M0 287h32M192 287h32M256 287h32M448 287h32M512 287h32M576 287h32M768 287h32M864 287h32M960 287h32M0 288h32M192 288h32M256 288h32M448 288h32M512 288h32M576 288h32M768 288h32M864 288h32M960 288h32M0 289h32M192 289h32M256 289h32M448 289h32M512 289h32M576 289h32M768 289h32M864 289h32M960 289h32M0 290h32M192 290h32M256 290h32M448 290h32M512 290h32M576 290h32M768 290h32M864 290h32M960 290h32M0 291h32M192 291h32M256 291h32M448 291h32M512 291h32M576 291h32M768 291h32M864 291h32M960 291h32M0 292h32M192 292h32M256 292h32M448 292h32M512 292h32M576 292h32M768 292h32M864 292h32M960 292h32M0 293h32M192 293h32M256 293h32M448 293h32M512 293h32M576 293h32M768 293h32M864 293h32M960 293h32M0 294h32M192 294h32M256 294h32M448 294h32M512 294h32M576 294h32M768 294h32M864 294h32M960 294h32M0 295h32M192 295h32M256 295h32M448 295h32M512 295h32M576 295h32M768 295h32M864 295h32M960 295h32M0 296h32M192 296h32M256 296h32M448 296h32M512 296h32M576 296h32M768 296h32M864 296h32M960 296h32M0 297h32M192 297h32M256 297h32M448 297h32M512 297h32M576 297h32M768 297h32M864 297h32M960 297h32M0 298h32M192 298h32M256 298h32M448 298h32M512 298h32M576 298h32M768 298h32M864 298h32M960 298h32M0 299h32M192 299h32M256 299h32M448 299h32M512 299h32M576 299h32M768 299h32M864 299h32M960 299h32M0 300h32M192 300h32M256 300h32M448 300h32M512 300h32M576 300h32M768 300h32M864 300h32M960 300h32M0 301h32M192 301h32M256 301h32M448 301h32M512 301h32M576 301h32M768 301h32M864 301h32M960 301h32M0 302h32M192 302h32M256 302h32M448 302h32M512 302h32M576 302h32M768 302h32M864 302h32M960 302h32M0 303h32M192 303h32M256 303h32M448 303h32M512 303h32M576 303h32M768 303h32M864 303h32M960 303h32M0 304h32M192 304h32M256 304h32M448 304h32M512 304h32M576 304h32M768 304h32M864 304h32M960 304h32M0 305h32M192 305h32M512 305h32M768 305h32M864 305h32M960 305h32M0 306h32M192 306h32M288 306h32M416 306h32M512 306h32M608 306h32M768 306h32M864 306h32M960 306h32M0 307h32M192 307h32M288 307h32M416 307h32M512 307h32M608 307h32M768 307h32M864 307h32M960 307h32M0 308h32M192 308h32M288 308h32M416 308h32M512 308h32M608 308h32M768 308h32M864 308h32M960 308h32M0 309h32M192 309h32M288 309h32M416 309h32M512 309h32M608 309h32M768 309h32M864 309h32M960 309h32M0 310h32M192 310h32M288 310h32M416 310h32M512 310h32M608 310h32M768 310h32M864 310h32M960 310h32M0 311h32M192 311h32M288 311h32M416 311h32M512 311h32M608 311h32M768 311h32M864 311h32M960 311h32M0 312h32M192 312h32M288 312h32M416 312h32M512 312h32M608 312h32M768 312h32M864 312h32M960 312h32M0 313h32M192 313h32M288 313h32M416 313h32M512 313h32M608 313h32M768 313h32M864 313h32M960 313h32M0 314h32M192 314h32M288 314h32M416 314h32M512 314h32M608 314h32M768 314h32M864 314h32M960 314h32M0 315h32M192 315h32M288 315h32M416 315h32M512 315h32M608 315h32M768 315h32M864 315h32M960 315h32M0 316h32M192 316h32M288 316h32M416 316h32M512 316h32M608 316h32M768 316h32M864 316h32M960 316h32M0 317h32M192 317h32M288 317h32M416 317h32M512 317h32M608 317h32M768 317h32M864 317h32M960 317h32M0 318h32M192 318h32M288 318h32M416 318h32M512 318h32M608 318h32M768 318h32M864 318h32M960 318h32M0 319h32M192 319h32M288 319h32M416 319h32M512 319h32M608 319h32M768 319h32M864 319h32M960 319h32M0 320h32M192 320h32M288 320h32M416 320h32M512 320h32M608 320h32M768 320h32M864 320h32M960 320h32M0 321h32M192 321h32M288 321h32M416 321h32M512 321h32M608 321h32M768 321h32M864 321h32M960 321h32M0 322h32M192 322h32M288 322h32M416 322h32M512 322h32M608 322h32M768 322h32M864 322h32M960 322h32M0 323h32M192 323h32M288 323h32M416 323h32M512 323h32M608 323h32M768 323h32M864 323h32M960 323h32M0 324h32M192 324h32M288 324h32M416 324h32M512 324h32M608 324h32M768 324h32M864 324h32M960 324h32M0 325h32M192 325h32M288 325h32M416 325h32M512 325h32M608 325h32M768 325h32M864 325h32M960 325h32M0 326h32M192 326h32M288 326h32M416 326h32M512 326h32M608 326h32M768 326h32M864 326h32M960 326h32M0 327h32M192 327h32M288 327h32M416 327h32M512 327h32M608 327h32M768 327h32M864 327h32M960 327h32M0 328h32M192 328h32M288 328h32M416 328h32M512 328h32M608 328h32M768 328h32M864 328h32M960 328h32M0 329h32M192 329h32M288 329h32M416 329h32M512 329h32M608 329h32M768 329h32M864 329h32M960 329h32M0 330h32M192 330h32M288 330h32M416 330h32M512 330h32M608 330h32M768 330h32M864 330h32M960 330h32M0 331h32M192 331h32M288 331h32M416 331h32M512 331h32M608 331h32M768 331h32M864 331h32M960 331h32M0 332h32M192 332h32M288 332h32M416 332h32M512 332h32M608 332h32M768 332h32M864 332h32M960 332h32M0 333h32M192 333h32M288 333h32M416 333h32M512 333h32M608 333h32M768 333h32M864 333h32M960 333h32M0 334h32M192 334h32M288 334h32M416 334h32M512 334h32M608 334h32M768 334h32M864 334h32M960 334h32M0 335h32M192 335h32M288 335h32M416 335h32M512 335h32M608 335h32M768 335h32M864 335h32M960 335h32M0 336h32M192 336h32M288 336h32M416 336h32M512 336h32M608 336h32M768 336h32M864 336h32M960 336h32M0 337h32M192 337h32M512 337h32M768 337h32M864 337h32M960 337h32M0 338h32M192 338h32M320 338h96M512 338h32M640 338h96M768 338h32M864 338h32M928 338h96M0 339h32M192 339h32M320 339h96M512 339h32M640 339h96M768 339h32M864 339h32M928 339h96M0 340h32M192 340h32M320 340h96M512 340h32M640 340h96M768 340h32M864 340h32M928 340h96M0 341h32M192 341h32M320 341h96M512 341h32M640 341h96M768 341h32M864 341h32M928 341h96M0 342h32M192 342h32M320 342h96M512 342h32M640 342h96M768 342h32M864 342h32M928 342h96M0 343h32M192 343h32M320 343h96M512 343h32M640 343h96M768 343h32M864 343h32M928 343h96M0 344h32M192 344h32M320 344h96M512 344h32M640 344h96M768 344h32M864 344h32M928 344h96M0 345h32M192 345h32M320 345h96M512 345h32M640 345h96M768 345h32M864 345h32M928 345h96M0 346h32M192 346h32M320 346h96M512 346h32M640 346h96M768 346h32M864 346h32M928 346h96M0 347h32M192 347h32M320 347h96M512 347h32M640 347h96M768 347h32M864 347h32M928 347h96M0 348h32M192 348h32M320 348h96M512 348h32M640 348h96M768 348h32M864 348h32M928 348h96M0 349h32M192 349h32M320 349h96M512 349h32M640 349h96M768 349h32M864 349h32M928 349h96M0 350h32M192 350h32M320 350h96M512 350h32M640 350h96M768 350h32M864 350h32M928 350h96M0 351h32M192 351h32M320 351h96M512 351h32M640 351h96M768 351h32M864 351h32M928 351h96M0 352h32M192 352h32M320 352h96M512 352h32M640 352h96M768 352h32M864 352h32M928 352h96M0 353h32M192 353h32M320 353h96M512 353h32M640 353h96M768 353h32M864 353h32M928 353h96M0 354h32M192 354h32M320 354h96M512 354h32M640 354h96M768 354h32M864 354h32M928 354h96M0 355h32M192 355h32M320 355h96M512 355h32M640 355h96M768 355h32M864 355h32M928 355h96M0 356h32M192 356h32M320 356h96M512 356h32M640 356h96M768 356h32M864 356h32M928 356h96M0 357h32M192 357h32M320 357h96M512 357h32M640 357h96M768 357h32M864 357h32M928 357h96M0 358h32M192 358h32M320 358h96M512 358h32M640 358h96M768 358h32M864 358h32M928 358h96M0 359h32M192 359h32M320 359h96M512 359h32M640 359h96M768 359h32M864 359h32M928 359h96M0 360h32M192 360h32M320 360h96M512 360h32M640 360h96M768 360h32M864 360h32M928 360h96M0 361h32M192 361h32M320 361h96M512 361h32M640 361h96M768 361h32M864 361h32M928 361h96M0 362h32M192 362h32M320 362h96M512 362h32M640 362h96M768 362h32M864 362h32M928 362h96M0 363h32M192 363h32M320 363h96M512 363h32M640 363h96M768 363h32M864 363h32M928 363h96M0 364h32M192 364h32M320 364h96M512 364h32M640 364h96M768 364h32M864 364h32M928 364h96M0 365h32M192 365h32M320 365h96M512 365h32M640 365h96M768 365h32M864 365h32M928 365h96M0 366h32M192 366h32M320 366h96M512 366h32M640 366h96M768 366h32M864 366h32M928 366h96M0 367h32M192 367h32M320 367h96M512 367h32M640 367h96M768 367h32M864 367h32M928 367h96M0 368h32M192 368h32M320 368h96M512 368h32M640 368h96M768 368h32M864 368h32M928 368h96" />
<path stroke="rgba(114,76,76,0.4549019607843137)" d="M32 113h32M160 113h32M448 113h64M544 113h64M640 113h96M928 113h32M992 113h32M64 145h32M128 145h32M608 145h32M96 177h32M800 241h64M256 305h32M448 305h32M576 305h32M288 337h32M416 337h32M608 337h32M0 369h32M192 369h32M320 369h96M512 369h32M640 369h96M768 369h32M864 369h32M928 369h96" />
<path stroke="#dbb3c5" d="M320 113h96M288 145h32M416 145h32" />
<path stroke="#e0b0bf" d="M288 305h32M416 305h32M320 337h96" />
</svg>