<svg xmlns="http://www.w3.org/2000/svg" viewBox="0 -0.5 32 32" shape-rendering="crispEdges">
<metadata>Made with Pixels to Svg https://codepen.io/shshaw/pen/XbxvNj</metadata>
<path stroke="#1b1b1b" d="M13 5h6M12 6h1M19 6h1M11 7h1M20 7h1M10 8h1M21 8h1M10 9h1M21 9h1M10 10h1M21 10h1M10 11h1M21 11h1M10 12h1M21 12h1M10 13h1M21 13h1M10 14h1M21 14h1M11 15h1M20 15h1M12 16h2M18 16h2M12 17h1M14 17h4M19 17h1M10 18h2M20 18h2M8 19h2M22 19h2M7 20h1M24 20h1M6 21h1M25 21h1M5 22h1M25 22h2M5 23h1M26 23h1M5 24h1M26 24h1M5 25h1M26 25h1M5 26h1M26 26h1M5 27h1M26 27h1M5 28h22" />
<path stroke="#0066ff" d="M13 6h6M12 7h8M11 8h10M11 9h10M11 10h10M11 11h10M11 12h10M11 13h10M11 14h10M12 15h8M14 16h4M13 17h1M18 17h1M12 18h8M10 19h12M8 20h16M7 21h18M6 22h19M6 23h20M6 24h20M6 25h20M6 26h20M6 27h20" />
</svg>