<svg xmlns="http://www.w3.org/2000/svg" viewBox="0 -0.5 32 32" shape-rendering="crispEdges">
<metadata>Made with Pixels to Svg https://codepen.io/shshaw/pen/XbxvNj</metadata>
<path stroke="#1b1b1b" d="M10 4h4M18 4h4M9 5h1M14 5h1M17 5h1M22 5h1M8 6h1M15 6h2M23 6h1M8 7h1M15 7h2M23 7h1M8 8h1M15 8h2M23 8h1M4 9h3M8 9h1M15 9h2M23 9h1M25 9h3M3 10h1M7 10h2M15 10h2M23 10h2M28 10h1M2 11h1M8 11h1M15 11h2M23 11h1M29 11h1M2 12h1M8 12h2M14 12h1M17 12h1M22 12h2M29 12h1M2 13h1M8 13h1M10 13h4M18 13h4M23 13h1M29 13h1M2 14h1M8 14h1M23 14h1M29 14h1M2 15h1M8 15h1M23 15h1M29 15h1M3 16h1M7 16h1M24 16h1M28 16h1M4 17h3M12 17h9M25 17h3M9 18h3M21 18h3M7 19h2M24 19h2M6 20h1M26 20h1M6 21h1M26 21h1M6 22h1M26 22h1M6 23h1M26 23h1M7 24h2M24 24h2M9 25h3M21 25h3M12 26h9" />
<path stroke="#6d3939" d="M10 5h4M18 5h4M9 6h6M17 6h6M9 7h6M17 7h6M9 8h6M17 8h6M9 9h6M17 9h6M4 10h3M9 10h6M17 10h6M25 10h3M3 11h5M9 11h6M17 11h6M24 11h5M3 12h5M10 12h4M18 12h4M24 12h5M3 13h5M24 13h5M3 14h5M24 14h5M3 15h5M24 15h5M4 16h3M25 16h3M12 18h9M9 19h15M7 20h19M7 21h19M7 22h19M7 23h19M9 24h15M12 25h9" />
</svg>