<svg xmlns="http://www.w3.org/2000/svg" viewBox="0 -0.5 1024 1024" shape-rendering="crispEdges">
<metadata>Made with Pixels to Svg https://codepen.io/shshaw/pen/XbxvNj</metadata>
<path stroke="#000000" d="M416 160h160M416 161h160M416 162h160M416 163h160M416 164h160M416 165h160M416 166h160M416 167h160M416 168h160M416 169h160M416 170h160M416 171h160M416 172h160M416 173h160M416 174h160M416 175h160M416 176h160M416 177h160M416 178h160M416 179h160M416 180h160M416 181h160M416 182h160M416 183h160M416 184h160M416 185h160M416 186h160M416 187h160M416 188h160M416 189h160M416 190h160M416 191h160M352 192h64M576 192h64M352 193h64M576 193h64M352 194h64M576 194h64M352 195h64M576 195h64M352 196h64M576 196h64M352 197h64M576 197h64M352 198h64M576 198h64M352 199h64M576 199h64M352 200h64M576 200h64M352 201h64M576 201h64M352 202h64M576 202h64M352 203h64M576 203h64M352 204h64M576 204h64M352 205h64M576 205h64M352 206h64M576 206h64M352 207h64M576 207h64M352 208h64M576 208h64M352 209h64M576 209h64M352 210h64M576 210h64M352 211h64M576 211h64M352 212h64M576 212h64M352 213h64M576 213h64M352 214h64M576 214h64M352 215h64M576 215h64M352 216h64M576 216h64M352 217h64M576 217h64M352 218h64M576 218h64M352 219h64M576 219h64M352 220h64M576 220h64M352 221h64M576 221h64M352 222h64M576 222h64M352 223h64M576 223h64M320 224h32M640 224h32M320 225h32M640 225h32M320 226h32M640 226h32M320 227h32M640 227h32M320 228h32M640 228h32M320 229h32M640 229h32M320 230h32M640 230h32M320 231h32M640 231h32M320 232h32M640 232h32M320 233h32M640 233h32M320 234h32M640 234h32M320 235h32M640 235h32M320 236h32M640 236h32M320 237h32M640 237h32M320 238h32M640 238h32M320 239h32M640 239h32M320 240h32M640 240h32M320 241h32M640 241h32M320 242h32M640 242h32M320 243h32M640 243h32M320 244h32M640 244h32M320 245h32M640 245h32M320 246h32M640 246h32M320 247h32M640 247h32M320 248h32M640 248h32M320 249h32M640 249h32M320 250h32M640 250h32M320 251h32M640 251h32M320 252h32M640 252h32M320 253h32M640 253h32M320 254h32M640 254h32M320 255h32M640 255h32M288 256h32M672 256h32M288 257h32M672 257h32M288 258h32M672 258h32M288 259h32M672 259h32M288 260h32M672 260h32M288 261h32M672 261h32M288 262h32M672 262h32M288 263h32M672 263h32M288 264h32M672 264h32M288 265h32M672 265h32M288 266h32M672 266h32M288 267h32M672 267h32M288 268h32M672 268h32M288 269h32M672 269h32M288 270h32M672 270h32M288 271h32M672 271h32M288 272h32M672 272h32M288 273h32M672 273h32M288 274h32M672 274h32M288 275h32M672 275h32M288 276h32M672 276h32M288 277h32M672 277h32M288 278h32M672 278h32M288 279h32M672 279h32M288 280h32M672 280h32M288 281h32M672 281h32M288 282h32M672 282h32M288 283h32M672 283h32M288 284h32M672 284h32M288 285h32M672 285h32M288 286h32M672 286h32M288 287h32M672 287h32M256 288h32M704 288h32M256 289h32M704 289h32M256 290h32M704 290h32M256 291h32M704 291h32M256 292h32M704 292h32M256 293h32M704 293h32M256 294h32M704 294h32M256 295h32M704 295h32M256 296h32M704 296h32M256 297h32M704 297h32M256 298h32M704 298h32M256 299h32M704 299h32M256 300h32M704 300h32M256 301h32M704 301h32M256 302h32M704 302h32M256 303h32M704 303h32M256 304h32M704 304h32M256 305h32M704 305h32M256 306h32M704 306h32M256 307h32M704 307h32M256 308h32M704 308h32M256 309h32M704 309h32M256 310h32M704 310h32M256 311h32M704 311h32M256 312h32M704 312h32M256 313h32M704 313h32M256 314h32M704 314h32M256 315h32M704 315h32M256 316h32M704 316h32M256 317h32M704 317h32M256 318h32M704 318h32M256 319h32M704 319h32M224 320h32M736 320h32M224 321h32M736 321h32M224 322h32M736 322h32M224 323h32M736 323h32M224 324h32M736 324h32M224 325h32M736 325h32M224 326h32M736 326h32M224 327h32M736 327h32M224 328h32M736 328h32M224 329h32M736 329h32M224 330h32M736 330h32M224 331h32M736 331h32M224 332h32M736 332h32M224 333h32M736 333h32M224 334h32M736 334h32M224 335h32M736 335h32M224 336h32M736 336h32M224 337h32M736 337h32M224 338h32M736 338h32M224 339h32M736 339h32M224 340h32M736 340h32M224 341h32M736 341h32M224 342h32M736 342h32M224 343h32M736 343h32M224 344h32M736 344h32M224 345h32M736 345h32M224 346h32M736 346h32M224 347h32M736 347h32M224 348h32M736 348h32M224 349h32M736 349h32M224 350h32M736 350h32M224 351h32M736 351h32M224 352h32M736 352h32M224 353h32M736 353h32M224 354h32M736 354h32M224 355h32M736 355h32M224 356h32M736 356h32M224 357h32M736 357h32M224 358h32M736 358h32M224 359h32M736 359h32M224 360h32M736 360h32M224 361h32M736 361h32M224 362h32M736 362h32M224 363h32M736 363h32M224 364h32M736 364h32M224 365h32M736 365h32M224 366h32M736 366h32M224 367h32M736 367h32M224 368h32M736 368h32M224 369h32M736 369h32M224 370h32M736 370h32M224 371h32M736 371h32M224 372h32M736 372h32M224 373h32M736 373h32M224 374h32M736 374h32M224 375h32M736 375h32M224 376h32M736 376h32M224 377h32M736 377h32M224 378h32M736 378h32M224 379h32M736 379h32M224 380h32M736 380h32M224 381h32M736 381h32M224 382h32M736 382h32M224 383h32M736 383h32M192 384h32M384 384h64M576 384h64M768 384h32M192 385h32M384 385h64M576 385h64M768 385h32M192 386h32M384 386h64M576 386h64M768 386h32M192 387h32M384 387h64M576 387h64M768 387h32M192 388h32M384 388h64M576 388h64M768 388h32M192 389h32M384 389h64M576 389h64M768 389h32M192 390h32M384 390h64M576 390h64M768 390h32M192 391h32M384 391h64M576 391h64M768 391h32M192 392h32M384 392h64M576 392h64M768 392h32M192 393h32M384 393h64M576 393h64M768 393h32M192 394h32M384 394h64M576 394h64M768 394h32M192 395h32M384 395h64M576 395h64M768 395h32M192 396h32M384 396h64M576 396h64M768 396h32M192 397h32M384 397h64M576 397h64M768 397h32M192 398h32M384 398h64M576 398h64M768 398h32M192 399h32M384 399h64M576 399h64M768 399h32M192 400h32M384 400h64M576 400h64M768 400h32M192 401h32M384 401h64M576 401h64M768 401h32M192 402h32M384 402h64M576 402h64M768 402h32M192 403h32M384 403h64M576 403h64M768 403h32M192 404h32M384 404h64M576 404h64M768 404h32M192 405h32M384 405h64M576 405h64M768 405h32M192 406h32M384 406h64M576 406h64M768 406h32M192 407h32M384 407h64M576 407h64M768 407h32M192 408h32M384 408h64M576 408h64M768 408h32M192 409h32M384 409h64M576 409h64M768 409h32M192 410h32M384 410h64M576 410h64M768 410h32M192 411h32M384 411h64M576 411h64M768 411h32M192 412h32M384 412h64M576 412h64M768 412h32M192 413h32M384 413h64M576 413h64M768 413h32M192 414h32M384 414h64M576 414h64M768 414h32M192 415h32M384 415h64M576 415h64M768 415h32M192 416h32M384 416h64M576 416h64M768 416h32M192 417h32M384 417h64M576 417h64M768 417h32M192 418h32M384 418h64M576 418h64M768 418h32M192 419h32M384 419h64M576 419h64M768 419h32M192 420h32M384 420h64M576 420h64M768 420h32M192 421h32M384 421h64M576 421h64M768 421h32M192 422h32M384 422h64M576 422h64M768 422h32M192 423h32M384 423h64M576 423h64M768 423h32M192 424h32M384 424h64M576 424h64M768 424h32M192 425h32M384 425h64M576 425h64M768 425h32M192 426h32M384 426h64M576 426h64M768 426h32M192 427h32M384 427h64M576 427h64M768 427h32M192 428h32M384 428h64M576 428h64M768 428h32M192 429h32M384 429h64M576 429h64M768 429h32M192 430h32M384 430h64M576 430h64M768 430h32M192 431h32M384 431h64M576 431h64M768 431h32M192 432h32M384 432h64M576 432h64M768 432h32M192 433h32M384 433h64M576 433h64M768 433h32M192 434h32M384 434h64M576 434h64M768 434h32M192 435h32M384 435h64M576 435h64M768 435h32M192 436h32M384 436h64M576 436h64M768 436h32M192 437h32M384 437h64M576 437h64M768 437h32M192 438h32M384 438h64M576 438h64M768 438h32M192 439h32M384 439h64M576 439h64M768 439h32M192 440h32M384 440h64M576 440h64M768 440h32M192 441h32M384 441h64M576 441h64M768 441h32M192 442h32M384 442h64M576 442h64M768 442h32M192 443h32M384 443h64M576 443h64M768 443h32M192 444h32M384 444h64M576 444h64M768 444h32M192 445h32M384 445h64M576 445h64M768 445h32M192 446h32M384 446h64M576 446h64M768 446h32M192 447h32M384 447h64M576 447h64M768 447h32M192 448h32M768 448h32M192 449h32M768 449h32M192 450h32M768 450h32M192 451h32M768 451h32M192 452h32M768 452h32M192 453h32M768 453h32M192 454h32M768 454h32M192 455h32M768 455h32M192 456h32M768 456h32M192 457h32M768 457h32M192 458h32M768 458h32M192 459h32M768 459h32M192 460h32M768 460h32M192 461h32M768 461h32M192 462h32M768 462h32M192 463h32M768 463h32M192 464h32M768 464h32M192 465h32M768 465h32M192 466h32M768 466h32M192 467h32M768 467h32M192 468h32M768 468h32M192 469h32M768 469h32M192 470h32M768 470h32M192 471h32M768 471h32M192 472h32M768 472h32M192 473h32M768 473h32M192 474h32M768 474h32M192 475h32M768 475h32M192 476h32M768 476h32M192 477h32M768 477h32M192 478h32M768 478h32M192 479h32M768 479h32M192 480h32M768 480h32M192 481h32M768 481h32M192 482h32M768 482h32M192 483h32M768 483h32M192 484h32M768 484h32M192 485h32M768 485h32M192 486h32M768 486h32M192 487h32M768 487h32M192 488h32M768 488h32M192 489h32M768 489h32M192 490h32M768 490h32M192 491h32M768 491h32M192 492h32M768 492h32M192 493h32M768 493h32M192 494h32M768 494h32M192 495h32M768 495h32M192 496h32M768 496h32M192 497h32M768 497h32M192 498h32M768 498h32M192 499h32M768 499h32M192 500h32M768 500h32M192 501h32M768 501h32M192 502h32M768 502h32M192 503h32M768 503h32M192 504h32M768 504h32M192 505h32M768 505h32M192 506h32M768 506h32M192 507h32M768 507h32M192 508h32M768 508h32M192 509h32M768 509h32M192 510h32M768 510h32M192 511h32M768 511h32M192 512h32M320 512h32M672 512h32M768 512h32M192 513h32M320 513h32M672 513h32M768 513h32M192 514h32M320 514h32M672 514h32M768 514h32M192 515h32M320 515h32M672 515h32M768 515h32M192 516h32M320 516h32M672 516h32M768 516h32M192 517h32M320 517h32M672 517h32M768 517h32M192 518h32M320 518h32M672 518h32M768 518h32M192 519h32M320 519h32M672 519h32M768 519h32M192 520h32M320 520h32M672 520h32M768 520h32M192 521h32M320 521h32M672 521h32M768 521h32M192 522h32M320 522h32M672 522h32M768 522h32M192 523h32M320 523h32M672 523h32M768 523h32M192 524h32M320 524h32M672 524h32M768 524h32M192 525h32M320 525h32M672 525h32M768 525h32M192 526h32M320 526h32M672 526h32M768 526h32M192 527h32M320 527h32M672 527h32M768 527h32M192 528h32M320 528h32M672 528h32M768 528h32M192 529h32M320 529h32M672 529h32M768 529h32M192 530h32M320 530h32M672 530h32M768 530h32M192 531h32M320 531h32M672 531h32M768 531h32M192 532h32M320 532h32M672 532h32M768 532h32M192 533h32M320 533h32M672 533h32M768 533h32M192 534h32M320 534h32M672 534h32M768 534h32M192 535h32M320 535h32M672 535h32M768 535h32M192 536h32M320 536h32M672 536h32M768 536h32M192 537h32M320 537h32M672 537h32M768 537h32M192 538h32M320 538h32M672 538h32M768 538h32M192 539h32M320 539h32M672 539h32M768 539h32M192 540h32M320 540h32M672 540h32M768 540h32M192 541h32M320 541h32M672 541h32M768 541h32M192 542h32M320 542h32M672 542h32M768 542h32M192 543h32M320 543h32M672 543h32M768 543h32M192 544h32M288 544h32M704 544h32M768 544h32M192 545h32M288 545h32M704 545h32M768 545h32M192 546h32M288 546h32M704 546h32M768 546h32M192 547h32M288 547h32M704 547h32M768 547h32M192 548h32M288 548h32M704 548h32M768 548h32M192 549h32M288 549h32M704 549h32M768 549h32M192 550h32M288 550h32M704 550h32M768 550h32M192 551h32M288 551h32M704 551h32M768 551h32M192 552h32M288 552h32M704 552h32M768 552h32M192 553h32M288 553h32M704 553h32M768 553h32M192 554h32M288 554h32M704 554h32M768 554h32M192 555h32M288 555h32M704 555h32M768 555h32M192 556h32M288 556h32M704 556h32M768 556h32M192 557h32M288 557h32M704 557h32M768 557h32M192 558h32M288 558h32M704 558h32M768 558h32M192 559h32M288 559h32M704 559h32M768 559h32M192 560h32M288 560h32M704 560h32M768 560h32M192 561h32M288 561h32M704 561h32M768 561h32M192 562h32M288 562h32M704 562h32M768 562h32M192 563h32M288 563h32M704 563h32M768 563h32M192 564h32M288 564h32M704 564h32M768 564h32M192 565h32M288 565h32M704 565h32M768 565h32M192 566h32M288 566h32M704 566h32M768 566h32M192 567h32M288 567h32M704 567h32M768 567h32M192 568h32M288 568h32M704 568h32M768 568h32M192 569h32M288 569h32M704 569h32M768 569h32M192 570h32M288 570h32M704 570h32M768 570h32M192 571h32M288 571h32M704 571h32M768 571h32M192 572h32M288 572h32M704 572h32M768 572h32M192 573h32M288 573h32M704 573h32M768 573h32M192 574h32M288 574h32M704 574h32M768 574h32M192 575h32M288 575h32M704 575h32M768 575h32M192 576h32M416 576h192M768 576h32M192 577h32M416 577h192M768 577h32M192 578h32M416 578h192M768 578h32M192 579h32M416 579h192M768 579h32M192 580h32M416 580h192M768 580h32M192 581h32M416 581h192M768 581h32M192 582h32M416 582h192M768 582h32M192 583h32M416 583h192M768 583h32M192 584h32M416 584h192M768 584h32M192 585h32M416 585h192M768 585h32M192 586h32M416 586h192M768 586h32M192 587h32M416 587h192M768 587h32M192 588h32M416 588h192M768 588h32M192 589h32M416 589h192M768 589h32M192 590h32M416 590h192M768 590h32M192 591h32M416 591h192M768 591h32M192 592h32M416 592h192M768 592h32M192 593h32M416 593h192M768 593h32M192 594h32M416 594h192M768 594h32M192 595h32M416 595h192M768 595h32M192 596h32M416 596h192M768 596h32M192 597h32M416 597h192M768 597h32M192 598h32M416 598h192M768 598h32M192 599h32M416 599h192M768 599h32M192 600h32M416 600h192M768 600h32M192 601h32M416 601h192M768 601h32M192 602h32M416 602h192M768 602h32M192 603h32M416 603h192M768 603h32M192 604h32M416 604h192M768 604h32M192 605h32M416 605h192M768 605h32M192 606h32M416 606h192M768 606h32M192 607h32M416 607h192M768 607h32M224 608h32M384 608h256M736 608h32M224 609h32M384 609h256M736 609h32M224 610h32M384 610h256M736 610h32M224 611h32M384 611h256M736 611h32M224 612h32M384 612h256M736 612h32M224 613h32M384 613h256M736 613h32M224 614h32M384 614h256M736 614h32M224 615h32M384 615h256M736 615h32M224 616h32M384 616h256M736 616h32M224 617h32M384 617h256M736 617h32M224 618h32M384 618h256M736 618h32M224 619h32M384 619h256M736 619h32M224 620h32M384 620h256M736 620h32M224 621h32M384 621h256M736 621h32M224 622h32M384 622h256M736 622h32M224 623h32M384 623h256M736 623h32M224 624h32M384 624h256M736 624h32M224 625h32M384 625h256M736 625h32M224 626h32M384 626h256M736 626h32M224 627h32M384 627h256M736 627h32M224 628h32M384 628h256M736 628h32M224 629h32M384 629h256M736 629h32M224 630h32M384 630h256M736 630h32M224 631h32M384 631h256M736 631h32M224 632h32M384 632h256M736 632h32M224 633h32M384 633h256M736 633h32M224 634h32M384 634h256M736 634h32M224 635h32M384 635h256M736 635h32M224 636h32M384 636h256M736 636h32M224 637h32M384 637h256M736 637h32M224 638h32M384 638h256M736 638h32M224 639h32M384 639h256M736 639h32M224 640h32M736 640h32M224 641h32M736 641h32M224 642h32M736 642h32M224 643h32M736 643h32M224 644h32M736 644h32M224 645h32M736 645h32M224 646h32M736 646h32M224 647h32M736 647h32M224 648h32M736 648h32M224 649h32M736 649h32M224 650h32M736 650h32M224 651h32M736 651h32M224 652h32M736 652h32M224 653h32M736 653h32M224 654h32M736 654h32M224 655h32M736 655h32M224 656h32M736 656h32M224 657h32M736 657h32M224 658h32M736 658h32M224 659h32M736 659h32M224 660h32M736 660h32M224 661h32M736 661h32M224 662h32M736 662h32M224 663h32M736 663h32M224 664h32M736 664h32M224 665h32M736 665h32M224 666h32M736 666h32M224 667h32M736 667h32M224 668h32M736 668h32M224 669h32M736 669h32M224 670h32M736 670h32M224 671h32M736 671h32M256 672h32M704 672h32M256 673h32M704 673h32M256 674h32M704 674h32M256 675h32M704 675h32M256 676h32M704 676h32M256 677h32M704 677h32M256 678h32M704 678h32M256 679h32M704 679h32M256 680h32M704 680h32M256 681h32M704 681h32M256 682h32M704 682h32M256 683h32M704 683h32M256 684h32M704 684h32M256 685h32M704 685h32M256 686h32M704 686h32M256 687h32M704 687h32M256 688h32M704 688h32M256 689h32M704 689h32M256 690h32M704 690h32M256 691h32M704 691h32M256 692h32M704 692h32M256 693h32M704 693h32M256 694h32M704 694h32M256 695h32M704 695h32M256 696h32M704 696h32M256 697h32M704 697h32M256 698h32M704 698h32M256 699h32M704 699h32M256 700h32M704 700h32M256 701h32M704 701h32M256 702h32M704 702h32M256 703h32M704 703h32M288 704h32M672 704h32M288 705h32M672 705h32M288 706h32M672 706h32M288 707h32M672 707h32M288 708h32M672 708h32M288 709h32M672 709h32M288 710h32M672 710h32M288 711h32M672 711h32M288 712h32M672 712h32M288 713h32M672 713h32M288 714h32M672 714h32M288 715h32M672 715h32M288 716h32M672 716h32M288 717h32M672 717h32M288 718h32M672 718h32M288 719h32M672 719h32M288 720h32M672 720h32M288 721h32M672 721h32M288 722h32M672 722h32M288 723h32M672 723h32M288 724h32M672 724h32M288 725h32M672 725h32M288 726h32M672 726h32M288 727h32M672 727h32M288 728h32M672 728h32M288 729h32M672 729h32M288 730h32M672 730h32M288 731h32M672 731h32M288 732h32M672 732h32M288 733h32M672 733h32M288 734h32M672 734h32M288 735h32M672 735h32M320 736h32M640 736h32M320 737h32M640 737h32M320 738h32M640 738h32M320 739h32M640 739h32M320 740h32M640 740h32M320 741h32M640 741h32M320 742h32M640 742h32M320 743h32M640 743h32M320 744h32M640 744h32M320 745h32M640 745h32M320 746h32M640 746h32M320 747h32M640 747h32M320 748h32M640 748h32M320 749h32M640 749h32M320 750h32M640 750h32M320 751h32M640 751h32M320 752h32M640 752h32M320 753h32M640 753h32M320 754h32M640 754h32M320 755h32M640 755h32M320 756h32M640 756h32M320 757h32M640 757h32M320 758h32M640 758h32M320 759h32M640 759h32M320 760h32M640 760h32M320 761h32M640 761h32M320 762h32M640 762h32M320 763h32M640 763h32M320 764h32M640 764h32M320 765h32M640 765h32M320 766h32M640 766h32M320 767h32M640 767h32M352 768h64M576 768h64M352 769h64M576 769h64M352 770h64M576 770h64M352 771h64M576 771h64M352 772h64M576 772h64M352 773h64M576 773h64M352 774h64M576 774h64M352 775h64M576 775h64M352 776h64M576 776h64M352 777h64M576 777h64M352 778h64M576 778h64M352 779h64M576 779h64M352 780h64M576 780h64M352 781h64M576 781h64M352 782h64M576 782h64M352 783h64M576 783h64M352 784h64M576 784h64M352 785h64M576 785h64M352 786h64M576 786h64M352 787h64M576 787h64M352 788h64M576 788h64M352 789h64M576 789h64M352 790h64M576 790h64M352 791h64M576 791h64M352 792h64M576 792h64M352 793h64M576 793h64M352 794h64M576 794h64M352 795h64M576 795h64M352 796h64M576 796h64M352 797h64M576 797h64M352 798h64M576 798h64M352 799h64M576 799h64M352 800h32M416 800h160M608 800h32M352 801h32M416 801h160M608 801h32M352 802h32M416 802h160M608 802h32M352 803h32M416 803h160M608 803h32M352 804h32M416 804h160M608 804h32M352 805h32M416 805h160M608 805h32M352 806h32M416 806h160M608 806h32M352 807h32M416 807h160M608 807h32M352 808h32M416 808h160M608 808h32M352 809h32M416 809h160M608 809h32M352 810h32M416 810h160M608 810h32M352 811h32M416 811h160M608 811h32M352 812h32M416 812h160M608 812h32M352 813h32M416 813h160M608 813h32M352 814h32M416 814h160M608 814h32M352 815h32M416 815h160M608 815h32M352 816h32M416 816h160M608 816h32M352 817h32M416 817h160M608 817h32M352 818h32M416 818h160M608 818h32M352 819h32M416 819h160M608 819h32M352 820h32M416 820h160M608 820h32M352 821h32M416 821h160M608 821h32M352 822h32M416 822h160M608 822h32M352 823h32M416 823h160M608 823h32M352 824h32M416 824h160M608 824h32M352 825h32M416 825h160M608 825h32M352 826h32M416 826h160M608 826h32M352 827h32M416 827h160M608 827h32M352 828h32M416 828h160M608 828h32M352 829h32M416 829h160M608 829h32M352 830h32M416 830h160M608 830h32M352 831h32M416 831h160M608 831h32M352 832h32M608 832h32M352 833h32M608 833h32M352 834h32M608 834h32M352 835h32M608 835h32M352 836h32M608 836h32M352 837h32M608 837h32M352 838h32M608 838h32M352 839h32M608 839h32M352 840h32M608 840h32M352 841h32M608 841h32M352 842h32M608 842h32M352 843h32M608 843h32M352 844h32M608 844h32M352 845h32M608 845h32M352 846h32M608 846h32M352 847h32M608 847h32M352 848h32M608 848h32M352 849h32M608 849h32M352 850h32M608 850h32M352 851h32M608 851h32M352 852h32M608 852h32M352 853h32M608 853h32M352 854h32M608 854h32M352 855h32M608 855h32M352 856h32M608 856h32M352 857h32M608 857h32M352 858h32M608 858h32M352 859h32M608 859h32M352 860h32M608 860h32M352 861h32M608 861h32M352 862h32M608 862h32M352 863h32M608 863h32M352 864h32M608 864h32M352 865h32M608 865h32M352 866h32M608 866h32M352 867h32M608 867h32M352 868h32M608 868h32M352 869h32M608 869h32M352 870h32M608 870h32M352 871h32M608 871h32M352 872h32M608 872h32M352 873h32M608 873h32M352 874h32M608 874h32M352 875h32M608 875h32M352 876h32M608 876h32M352 877h32M608 877h32M352 878h32M608 878h32M352 879h32M608 879h32M352 880h32M608 880h32M352 881h32M608 881h32M352 882h32M608 882h32M352 883h32M608 883h32M352 884h32M608 884h32M352 885h32M608 885h32M352 886h32M608 886h32M352 887h32M608 887h32M352 888h32M608 888h32M352 889h32M608 889h32M352 890h32M608 890h32M352 891h32M608 891h32M352 892h32M608 892h32M352 893h32M608 893h32M352 894h32M608 894h32M352 895h32M608 895h32M288 896h160M544 896h160M288 897h160M544 897h160M288 898h160M544 898h160M288 899h160M544 899h160M288 900h160M544 900h160M288 901h160M544 901h160M288 902h160M544 902h160M288 903h160M544 903h160M288 904h160M544 904h160M288 905h160M544 905h160M288 906h160M544 906h160M288 907h160M544 907h160M288 908h160M544 908h160M288 909h160M544 909h160M288 910h160M544 910h160M288 911h160M544 911h160M288 912h160M544 912h160M288 913h160M544 913h160M288 914h160M544 914h160M288 915h160M544 915h160M288 916h160M544 916h160M288 917h160M544 917h160M288 918h160M544 918h160M288 919h160M544 919h160M288 920h160M544 920h160M288 921h160M544 921h160M288 922h160M544 922h160M288 923h160M544 923h160M288 924h160M544 924h160M288 925h160M544 925h160M288 926h160M544 926h160M288 927h160M544 927h160" />
<path stroke="#ff0765" d="M416 192h160M416 193h160M416 194h160M416 195h160M416 196h160M416 197h160M416 198h160M416 199h160M416 200h160M416 201h160M416 202h160M416 203h160M416 204h160M416 205h160M416 206h160M416 207h160M416 208h160M416 209h160M416 210h160M416 211h160M416 212h160M416 213h160M416 214h160M416 215h160M416 216h160M416 217h160M416 218h160M416 219h160M416 220h160M416 221h160M416 222h160M416 223h160M352 224h288M352 225h288M352 226h288M352 227h288M352 228h288M352 229h288M352 230h288M352 231h288M352 232h288M352 233h288M352 234h288M352 235h288M352 236h288M352 237h288M352 238h288M352 239h288M352 240h288M352 241h288M352 242h288M352 243h288M352 244h288M352 245h288M352 246h288M352 247h288M352 248h288M352 249h288M352 250h288M352 251h288M352 252h288M352 253h288M352 254h288M352 255h288M320 256h352M320 257h352M320 258h352M320 259h352M320 260h352M320 261h352M320 262h352M320 263h352M320 264h352M320 265h352M320 266h352M320 267h352M320 268h352M320 269h352M320 270h352M320 271h352M320 272h352M320 273h352M320 274h352M320 275h352M320 276h352M320 277h352M320 278h352M320 279h352M320 280h352M320 281h352M320 282h352M320 283h352M320 284h352M320 285h352M320 286h352M320 287h352M288 288h416M288 289h416M288 290h416M288 291h416M288 292h416M288 293h416M288 294h416M288 295h416M288 296h416M288 297h416M288 298h416M288 299h416M288 300h416M288 301h416M288 302h416M288 303h416M288 304h416M288 305h416M288 306h416M288 307h416M288 308h416M288 309h416M288 310h416M288 311h416M288 312h416M288 313h416M288 314h416M288 315h416M288 316h416M288 317h416M288 318h416M288 319h416M256 320h480M256 321h480M256 322h480M256 323h480M256 324h480M256 325h480M256 326h480M256 327h480M256 328h480M256 329h480M256 330h480M256 331h480M256 332h480M256 333h480M256 334h480M256 335h480M256 336h480M256 337h480M256 338h480M256 339h480M256 340h480M256 341h480M256 342h480M256 343h480M256 344h480M256 345h480M256 346h480M256 347h480M256 348h480M256 349h480M256 350h480M256 351h480M256 352h480M256 353h480M256 354h480M256 355h480M256 356h480M256 357h480M256 358h480M256 359h480M256 360h480M256 361h480M256 362h480M256 363h480M256 364h480M256 365h480M256 366h480M256 367h480M256 368h480M256 369h480M256 370h480M256 371h480M256 372h480M256 373h480M256 374h480M256 375h480M256 376h480M256 377h480M256 378h480M256 379h480M256 380h480M256 381h480M256 382h480M256 383h480M224 384h160M448 384h128M640 384h128M224 385h160M448 385h128M640 385h128M224 386h160M448 386h128M640 386h128M224 387h160M448 387h128M640 387h128M224 388h160M448 388h128M640 388h128M224 389h160M448 389h128M640 389h128M224 390h160M448 390h128M640 390h128M224 391h160M448 391h128M640 391h128M224 392h160M448 392h128M640 392h128M224 393h160M448 393h128M640 393h128M224 394h160M448 394h128M640 394h128M224 395h160M448 395h128M640 395h128M224 396h160M448 396h128M640 396h128M224 397h160M448 397h128M640 397h128M224 398h160M448 398h128M640 398h128M224 399h160M448 399h128M640 399h128M224 400h160M448 400h128M640 400h128M224 401h160M448 401h128M640 401h128M224 402h160M448 402h128M640 402h128M224 403h160M448 403h128M640 403h128M224 404h160M448 404h128M640 404h128M224 405h160M448 405h128M640 405h128M224 406h160M448 406h128M640 406h128M224 407h160M448 407h128M640 407h128M224 408h160M448 408h128M640 408h128M224 409h160M448 409h128M640 409h128M224 410h160M448 410h128M640 410h128M224 411h160M448 411h128M640 411h128M224 412h160M448 412h128M640 412h128M224 413h160M448 413h128M640 413h128M224 414h160M448 414h128M640 414h128M224 415h160M448 415h128M640 415h128M224 416h160M448 416h128M640 416h128M224 417h160M448 417h128M640 417h128M224 418h160M448 418h128M640 418h128M224 419h160M448 419h128M640 419h128M224 420h160M448 420h128M640 420h128M224 421h160M448 421h128M640 421h128M224 422h160M448 422h128M640 422h128M224 423h160M448 423h128M640 423h128M224 424h160M448 424h128M640 424h128M224 425h160M448 425h128M640 425h128M224 426h160M448 426h128M640 426h128M224 427h160M448 427h128M640 427h128M224 428h160M448 428h128M640 428h128M224 429h160M448 429h128M640 429h128M224 430h160M448 430h128M640 430h128M224 431h160M448 431h128M640 431h128M224 432h160M448 432h128M640 432h128M224 433h160M448 433h128M640 433h128M224 434h160M448 434h128M640 434h128M224 435h160M448 435h128M640 435h128M224 436h160M448 436h128M640 436h128M224 437h160M448 437h128M640 437h128M224 438h160M448 438h128M640 438h128M224 439h160M448 439h128M640 439h128M224 440h160M448 440h128M640 440h128M224 441h160M448 441h128M640 441h128M224 442h160M448 442h128M640 442h128M224 443h160M448 443h128M640 443h128M224 444h160M448 444h128M640 444h128M224 445h160M448 445h128M640 445h128M224 446h160M448 446h128M640 446h128M224 447h160M448 447h128M640 447h128M224 448h544M224 449h544M224 450h544M224 451h544M224 452h544M224 453h544M224 454h544M224 455h544M224 456h544M224 457h544M224 458h544M224 459h544M224 460h544M224 461h544M224 462h544M224 463h544M224 464h544M224 465h544M224 466h544M224 467h544M224 468h544M224 469h544M224 470h544M224 471h544M224 472h544M224 473h544M224 474h544M224 475h544M224 476h544M224 477h544M224 478h544M224 479h544M224 480h544M224 481h544M224 482h544M224 483h544M224 484h544M224 485h544M224 486h544M224 487h544M224 488h544M224 489h544M224 490h544M224 491h544M224 492h544M224 493h544M224 494h544M224 495h544M224 496h544M224 497h544M224 498h544M224 499h544M224 500h544M224 501h544M224 502h544M224 503h544M224 504h544M224 505h544M224 506h544M224 507h544M224 508h544M224 509h544M224 510h544M224 511h544M224 512h96M352 512h320M704 512h64M224 513h96M352 513h320M704 513h64M224 514h96M352 514h320M704 514h64M224 515h96M352 515h320M704 515h64M224 516h96M352 516h320M704 516h64M224 517h96M352 517h320M704 517h64M224 518h96M352 518h320M704 518h64M224 519h96M352 519h320M704 519h64M224 520h96M352 520h320M704 520h64M224 521h96M352 521h320M704 521h64M224 522h96M352 522h320M704 522h64M224 523h96M352 523h320M704 523h64M224 524h96M352 524h320M704 524h64M224 525h96M352 525h320M704 525h64M224 526h96M352 526h320M704 526h64M224 527h96M352 527h320M704 527h64M224 528h96M352 528h320M704 528h64M224 529h96M352 529h320M704 529h64M224 530h96M352 530h320M704 530h64M224 531h96M352 531h320M704 531h64M224 532h96M352 532h320M704 532h64M224 533h96M352 533h320M704 533h64M224 534h96M352 534h320M704 534h64M224 535h96M352 535h320M704 535h64M224 536h96M352 536h320M704 536h64M224 537h96M352 537h320M704 537h64M224 538h96M352 538h320M704 538h64M224 539h96M352 539h320M704 539h64M224 540h96M352 540h320M704 540h64M224 541h96M352 541h320M704 541h64M224 542h96M352 542h320M704 542h64M224 543h96M352 543h320M704 543h64M224 544h64M320 544h128M480 544h64M576 544h128M736 544h32M224 545h64M320 545h128M480 545h64M576 545h128M736 545h32M224 546h64M320 546h128M480 546h64M576 546h128M736 546h32M224 547h64M320 547h128M480 547h64M576 547h128M736 547h32M224 548h64M320 548h128M480 548h64M576 548h128M736 548h32M224 549h64M320 549h128M480 549h64M576 549h128M736 549h32M224 550h64M320 550h128M480 550h64M576 550h128M736 550h32M224 551h64M320 551h128M480 551h64M576 551h128M736 551h32M224 552h64M320 552h128M480 552h64M576 552h128M736 552h32M224 553h64M320 553h128M480 553h64M576 553h128M736 553h32M224 554h64M320 554h128M480 554h64M576 554h128M736 554h32M224 555h64M320 555h128M480 555h64M576 555h128M736 555h32M224 556h64M320 556h128M480 556h64M576 556h128M736 556h32M224 557h64M320 557h128M480 557h64M576 557h128M736 557h32M224 558h64M320 558h128M480 558h64M576 558h128M736 558h32M224 559h64M320 559h128M480 559h64M576 559h128M736 559h32M224 560h64M320 560h128M480 560h64M576 560h128M736 560h32M224 561h64M320 561h128M480 561h64M576 561h128M736 561h32M224 562h64M320 562h128M480 562h64M576 562h128M736 562h32M224 563h64M320 563h128M480 563h64M576 563h128M736 563h32M224 564h64M320 564h128M480 564h64M576 564h128M736 564h32M224 565h64M320 565h128M480 565h64M576 565h128M736 565h32M224 566h64M320 566h128M480 566h64M576 566h128M736 566h32M224 567h64M320 567h128M480 567h64M576 567h128M736 567h32M224 568h64M320 568h128M480 568h64M576 568h128M736 568h32M224 569h64M320 569h128M480 569h64M576 569h128M736 569h32M224 570h64M320 570h128M480 570h64M576 570h128M736 570h32M224 571h64M320 571h128M480 571h64M576 571h128M736 571h32M224 572h64M320 572h128M480 572h64M576 572h128M736 572h32M224 573h64M320 573h128M480 573h64M576 573h128M736 573h32M224 574h64M320 574h128M480 574h64M576 574h128M736 574h32M224 575h64M320 575h128M480 575h64M576 575h128M736 575h32M224 576h192M608 576h160M224 577h192M608 577h160M224 578h192M608 578h160M224 579h192M608 579h160M224 580h192M608 580h160M224 581h192M608 581h160M224 582h192M608 582h160M224 583h192M608 583h160M224 584h192M608 584h160M224 585h192M608 585h160M224 586h192M608 586h160M224 587h192M608 587h160M224 588h192M608 588h160M224 589h192M608 589h160M224 590h192M608 590h160M224 591h192M608 591h160M224 592h192M608 592h160M224 593h192M608 593h160M224 594h192M608 594h160M224 595h192M608 595h160M224 596h192M608 596h160M224 597h192M608 597h160M224 598h192M608 598h160M224 599h192M608 599h160M224 600h192M608 600h160M224 601h192M608 601h160M224 602h192M608 602h160M224 603h192M608 603h160M224 604h192M608 604h160M224 605h192M608 605h160M224 606h192M608 606h160M224 607h192M608 607h160M256 608h128M640 608h96M256 609h128M640 609h96M256 610h128M640 610h96M256 611h128M640 611h96M256 612h128M640 612h96M256 613h128M640 613h96M256 614h128M640 614h96M256 615h128M640 615h96M256 616h128M640 616h96M256 617h128M640 617h96M256 618h128M640 618h96M256 619h128M640 619h96M256 620h128M640 620h96M256 621h128M640 621h96M256 622h128M640 622h96M256 623h128M640 623h96M256 624h128M640 624h96M256 625h128M640 625h96M256 626h128M640 626h96M256 627h128M640 627h96M256 628h128M640 628h96M256 629h128M640 629h96M256 630h128M640 630h96M256 631h128M640 631h96M256 632h128M640 632h96M256 633h128M640 633h96M256 634h128M640 634h96M256 635h128M640 635h96M256 636h128M640 636h96M256 637h128M640 637h96M256 638h128M640 638h96M256 639h128M640 639h96M256 640h480M256 641h480M256 642h480M256 643h480M256 644h480M256 645h480M256 646h480M256 647h480M256 648h480M256 649h480M256 650h480M256 651h480M256 652h480M256 653h480M256 654h480M256 655h480M256 656h480M256 657h480M256 658h480M256 659h480M256 660h480M256 661h480M256 662h480M256 663h480M256 664h480M256 665h480M256 666h480M256 667h480M256 668h480M256 669h480M256 670h480M256 671h480M288 672h416M288 673h416M288 674h416M288 675h416M288 676h416M288 677h416M288 678h416M288 679h416M288 680h416M288 681h416M288 682h416M288 683h416M288 684h416M288 685h416M288 686h416M288 687h416M288 688h416M288 689h416M288 690h416M288 691h416M288 692h416M288 693h416M288 694h416M288 695h416M288 696h416M288 697h416M288 698h416M288 699h416M288 700h416M288 701h416M288 702h416M288 703h416M320 704h352M320 705h352M320 706h352M320 707h352M320 708h352M320 709h352M320 710h352M320 711h352M320 712h352M320 713h352M320 714h352M320 715h352M320 716h352M320 717h352M320 718h352M320 719h352M320 720h352M320 721h352M320 722h352M320 723h352M320 724h352M320 725h352M320 726h352M320 727h352M320 728h352M320 729h352M320 730h352M320 731h352M320 732h352M320 733h352M320 734h352M320 735h352M352 736h288M352 737h288M352 738h288M352 739h288M352 740h288M352 741h288M352 742h288M352 743h288M352 744h288M352 745h288M352 746h288M352 747h288M352 748h288M352 749h288M352 750h288M352 751h288M352 752h288M352 753h288M352 754h288M352 755h288M352 756h288M352 757h288M352 758h288M352 759h288M352 760h288M352 761h288M352 762h288M352 763h288M352 764h288M352 765h288M352 766h288M352 767h288M416 768h160M416 769h160M416 770h160M416 771h160M416 772h160M416 773h160M416 774h160M416 775h160M416 776h160M416 777h160M416 778h160M416 779h160M416 780h160M416 781h160M416 782h160M416 783h160M416 784h160M416 785h160M416 786h160M416 787h160M416 788h160M416 789h160M416 790h160M416 791h160M416 792h160M416 793h160M416 794h160M416 795h160M416 796h160M416 797h160M416 798h160M416 799h160" />
<path stroke="#ffffff" d="M448 544h32M544 544h32M448 545h32M544 545h32M448 546h32M544 546h32M448 547h32M544 547h32M448 548h32M544 548h32M448 549h32M544 549h32M448 550h32M544 550h32M448 551h32M544 551h32M448 552h32M544 552h32M448 553h32M544 553h32M448 554h32M544 554h32M448 555h32M544 555h32M448 556h32M544 556h32M448 557h32M544 557h32M448 558h32M544 558h32M448 559h32M544 559h32M448 560h32M544 560h32M448 561h32M544 561h32M448 562h32M544 562h32M448 563h32M544 563h32M448 564h32M544 564h32M448 565h32M544 565h32M448 566h32M544 566h32M448 567h32M544 567h32M448 568h32M544 568h32M448 569h32M544 569h32M448 570h32M544 570h32M448 571h32M544 571h32M448 572h32M544 572h32M448 573h32M544 573h32M448 574h32M544 574h32M448 575h32M544 575h32" />
</svg>