<svg xmlns="http://www.w3.org/2000/svg" viewBox="0 -0.5 1024 1024" shape-rendering="crispEdges">
<metadata>Made with Pixels to Svg https://codepen.io/shshaw/pen/XbxvNj</metadata>
<path stroke="#000000" d="M384 128h256M384 129h256M384 130h256M384 131h256M384 132h256M384 133h256M384 134h256M384 135h256M384 136h256M384 137h256M384 138h256M384 139h256M384 140h256M384 141h256M384 142h256M384 143h256M384 144h256M384 145h256M384 146h256M384 147h256M384 148h256M384 149h256M384 150h256M384 151h256M384 152h256M384 153h256M384 154h256M384 155h256M384 156h256M384 157h256M384 158h256M384 159h256M352 160h32M640 160h32M352 161h32M640 161h32M352 162h32M640 162h32M352 163h32M640 163h32M352 164h32M640 164h32M352 165h32M640 165h32M352 166h32M640 166h32M352 167h32M640 167h32M352 168h32M640 168h32M352 169h32M640 169h32M352 170h32M640 170h32M352 171h32M640 171h32M352 172h32M640 172h32M352 173h32M640 173h32M352 174h32M640 174h32M352 175h32M640 175h32M352 176h32M640 176h32M352 177h32M640 177h32M352 178h32M640 178h32M352 179h32M640 179h32M352 180h32M640 180h32M352 181h32M640 181h32M352 182h32M640 182h32M352 183h32M640 183h32M352 184h32M640 184h32M352 185h32M640 185h32M352 186h32M640 186h32M352 187h32M640 187h32M352 188h32M640 188h32M352 189h32M640 189h32M352 190h32M640 190h32M352 191h32M640 191h32M320 192h32M672 192h32M320 193h32M672 193h32M320 194h32M672 194h32M320 195h32M672 195h32M320 196h32M672 196h32M320 197h32M672 197h32M320 198h32M672 198h32M320 199h32M672 199h32M320 200h32M672 200h32M320 201h32M672 201h32M320 202h32M672 202h32M320 203h32M672 203h32M320 204h32M672 204h32M320 205h32M672 205h32M320 206h32M672 206h32M320 207h32M672 207h32M320 208h32M672 208h32M320 209h32M672 209h32M320 210h32M672 210h32M320 211h32M672 211h32M320 212h32M672 212h32M320 213h32M672 213h32M320 214h32M672 214h32M320 215h32M672 215h32M320 216h32M672 216h32M320 217h32M672 217h32M320 218h32M672 218h32M320 219h32M672 219h32M320 220h32M672 220h32M320 221h32M672 221h32M320 222h32M672 222h32M320 223h32M672 223h32M320 224h32M672 224h32M320 225h32M672 225h32M320 226h32M672 226h32M320 227h32M672 227h32M320 228h32M672 228h32M320 229h32M672 229h32M320 230h32M672 230h32M320 231h32M672 231h32M320 232h32M672 232h32M320 233h32M672 233h32M320 234h32M672 234h32M320 235h32M672 235h32M320 236h32M672 236h32M320 237h32M672 237h32M320 238h32M672 238h32M320 239h32M672 239h32M320 240h32M672 240h32M320 241h32M672 241h32M320 242h32M672 242h32M320 243h32M672 243h32M320 244h32M672 244h32M320 245h32M672 245h32M320 246h32M672 246h32M320 247h32M672 247h32M320 248h32M672 248h32M320 249h32M672 249h32M320 250h32M672 250h32M320 251h32M672 251h32M320 252h32M672 252h32M320 253h32M672 253h32M320 254h32M672 254h32M320 255h32M672 255h32M320 256h32M672 256h32M320 257h32M672 257h32M320 258h32M672 258h32M320 259h32M672 259h32M320 260h32M672 260h32M320 261h32M672 261h32M320 262h32M672 262h32M320 263h32M672 263h32M320 264h32M672 264h32M320 265h32M672 265h32M320 266h32M672 266h32M320 267h32M672 267h32M320 268h32M672 268h32M320 269h32M672 269h32M320 270h32M672 270h32M320 271h32M672 271h32M320 272h32M672 272h32M320 273h32M672 273h32M320 274h32M672 274h32M320 275h32M672 275h32M320 276h32M672 276h32M320 277h32M672 277h32M320 278h32M672 278h32M320 279h32M672 279h32M320 280h32M672 280h32M320 281h32M672 281h32M320 282h32M672 282h32M320 283h32M672 283h32M320 284h32M672 284h32M320 285h32M672 285h32M320 286h32M672 286h32M320 287h32M672 287h32M320 288h32M672 288h32M320 289h32M672 289h32M320 290h32M672 290h32M320 291h32M672 291h32M320 292h32M672 292h32M320 293h32M672 293h32M320 294h32M672 294h32M320 295h32M672 295h32M320 296h32M672 296h32M320 297h32M672 297h32M320 298h32M672 298h32M320 299h32M672 299h32M320 300h32M672 300h32M320 301h32M672 301h32M320 302h32M672 302h32M320 303h32M672 303h32M320 304h32M672 304h32M320 305h32M672 305h32M320 306h32M672 306h32M320 307h32M672 307h32M320 308h32M672 308h32M320 309h32M672 309h32M320 310h32M672 310h32M320 311h32M672 311h32M320 312h32M672 312h32M320 313h32M672 313h32M320 314h32M672 314h32M320 315h32M672 315h32M320 316h32M672 316h32M320 317h32M672 317h32M320 318h32M672 318h32M320 319h32M672 319h32M352 320h96M576 320h96M352 321h96M576 321h96M352 322h96M576 322h96M352 323h96M576 323h96M352 324h96M576 324h96M352 325h96M576 325h96M352 326h96M576 326h96M352 327h96M576 327h96M352 328h96M576 328h96M352 329h96M576 329h96M352 330h96M576 330h96M352 331h96M576 331h96M352 332h96M576 332h96M352 333h96M576 333h96M352 334h96M576 334h96M352 335h96M576 335h96M352 336h96M576 336h96M352 337h96M576 337h96M352 338h96M576 338h96M352 339h96M576 339h96M352 340h96M576 340h96M352 341h96M576 341h96M352 342h96M576 342h96M352 343h96M576 343h96M352 344h96M576 344h96M352 345h96M576 345h96M352 346h96M576 346h96M352 347h96M576 347h96M352 348h96M576 348h96M352 349h96M576 349h96M352 350h96M576 350h96M352 351h96M576 351h96M416 352h32M576 352h32M416 353h32M576 353h32M416 354h32M576 354h32M416 355h32M576 355h32M416 356h32M576 356h32M416 357h32M576 357h32M416 358h32M576 358h32M416 359h32M576 359h32M416 360h32M576 360h32M416 361h32M576 361h32M416 362h32M576 362h32M416 363h32M576 363h32M416 364h32M576 364h32M416 365h32M576 365h32M416 366h32M576 366h32M416 367h32M576 367h32M416 368h32M576 368h32M416 369h32M576 369h32M416 370h32M576 370h32M416 371h32M576 371h32M416 372h32M576 372h32M416 373h32M576 373h32M416 374h32M576 374h32M416 375h32M576 375h32M416 376h32M576 376h32M416 377h32M576 377h32M416 378h32M576 378h32M416 379h32M576 379h32M416 380h32M576 380h32M416 381h32M576 381h32M416 382h32M576 382h32M416 383h32M576 383h32M416 384h32M576 384h32M416 385h32M576 385h32M416 386h32M576 386h32M416 387h32M576 387h32M416 388h32M576 388h32M416 389h32M576 389h32M416 390h32M576 390h32M416 391h32M576 391h32M416 392h32M576 392h32M416 393h32M576 393h32M416 394h32M576 394h32M416 395h32M576 395h32M416 396h32M576 396h32M416 397h32M576 397h32M416 398h32M576 398h32M416 399h32M576 399h32M416 400h32M576 400h32M416 401h32M576 401h32M416 402h32M576 402h32M416 403h32M576 403h32M416 404h32M576 404h32M416 405h32M576 405h32M416 406h32M576 406h32M416 407h32M576 407h32M416 408h32M576 408h32M416 409h32M576 409h32M416 410h32M576 410h32M416 411h32M576 411h32M416 412h32M576 412h32M416 413h32M576 413h32M416 414h32M576 414h32M416 415h32M576 415h32M384 416h32M608 416h32M384 417h32M608 417h32M384 418h32M608 418h32M384 419h32M608 419h32M384 420h32M608 420h32M384 421h32M608 421h32M384 422h32M608 422h32M384 423h32M608 423h32M384 424h32M608 424h32M384 425h32M608 425h32M384 426h32M608 426h32M384 427h32M608 427h32M384 428h32M608 428h32M384 429h32M608 429h32M384 430h32M608 430h32M384 431h32M608 431h32M384 432h32M608 432h32M384 433h32M608 433h32M384 434h32M608 434h32M384 435h32M608 435h32M384 436h32M608 436h32M384 437h32M608 437h32M384 438h32M608 438h32M384 439h32M608 439h32M384 440h32M608 440h32M384 441h32M608 441h32M384 442h32M608 442h32M384 443h32M608 443h32M384 444h32M608 444h32M384 445h32M608 445h32M384 446h32M608 446h32M384 447h32M608 447h32M352 448h32M640 448h32M352 449h32M640 449h32M352 450h32M640 450h32M352 451h32M640 451h32M352 452h32M640 452h32M352 453h32M640 453h32M352 454h32M640 454h32M352 455h32M640 455h32M352 456h32M640 456h32M352 457h32M640 457h32M352 458h32M640 458h32M352 459h32M640 459h32M352 460h32M640 460h32M352 461h32M640 461h32M352 462h32M640 462h32M352 463h32M640 463h32M352 464h32M640 464h32M352 465h32M640 465h32M352 466h32M640 466h32M352 467h32M640 467h32M352 468h32M640 468h32M352 469h32M640 469h32M352 470h32M640 470h32M352 471h32M640 471h32M352 472h32M640 472h32M352 473h32M640 473h32M352 474h32M640 474h32M352 475h32M640 475h32M352 476h32M640 476h32M352 477h32M640 477h32M352 478h32M640 478h32M352 479h32M640 479h32M320 480h32M672 480h32M320 481h32M672 481h32M320 482h32M672 482h32M320 483h32M672 483h32M320 484h32M672 484h32M320 485h32M672 485h32M320 486h32M672 486h32M320 487h32M672 487h32M320 488h32M672 488h32M320 489h32M672 489h32M320 490h32M672 490h32M320 491h32M672 491h32M320 492h32M672 492h32M320 493h32M672 493h32M320 494h32M672 494h32M320 495h32M672 495h32M320 496h32M672 496h32M320 497h32M672 497h32M320 498h32M672 498h32M320 499h32M672 499h32M320 500h32M672 500h32M320 501h32M672 501h32M320 502h32M672 502h32M320 503h32M672 503h32M320 504h32M672 504h32M320 505h32M672 505h32M320 506h32M672 506h32M320 507h32M672 507h32M320 508h32M672 508h32M320 509h32M672 509h32M320 510h32M672 510h32M320 511h32M672 511h32M288 512h32M704 512h32M288 513h32M704 513h32M288 514h32M704 514h32M288 515h32M704 515h32M288 516h32M704 516h32M288 517h32M704 517h32M288 518h32M704 518h32M288 519h32M704 519h32M288 520h32M704 520h32M288 521h32M704 521h32M288 522h32M704 522h32M288 523h32M704 523h32M288 524h32M704 524h32M288 525h32M704 525h32M288 526h32M704 526h32M288 527h32M704 527h32M288 528h32M704 528h32M288 529h32M704 529h32M288 530h32M704 530h32M288 531h32M704 531h32M288 532h32M704 532h32M288 533h32M704 533h32M288 534h32M704 534h32M288 535h32M704 535h32M288 536h32M704 536h32M288 537h32M704 537h32M288 538h32M704 538h32M288 539h32M704 539h32M288 540h32M704 540h32M288 541h32M704 541h32M288 542h32M704 542h32M288 543h32M704 543h32M288 544h32M704 544h32M288 545h32M704 545h32M288 546h32M704 546h32M288 547h32M704 547h32M288 548h32M704 548h32M288 549h32M704 549h32M288 550h32M704 550h32M288 551h32M704 551h32M288 552h32M704 552h32M288 553h32M704 553h32M288 554h32M704 554h32M288 555h32M704 555h32M288 556h32M704 556h32M288 557h32M704 557h32M288 558h32M704 558h32M288 559h32M704 559h32M288 560h32M704 560h32M288 561h32M704 561h32M288 562h32M704 562h32M288 563h32M704 563h32M288 564h32M704 564h32M288 565h32M704 565h32M288 566h32M704 566h32M288 567h32M704 567h32M288 568h32M704 568h32M288 569h32M704 569h32M288 570h32M704 570h32M288 571h32M704 571h32M288 572h32M704 572h32M288 573h32M704 573h32M288 574h32M704 574h32M288 575h32M704 575h32M288 576h32M704 576h32M288 577h32M704 577h32M288 578h32M704 578h32M288 579h32M704 579h32M288 580h32M704 580h32M288 581h32M704 581h32M288 582h32M704 582h32M288 583h32M704 583h32M288 584h32M704 584h32M288 585h32M704 585h32M288 586h32M704 586h32M288 587h32M704 587h32M288 588h32M704 588h32M288 589h32M704 589h32M288 590h32M704 590h32M288 591h32M704 591h32M288 592h32M704 592h32M288 593h32M704 593h32M288 594h32M704 594h32M288 595h32M704 595h32M288 596h32M704 596h32M288 597h32M704 597h32M288 598h32M704 598h32M288 599h32M704 599h32M288 600h32M704 600h32M288 601h32M704 601h32M288 602h32M704 602h32M288 603h32M704 603h32M288 604h32M704 604h32M288 605h32M704 605h32M288 606h32M704 606h32M288 607h32M704 607h32M288 608h32M704 608h32M288 609h32M704 609h32M288 610h32M704 610h32M288 611h32M704 611h32M288 612h32M704 612h32M288 613h32M704 613h32M288 614h32M704 614h32M288 615h32M704 615h32M288 616h32M704 616h32M288 617h32M704 617h32M288 618h32M704 618h32M288 619h32M704 619h32M288 620h32M704 620h32M288 621h32M704 621h32M288 622h32M704 622h32M288 623h32M704 623h32M288 624h32M704 624h32M288 625h32M704 625h32M288 626h32M704 626h32M288 627h32M704 627h32M288 628h32M704 628h32M288 629h32M704 629h32M288 630h32M704 630h32M288 631h32M704 631h32M288 632h32M704 632h32M288 633h32M704 633h32M288 634h32M704 634h32M288 635h32M704 635h32M288 636h32M704 636h32M288 637h32M704 637h32M288 638h32M704 638h32M288 639h32M704 639h32M288 640h32M704 640h32M288 641h32M704 641h32M288 642h32M704 642h32M288 643h32M704 643h32M288 644h32M704 644h32M288 645h32M704 645h32M288 646h32M704 646h32M288 647h32M704 647h32M288 648h32M704 648h32M288 649h32M704 649h32M288 650h32M704 650h32M288 651h32M704 651h32M288 652h32M704 652h32M288 653h32M704 653h32M288 654h32M704 654h32M288 655h32M704 655h32M288 656h32M704 656h32M288 657h32M704 657h32M288 658h32M704 658h32M288 659h32M704 659h32M288 660h32M704 660h32M288 661h32M704 661h32M288 662h32M704 662h32M288 663h32M704 663h32M288 664h32M704 664h32M288 665h32M704 665h32M288 666h32M704 666h32M288 667h32M704 667h32M288 668h32M704 668h32M288 669h32M704 669h32M288 670h32M704 670h32M288 671h32M704 671h32M288 672h32M704 672h32M288 673h32M704 673h32M288 674h32M704 674h32M288 675h32M704 675h32M288 676h32M704 676h32M288 677h32M704 677h32M288 678h32M704 678h32M288 679h32M704 679h32M288 680h32M704 680h32M288 681h32M704 681h32M288 682h32M704 682h32M288 683h32M704 683h32M288 684h32M704 684h32M288 685h32M704 685h32M288 686h32M704 686h32M288 687h32M704 687h32M288 688h32M704 688h32M288 689h32M704 689h32M288 690h32M704 690h32M288 691h32M704 691h32M288 692h32M704 692h32M288 693h32M704 693h32M288 694h32M704 694h32M288 695h32M704 695h32M288 696h32M704 696h32M288 697h32M704 697h32M288 698h32M704 698h32M288 699h32M704 699h32M288 700h32M704 700h32M288 701h32M704 701h32M288 702h32M704 702h32M288 703h32M704 703h32M288 704h32M704 704h32M288 705h32M704 705h32M288 706h32M704 706h32M288 707h32M704 707h32M288 708h32M704 708h32M288 709h32M704 709h32M288 710h32M704 710h32M288 711h32M704 711h32M288 712h32M704 712h32M288 713h32M704 713h32M288 714h32M704 714h32M288 715h32M704 715h32M288 716h32M704 716h32M288 717h32M704 717h32M288 718h32M704 718h32M288 719h32M704 719h32M288 720h32M704 720h32M288 721h32M704 721h32M288 722h32M704 722h32M288 723h32M704 723h32M288 724h32M704 724h32M288 725h32M704 725h32M288 726h32M704 726h32M288 727h32M704 727h32M288 728h32M704 728h32M288 729h32M704 729h32M288 730h32M704 730h32M288 731h32M704 731h32M288 732h32M704 732h32M288 733h32M704 733h32M288 734h32M704 734h32M288 735h32M704 735h32M288 736h32M704 736h32M288 737h32M704 737h32M288 738h32M704 738h32M288 739h32M704 739h32M288 740h32M704 740h32M288 741h32M704 741h32M288 742h32M704 742h32M288 743h32M704 743h32M288 744h32M704 744h32M288 745h32M704 745h32M288 746h32M704 746h32M288 747h32M704 747h32M288 748h32M704 748h32M288 749h32M704 749h32M288 750h32M704 750h32M288 751h32M704 751h32M288 752h32M704 752h32M288 753h32M704 753h32M288 754h32M704 754h32M288 755h32M704 755h32M288 756h32M704 756h32M288 757h32M704 757h32M288 758h32M704 758h32M288 759h32M704 759h32M288 760h32M704 760h32M288 761h32M704 761h32M288 762h32M704 762h32M288 763h32M704 763h32M288 764h32M704 764h32M288 765h32M704 765h32M288 766h32M704 766h32M288 767h32M704 767h32M288 768h64M672 768h64M288 769h64M672 769h64M288 770h64M672 770h64M288 771h64M672 771h64M288 772h64M672 772h64M288 773h64M672 773h64M288 774h64M672 774h64M288 775h64M672 775h64M288 776h64M672 776h64M288 777h64M672 777h64M288 778h64M672 778h64M288 779h64M672 779h64M288 780h64M672 780h64M288 781h64M672 781h64M288 782h64M672 782h64M288 783h64M672 783h64M288 784h64M672 784h64M288 785h64M672 785h64M288 786h64M672 786h64M288 787h64M672 787h64M288 788h64M672 788h64M288 789h64M672 789h64M288 790h64M672 790h64M288 791h64M672 791h64M288 792h64M672 792h64M288 793h64M672 793h64M288 794h64M672 794h64M288 795h64M672 795h64M288 796h64M672 796h64M288 797h64M672 797h64M288 798h64M672 798h64M288 799h64M672 799h64M352 800h32M640 800h32M352 801h32M640 801h32M352 802h32M640 802h32M352 803h32M640 803h32M352 804h32M640 804h32M352 805h32M640 805h32M352 806h32M640 806h32M352 807h32M640 807h32M352 808h32M640 808h32M352 809h32M640 809h32M352 810h32M640 810h32M352 811h32M640 811h32M352 812h32M640 812h32M352 813h32M640 813h32M352 814h32M640 814h32M352 815h32M640 815h32M352 816h32M640 816h32M352 817h32M640 817h32M352 818h32M640 818h32M352 819h32M640 819h32M352 820h32M640 820h32M352 821h32M640 821h32M352 822h32M640 822h32M352 823h32M640 823h32M352 824h32M640 824h32M352 825h32M640 825h32M352 826h32M640 826h32M352 827h32M640 827h32M352 828h32M640 828h32M352 829h32M640 829h32M352 830h32M640 830h32M352 831h32M640 831h32M352 832h64M608 832h64M352 833h64M608 833h64M352 834h64M608 834h64M352 835h64M608 835h64M352 836h64M608 836h64M352 837h64M608 837h64M352 838h64M608 838h64M352 839h64M608 839h64M352 840h64M608 840h64M352 841h64M608 841h64M352 842h64M608 842h64M352 843h64M608 843h64M352 844h64M608 844h64M352 845h64M608 845h64M352 846h64M608 846h64M352 847h64M608 847h64M352 848h64M608 848h64M352 849h64M608 849h64M352 850h64M608 850h64M352 851h64M608 851h64M352 852h64M608 852h64M352 853h64M608 853h64M352 854h64M608 854h64M352 855h64M608 855h64M352 856h64M608 856h64M352 857h64M608 857h64M352 858h64M608 858h64M352 859h64M608 859h64M352 860h64M608 860h64M352 861h64M608 861h64M352 862h64M608 862h64M352 863h64M608 863h64M384 864h256M384 865h256M384 866h256M384 867h256M384 868h256M384 869h256M384 870h256M384 871h256M384 872h256M384 873h256M384 874h256M384 875h256M384 876h256M384 877h256M384 878h256M384 879h256M384 880h256M384 881h256M384 882h256M384 883h256M384 884h256M384 885h256M384 886h256M384 887h256M384 888h256M384 889h256M384 890h256M384 891h256M384 892h256M384 893h256M384 894h256M384 895h256" />
<path stroke="#936b35" d="M384 160h256M384 161h256M384 162h256M384 163h256M384 164h256M384 165h256M384 166h256M384 167h256M384 168h256M384 169h256M384 170h256M384 171h256M384 172h256M384 173h256M384 174h256M384 175h256M384 176h256M384 177h256M384 178h256M384 179h256M384 180h256M384 181h256M384 182h256M384 183h256M384 184h256M384 185h256M384 186h256M384 187h256M384 188h256M384 189h256M384 190h256M384 191h256M352 192h320M352 193h320M352 194h320M352 195h320M352 196h320M352 197h320M352 198h320M352 199h320M352 200h320M352 201h320M352 202h320M352 203h320M352 204h320M352 205h320M352 206h320M352 207h320M352 208h320M352 209h320M352 210h320M352 211h320M352 212h320M352 213h320M352 214h320M352 215h320M352 216h320M352 217h320M352 218h320M352 219h320M352 220h320M352 221h320M352 222h320M352 223h320M352 224h320M352 225h320M352 226h320M352 227h320M352 228h320M352 229h320M352 230h320M352 231h320M352 232h320M352 233h320M352 234h320M352 235h320M352 236h320M352 237h320M352 238h320M352 239h320M352 240h320M352 241h320M352 242h320M352 243h320M352 244h320M352 245h320M352 246h320M352 247h320M352 248h320M352 249h320M352 250h320M352 251h320M352 252h320M352 253h320M352 254h320M352 255h320M352 256h320M352 257h320M352 258h320M352 259h320M352 260h320M352 261h320M352 262h320M352 263h320M352 264h320M352 265h320M352 266h320M352 267h320M352 268h320M352 269h320M352 270h320M352 271h320M352 272h320M352 273h320M352 274h320M352 275h320M352 276h320M352 277h320M352 278h320M352 279h320M352 280h320M352 281h320M352 282h320M352 283h320M352 284h320M352 285h320M352 286h320M352 287h320M352 288h320M352 289h320M352 290h320M352 291h320M352 292h320M352 293h320M352 294h320M352 295h320M352 296h320M352 297h320M352 298h320M352 299h320M352 300h320M352 301h320M352 302h320M352 303h320M352 304h320M352 305h320M352 306h320M352 307h320M352 308h320M352 309h320M352 310h320M352 311h320M352 312h320M352 313h320M352 314h320M352 315h320M352 316h320M352 317h320M352 318h320M352 319h320" />
<path stroke="#b8ffee" d="M448 320h128M448 321h128M448 322h128M448 323h128M448 324h128M448 325h128M448 326h128M448 327h128M448 328h128M448 329h128M448 330h128M448 331h128M448 332h128M448 333h128M448 334h128M448 335h128M448 336h128M448 337h128M448 338h128M448 339h128M448 340h128M448 341h128M448 342h128M448 343h128M448 344h128M448 345h128M448 346h128M448 347h128M448 348h128M448 349h128M448 350h128M448 351h128M448 352h128M448 353h128M448 354h128M448 355h128M448 356h128M448 357h128M448 358h128M448 359h128M448 360h128M448 361h128M448 362h128M448 363h128M448 364h128M448 365h128M448 366h128M448 367h128M448 368h128M448 369h128M448 370h128M448 371h128M448 372h128M448 373h128M448 374h128M448 375h128M448 376h128M448 377h128M448 378h128M448 379h128M448 380h128M448 381h128M448 382h128M448 383h128M448 384h128M448 385h128M448 386h128M448 387h128M448 388h128M448 389h128M448 390h128M448 391h128M448 392h128M448 393h128M448 394h128M448 395h128M448 396h128M448 397h128M448 398h128M448 399h128M448 400h128M448 401h128M448 402h128M448 403h128M448 404h128M448 405h128M448 406h128M448 407h128M448 408h128M448 409h128M448 410h128M448 411h128M448 412h128M448 413h128M448 414h128M448 415h128M416 416h64M576 416h32M416 417h64M576 417h32M416 418h64M576 418h32M416 419h64M576 419h32M416 420h64M576 420h32M416 421h64M576 421h32M416 422h64M576 422h32M416 423h64M576 423h32M416 424h64M576 424h32M416 425h64M576 425h32M416 426h64M576 426h32M416 427h64M576 427h32M416 428h64M576 428h32M416 429h64M576 429h32M416 430h64M576 430h32M416 431h64M576 431h32M416 432h64M576 432h32M416 433h64M576 433h32M416 434h64M576 434h32M416 435h64M576 435h32M416 436h64M576 436h32M416 437h64M576 437h32M416 438h64M576 438h32M416 439h64M576 439h32M416 440h64M576 440h32M416 441h64M576 441h32M416 442h64M576 442h32M416 443h64M576 443h32M416 444h64M576 444h32M416 445h64M576 445h32M416 446h64M576 446h32M416 447h64M576 447h32M384 448h96M576 448h64M384 449h96M576 449h64M384 450h96M576 450h64M384 451h96M576 451h64M384 452h96M576 452h64M384 453h96M576 453h64M384 454h96M576 454h64M384 455h96M576 455h64M384 456h96M576 456h64M384 457h96M576 457h64M384 458h96M576 458h64M384 459h96M576 459h64M384 460h96M576 460h64M384 461h96M576 461h64M384 462h96M576 462h64M384 463h96M576 463h64M384 464h96M576 464h64M384 465h96M576 465h64M384 466h96M576 466h64M384 467h96M576 467h64M384 468h96M576 468h64M384 469h96M576 469h64M384 470h96M576 470h64M384 471h96M576 471h64M384 472h96M576 472h64M384 473h96M576 473h64M384 474h96M576 474h64M384 475h96M576 475h64M384 476h96M576 476h64M384 477h96M576 477h64M384 478h96M576 478h64M384 479h96M576 479h64M640 480h32M640 481h32M640 482h32M640 483h32M640 484h32M640 485h32M640 486h32M640 487h32M640 488h32M640 489h32M640 490h32M640 491h32M640 492h32M640 493h32M640 494h32M640 495h32M640 496h32M640 497h32M640 498h32M640 499h32M640 500h32M640 501h32M640 502h32M640 503h32M640 504h32M640 505h32M640 506h32M640 507h32M640 508h32M640 509h32M640 510h32M640 511h32" />
<path stroke="#ffffff" d="M480 416h96M480 417h96M480 418h96M480 419h96M480 420h96M480 421h96M480 422h96M480 423h96M480 424h96M480 425h96M480 426h96M480 427h96M480 428h96M480 429h96M480 430h96M480 431h96M480 432h96M480 433h96M480 434h96M480 435h96M480 436h96M480 437h96M480 438h96M480 439h96M480 440h96M480 441h96M480 442h96M480 443h96M480 444h96M480 445h96M480 446h96M480 447h96M480 448h96M480 449h96M480 450h96M480 451h96M480 452h96M480 453h96M480 454h96M480 455h96M480 456h96M480 457h96M480 458h96M480 459h96M480 460h96M480 461h96M480 462h96M480 463h96M480 464h96M480 465h96M480 466h96M480 467h96M480 468h96M480 469h96M480 470h96M480 471h96M480 472h96M480 473h96M480 474h96M480 475h96M480 476h96M480 477h96M480 478h96M480 479h96M576 480h64M576 481h64M576 482h64M576 483h64M576 484h64M576 485h64M576 486h64M576 487h64M576 488h64M576 489h64M576 490h64M576 491h64M576 492h64M576 493h64M576 494h64M576 495h64M576 496h64M576 497h64M576 498h64M576 499h64M576 500h64M576 501h64M576 502h64M576 503h64M576 504h64M576 505h64M576 506h64M576 507h64M576 508h64M576 509h64M576 510h64M576 511h64M576 512h64M576 513h64M576 514h64M576 515h64M576 516h64M576 517h64M576 518h64M576 519h64M576 520h64M576 521h64M576 522h64M576 523h64M576 524h64M576 525h64M576 526h64M576 527h64M576 528h64M576 529h64M576 530h64M576 531h64M576 532h64M576 533h64M576 534h64M576 535h64M576 536h64M576 537h64M576 538h64M576 539h64M576 540h64M576 541h64M576 542h64M576 543h64M576 640h64M576 641h64M576 642h64M576 643h64M576 644h64M576 645h64M576 646h64M576 647h64M576 648h64M576 649h64M576 650h64M576 651h64M576 652h64M576 653h64M576 654h64M576 655h64M576 656h64M576 657h64M576 658h64M576 659h64M576 660h64M576 661h64M576 662h64M576 663h64M576 664h64M576 665h64M576 666h64M576 667h64M576 668h64M576 669h64M576 670h64M576 671h64M576 672h64M576 673h64M576 674h64M576 675h64M576 676h64M576 677h64M576 678h64M576 679h64M576 680h64M576 681h64M576 682h64M576 683h64M576 684h64M576 685h64M576 686h64M576 687h64M576 688h64M576 689h64M576 690h64M576 691h64M576 692h64M576 693h64M576 694h64M576 695h64M576 696h64M576 697h64M576 698h64M576 699h64M576 700h64M576 701h64M576 702h64M576 703h64M576 704h64M576 705h64M576 706h64M576 707h64M576 708h64M576 709h64M576 710h64M576 711h64M576 712h64M576 713h64M576 714h64M576 715h64M576 716h64M576 717h64M576 718h64M576 719h64M576 720h64M576 721h64M576 722h64M576 723h64M576 724h64M576 725h64M576 726h64M576 727h64M576 728h64M576 729h64M576 730h64M576 731h64M576 732h64M576 733h64M576 734h64M576 735h64" />
<path stroke="#8c25c3" d="M352 480h224M352 481h224M352 482h224M352 483h224M352 484h224M352 485h224M352 486h224M352 487h224M352 488h224M352 489h224M352 490h224M352 491h224M352 492h224M352 493h224M352 494h224M352 495h224M352 496h224M352 497h224M352 498h224M352 499h224M352 500h224M352 501h224M352 502h224M352 503h224M352 504h224M352 505h224M352 506h224M352 507h224M352 508h224M352 509h224M352 510h224M352 511h224M320 512h256M640 512h64M320 513h256M640 513h64M320 514h256M640 514h64M320 515h256M640 515h64M320 516h256M640 516h64M320 517h256M640 517h64M320 518h256M640 518h64M320 519h256M640 519h64M320 520h256M640 520h64M320 521h256M640 521h64M320 522h256M640 522h64M320 523h256M640 523h64M320 524h256M640 524h64M320 525h256M640 525h64M320 526h256M640 526h64M320 527h256M640 527h64M320 528h256M640 528h64M320 529h256M640 529h64M320 530h256M640 530h64M320 531h256M640 531h64M320 532h256M640 532h64M320 533h256M640 533h64M320 534h256M640 534h64M320 535h256M640 535h64M320 536h256M640 536h64M320 537h256M640 537h64M320 538h256M640 538h64M320 539h256M640 539h64M320 540h256M640 540h64M320 541h256M640 541h64M320 542h256M640 542h64M320 543h256M640 543h64M320 544h384M320 545h384M320 546h384M320 547h384M320 548h384M320 549h384M320 550h384M320 551h384M320 552h384M320 553h384M320 554h384M320 555h384M320 556h384M320 557h384M320 558h384M320 559h384M320 560h384M320 561h384M320 562h384M320 563h384M320 564h384M320 565h384M320 566h384M320 567h384M320 568h384M320 569h384M320 570h384M320 571h384M320 572h384M320 573h384M320 574h384M320 575h384M320 576h384M320 577h384M320 578h384M320 579h384M320 580h384M320 581h384M320 582h384M320 583h384M320 584h384M320 585h384M320 586h384M320 587h384M320 588h384M320 589h384M320 590h384M320 591h384M320 592h384M320 593h384M320 594h384M320 595h384M320 596h384M320 597h384M320 598h384M320 599h384M320 600h384M320 601h384M320 602h384M320 603h384M320 604h384M320 605h384M320 606h384M320 607h384M320 608h384M320 609h384M320 610h384M320 611h384M320 612h384M320 613h384M320 614h384M320 615h384M320 616h384M320 617h384M320 618h384M320 619h384M320 620h384M320 621h384M320 622h384M320 623h384M320 624h384M320 625h384M320 626h384M320 627h384M320 628h384M320 629h384M320 630h384M320 631h384M320 632h384M320 633h384M320 634h384M320 635h384M320 636h384M320 637h384M320 638h384M320 639h384M320 640h256M640 640h64M320 641h256M640 641h64M320 642h256M640 642h64M320 643h256M640 643h64M320 644h256M640 644h64M320 645h256M640 645h64M320 646h256M640 646h64M320 647h256M640 647h64M320 648h256M640 648h64M320 649h256M640 649h64M320 650h256M640 650h64M320 651h256M640 651h64M320 652h256M640 652h64M320 653h256M640 653h64M320 654h256M640 654h64M320 655h256M640 655h64M320 656h256M640 656h64M320 657h256M640 657h64M320 658h256M640 658h64M320 659h256M640 659h64M320 660h256M640 660h64M320 661h256M640 661h64M320 662h256M640 662h64M320 663h256M640 663h64M320 664h256M640 664h64M320 665h256M640 665h64M320 666h256M640 666h64M320 667h256M640 667h64M320 668h256M640 668h64M320 669h256M640 669h64M320 670h256M640 670h64M320 671h256M640 671h64M320 672h256M640 672h64M320 673h256M640 673h64M320 674h256M640 674h64M320 675h256M640 675h64M320 676h256M640 676h64M320 677h256M640 677h64M320 678h256M640 678h64M320 679h256M640 679h64M320 680h256M640 680h64M320 681h256M640 681h64M320 682h256M640 682h64M320 683h256M640 683h64M320 684h256M640 684h64M320 685h256M640 685h64M320 686h256M640 686h64M320 687h256M640 687h64M320 688h256M640 688h64M320 689h256M640 689h64M320 690h256M640 690h64M320 691h256M640 691h64M320 692h256M640 692h64M320 693h256M640 693h64M320 694h256M640 694h64M320 695h256M640 695h64M320 696h256M640 696h64M320 697h256M640 697h64M320 698h256M640 698h64M320 699h256M640 699h64M320 700h256M640 700h64M320 701h256M640 701h64M320 702h256M640 702h64M320 703h256M640 703h64M320 704h256M640 704h64M320 705h256M640 705h64M320 706h256M640 706h64M320 707h256M640 707h64M320 708h256M640 708h64M320 709h256M640 709h64M320 710h256M640 710h64M320 711h256M640 711h64M320 712h256M640 712h64M320 713h256M640 713h64M320 714h256M640 714h64M320 715h256M640 715h64M320 716h256M640 716h64M320 717h256M640 717h64M320 718h256M640 718h64M320 719h256M640 719h64M320 720h256M640 720h64M320 721h256M640 721h64M320 722h256M640 722h64M320 723h256M640 723h64M320 724h256M640 724h64M320 725h256M640 725h64M320 726h256M640 726h64M320 727h256M640 727h64M320 728h256M640 728h64M320 729h256M640 729h64M320 730h256M640 730h64M320 731h256M640 731h64M320 732h256M640 732h64M320 733h256M640 733h64M320 734h256M640 734h64M320 735h256M640 735h64M320 736h384M320 737h384M320 738h384M320 739h384M320 740h384M320 741h384M320 742h384M320 743h384M320 744h384M320 745h384M320 746h384M320 747h384M320 748h384M320 749h384M320 750h384M320 751h384M320 752h384M320 753h384M320 754h384M320 755h384M320 756h384M320 757h384M320 758h384M320 759h384M320 760h384M320 761h384M320 762h384M320 763h384M320 764h384M320 765h384M320 766h384M320 767h384M352 768h320M352 769h320M352 770h320M352 771h320M352 772h320M352 773h320M352 774h320M352 775h320M352 776h320M352 777h320M352 778h320M352 779h320M352 780h320M352 781h320M352 782h320M352 783h320M352 784h320M352 785h320M352 786h320M352 787h320M352 788h320M352 789h320M352 790h320M352 791h320M352 792h320M352 793h320M352 794h320M352 795h320M352 796h320M352 797h320M352 798h320M352 799h320M384 800h256M384 801h256M384 802h256M384 803h256M384 804h256M384 805h256M384 806h256M384 807h256M384 808h256M384 809h256M384 810h256M384 811h256M384 812h256M384 813h256M384 814h256M384 815h256M384 816h256M384 817h256M384 818h256M384 819h256M384 820h256M384 821h256M384 822h256M384 823h256M384 824h256M384 825h256M384 826h256M384 827h256M384 828h256M384 829h256M384 830h256M384 831h256M416 832h192M416 833h192M416 834h192M416 835h192M416 836h192M416 837h192M416 838h192M416 839h192M416 840h192M416 841h192M416 842h192M416 843h192M416 844h192M416 845h192M416 846h192M416 847h192M416 848h192M416 849h192M416 850h192M416 851h192M416 852h192M416 853h192M416 854h192M416 855h192M416 856h192M416 857h192M416 858h192M416 859h192M416 860h192M416 861h192M416 862h192M416 863h192" />
</svg>