<svg xmlns="http://www.w3.org/2000/svg" viewBox="0 -0.5 32 32" shape-rendering="crispEdges">
<metadata>Made with Pixels to Svg https://codepen.io/shshaw/pen/XbxvNj</metadata>
<path stroke="#000000" d="M4 4h23M4 5h3M22 5h2M26 5h1M4 6h1M20 6h2M26 6h1M4 7h1M26 7h1M4 8h1M26 8h1M4 9h1M26 9h1M4 10h1M26 10h1M4 11h1M26 11h1M4 12h1M26 12h1M4 13h1M26 13h1M4 14h2M25 14h2M5 15h1M25 15h1M5 16h1M11 16h1M25 16h1M5 17h1M10 17h2M23 17h1M25 17h1M5 18h1M9 18h2M23 18h3M5 19h21M13 20h1M16 20h1M13 21h1M16 21h1M13 22h1M16 22h1M13 23h1M16 23h1M13 24h1M16 24h1M13 25h1M16 25h1M13 26h1M16 26h1M13 27h4" />
<path stroke="#8f4131" d="M7 5h15M24 5h2M5 6h15M22 6h4M5 7h1M10 7h1M12 7h2M15 7h2M19 7h2M25 7h1M5 8h1M7 8h4M12 8h2M15 8h1M17 8h2M20 8h1M22 8h2M25 8h1M5 9h1M7 9h4M12 9h2M15 9h1M17 9h2M20 9h1M22 9h2M25 9h1M5 10h1M10 10h1M15 10h1M17 10h2M20 10h1M22 10h2M25 10h1M5 11h4M10 11h1M12 11h2M15 11h1M17 11h2M20 11h1M25 11h1M5 12h4M10 12h1M12 12h2M15 12h1M17 12h2M20 12h1M22 12h4M5 13h1M10 13h1M12 13h2M15 13h2M19 13h2M22 13h4M6 14h19M6 15h19M6 16h5M12 16h13M6 17h4M12 17h11M24 17h1M6 18h3M11 18h12M14 20h2M14 21h2M14 22h2M14 23h2M14 24h2M14 25h2M14 26h2" />
<path stroke="#ffffff" d="M6 7h4M11 7h1M14 7h1M17 7h2M21 7h4M6 8h1M11 8h1M14 8h1M16 8h1M19 8h1M21 8h1M24 8h1M6 9h1M11 9h1M14 9h1M16 9h1M19 9h1M21 9h1M24 9h1M6 10h4M11 10h4M16 10h1M19 10h1M21 10h1M24 10h1M9 11h1M11 11h1M14 11h1M16 11h1M19 11h1M21 11h4M9 12h1M11 12h1M14 12h1M16 12h1M19 12h1M21 12h1M6 13h4M11 13h1M14 13h1M17 13h2M21 13h1" />
</svg>