<svg xmlns="http://www.w3.org/2000/svg" viewBox="0 -0.5 1024 1024" shape-rendering="crispEdges">
<metadata>Made with Pixels to Svg https://codepen.io/shshaw/pen/XbxvNj</metadata>
<path stroke="#000000" d="M256 128h128M640 128h128M256 129h128M640 129h128M256 130h128M640 130h128M256 131h128M640 131h128M256 132h128M640 132h128M256 133h128M640 133h128M256 134h128M640 134h128M256 135h128M640 135h128M256 136h128M640 136h128M256 137h128M640 137h128M256 138h128M640 138h128M256 139h128M640 139h128M256 140h128M640 140h128M256 141h128M640 141h128M256 142h128M640 142h128M256 143h128M640 143h128M256 144h128M640 144h128M256 145h128M640 145h128M256 146h128M640 146h128M256 147h128M640 147h128M256 148h128M640 148h128M256 149h128M640 149h128M256 150h128M640 150h128M256 151h128M640 151h128M256 152h128M640 152h128M256 153h128M640 153h128M256 154h128M640 154h128M256 155h128M640 155h128M256 156h128M640 156h128M256 157h128M640 157h128M256 158h128M640 158h128M256 159h128M640 159h128M224 160h32M384 160h32M448 160h128M608 160h32M768 160h32M224 161h32M384 161h32M448 161h128M608 161h32M768 161h32M224 162h32M384 162h32M448 162h128M608 162h32M768 162h32M224 163h32M384 163h32M448 163h128M608 163h32M768 163h32M224 164h32M384 164h32M448 164h128M608 164h32M768 164h32M224 165h32M384 165h32M448 165h128M608 165h32M768 165h32M224 166h32M384 166h32M448 166h128M608 166h32M768 166h32M224 167h32M384 167h32M448 167h128M608 167h32M768 167h32M224 168h32M384 168h32M448 168h128M608 168h32M768 168h32M224 169h32M384 169h32M448 169h128M608 169h32M768 169h32M224 170h32M384 170h32M448 170h128M608 170h32M768 170h32M224 171h32M384 171h32M448 171h128M608 171h32M768 171h32M224 172h32M384 172h32M448 172h128M608 172h32M768 172h32M224 173h32M384 173h32M448 173h128M608 173h32M768 173h32M224 174h32M384 174h32M448 174h128M608 174h32M768 174h32M224 175h32M384 175h32M448 175h128M608 175h32M768 175h32M224 176h32M384 176h32M448 176h128M608 176h32M768 176h32M224 177h32M384 177h32M448 177h128M608 177h32M768 177h32M224 178h32M384 178h32M448 178h128M608 178h32M768 178h32M224 179h32M384 179h32M448 179h128M608 179h32M768 179h32M224 180h32M384 180h32M448 180h128M608 180h32M768 180h32M224 181h32M384 181h32M448 181h128M608 181h32M768 181h32M224 182h32M384 182h32M448 182h128M608 182h32M768 182h32M224 183h32M384 183h32M448 183h128M608 183h32M768 183h32M224 184h32M384 184h32M448 184h128M608 184h32M768 184h32M224 185h32M384 185h32M448 185h128M608 185h32M768 185h32M224 186h32M384 186h32M448 186h128M608 186h32M768 186h32M224 187h32M384 187h32M448 187h128M608 187h32M768 187h32M224 188h32M384 188h32M448 188h128M608 188h32M768 188h32M224 189h32M384 189h32M448 189h128M608 189h32M768 189h32M224 190h32M384 190h32M448 190h128M608 190h32M768 190h32M224 191h32M384 191h32M448 191h128M608 191h32M768 191h32M192 192h32M384 192h64M576 192h64M800 192h32M192 193h32M384 193h64M576 193h64M800 193h32M192 194h32M384 194h64M576 194h64M800 194h32M192 195h32M384 195h64M576 195h64M800 195h32M192 196h32M384 196h64M576 196h64M800 196h32M192 197h32M384 197h64M576 197h64M800 197h32M192 198h32M384 198h64M576 198h64M800 198h32M192 199h32M384 199h64M576 199h64M800 199h32M192 200h32M384 200h64M576 200h64M800 200h32M192 201h32M384 201h64M576 201h64M800 201h32M192 202h32M384 202h64M576 202h64M800 202h32M192 203h32M384 203h64M576 203h64M800 203h32M192 204h32M384 204h64M576 204h64M800 204h32M192 205h32M384 205h64M576 205h64M800 205h32M192 206h32M384 206h64M576 206h64M800 206h32M192 207h32M384 207h64M576 207h64M800 207h32M192 208h32M384 208h64M576 208h64M800 208h32M192 209h32M384 209h64M576 209h64M800 209h32M192 210h32M384 210h64M576 210h64M800 210h32M192 211h32M384 211h64M576 211h64M800 211h32M192 212h32M384 212h64M576 212h64M800 212h32M192 213h32M384 213h64M576 213h64M800 213h32M192 214h32M384 214h64M576 214h64M800 214h32M192 215h32M384 215h64M576 215h64M800 215h32M192 216h32M384 216h64M576 216h64M800 216h32M192 217h32M384 217h64M576 217h64M800 217h32M192 218h32M384 218h64M576 218h64M800 218h32M192 219h32M384 219h64M576 219h64M800 219h32M192 220h32M384 220h64M576 220h64M800 220h32M192 221h32M384 221h64M576 221h64M800 221h32M192 222h32M384 222h64M576 222h64M800 222h32M192 223h32M384 223h64M576 223h64M800 223h32M192 224h32M352 224h32M640 224h32M800 224h32M192 225h32M352 225h32M640 225h32M800 225h32M192 226h32M352 226h32M640 226h32M800 226h32M192 227h32M352 227h32M640 227h32M800 227h32M192 228h32M352 228h32M640 228h32M800 228h32M192 229h32M352 229h32M640 229h32M800 229h32M192 230h32M352 230h32M640 230h32M800 230h32M192 231h32M352 231h32M640 231h32M800 231h32M192 232h32M352 232h32M640 232h32M800 232h32M192 233h32M352 233h32M640 233h32M800 233h32M192 234h32M352 234h32M640 234h32M800 234h32M192 235h32M352 235h32M640 235h32M800 235h32M192 236h32M352 236h32M640 236h32M800 236h32M192 237h32M352 237h32M640 237h32M800 237h32M192 238h32M352 238h32M640 238h32M800 238h32M192 239h32M352 239h32M640 239h32M800 239h32M192 240h32M352 240h32M640 240h32M800 240h32M192 241h32M352 241h32M640 241h32M800 241h32M192 242h32M352 242h32M640 242h32M800 242h32M192 243h32M352 243h32M640 243h32M800 243h32M192 244h32M352 244h32M640 244h32M800 244h32M192 245h32M352 245h32M640 245h32M800 245h32M192 246h32M352 246h32M640 246h32M800 246h32M192 247h32M352 247h32M640 247h32M800 247h32M192 248h32M352 248h32M640 248h32M800 248h32M192 249h32M352 249h32M640 249h32M800 249h32M192 250h32M352 250h32M640 250h32M800 250h32M192 251h32M352 251h32M640 251h32M800 251h32M192 252h32M352 252h32M640 252h32M800 252h32M192 253h32M352 253h32M640 253h32M800 253h32M192 254h32M352 254h32M640 254h32M800 254h32M192 255h32M352 255h32M640 255h32M800 255h32M192 256h32M320 256h64M640 256h64M800 256h32M192 257h32M320 257h64M640 257h64M800 257h32M192 258h32M320 258h64M640 258h64M800 258h32M192 259h32M320 259h64M640 259h64M800 259h32M192 260h32M320 260h64M640 260h64M800 260h32M192 261h32M320 261h64M640 261h64M800 261h32M192 262h32M320 262h64M640 262h64M800 262h32M192 263h32M320 263h64M640 263h64M800 263h32M192 264h32M320 264h64M640 264h64M800 264h32M192 265h32M320 265h64M640 265h64M800 265h32M192 266h32M320 266h64M640 266h64M800 266h32M192 267h32M320 267h64M640 267h64M800 267h32M192 268h32M320 268h64M640 268h64M800 268h32M192 269h32M320 269h64M640 269h64M800 269h32M192 270h32M320 270h64M640 270h64M800 270h32M192 271h32M320 271h64M640 271h64M800 271h32M192 272h32M320 272h64M640 272h64M800 272h32M192 273h32M320 273h64M640 273h64M800 273h32M192 274h32M320 274h64M640 274h64M800 274h32M192 275h32M320 275h64M640 275h64M800 275h32M192 276h32M320 276h64M640 276h64M800 276h32M192 277h32M320 277h64M640 277h64M800 277h32M192 278h32M320 278h64M640 278h64M800 278h32M192 279h32M320 279h64M640 279h64M800 279h32M192 280h32M320 280h64M640 280h64M800 280h32M192 281h32M320 281h64M640 281h64M800 281h32M192 282h32M320 282h64M640 282h64M800 282h32M192 283h32M320 283h64M640 283h64M800 283h32M192 284h32M320 284h64M640 284h64M800 284h32M192 285h32M320 285h64M640 285h64M800 285h32M192 286h32M320 286h64M640 286h64M800 286h32M192 287h32M320 287h64M640 287h64M800 287h32M192 288h32M320 288h32M416 288h64M544 288h64M672 288h32M800 288h32M192 289h32M320 289h32M416 289h64M544 289h64M672 289h32M800 289h32M192 290h32M320 290h32M416 290h64M544 290h64M672 290h32M800 290h32M192 291h32M320 291h32M416 291h64M544 291h64M672 291h32M800 291h32M192 292h32M320 292h32M416 292h64M544 292h64M672 292h32M800 292h32M192 293h32M320 293h32M416 293h64M544 293h64M672 293h32M800 293h32M192 294h32M320 294h32M416 294h64M544 294h64M672 294h32M800 294h32M192 295h32M320 295h32M416 295h64M544 295h64M672 295h32M800 295h32M192 296h32M320 296h32M416 296h64M544 296h64M672 296h32M800 296h32M192 297h32M320 297h32M416 297h64M544 297h64M672 297h32M800 297h32M192 298h32M320 298h32M416 298h64M544 298h64M672 298h32M800 298h32M192 299h32M320 299h32M416 299h64M544 299h64M672 299h32M800 299h32M192 300h32M320 300h32M416 300h64M544 300h64M672 300h32M800 300h32M192 301h32M320 301h32M416 301h64M544 301h64M672 301h32M800 301h32M192 302h32M320 302h32M416 302h64M544 302h64M672 302h32M800 302h32M192 303h32M320 303h32M416 303h64M544 303h64M672 303h32M800 303h32M192 304h32M320 304h32M416 304h64M544 304h64M672 304h32M800 304h32M192 305h32M320 305h32M416 305h64M544 305h64M672 305h32M800 305h32M192 306h32M320 306h32M416 306h64M544 306h64M672 306h32M800 306h32M192 307h32M320 307h32M416 307h64M544 307h64M672 307h32M800 307h32M192 308h32M320 308h32M416 308h64M544 308h64M672 308h32M800 308h32M192 309h32M320 309h32M416 309h64M544 309h64M672 309h32M800 309h32M192 310h32M320 310h32M416 310h64M544 310h64M672 310h32M800 310h32M192 311h32M320 311h32M416 311h64M544 311h64M672 311h32M800 311h32M192 312h32M320 312h32M416 312h64M544 312h64M672 312h32M800 312h32M192 313h32M320 313h32M416 313h64M544 313h64M672 313h32M800 313h32M192 314h32M320 314h32M416 314h64M544 314h64M672 314h32M800 314h32M192 315h32M320 315h32M416 315h64M544 315h64M672 315h32M800 315h32M192 316h32M320 316h32M416 316h64M544 316h64M672 316h32M800 316h32M192 317h32M320 317h32M416 317h64M544 317h64M672 317h32M800 317h32M192 318h32M320 318h32M416 318h64M544 318h64M672 318h32M800 318h32M192 319h32M320 319h32M416 319h64M544 319h64M672 319h32M800 319h32M192 320h32M320 320h32M416 320h64M544 320h64M672 320h64M800 320h32M192 321h32M320 321h32M416 321h64M544 321h64M672 321h64M800 321h32M192 322h32M320 322h32M416 322h64M544 322h64M672 322h64M800 322h32M192 323h32M320 323h32M416 323h64M544 323h64M672 323h64M800 323h32M192 324h32M320 324h32M416 324h64M544 324h64M672 324h64M800 324h32M192 325h32M320 325h32M416 325h64M544 325h64M672 325h64M800 325h32M192 326h32M320 326h32M416 326h64M544 326h64M672 326h64M800 326h32M192 327h32M320 327h32M416 327h64M544 327h64M672 327h64M800 327h32M192 328h32M320 328h32M416 328h64M544 328h64M672 328h64M800 328h32M192 329h32M320 329h32M416 329h64M544 329h64M672 329h64M800 329h32M192 330h32M320 330h32M416 330h64M544 330h64M672 330h64M800 330h32M192 331h32M320 331h32M416 331h64M544 331h64M672 331h64M800 331h32M192 332h32M320 332h32M416 332h64M544 332h64M672 332h64M800 332h32M192 333h32M320 333h32M416 333h64M544 333h64M672 333h64M800 333h32M192 334h32M320 334h32M416 334h64M544 334h64M672 334h64M800 334h32M192 335h32M320 335h32M416 335h64M544 335h64M672 335h64M800 335h32M192 336h32M320 336h32M416 336h64M544 336h64M672 336h64M800 336h32M192 337h32M320 337h32M416 337h64M544 337h64M672 337h64M800 337h32M192 338h32M320 338h32M416 338h64M544 338h64M672 338h64M800 338h32M192 339h32M320 339h32M416 339h64M544 339h64M672 339h64M800 339h32M192 340h32M320 340h32M416 340h64M544 340h64M672 340h64M800 340h32M192 341h32M320 341h32M416 341h64M544 341h64M672 341h64M800 341h32M192 342h32M320 342h32M416 342h64M544 342h64M672 342h64M800 342h32M192 343h32M320 343h32M416 343h64M544 343h64M672 343h64M800 343h32M192 344h32M320 344h32M416 344h64M544 344h64M672 344h64M800 344h32M192 345h32M320 345h32M416 345h64M544 345h64M672 345h64M800 345h32M192 346h32M320 346h32M416 346h64M544 346h64M672 346h64M800 346h32M192 347h32M320 347h32M416 347h64M544 347h64M672 347h64M800 347h32M192 348h32M320 348h32M416 348h64M544 348h64M672 348h64M800 348h32M192 349h32M320 349h32M416 349h64M544 349h64M672 349h64M800 349h32M192 350h32M320 350h32M416 350h64M544 350h64M672 350h64M800 350h32M192 351h32M320 351h32M416 351h64M544 351h64M672 351h64M800 351h32M192 352h32M800 352h32M192 353h32M800 353h32M192 354h32M800 354h32M192 355h32M800 355h32M192 356h32M800 356h32M192 357h32M800 357h32M192 358h32M800 358h32M192 359h32M800 359h32M192 360h32M800 360h32M192 361h32M800 361h32M192 362h32M800 362h32M192 363h32M800 363h32M192 364h32M800 364h32M192 365h32M800 365h32M192 366h32M800 366h32M192 367h32M800 367h32M192 368h32M800 368h32M192 369h32M800 369h32M192 370h32M800 370h32M192 371h32M800 371h32M192 372h32M800 372h32M192 373h32M800 373h32M192 374h32M800 374h32M192 375h32M800 375h32M192 376h32M800 376h32M192 377h32M800 377h32M192 378h32M800 378h32M192 379h32M800 379h32M192 380h32M800 380h32M192 381h32M800 381h32M192 382h32M800 382h32M192 383h32M800 383h32M224 384h32M288 384h32M704 384h96M224 385h32M288 385h32M704 385h96M224 386h32M288 386h32M704 386h96M224 387h32M288 387h32M704 387h96M224 388h32M288 388h32M704 388h96M224 389h32M288 389h32M704 389h96M224 390h32M288 390h32M704 390h96M224 391h32M288 391h32M704 391h96M224 392h32M288 392h32M704 392h96M224 393h32M288 393h32M704 393h96M224 394h32M288 394h32M704 394h96M224 395h32M288 395h32M704 395h96M224 396h32M288 396h32M704 396h96M224 397h32M288 397h32M704 397h96M224 398h32M288 398h32M704 398h96M224 399h32M288 399h32M704 399h96M224 400h32M288 400h32M704 400h96M224 401h32M288 401h32M704 401h96M224 402h32M288 402h32M704 402h96M224 403h32M288 403h32M704 403h96M224 404h32M288 404h32M704 404h96M224 405h32M288 405h32M704 405h96M224 406h32M288 406h32M704 406h96M224 407h32M288 407h32M704 407h96M224 408h32M288 408h32M704 408h96M224 409h32M288 409h32M704 409h96M224 410h32M288 410h32M704 410h96M224 411h32M288 411h32M704 411h96M224 412h32M288 412h32M704 412h96M224 413h32M288 413h32M704 413h96M224 414h32M288 414h32M704 414h96M224 415h32M288 415h32M704 415h96M256 416h64M448 416h32M512 416h64M704 416h64M256 417h64M448 417h32M512 417h64M704 417h64M256 418h64M448 418h32M512 418h64M704 418h64M256 419h64M448 419h32M512 419h64M704 419h64M256 420h64M448 420h32M512 420h64M704 420h64M256 421h64M448 421h32M512 421h64M704 421h64M256 422h64M448 422h32M512 422h64M704 422h64M256 423h64M448 423h32M512 423h64M704 423h64M256 424h64M448 424h32M512 424h64M704 424h64M256 425h64M448 425h32M512 425h64M704 425h64M256 426h64M448 426h32M512 426h64M704 426h64M256 427h64M448 427h32M512 427h64M704 427h64M256 428h64M448 428h32M512 428h64M704 428h64M256 429h64M448 429h32M512 429h64M704 429h64M256 430h64M448 430h32M512 430h64M704 430h64M256 431h64M448 431h32M512 431h64M704 431h64M256 432h64M448 432h32M512 432h64M704 432h64M256 433h64M448 433h32M512 433h64M704 433h64M256 434h64M448 434h32M512 434h64M704 434h64M256 435h64M448 435h32M512 435h64M704 435h64M256 436h64M448 436h32M512 436h64M704 436h64M256 437h64M448 437h32M512 437h64M704 437h64M256 438h64M448 438h32M512 438h64M704 438h64M256 439h64M448 439h32M512 439h64M704 439h64M256 440h64M448 440h32M512 440h64M704 440h64M256 441h64M448 441h32M512 441h64M704 441h64M256 442h64M448 442h32M512 442h64M704 442h64M256 443h64M448 443h32M512 443h64M704 443h64M256 444h64M448 444h32M512 444h64M704 444h64M256 445h64M448 445h32M512 445h64M704 445h64M256 446h64M448 446h32M512 446h64M704 446h64M256 447h64M448 447h32M512 447h64M704 447h64M288 448h64M480 448h64M672 448h64M288 449h64M480 449h64M672 449h64M288 450h64M480 450h64M672 450h64M288 451h64M480 451h64M672 451h64M288 452h64M480 452h64M672 452h64M288 453h64M480 453h64M672 453h64M288 454h64M480 454h64M672 454h64M288 455h64M480 455h64M672 455h64M288 456h64M480 456h64M672 456h64M288 457h64M480 457h64M672 457h64M288 458h64M480 458h64M672 458h64M288 459h64M480 459h64M672 459h64M288 460h64M480 460h64M672 460h64M288 461h64M480 461h64M672 461h64M288 462h64M480 462h64M672 462h64M288 463h64M480 463h64M672 463h64M288 464h64M480 464h64M672 464h64M288 465h64M480 465h64M672 465h64M288 466h64M480 466h64M672 466h64M288 467h64M480 467h64M672 467h64M288 468h64M480 468h64M672 468h64M288 469h64M480 469h64M672 469h64M288 470h64M480 470h64M672 470h64M288 471h64M480 471h64M672 471h64M288 472h64M480 472h64M672 472h64M288 473h64M480 473h64M672 473h64M288 474h64M480 474h64M672 474h64M288 475h64M480 475h64M672 475h64M288 476h64M480 476h64M672 476h64M288 477h64M480 477h64M672 477h64M288 478h64M480 478h64M672 478h64M288 479h64M480 479h64M672 479h64M256 480h64M352 480h32M640 480h32M704 480h64M256 481h64M352 481h32M640 481h32M704 481h64M256 482h64M352 482h32M640 482h32M704 482h64M256 483h64M352 483h32M640 483h32M704 483h64M256 484h64M352 484h32M640 484h32M704 484h64M256 485h64M352 485h32M640 485h32M704 485h64M256 486h64M352 486h32M640 486h32M704 486h64M256 487h64M352 487h32M640 487h32M704 487h64M256 488h64M352 488h32M640 488h32M704 488h64M256 489h64M352 489h32M640 489h32M704 489h64M256 490h64M352 490h32M640 490h32M704 490h64M256 491h64M352 491h32M640 491h32M704 491h64M256 492h64M352 492h32M640 492h32M704 492h64M256 493h64M352 493h32M640 493h32M704 493h64M256 494h64M352 494h32M640 494h32M704 494h64M256 495h64M352 495h32M640 495h32M704 495h64M256 496h64M352 496h32M640 496h32M704 496h64M256 497h64M352 497h32M640 497h32M704 497h64M256 498h64M352 498h32M640 498h32M704 498h64M256 499h64M352 499h32M640 499h32M704 499h64M256 500h64M352 500h32M640 500h32M704 500h64M256 501h64M352 501h32M640 501h32M704 501h64M256 502h64M352 502h32M640 502h32M704 502h64M256 503h64M352 503h32M640 503h32M704 503h64M256 504h64M352 504h32M640 504h32M704 504h64M256 505h64M352 505h32M640 505h32M704 505h64M256 506h64M352 506h32M640 506h32M704 506h64M256 507h64M352 507h32M640 507h32M704 507h64M256 508h64M352 508h32M640 508h32M704 508h64M256 509h64M352 509h32M640 509h32M704 509h64M256 510h64M352 510h32M640 510h32M704 510h64M256 511h64M352 511h32M640 511h32M704 511h64M224 512h32M384 512h256M768 512h32M224 513h32M384 513h256M768 513h32M224 514h32M384 514h256M768 514h32M224 515h32M384 515h256M768 515h32M224 516h32M384 516h256M768 516h32M224 517h32M384 517h256M768 517h32M224 518h32M384 518h256M768 518h32M224 519h32M384 519h256M768 519h32M224 520h32M384 520h256M768 520h32M224 521h32M384 521h256M768 521h32M224 522h32M384 522h256M768 522h32M224 523h32M384 523h256M768 523h32M224 524h32M384 524h256M768 524h32M224 525h32M384 525h256M768 525h32M224 526h32M384 526h256M768 526h32M224 527h32M384 527h256M768 527h32M224 528h32M384 528h256M768 528h32M224 529h32M384 529h256M768 529h32M224 530h32M384 530h256M768 530h32M224 531h32M384 531h256M768 531h32M224 532h32M384 532h256M768 532h32M224 533h32M384 533h256M768 533h32M224 534h32M384 534h256M768 534h32M224 535h32M384 535h256M768 535h32M224 536h32M384 536h256M768 536h32M224 537h32M384 537h256M768 537h32M224 538h32M384 538h256M768 538h32M224 539h32M384 539h256M768 539h32M224 540h32M384 540h256M768 540h32M224 541h32M384 541h256M768 541h32M224 542h32M384 542h256M768 542h32M224 543h32M384 543h256M768 543h32M192 544h32M352 544h32M416 544h32M576 544h32M640 544h64M800 544h32M192 545h32M352 545h32M416 545h32M576 545h32M640 545h64M800 545h32M192 546h32M352 546h32M416 546h32M576 546h32M640 546h64M800 546h32M192 547h32M352 547h32M416 547h32M576 547h32M640 547h64M800 547h32M192 548h32M352 548h32M416 548h32M576 548h32M640 548h64M800 548h32M192 549h32M352 549h32M416 549h32M576 549h32M640 549h64M800 549h32M192 550h32M352 550h32M416 550h32M576 550h32M640 550h64M800 550h32M192 551h32M352 551h32M416 551h32M576 551h32M640 551h64M800 551h32M192 552h32M352 552h32M416 552h32M576 552h32M640 552h64M800 552h32M192 553h32M352 553h32M416 553h32M576 553h32M640 553h64M800 553h32M192 554h32M352 554h32M416 554h32M576 554h32M640 554h64M800 554h32M192 555h32M352 555h32M416 555h32M576 555h32M640 555h64M800 555h32M192 556h32M352 556h32M416 556h32M576 556h32M640 556h64M800 556h32M192 557h32M352 557h32M416 557h32M576 557h32M640 557h64M800 557h32M192 558h32M352 558h32M416 558h32M576 558h32M640 558h64M800 558h32M192 559h32M352 559h32M416 559h32M576 559h32M640 559h64M800 559h32M192 560h32M352 560h32M416 560h32M576 560h32M640 560h64M800 560h32M192 561h32M352 561h32M416 561h32M576 561h32M640 561h64M800 561h32M192 562h32M352 562h32M416 562h32M576 562h32M640 562h64M800 562h32M192 563h32M352 563h32M416 563h32M576 563h32M640 563h64M800 563h32M192 564h32M352 564h32M416 564h32M576 564h32M640 564h64M800 564h32M192 565h32M352 565h32M416 565h32M576 565h32M640 565h64M800 565h32M192 566h32M352 566h32M416 566h32M576 566h32M640 566h64M800 566h32M192 567h32M352 567h32M416 567h32M576 567h32M640 567h64M800 567h32M192 568h32M352 568h32M416 568h32M576 568h32M640 568h64M800 568h32M192 569h32M352 569h32M416 569h32M576 569h32M640 569h64M800 569h32M192 570h32M352 570h32M416 570h32M576 570h32M640 570h64M800 570h32M192 571h32M352 571h32M416 571h32M576 571h32M640 571h64M800 571h32M192 572h32M352 572h32M416 572h32M576 572h32M640 572h64M800 572h32M192 573h32M352 573h32M416 573h32M576 573h32M640 573h64M800 573h32M192 574h32M352 574h32M416 574h32M576 574h32M640 574h64M800 574h32M192 575h32M352 575h32M416 575h32M576 575h32M640 575h64M800 575h32M192 576h32M320 576h32M480 576h32M544 576h32M672 576h32M800 576h32M192 577h32M320 577h32M480 577h32M544 577h32M672 577h32M800 577h32M192 578h32M320 578h32M480 578h32M544 578h32M672 578h32M800 578h32M192 579h32M320 579h32M480 579h32M544 579h32M672 579h32M800 579h32M192 580h32M320 580h32M480 580h32M544 580h32M672 580h32M800 580h32M192 581h32M320 581h32M480 581h32M544 581h32M672 581h32M800 581h32M192 582h32M320 582h32M480 582h32M544 582h32M672 582h32M800 582h32M192 583h32M320 583h32M480 583h32M544 583h32M672 583h32M800 583h32M192 584h32M320 584h32M480 584h32M544 584h32M672 584h32M800 584h32M192 585h32M320 585h32M480 585h32M544 585h32M672 585h32M800 585h32M192 586h32M320 586h32M480 586h32M544 586h32M672 586h32M800 586h32M192 587h32M320 587h32M480 587h32M544 587h32M672 587h32M800 587h32M192 588h32M320 588h32M480 588h32M544 588h32M672 588h32M800 588h32M192 589h32M320 589h32M480 589h32M544 589h32M672 589h32M800 589h32M192 590h32M320 590h32M480 590h32M544 590h32M672 590h32M800 590h32M192 591h32M320 591h32M480 591h32M544 591h32M672 591h32M800 591h32M192 592h32M320 592h32M480 592h32M544 592h32M672 592h32M800 592h32M192 593h32M320 593h32M480 593h32M544 593h32M672 593h32M800 593h32M192 594h32M320 594h32M480 594h32M544 594h32M672 594h32M800 594h32M192 595h32M320 595h32M480 595h32M544 595h32M672 595h32M800 595h32M192 596h32M320 596h32M480 596h32M544 596h32M672 596h32M800 596h32M192 597h32M320 597h32M480 597h32M544 597h32M672 597h32M800 597h32M192 598h32M320 598h32M480 598h32M544 598h32M672 598h32M800 598h32M192 599h32M320 599h32M480 599h32M544 599h32M672 599h32M800 599h32M192 600h32M320 600h32M480 600h32M544 600h32M672 600h32M800 600h32M192 601h32M320 601h32M480 601h32M544 601h32M672 601h32M800 601h32M192 602h32M320 602h32M480 602h32M544 602h32M672 602h32M800 602h32M192 603h32M320 603h32M480 603h32M544 603h32M672 603h32M800 603h32M192 604h32M320 604h32M480 604h32M544 604h32M672 604h32M800 604h32M192 605h32M320 605h32M480 605h32M544 605h32M672 605h32M800 605h32M192 606h32M320 606h32M480 606h32M544 606h32M672 606h32M800 606h32M192 607h32M320 607h32M480 607h32M544 607h32M672 607h32M800 607h32M192 608h32M320 608h32M512 608h32M672 608h32M800 608h32M192 609h32M320 609h32M512 609h32M672 609h32M800 609h32M192 610h32M320 610h32M512 610h32M672 610h32M800 610h32M192 611h32M320 611h32M512 611h32M672 611h32M800 611h32M192 612h32M320 612h32M512 612h32M672 612h32M800 612h32M192 613h32M320 613h32M512 613h32M672 613h32M800 613h32M192 614h32M320 614h32M512 614h32M672 614h32M800 614h32M192 615h32M320 615h32M512 615h32M672 615h32M800 615h32M192 616h32M320 616h32M512 616h32M672 616h32M800 616h32M192 617h32M320 617h32M512 617h32M672 617h32M800 617h32M192 618h32M320 618h32M512 618h32M672 618h32M800 618h32M192 619h32M320 619h32M512 619h32M672 619h32M800 619h32M192 620h32M320 620h32M512 620h32M672 620h32M800 620h32M192 621h32M320 621h32M512 621h32M672 621h32M800 621h32M192 622h32M320 622h32M512 622h32M672 622h32M800 622h32M192 623h32M320 623h32M512 623h32M672 623h32M800 623h32M192 624h32M320 624h32M512 624h32M672 624h32M800 624h32M192 625h32M320 625h32M512 625h32M672 625h32M800 625h32M192 626h32M320 626h32M512 626h32M672 626h32M800 626h32M192 627h32M320 627h32M512 627h32M672 627h32M800 627h32M192 628h32M320 628h32M512 628h32M672 628h32M800 628h32M192 629h32M320 629h32M512 629h32M672 629h32M800 629h32M192 630h32M320 630h32M512 630h32M672 630h32M800 630h32M192 631h32M320 631h32M512 631h32M672 631h32M800 631h32M192 632h32M320 632h32M512 632h32M672 632h32M800 632h32M192 633h32M320 633h32M512 633h32M672 633h32M800 633h32M192 634h32M320 634h32M512 634h32M672 634h32M800 634h32M192 635h32M320 635h32M512 635h32M672 635h32M800 635h32M192 636h32M320 636h32M512 636h32M672 636h32M800 636h32M192 637h32M320 637h32M512 637h32M672 637h32M800 637h32M192 638h32M320 638h32M512 638h32M672 638h32M800 638h32M192 639h32M320 639h32M512 639h32M672 639h32M800 639h32M192 640h32M320 640h32M672 640h32M800 640h32M192 641h32M320 641h32M672 641h32M800 641h32M192 642h32M320 642h32M672 642h32M800 642h32M192 643h32M320 643h32M672 643h32M800 643h32M192 644h32M320 644h32M672 644h32M800 644h32M192 645h32M320 645h32M672 645h32M800 645h32M192 646h32M320 646h32M672 646h32M800 646h32M192 647h32M320 647h32M672 647h32M800 647h32M192 648h32M320 648h32M672 648h32M800 648h32M192 649h32M320 649h32M672 649h32M800 649h32M192 650h32M320 650h32M672 650h32M800 650h32M192 651h32M320 651h32M672 651h32M800 651h32M192 652h32M320 652h32M672 652h32M800 652h32M192 653h32M320 653h32M672 653h32M800 653h32M192 654h32M320 654h32M672 654h32M800 654h32M192 655h32M320 655h32M672 655h32M800 655h32M192 656h32M320 656h32M672 656h32M800 656h32M192 657h32M320 657h32M672 657h32M800 657h32M192 658h32M320 658h32M672 658h32M800 658h32M192 659h32M320 659h32M672 659h32M800 659h32M192 660h32M320 660h32M672 660h32M800 660h32M192 661h32M320 661h32M672 661h32M800 661h32M192 662h32M320 662h32M672 662h32M800 662h32M192 663h32M320 663h32M672 663h32M800 663h32M192 664h32M320 664h32M672 664h32M800 664h32M192 665h32M320 665h32M672 665h32M800 665h32M192 666h32M320 666h32M672 666h32M800 666h32M192 667h32M320 667h32M672 667h32M800 667h32M192 668h32M320 668h32M672 668h32M800 668h32M192 669h32M320 669h32M672 669h32M800 669h32M192 670h32M320 670h32M672 670h32M800 670h32M192 671h32M320 671h32M672 671h32M800 671h32M192 672h32M320 672h64M640 672h32M800 672h32M192 673h32M320 673h64M640 673h32M800 673h32M192 674h32M320 674h64M640 674h32M800 674h32M192 675h32M320 675h64M640 675h32M800 675h32M192 676h32M320 676h64M640 676h32M800 676h32M192 677h32M320 677h64M640 677h32M800 677h32M192 678h32M320 678h64M640 678h32M800 678h32M192 679h32M320 679h64M640 679h32M800 679h32M192 680h32M320 680h64M640 680h32M800 680h32M192 681h32M320 681h64M640 681h32M800 681h32M192 682h32M320 682h64M640 682h32M800 682h32M192 683h32M320 683h64M640 683h32M800 683h32M192 684h32M320 684h64M640 684h32M800 684h32M192 685h32M320 685h64M640 685h32M800 685h32M192 686h32M320 686h64M640 686h32M800 686h32M192 687h32M320 687h64M640 687h32M800 687h32M192 688h32M320 688h64M640 688h32M800 688h32M192 689h32M320 689h64M640 689h32M800 689h32M192 690h32M320 690h64M640 690h32M800 690h32M192 691h32M320 691h64M640 691h32M800 691h32M192 692h32M320 692h64M640 692h32M800 692h32M192 693h32M320 693h64M640 693h32M800 693h32M192 694h32M320 694h64M640 694h32M800 694h32M192 695h32M320 695h64M640 695h32M800 695h32M192 696h32M320 696h64M640 696h32M800 696h32M192 697h32M320 697h64M640 697h32M800 697h32M192 698h32M320 698h64M640 698h32M800 698h32M192 699h32M320 699h64M640 699h32M800 699h32M192 700h32M320 700h64M640 700h32M800 700h32M192 701h32M320 701h64M640 701h32M800 701h32M192 702h32M320 702h64M640 702h32M800 702h32M192 703h32M320 703h64M640 703h32M800 703h32M224 704h160M640 704h160M224 705h160M640 705h160M224 706h160M640 706h160M224 707h160M640 707h160M224 708h160M640 708h160M224 709h160M640 709h160M224 710h160M640 710h160M224 711h160M640 711h160M224 712h160M640 712h160M224 713h160M640 713h160M224 714h160M640 714h160M224 715h160M640 715h160M224 716h160M640 716h160M224 717h160M640 717h160M224 718h160M640 718h160M224 719h160M640 719h160M224 720h160M640 720h160M224 721h160M640 721h160M224 722h160M640 722h160M224 723h160M640 723h160M224 724h160M640 724h160M224 725h160M640 725h160M224 726h160M640 726h160M224 727h160M640 727h160M224 728h160M640 728h160M224 729h160M640 729h160M224 730h160M640 730h160M224 731h160M640 731h160M224 732h160M640 732h160M224 733h160M640 733h160M224 734h160M640 734h160M224 735h160M640 735h160M352 736h96M576 736h96M352 737h96M576 737h96M352 738h96M576 738h96M352 739h96M576 739h96M352 740h96M576 740h96M352 741h96M576 741h96M352 742h96M576 742h96M352 743h96M576 743h96M352 744h96M576 744h96M352 745h96M576 745h96M352 746h96M576 746h96M352 747h96M576 747h96M352 748h96M576 748h96M352 749h96M576 749h96M352 750h96M576 750h96M352 751h96M576 751h96M352 752h96M576 752h96M352 753h96M576 753h96M352 754h96M576 754h96M352 755h96M576 755h96M352 756h96M576 756h96M352 757h96M576 757h96M352 758h96M576 758h96M352 759h96M576 759h96M352 760h96M576 760h96M352 761h96M576 761h96M352 762h96M576 762h96M352 763h96M576 763h96M352 764h96M576 764h96M352 765h96M576 765h96M352 766h96M576 766h96M352 767h96M576 767h96M352 768h32M448 768h32M544 768h32M640 768h32M352 769h32M448 769h32M544 769h32M640 769h32M352 770h32M448 770h32M544 770h32M640 770h32M352 771h32M448 771h32M544 771h32M640 771h32M352 772h32M448 772h32M544 772h32M640 772h32M352 773h32M448 773h32M544 773h32M640 773h32M352 774h32M448 774h32M544 774h32M640 774h32M352 775h32M448 775h32M544 775h32M640 775h32M352 776h32M448 776h32M544 776h32M640 776h32M352 777h32M448 777h32M544 777h32M640 777h32M352 778h32M448 778h32M544 778h32M640 778h32M352 779h32M448 779h32M544 779h32M640 779h32M352 780h32M448 780h32M544 780h32M640 780h32M352 781h32M448 781h32M544 781h32M640 781h32M352 782h32M448 782h32M544 782h32M640 782h32M352 783h32M448 783h32M544 783h32M640 783h32M352 784h32M448 784h32M544 784h32M640 784h32M352 785h32M448 785h32M544 785h32M640 785h32M352 786h32M448 786h32M544 786h32M640 786h32M352 787h32M448 787h32M544 787h32M640 787h32M352 788h32M448 788h32M544 788h32M640 788h32M352 789h32M448 789h32M544 789h32M640 789h32M352 790h32M448 790h32M544 790h32M640 790h32M352 791h32M448 791h32M544 791h32M640 791h32M352 792h32M448 792h32M544 792h32M640 792h32M352 793h32M448 793h32M544 793h32M640 793h32M352 794h32M448 794h32M544 794h32M640 794h32M352 795h32M448 795h32M544 795h32M640 795h32M352 796h32M448 796h32M544 796h32M640 796h32M352 797h32M448 797h32M544 797h32M640 797h32M352 798h32M448 798h32M544 798h32M640 798h32M352 799h32M448 799h32M544 799h32M640 799h32M320 800h32M384 800h64M480 800h64M576 800h64M672 800h32M320 801h32M384 801h64M480 801h64M576 801h64M672 801h32M320 802h32M384 802h64M480 802h64M576 802h64M672 802h32M320 803h32M384 803h64M480 803h64M576 803h64M672 803h32M320 804h32M384 804h64M480 804h64M576 804h64M672 804h32M320 805h32M384 805h64M480 805h64M576 805h64M672 805h32M320 806h32M384 806h64M480 806h64M576 806h64M672 806h32M320 807h32M384 807h64M480 807h64M576 807h64M672 807h32M320 808h32M384 808h64M480 808h64M576 808h64M672 808h32M320 809h32M384 809h64M480 809h64M576 809h64M672 809h32M320 810h32M384 810h64M480 810h64M576 810h64M672 810h32M320 811h32M384 811h64M480 811h64M576 811h64M672 811h32M320 812h32M384 812h64M480 812h64M576 812h64M672 812h32M320 813h32M384 813h64M480 813h64M576 813h64M672 813h32M320 814h32M384 814h64M480 814h64M576 814h64M672 814h32M320 815h32M384 815h64M480 815h64M576 815h64M672 815h32M320 816h32M384 816h64M480 816h64M576 816h64M672 816h32M320 817h32M384 817h64M480 817h64M576 817h64M672 817h32M320 818h32M384 818h64M480 818h64M576 818h64M672 818h32M320 819h32M384 819h64M480 819h64M576 819h64M672 819h32M320 820h32M384 820h64M480 820h64M576 820h64M672 820h32M320 821h32M384 821h64M480 821h64M576 821h64M672 821h32M320 822h32M384 822h64M480 822h64M576 822h64M672 822h32M320 823h32M384 823h64M480 823h64M576 823h64M672 823h32M320 824h32M384 824h64M480 824h64M576 824h64M672 824h32M320 825h32M384 825h64M480 825h64M576 825h64M672 825h32M320 826h32M384 826h64M480 826h64M576 826h64M672 826h32M320 827h32M384 827h64M480 827h64M576 827h64M672 827h32M320 828h32M384 828h64M480 828h64M576 828h64M672 828h32M320 829h32M384 829h64M480 829h64M576 829h64M672 829h32M320 830h32M384 830h64M480 830h64M576 830h64M672 830h32M320 831h32M384 831h64M480 831h64M576 831h64M672 831h32M288 832h32M448 832h128M704 832h32M288 833h32M448 833h128M704 833h32M288 834h32M448 834h128M704 834h32M288 835h32M448 835h128M704 835h32M288 836h32M448 836h128M704 836h32M288 837h32M448 837h128M704 837h32M288 838h32M448 838h128M704 838h32M288 839h32M448 839h128M704 839h32M288 840h32M448 840h128M704 840h32M288 841h32M448 841h128M704 841h32M288 842h32M448 842h128M704 842h32M288 843h32M448 843h128M704 843h32M288 844h32M448 844h128M704 844h32M288 845h32M448 845h128M704 845h32M288 846h32M448 846h128M704 846h32M288 847h32M448 847h128M704 847h32M288 848h32M448 848h128M704 848h32M288 849h32M448 849h128M704 849h32M288 850h32M448 850h128M704 850h32M288 851h32M448 851h128M704 851h32M288 852h32M448 852h128M704 852h32M288 853h32M448 853h128M704 853h32M288 854h32M448 854h128M704 854h32M288 855h32M448 855h128M704 855h32M288 856h32M448 856h128M704 856h32M288 857h32M448 857h128M704 857h32M288 858h32M448 858h128M704 858h32M288 859h32M448 859h128M704 859h32M288 860h32M448 860h128M704 860h32M288 861h32M448 861h128M704 861h32M288 862h32M448 862h128M704 862h32M288 863h32M448 863h128M704 863h32M288 864h32M448 864h32M544 864h32M704 864h32M288 865h32M448 865h32M544 865h32M704 865h32M288 866h32M448 866h32M544 866h32M704 866h32M288 867h32M448 867h32M544 867h32M704 867h32M288 868h32M448 868h32M544 868h32M704 868h32M288 869h32M448 869h32M544 869h32M704 869h32M288 870h32M448 870h32M544 870h32M704 870h32M288 871h32M448 871h32M544 871h32M704 871h32M288 872h32M448 872h32M544 872h32M704 872h32M288 873h32M448 873h32M544 873h32M704 873h32M288 874h32M448 874h32M544 874h32M704 874h32M288 875h32M448 875h32M544 875h32M704 875h32M288 876h32M448 876h32M544 876h32M704 876h32M288 877h32M448 877h32M544 877h32M704 877h32M288 878h32M448 878h32M544 878h32M704 878h32M288 879h32M448 879h32M544 879h32M704 879h32M288 880h32M448 880h32M544 880h32M704 880h32M288 881h32M448 881h32M544 881h32M704 881h32M288 882h32M448 882h32M544 882h32M704 882h32M288 883h32M448 883h32M544 883h32M704 883h32M288 884h32M448 884h32M544 884h32M704 884h32M288 885h32M448 885h32M544 885h32M704 885h32M288 886h32M448 886h32M544 886h32M704 886h32M288 887h32M448 887h32M544 887h32M704 887h32M288 888h32M448 888h32M544 888h32M704 888h32M288 889h32M448 889h32M544 889h32M704 889h32M288 890h32M448 890h32M544 890h32M704 890h32M288 891h32M448 891h32M544 891h32M704 891h32M288 892h32M448 892h32M544 892h32M704 892h32M288 893h32M448 893h32M544 893h32M704 893h32M288 894h32M448 894h32M544 894h32M704 894h32M288 895h32M448 895h32M544 895h32M704 895h32M288 896h32M448 896h32M544 896h32M704 896h32M288 897h32M448 897h32M544 897h32M704 897h32M288 898h32M448 898h32M544 898h32M704 898h32M288 899h32M448 899h32M544 899h32M704 899h32M288 900h32M448 900h32M544 900h32M704 900h32M288 901h32M448 901h32M544 901h32M704 901h32M288 902h32M448 902h32M544 902h32M704 902h32M288 903h32M448 903h32M544 903h32M704 903h32M288 904h32M448 904h32M544 904h32M704 904h32M288 905h32M448 905h32M544 905h32M704 905h32M288 906h32M448 906h32M544 906h32M704 906h32M288 907h32M448 907h32M544 907h32M704 907h32M288 908h32M448 908h32M544 908h32M704 908h32M288 909h32M448 909h32M544 909h32M704 909h32M288 910h32M448 910h32M544 910h32M704 910h32M288 911h32M448 911h32M544 911h32M704 911h32M288 912h32M448 912h32M544 912h32M704 912h32M288 913h32M448 913h32M544 913h32M704 913h32M288 914h32M448 914h32M544 914h32M704 914h32M288 915h32M448 915h32M544 915h32M704 915h32M288 916h32M448 916h32M544 916h32M704 916h32M288 917h32M448 917h32M544 917h32M704 917h32M288 918h32M448 918h32M544 918h32M704 918h32M288 919h32M448 919h32M544 919h32M704 919h32M288 920h32M448 920h32M544 920h32M704 920h32M288 921h32M448 921h32M544 921h32M704 921h32M288 922h32M448 922h32M544 922h32M704 922h32M288 923h32M448 923h32M544 923h32M704 923h32M288 924h32M448 924h32M544 924h32M704 924h32M288 925h32M448 925h32M544 925h32M704 925h32M288 926h32M448 926h32M544 926h32M704 926h32M288 927h32M448 927h32M544 927h32M704 927h32M288 928h160M576 928h160M288 929h160M576 929h160M288 930h160M576 930h160M288 931h160M576 931h160M288 932h160M576 932h160M288 933h160M576 933h160M288 934h160M576 934h160M288 935h160M576 935h160M288 936h160M576 936h160M288 937h160M576 937h160M288 938h160M576 938h160M288 939h160M576 939h160M288 940h160M576 940h160M288 941h160M576 941h160M288 942h160M576 942h160M288 943h160M576 943h160M288 944h160M576 944h160M288 945h160M576 945h160M288 946h160M576 946h160M288 947h160M576 947h160M288 948h160M576 948h160M288 949h160M576 949h160M288 950h160M576 950h160M288 951h160M576 951h160M288 952h160M576 952h160M288 953h160M576 953h160M288 954h160M576 954h160M288 955h160M576 955h160M288 956h160M576 956h160M288 957h160M576 957h160M288 958h160M576 958h160M288 959h160M576 959h160" />
<path stroke="#9e651a" d="M256 160h128M640 160h128M256 161h128M640 161h128M256 162h128M640 162h128M256 163h128M640 163h128M256 164h128M640 164h128M256 165h128M640 165h128M256 166h128M640 166h128M256 167h128M640 167h128M256 168h128M640 168h128M256 169h128M640 169h128M256 170h128M640 170h128M256 171h128M640 171h128M256 172h128M640 172h128M256 173h128M640 173h128M256 174h128M640 174h128M256 175h128M640 175h128M256 176h128M640 176h128M256 177h128M640 177h128M256 178h128M640 178h128M256 179h128M640 179h128M256 180h128M640 180h128M256 181h128M640 181h128M256 182h128M640 182h128M256 183h128M640 183h128M256 184h128M640 184h128M256 185h128M640 185h128M256 186h128M640 186h128M256 187h128M640 187h128M256 188h128M640 188h128M256 189h128M640 189h128M256 190h128M640 190h128M256 191h128M640 191h128M256 192h128M448 192h32M512 192h64M640 192h128M256 193h128M448 193h32M512 193h64M640 193h128M256 194h128M448 194h32M512 194h64M640 194h128M256 195h128M448 195h32M512 195h64M640 195h128M256 196h128M448 196h32M512 196h64M640 196h128M256 197h128M448 197h32M512 197h64M640 197h128M256 198h128M448 198h32M512 198h64M640 198h128M256 199h128M448 199h32M512 199h64M640 199h128M256 200h128M448 200h32M512 200h64M640 200h128M256 201h128M448 201h32M512 201h64M640 201h128M256 202h128M448 202h32M512 202h64M640 202h128M256 203h128M448 203h32M512 203h64M640 203h128M256 204h128M448 204h32M512 204h64M640 204h128M256 205h128M448 205h32M512 205h64M640 205h128M256 206h128M448 206h32M512 206h64M640 206h128M256 207h128M448 207h32M512 207h64M640 207h128M256 208h128M448 208h32M512 208h64M640 208h128M256 209h128M448 209h32M512 209h64M640 209h128M256 210h128M448 210h32M512 210h64M640 210h128M256 211h128M448 211h32M512 211h64M640 211h128M256 212h128M448 212h32M512 212h64M640 212h128M256 213h128M448 213h32M512 213h64M640 213h128M256 214h128M448 214h32M512 214h64M640 214h128M256 215h128M448 215h32M512 215h64M640 215h128M256 216h128M448 216h32M512 216h64M640 216h128M256 217h128M448 217h32M512 217h64M640 217h128M256 218h128M448 218h32M512 218h64M640 218h128M256 219h128M448 219h32M512 219h64M640 219h128M256 220h128M448 220h32M512 220h64M640 220h128M256 221h128M448 221h32M512 221h64M640 221h128M256 222h128M448 222h32M512 222h64M640 222h128M256 223h128M448 223h32M512 223h64M640 223h128M224 224h32M384 224h128M544 224h96M768 224h32M224 225h32M384 225h128M544 225h96M768 225h32M224 226h32M384 226h128M544 226h96M768 226h32M224 227h32M384 227h128M544 227h96M768 227h32M224 228h32M384 228h128M544 228h96M768 228h32M224 229h32M384 229h128M544 229h96M768 229h32M224 230h32M384 230h128M544 230h96M768 230h32M224 231h32M384 231h128M544 231h96M768 231h32M224 232h32M384 232h128M544 232h96M768 232h32M224 233h32M384 233h128M544 233h96M768 233h32M224 234h32M384 234h128M544 234h96M768 234h32M224 235h32M384 235h128M544 235h96M768 235h32M224 236h32M384 236h128M544 236h96M768 236h32M224 237h32M384 237h128M544 237h96M768 237h32M224 238h32M384 238h128M544 238h96M768 238h32M224 239h32M384 239h128M544 239h96M768 239h32M224 240h32M384 240h128M544 240h96M768 240h32M224 241h32M384 241h128M544 241h96M768 241h32M224 242h32M384 242h128M544 242h96M768 242h32M224 243h32M384 243h128M544 243h96M768 243h32M224 244h32M384 244h128M544 244h96M768 244h32M224 245h32M384 245h128M544 245h96M768 245h32M224 246h32M384 246h128M544 246h96M768 246h32M224 247h32M384 247h128M544 247h96M768 247h32M224 248h32M384 248h128M544 248h96M768 248h32M224 249h32M384 249h128M544 249h96M768 249h32M224 250h32M384 250h128M544 250h96M768 250h32M224 251h32M384 251h128M544 251h96M768 251h32M224 252h32M384 252h128M544 252h96M768 252h32M224 253h32M384 253h128M544 253h96M768 253h32M224 254h32M384 254h128M544 254h96M768 254h32M224 255h32M384 255h128M544 255h96M768 255h32M224 256h32M384 256h128M544 256h96M768 256h32M224 257h32M384 257h128M544 257h96M768 257h32M224 258h32M384 258h128M544 258h96M768 258h32M224 259h32M384 259h128M544 259h96M768 259h32M224 260h32M384 260h128M544 260h96M768 260h32M224 261h32M384 261h128M544 261h96M768 261h32M224 262h32M384 262h128M544 262h96M768 262h32M224 263h32M384 263h128M544 263h96M768 263h32M224 264h32M384 264h128M544 264h96M768 264h32M224 265h32M384 265h128M544 265h96M768 265h32M224 266h32M384 266h128M544 266h96M768 266h32M224 267h32M384 267h128M544 267h96M768 267h32M224 268h32M384 268h128M544 268h96M768 268h32M224 269h32M384 269h128M544 269h96M768 269h32M224 270h32M384 270h128M544 270h96M768 270h32M224 271h32M384 271h128M544 271h96M768 271h32M224 272h32M384 272h128M544 272h96M768 272h32M224 273h32M384 273h128M544 273h96M768 273h32M224 274h32M384 274h128M544 274h96M768 274h32M224 275h32M384 275h128M544 275h96M768 275h32M224 276h32M384 276h128M544 276h96M768 276h32M224 277h32M384 277h128M544 277h96M768 277h32M224 278h32M384 278h128M544 278h96M768 278h32M224 279h32M384 279h128M544 279h96M768 279h32M224 280h32M384 280h128M544 280h96M768 280h32M224 281h32M384 281h128M544 281h96M768 281h32M224 282h32M384 282h128M544 282h96M768 282h32M224 283h32M384 283h128M544 283h96M768 283h32M224 284h32M384 284h128M544 284h96M768 284h32M224 285h32M384 285h128M544 285h96M768 285h32M224 286h32M384 286h128M544 286h96M768 286h32M224 287h32M384 287h128M544 287h96M768 287h32M224 288h96M352 288h64M608 288h64M704 288h96M224 289h96M352 289h64M608 289h64M704 289h96M224 290h96M352 290h64M608 290h64M704 290h96M224 291h96M352 291h64M608 291h64M704 291h96M224 292h96M352 292h64M608 292h64M704 292h96M224 293h96M352 293h64M608 293h64M704 293h96M224 294h96M352 294h64M608 294h64M704 294h96M224 295h96M352 295h64M608 295h64M704 295h96M224 296h96M352 296h64M608 296h64M704 296h96M224 297h96M352 297h64M608 297h64M704 297h96M224 298h96M352 298h64M608 298h64M704 298h96M224 299h96M352 299h64M608 299h64M704 299h96M224 300h96M352 300h64M608 300h64M704 300h96M224 301h96M352 301h64M608 301h64M704 301h96M224 302h96M352 302h64M608 302h64M704 302h96M224 303h96M352 303h64M608 303h64M704 303h96M224 304h96M352 304h64M608 304h64M704 304h96M224 305h96M352 305h64M608 305h64M704 305h96M224 306h96M352 306h64M608 306h64M704 306h96M224 307h96M352 307h64M608 307h64M704 307h96M224 308h96M352 308h64M608 308h64M704 308h96M224 309h96M352 309h64M608 309h64M704 309h96M224 310h96M352 310h64M608 310h64M704 310h96M224 311h96M352 311h64M608 311h64M704 311h96M224 312h96M352 312h64M608 312h64M704 312h96M224 313h96M352 313h64M608 313h64M704 313h96M224 314h96M352 314h64M608 314h64M704 314h96M224 315h96M352 315h64M608 315h64M704 315h96M224 316h96M352 316h64M608 316h64M704 316h96M224 317h96M352 317h64M608 317h64M704 317h96M224 318h96M352 318h64M608 318h64M704 318h96M224 319h96M352 319h64M608 319h64M704 319h96M224 320h96M352 320h64M512 320h32M608 320h64M736 320h64M224 321h96M352 321h64M512 321h32M608 321h64M736 321h64M224 322h96M352 322h64M512 322h32M608 322h64M736 322h64M224 323h96M352 323h64M512 323h32M608 323h64M736 323h64M224 324h96M352 324h64M512 324h32M608 324h64M736 324h64M224 325h96M352 325h64M512 325h32M608 325h64M736 325h64M224 326h96M352 326h64M512 326h32M608 326h64M736 326h64M224 327h96M352 327h64M512 327h32M608 327h64M736 327h64M224 328h96M352 328h64M512 328h32M608 328h64M736 328h64M224 329h96M352 329h64M512 329h32M608 329h64M736 329h64M224 330h96M352 330h64M512 330h32M608 330h64M736 330h64M224 331h96M352 331h64M512 331h32M608 331h64M736 331h64M224 332h96M352 332h64M512 332h32M608 332h64M736 332h64M224 333h96M352 333h64M512 333h32M608 333h64M736 333h64M224 334h96M352 334h64M512 334h32M608 334h64M736 334h64M224 335h96M352 335h64M512 335h32M608 335h64M736 335h64M224 336h96M352 336h64M512 336h32M608 336h64M736 336h64M224 337h96M352 337h64M512 337h32M608 337h64M736 337h64M224 338h96M352 338h64M512 338h32M608 338h64M736 338h64M224 339h96M352 339h64M512 339h32M608 339h64M736 339h64M224 340h96M352 340h64M512 340h32M608 340h64M736 340h64M224 341h96M352 341h64M512 341h32M608 341h64M736 341h64M224 342h96M352 342h64M512 342h32M608 342h64M736 342h64M224 343h96M352 343h64M512 343h32M608 343h64M736 343h64M224 344h96M352 344h64M512 344h32M608 344h64M736 344h64M224 345h96M352 345h64M512 345h32M608 345h64M736 345h64M224 346h96M352 346h64M512 346h32M608 346h64M736 346h64M224 347h96M352 347h64M512 347h32M608 347h64M736 347h64M224 348h96M352 348h64M512 348h32M608 348h64M736 348h64M224 349h96M352 349h64M512 349h32M608 349h64M736 349h64M224 350h96M352 350h64M512 350h32M608 350h64M736 350h64M224 351h96M352 351h64M512 351h32M608 351h64M736 351h64M224 352h64M320 352h160M512 352h192M736 352h64M224 353h64M320 353h160M512 353h192M736 353h64M224 354h64M320 354h160M512 354h192M736 354h64M224 355h64M320 355h160M512 355h192M736 355h64M224 356h64M320 356h160M512 356h192M736 356h64M224 357h64M320 357h160M512 357h192M736 357h64M224 358h64M320 358h160M512 358h192M736 358h64M224 359h64M320 359h160M512 359h192M736 359h64M224 360h64M320 360h160M512 360h192M736 360h64M224 361h64M320 361h160M512 361h192M736 361h64M224 362h64M320 362h160M512 362h192M736 362h64M224 363h64M320 363h160M512 363h192M736 363h64M224 364h64M320 364h160M512 364h192M736 364h64M224 365h64M320 365h160M512 365h192M736 365h64M224 366h64M320 366h160M512 366h192M736 366h64M224 367h64M320 367h160M512 367h192M736 367h64M224 368h64M320 368h160M512 368h192M736 368h64M224 369h64M320 369h160M512 369h192M736 369h64M224 370h64M320 370h160M512 370h192M736 370h64M224 371h64M320 371h160M512 371h192M736 371h64M224 372h64M320 372h160M512 372h192M736 372h64M224 373h64M320 373h160M512 373h192M736 373h64M224 374h64M320 374h160M512 374h192M736 374h64M224 375h64M320 375h160M512 375h192M736 375h64M224 376h64M320 376h160M512 376h192M736 376h64M224 377h64M320 377h160M512 377h192M736 377h64M224 378h64M320 378h160M512 378h192M736 378h64M224 379h64M320 379h160M512 379h192M736 379h64M224 380h64M320 380h160M512 380h192M736 380h64M224 381h64M320 381h160M512 381h192M736 381h64M224 382h64M320 382h160M512 382h192M736 382h64M224 383h64M320 383h160M512 383h192M736 383h64M256 384h32M320 384h160M512 384h192M256 385h32M320 385h160M512 385h192M256 386h32M320 386h160M512 386h192M256 387h32M320 387h160M512 387h192M256 388h32M320 388h160M512 388h192M256 389h32M320 389h160M512 389h192M256 390h32M320 390h160M512 390h192M256 391h32M320 391h160M512 391h192M256 392h32M320 392h160M512 392h192M256 393h32M320 393h160M512 393h192M256 394h32M320 394h160M512 394h192M256 395h32M320 395h160M512 395h192M256 396h32M320 396h160M512 396h192M256 397h32M320 397h160M512 397h192M256 398h32M320 398h160M512 398h192M256 399h32M320 399h160M512 399h192M256 400h32M320 400h160M512 400h192M256 401h32M320 401h160M512 401h192M256 402h32M320 402h160M512 402h192M256 403h32M320 403h160M512 403h192M256 404h32M320 404h160M512 404h192M256 405h32M320 405h160M512 405h192M256 406h32M320 406h160M512 406h192M256 407h32M320 407h160M512 407h192M256 408h32M320 408h160M512 408h192M256 409h32M320 409h160M512 409h192M256 410h32M320 410h160M512 410h192M256 411h32M320 411h160M512 411h192M256 412h32M320 412h160M512 412h192M256 413h32M320 413h160M512 413h192M256 414h32M320 414h160M512 414h192M256 415h32M320 415h160M512 415h192M352 416h64M608 416h64M352 417h64M608 417h64M352 418h64M608 418h64M352 419h64M608 419h64M352 420h64M608 420h64M352 421h64M608 421h64M352 422h64M608 422h64M352 423h64M608 423h64M352 424h64M608 424h64M352 425h64M608 425h64M352 426h64M608 426h64M352 427h64M608 427h64M352 428h64M608 428h64M352 429h64M608 429h64M352 430h64M608 430h64M352 431h64M608 431h64M352 432h64M608 432h64M352 433h64M608 433h64M352 434h64M608 434h64M352 435h64M608 435h64M352 436h64M608 436h64M352 437h64M608 437h64M352 438h64M608 438h64M352 439h64M608 439h64M352 440h64M608 440h64M352 441h64M608 441h64M352 442h64M608 442h64M352 443h64M608 443h64M352 444h64M608 444h64M352 445h64M608 445h64M352 446h64M608 446h64M352 447h64M608 447h64M352 448h64M608 448h64M352 449h64M608 449h64M352 450h64M608 450h64M352 451h64M608 451h64M352 452h64M608 452h64M352 453h64M608 453h64M352 454h64M608 454h64M352 455h64M608 455h64M352 456h64M608 456h64M352 457h64M608 457h64M352 458h64M608 458h64M352 459h64M608 459h64M352 460h64M608 460h64M352 461h64M608 461h64M352 462h64M608 462h64M352 463h64M608 463h64M352 464h64M608 464h64M352 465h64M608 465h64M352 466h64M608 466h64M352 467h64M608 467h64M352 468h64M608 468h64M352 469h64M608 469h64M352 470h64M608 470h64M352 471h64M608 471h64M352 472h64M608 472h64M352 473h64M608 473h64M352 474h64M608 474h64M352 475h64M608 475h64M352 476h64M608 476h64M352 477h64M608 477h64M352 478h64M608 478h64M352 479h64M608 479h64M320 480h32M416 480h32M576 480h32M672 480h32M320 481h32M416 481h32M576 481h32M672 481h32M320 482h32M416 482h32M576 482h32M672 482h32M320 483h32M416 483h32M576 483h32M672 483h32M320 484h32M416 484h32M576 484h32M672 484h32M320 485h32M416 485h32M576 485h32M672 485h32M320 486h32M416 486h32M576 486h32M672 486h32M320 487h32M416 487h32M576 487h32M672 487h32M320 488h32M416 488h32M576 488h32M672 488h32M320 489h32M416 489h32M576 489h32M672 489h32M320 490h32M416 490h32M576 490h32M672 490h32M320 491h32M416 491h32M576 491h32M672 491h32M320 492h32M416 492h32M576 492h32M672 492h32M320 493h32M416 493h32M576 493h32M672 493h32M320 494h32M416 494h32M576 494h32M672 494h32M320 495h32M416 495h32M576 495h32M672 495h32M320 496h32M416 496h32M576 496h32M672 496h32M320 497h32M416 497h32M576 497h32M672 497h32M320 498h32M416 498h32M576 498h32M672 498h32M320 499h32M416 499h32M576 499h32M672 499h32M320 500h32M416 500h32M576 500h32M672 500h32M320 501h32M416 501h32M576 501h32M672 501h32M320 502h32M416 502h32M576 502h32M672 502h32M320 503h32M416 503h32M576 503h32M672 503h32M320 504h32M416 504h32M576 504h32M672 504h32M320 505h32M416 505h32M576 505h32M672 505h32M320 506h32M416 506h32M576 506h32M672 506h32M320 507h32M416 507h32M576 507h32M672 507h32M320 508h32M416 508h32M576 508h32M672 508h32M320 509h32M416 509h32M576 509h32M672 509h32M320 510h32M416 510h32M576 510h32M672 510h32M320 511h32M416 511h32M576 511h32M672 511h32M256 512h128M640 512h128M256 513h128M640 513h128M256 514h128M640 514h128M256 515h128M640 515h128M256 516h128M640 516h128M256 517h128M640 517h128M256 518h128M640 518h128M256 519h128M640 519h128M256 520h128M640 520h128M256 521h128M640 521h128M256 522h128M640 522h128M256 523h128M640 523h128M256 524h128M640 524h128M256 525h128M640 525h128M256 526h128M640 526h128M256 527h128M640 527h128M256 528h128M640 528h128M256 529h128M640 529h128M256 530h128M640 530h128M256 531h128M640 531h128M256 532h128M640 532h128M256 533h128M640 533h128M256 534h128M640 534h128M256 535h128M640 535h128M256 536h128M640 536h128M256 537h128M640 537h128M256 538h128M640 538h128M256 539h128M640 539h128M256 540h128M640 540h128M256 541h128M640 541h128M256 542h128M640 542h128M256 543h128M640 543h128M224 544h128M704 544h96M224 545h128M704 545h96M224 546h128M704 546h96M224 547h128M704 547h96M224 548h128M704 548h96M224 549h128M704 549h96M224 550h128M704 550h96M224 551h128M704 551h96M224 552h128M704 552h96M224 553h128M704 553h96M224 554h128M704 554h96M224 555h128M704 555h96M224 556h128M704 556h96M224 557h128M704 557h96M224 558h128M704 558h96M224 559h128M704 559h96M224 560h128M704 560h96M224 561h128M704 561h96M224 562h128M704 562h96M224 563h128M704 563h96M224 564h128M704 564h96M224 565h128M704 565h96M224 566h128M704 566h96M224 567h128M704 567h96M224 568h128M704 568h96M224 569h128M704 569h96M224 570h128M704 570h96M224 571h128M704 571h96M224 572h128M704 572h96M224 573h128M704 573h96M224 574h128M704 574h96M224 575h128M704 575h96M224 576h96M704 576h96M224 577h96M704 577h96M224 578h96M704 578h96M224 579h96M704 579h96M224 580h96M704 580h96M224 581h96M704 581h96M224 582h96M704 582h96M224 583h96M704 583h96M224 584h96M704 584h96M224 585h96M704 585h96M224 586h96M704 586h96M224 587h96M704 587h96M224 588h96M704 588h96M224 589h96M704 589h96M224 590h96M704 590h96M224 591h96M704 591h96M224 592h96M704 592h96M224 593h96M704 593h96M224 594h96M704 594h96M224 595h96M704 595h96M224 596h96M704 596h96M224 597h96M704 597h96M224 598h96M704 598h96M224 599h96M704 599h96M224 600h96M704 600h96M224 601h96M704 601h96M224 602h96M704 602h96M224 603h96M704 603h96M224 604h96M704 604h96M224 605h96M704 605h96M224 606h96M704 606h96M224 607h96M704 607h96M224 608h96M704 608h96M224 609h96M704 609h96M224 610h96M704 610h96M224 611h96M704 611h96M224 612h96M704 612h96M224 613h96M704 613h96M224 614h96M704 614h96M224 615h96M704 615h96M224 616h96M704 616h96M224 617h96M704 617h96M224 618h96M704 618h96M224 619h96M704 619h96M224 620h96M704 620h96M224 621h96M704 621h96M224 622h96M704 622h96M224 623h96M704 623h96M224 624h96M704 624h96M224 625h96M704 625h96M224 626h96M704 626h96M224 627h96M704 627h96M224 628h96M704 628h96M224 629h96M704 629h96M224 630h96M704 630h96M224 631h96M704 631h96M224 632h96M704 632h96M224 633h96M704 633h96M224 634h96M704 634h96M224 635h96M704 635h96M224 636h96M704 636h96M224 637h96M704 637h96M224 638h96M704 638h96M224 639h96M704 639h96M224 640h96M704 640h96M224 641h96M704 641h96M224 642h96M704 642h96M224 643h96M704 643h96M224 644h96M704 644h96M224 645h96M704 645h96M224 646h96M704 646h96M224 647h96M704 647h96M224 648h96M704 648h96M224 649h96M704 649h96M224 650h96M704 650h96M224 651h96M704 651h96M224 652h96M704 652h96M224 653h96M704 653h96M224 654h96M704 654h96M224 655h96M704 655h96M224 656h96M704 656h96M224 657h96M704 657h96M224 658h96M704 658h96M224 659h96M704 659h96M224 660h96M704 660h96M224 661h96M704 661h96M224 662h96M704 662h96M224 663h96M704 663h96M224 664h96M704 664h96M224 665h96M704 665h96M224 666h96M704 666h96M224 667h96M704 667h96M224 668h96M704 668h96M224 669h96M704 669h96M224 670h96M704 670h96M224 671h96M704 671h96M224 672h96M672 672h128M224 673h96M672 673h128M224 674h96M672 674h128M224 675h96M672 675h128M224 676h96M672 676h128M224 677h96M672 677h128M224 678h96M672 678h128M224 679h96M672 679h128M224 680h96M672 680h128M224 681h96M672 681h128M224 682h96M672 682h128M224 683h96M672 683h128M224 684h96M672 684h128M224 685h96M672 685h128M224 686h96M672 686h128M224 687h96M672 687h128M224 688h96M672 688h128M224 689h96M672 689h128M224 690h96M672 690h128M224 691h96M672 691h128M224 692h96M672 692h128M224 693h96M672 693h128M224 694h96M672 694h128M224 695h96M672 695h128M224 696h96M672 696h128M224 697h96M672 697h128M224 698h96M672 698h128M224 699h96M672 699h128M224 700h96M672 700h128M224 701h96M672 701h128M224 702h96M672 702h128M224 703h96M672 703h128M352 800h32M640 800h32M352 801h32M640 801h32M352 802h32M640 802h32M352 803h32M640 803h32M352 804h32M640 804h32M352 805h32M640 805h32M352 806h32M640 806h32M352 807h32M640 807h32M352 808h32M640 808h32M352 809h32M640 809h32M352 810h32M640 810h32M352 811h32M640 811h32M352 812h32M640 812h32M352 813h32M640 813h32M352 814h32M640 814h32M352 815h32M640 815h32M352 816h32M640 816h32M352 817h32M640 817h32M352 818h32M640 818h32M352 819h32M640 819h32M352 820h32M640 820h32M352 821h32M640 821h32M352 822h32M640 822h32M352 823h32M640 823h32M352 824h32M640 824h32M352 825h32M640 825h32M352 826h32M640 826h32M352 827h32M640 827h32M352 828h32M640 828h32M352 829h32M640 829h32M352 830h32M640 830h32M352 831h32M640 831h32M320 832h64M640 832h64M320 833h64M640 833h64M320 834h64M640 834h64M320 835h64M640 835h64M320 836h64M640 836h64M320 837h64M640 837h64M320 838h64M640 838h64M320 839h64M640 839h64M320 840h64M640 840h64M320 841h64M640 841h64M320 842h64M640 842h64M320 843h64M640 843h64M320 844h64M640 844h64M320 845h64M640 845h64M320 846h64M640 846h64M320 847h64M640 847h64M320 848h64M640 848h64M320 849h64M640 849h64M320 850h64M640 850h64M320 851h64M640 851h64M320 852h64M640 852h64M320 853h64M640 853h64M320 854h64M640 854h64M320 855h64M640 855h64M320 856h64M640 856h64M320 857h64M640 857h64M320 858h64M640 858h64M320 859h64M640 859h64M320 860h64M640 860h64M320 861h64M640 861h64M320 862h64M640 862h64M320 863h64M640 863h64M320 864h96M608 864h96M320 865h96M608 865h96M320 866h96M608 866h96M320 867h96M608 867h96M320 868h96M608 868h96M320 869h96M608 869h96M320 870h96M608 870h96M320 871h96M608 871h96M320 872h96M608 872h96M320 873h96M608 873h96M320 874h96M608 874h96M320 875h96M608 875h96M320 876h96M608 876h96M320 877h96M608 877h96M320 878h96M608 878h96M320 879h96M608 879h96M320 880h96M608 880h96M320 881h96M608 881h96M320 882h96M608 882h96M320 883h96M608 883h96M320 884h96M608 884h96M320 885h96M608 885h96M320 886h96M608 886h96M320 887h96M608 887h96M320 888h96M608 888h96M320 889h96M608 889h96M320 890h96M608 890h96M320 891h96M608 891h96M320 892h96M608 892h96M320 893h96M608 893h96M320 894h96M608 894h96M320 895h96M608 895h96M320 896h96M608 896h96M320 897h96M608 897h96M320 898h96M608 898h96M320 899h96M608 899h96M320 900h96M608 900h96M320 901h96M608 901h96M320 902h96M608 902h96M320 903h96M608 903h96M320 904h96M608 904h96M320 905h96M608 905h96M320 906h96M608 906h96M320 907h96M608 907h96M320 908h96M608 908h96M320 909h96M608 909h96M320 910h96M608 910h96M320 911h96M608 911h96M320 912h96M608 912h96M320 913h96M608 913h96M320 914h96M608 914h96M320 915h96M608 915h96M320 916h96M608 916h96M320 917h96M608 917h96M320 918h96M608 918h96M320 919h96M608 919h96M320 920h96M608 920h96M320 921h96M608 921h96M320 922h96M608 922h96M320 923h96M608 923h96M320 924h96M608 924h96M320 925h96M608 925h96M320 926h96M608 926h96M320 927h96M608 927h96" />
<path stroke="#57380e" d="M224 192h32M480 192h32M768 192h32M224 193h32M480 193h32M768 193h32M224 194h32M480 194h32M768 194h32M224 195h32M480 195h32M768 195h32M224 196h32M480 196h32M768 196h32M224 197h32M480 197h32M768 197h32M224 198h32M480 198h32M768 198h32M224 199h32M480 199h32M768 199h32M224 200h32M480 200h32M768 200h32M224 201h32M480 201h32M768 201h32M224 202h32M480 202h32M768 202h32M224 203h32M480 203h32M768 203h32M224 204h32M480 204h32M768 204h32M224 205h32M480 205h32M768 205h32M224 206h32M480 206h32M768 206h32M224 207h32M480 207h32M768 207h32M224 208h32M480 208h32M768 208h32M224 209h32M480 209h32M768 209h32M224 210h32M480 210h32M768 210h32M224 211h32M480 211h32M768 211h32M224 212h32M480 212h32M768 212h32M224 213h32M480 213h32M768 213h32M224 214h32M480 214h32M768 214h32M224 215h32M480 215h32M768 215h32M224 216h32M480 216h32M768 216h32M224 217h32M480 217h32M768 217h32M224 218h32M480 218h32M768 218h32M224 219h32M480 219h32M768 219h32M224 220h32M480 220h32M768 220h32M224 221h32M480 221h32M768 221h32M224 222h32M480 222h32M768 222h32M224 223h32M480 223h32M768 223h32M256 224h32M320 224h32M512 224h32M672 224h32M736 224h32M256 225h32M320 225h32M512 225h32M672 225h32M736 225h32M256 226h32M320 226h32M512 226h32M672 226h32M736 226h32M256 227h32M320 227h32M512 227h32M672 227h32M736 227h32M256 228h32M320 228h32M512 228h32M672 228h32M736 228h32M256 229h32M320 229h32M512 229h32M672 229h32M736 229h32M256 230h32M320 230h32M512 230h32M672 230h32M736 230h32M256 231h32M320 231h32M512 231h32M672 231h32M736 231h32M256 232h32M320 232h32M512 232h32M672 232h32M736 232h32M256 233h32M320 233h32M512 233h32M672 233h32M736 233h32M256 234h32M320 234h32M512 234h32M672 234h32M736 234h32M256 235h32M320 235h32M512 235h32M672 235h32M736 235h32M256 236h32M320 236h32M512 236h32M672 236h32M736 236h32M256 237h32M320 237h32M512 237h32M672 237h32M736 237h32M256 238h32M320 238h32M512 238h32M672 238h32M736 238h32M256 239h32M320 239h32M512 239h32M672 239h32M736 239h32M256 240h32M320 240h32M512 240h32M672 240h32M736 240h32M256 241h32M320 241h32M512 241h32M672 241h32M736 241h32M256 242h32M320 242h32M512 242h32M672 242h32M736 242h32M256 243h32M320 243h32M512 243h32M672 243h32M736 243h32M256 244h32M320 244h32M512 244h32M672 244h32M736 244h32M256 245h32M320 245h32M512 245h32M672 245h32M736 245h32M256 246h32M320 246h32M512 246h32M672 246h32M736 246h32M256 247h32M320 247h32M512 247h32M672 247h32M736 247h32M256 248h32M320 248h32M512 248h32M672 248h32M736 248h32M256 249h32M320 249h32M512 249h32M672 249h32M736 249h32M256 250h32M320 250h32M512 250h32M672 250h32M736 250h32M256 251h32M320 251h32M512 251h32M672 251h32M736 251h32M256 252h32M320 252h32M512 252h32M672 252h32M736 252h32M256 253h32M320 253h32M512 253h32M672 253h32M736 253h32M256 254h32M320 254h32M512 254h32M672 254h32M736 254h32M256 255h32M320 255h32M512 255h32M672 255h32M736 255h32M288 256h32M512 256h32M704 256h32M288 257h32M512 257h32M704 257h32M288 258h32M512 258h32M704 258h32M288 259h32M512 259h32M704 259h32M288 260h32M512 260h32M704 260h32M288 261h32M512 261h32M704 261h32M288 262h32M512 262h32M704 262h32M288 263h32M512 263h32M704 263h32M288 264h32M512 264h32M704 264h32M288 265h32M512 265h32M704 265h32M288 266h32M512 266h32M704 266h32M288 267h32M512 267h32M704 267h32M288 268h32M512 268h32M704 268h32M288 269h32M512 269h32M704 269h32M288 270h32M512 270h32M704 270h32M288 271h32M512 271h32M704 271h32M288 272h32M512 272h32M704 272h32M288 273h32M512 273h32M704 273h32M288 274h32M512 274h32M704 274h32M288 275h32M512 275h32M704 275h32M288 276h32M512 276h32M704 276h32M288 277h32M512 277h32M704 277h32M288 278h32M512 278h32M704 278h32M288 279h32M512 279h32M704 279h32M288 280h32M512 280h32M704 280h32M288 281h32M512 281h32M704 281h32M288 282h32M512 282h32M704 282h32M288 283h32M512 283h32M704 283h32M288 284h32M512 284h32M704 284h32M288 285h32M512 285h32M704 285h32M288 286h32M512 286h32M704 286h32M288 287h32M512 287h32M704 287h32M480 288h64M480 289h64M480 290h64M480 291h64M480 292h64M480 293h64M480 294h64M480 295h64M480 296h64M480 297h64M480 298h64M480 299h64M480 300h64M480 301h64M480 302h64M480 303h64M480 304h64M480 305h64M480 306h64M480 307h64M480 308h64M480 309h64M480 310h64M480 311h64M480 312h64M480 313h64M480 314h64M480 315h64M480 316h64M480 317h64M480 318h64M480 319h64M480 320h32M480 321h32M480 322h32M480 323h32M480 324h32M480 325h32M480 326h32M480 327h32M480 328h32M480 329h32M480 330h32M480 331h32M480 332h32M480 333h32M480 334h32M480 335h32M480 336h32M480 337h32M480 338h32M480 339h32M480 340h32M480 341h32M480 342h32M480 343h32M480 344h32M480 345h32M480 346h32M480 347h32M480 348h32M480 349h32M480 350h32M480 351h32M288 352h32M480 352h32M704 352h32M288 353h32M480 353h32M704 353h32M288 354h32M480 354h32M704 354h32M288 355h32M480 355h32M704 355h32M288 356h32M480 356h32M704 356h32M288 357h32M480 357h32M704 357h32M288 358h32M480 358h32M704 358h32M288 359h32M480 359h32M704 359h32M288 360h32M480 360h32M704 360h32M288 361h32M480 361h32M704 361h32M288 362h32M480 362h32M704 362h32M288 363h32M480 363h32M704 363h32M288 364h32M480 364h32M704 364h32M288 365h32M480 365h32M704 365h32M288 366h32M480 366h32M704 366h32M288 367h32M480 367h32M704 367h32M288 368h32M480 368h32M704 368h32M288 369h32M480 369h32M704 369h32M288 370h32M480 370h32M704 370h32M288 371h32M480 371h32M704 371h32M288 372h32M480 372h32M704 372h32M288 373h32M480 373h32M704 373h32M288 374h32M480 374h32M704 374h32M288 375h32M480 375h32M704 375h32M288 376h32M480 376h32M704 376h32M288 377h32M480 377h32M704 377h32M288 378h32M480 378h32M704 378h32M288 379h32M480 379h32M704 379h32M288 380h32M480 380h32M704 380h32M288 381h32M480 381h32M704 381h32M288 382h32M480 382h32M704 382h32M288 383h32M480 383h32M704 383h32M480 384h32M480 385h32M480 386h32M480 387h32M480 388h32M480 389h32M480 390h32M480 391h32M480 392h32M480 393h32M480 394h32M480 395h32M480 396h32M480 397h32M480 398h32M480 399h32M480 400h32M480 401h32M480 402h32M480 403h32M480 404h32M480 405h32M480 406h32M480 407h32M480 408h32M480 409h32M480 410h32M480 411h32M480 412h32M480 413h32M480 414h32M480 415h32M320 416h32M480 416h32M672 416h32M320 417h32M480 417h32M672 417h32M320 418h32M480 418h32M672 418h32M320 419h32M480 419h32M672 419h32M320 420h32M480 420h32M672 420h32M320 421h32M480 421h32M672 421h32M320 422h32M480 422h32M672 422h32M320 423h32M480 423h32M672 423h32M320 424h32M480 424h32M672 424h32M320 425h32M480 425h32M672 425h32M320 426h32M480 426h32M672 426h32M320 427h32M480 427h32M672 427h32M320 428h32M480 428h32M672 428h32M320 429h32M480 429h32M672 429h32M320 430h32M480 430h32M672 430h32M320 431h32M480 431h32M672 431h32M320 432h32M480 432h32M672 432h32M320 433h32M480 433h32M672 433h32M320 434h32M480 434h32M672 434h32M320 435h32M480 435h32M672 435h32M320 436h32M480 436h32M672 436h32M320 437h32M480 437h32M672 437h32M320 438h32M480 438h32M672 438h32M320 439h32M480 439h32M672 439h32M320 440h32M480 440h32M672 440h32M320 441h32M480 441h32M672 441h32M320 442h32M480 442h32M672 442h32M320 443h32M480 443h32M672 443h32M320 444h32M480 444h32M672 444h32M320 445h32M480 445h32M672 445h32M320 446h32M480 446h32M672 446h32M320 447h32M480 447h32M672 447h32M384 480h32M608 480h32M384 481h32M608 481h32M384 482h32M608 482h32M384 483h32M608 483h32M384 484h32M608 484h32M384 485h32M608 485h32M384 486h32M608 486h32M384 487h32M608 487h32M384 488h32M608 488h32M384 489h32M608 489h32M384 490h32M608 490h32M384 491h32M608 491h32M384 492h32M608 492h32M384 493h32M608 493h32M384 494h32M608 494h32M384 495h32M608 495h32M384 496h32M608 496h32M384 497h32M608 497h32M384 498h32M608 498h32M384 499h32M608 499h32M384 500h32M608 500h32M384 501h32M608 501h32M384 502h32M608 502h32M384 503h32M608 503h32M384 504h32M608 504h32M384 505h32M608 505h32M384 506h32M608 506h32M384 507h32M608 507h32M384 508h32M608 508h32M384 509h32M608 509h32M384 510h32M608 510h32M384 511h32M608 511h32M384 832h64M576 832h64M384 833h64M576 833h64M384 834h64M576 834h64M384 835h64M576 835h64M384 836h64M576 836h64M384 837h64M576 837h64M384 838h64M576 838h64M384 839h64M576 839h64M384 840h64M576 840h64M384 841h64M576 841h64M384 842h64M576 842h64M384 843h64M576 843h64M384 844h64M576 844h64M384 845h64M576 845h64M384 846h64M576 846h64M384 847h64M576 847h64M384 848h64M576 848h64M384 849h64M576 849h64M384 850h64M576 850h64M384 851h64M576 851h64M384 852h64M576 852h64M384 853h64M576 853h64M384 854h64M576 854h64M384 855h64M576 855h64M384 856h64M576 856h64M384 857h64M576 857h64M384 858h64M576 858h64M384 859h64M576 859h64M384 860h64M576 860h64M384 861h64M576 861h64M384 862h64M576 862h64M384 863h64M576 863h64M416 864h32M576 864h32M416 865h32M576 865h32M416 866h32M576 866h32M416 867h32M576 867h32M416 868h32M576 868h32M416 869h32M576 869h32M416 870h32M576 870h32M416 871h32M576 871h32M416 872h32M576 872h32M416 873h32M576 873h32M416 874h32M576 874h32M416 875h32M576 875h32M416 876h32M576 876h32M416 877h32M576 877h32M416 878h32M576 878h32M416 879h32M576 879h32M416 880h32M576 880h32M416 881h32M576 881h32M416 882h32M576 882h32M416 883h32M576 883h32M416 884h32M576 884h32M416 885h32M576 885h32M416 886h32M576 886h32M416 887h32M576 887h32M416 888h32M576 888h32M416 889h32M576 889h32M416 890h32M576 890h32M416 891h32M576 891h32M416 892h32M576 892h32M416 893h32M576 893h32M416 894h32M576 894h32M416 895h32M576 895h32M416 896h32M576 896h32M416 897h32M576 897h32M416 898h32M576 898h32M416 899h32M576 899h32M416 900h32M576 900h32M416 901h32M576 901h32M416 902h32M576 902h32M416 903h32M576 903h32M416 904h32M576 904h32M416 905h32M576 905h32M416 906h32M576 906h32M416 907h32M576 907h32M416 908h32M576 908h32M416 909h32M576 909h32M416 910h32M576 910h32M416 911h32M576 911h32M416 912h32M576 912h32M416 913h32M576 913h32M416 914h32M576 914h32M416 915h32M576 915h32M416 916h32M576 916h32M416 917h32M576 917h32M416 918h32M576 918h32M416 919h32M576 919h32M416 920h32M576 920h32M416 921h32M576 921h32M416 922h32M576 922h32M416 923h32M576 923h32M416 924h32M576 924h32M416 925h32M576 925h32M416 926h32M576 926h32M416 927h32M576 927h32" />
<path stroke="#ffc1ee" d="M288 224h32M704 224h32M288 225h32M704 225h32M288 226h32M704 226h32M288 227h32M704 227h32M288 228h32M704 228h32M288 229h32M704 229h32M288 230h32M704 230h32M288 231h32M704 231h32M288 232h32M704 232h32M288 233h32M704 233h32M288 234h32M704 234h32M288 235h32M704 235h32M288 236h32M704 236h32M288 237h32M704 237h32M288 238h32M704 238h32M288 239h32M704 239h32M288 240h32M704 240h32M288 241h32M704 241h32M288 242h32M704 242h32M288 243h32M704 243h32M288 244h32M704 244h32M288 245h32M704 245h32M288 246h32M704 246h32M288 247h32M704 247h32M288 248h32M704 248h32M288 249h32M704 249h32M288 250h32M704 250h32M288 251h32M704 251h32M288 252h32M704 252h32M288 253h32M704 253h32M288 254h32M704 254h32M288 255h32M704 255h32M256 256h32M736 256h32M256 257h32M736 257h32M256 258h32M736 258h32M256 259h32M736 259h32M256 260h32M736 260h32M256 261h32M736 261h32M256 262h32M736 262h32M256 263h32M736 263h32M256 264h32M736 264h32M256 265h32M736 265h32M256 266h32M736 266h32M256 267h32M736 267h32M256 268h32M736 268h32M256 269h32M736 269h32M256 270h32M736 270h32M256 271h32M736 271h32M256 272h32M736 272h32M256 273h32M736 273h32M256 274h32M736 274h32M256 275h32M736 275h32M256 276h32M736 276h32M256 277h32M736 277h32M256 278h32M736 278h32M256 279h32M736 279h32M256 280h32M736 280h32M256 281h32M736 281h32M256 282h32M736 282h32M256 283h32M736 283h32M256 284h32M736 284h32M256 285h32M736 285h32M256 286h32M736 286h32M256 287h32M736 287h32" />
<path stroke="#d0a66d" d="M416 416h32M576 416h32M416 417h32M576 417h32M416 418h32M576 418h32M416 419h32M576 419h32M416 420h32M576 420h32M416 421h32M576 421h32M416 422h32M576 422h32M416 423h32M576 423h32M416 424h32M576 424h32M416 425h32M576 425h32M416 426h32M576 426h32M416 427h32M576 427h32M416 428h32M576 428h32M416 429h32M576 429h32M416 430h32M576 430h32M416 431h32M576 431h32M416 432h32M576 432h32M416 433h32M576 433h32M416 434h32M576 434h32M416 435h32M576 435h32M416 436h32M576 436h32M416 437h32M576 437h32M416 438h32M576 438h32M416 439h32M576 439h32M416 440h32M576 440h32M416 441h32M576 441h32M416 442h32M576 442h32M416 443h32M576 443h32M416 444h32M576 444h32M416 445h32M576 445h32M416 446h32M576 446h32M416 447h32M576 447h32M416 448h64M544 448h64M416 449h64M544 449h64M416 450h64M544 450h64M416 451h64M544 451h64M416 452h64M544 452h64M416 453h64M544 453h64M416 454h64M544 454h64M416 455h64M544 455h64M416 456h64M544 456h64M416 457h64M544 457h64M416 458h64M544 458h64M416 459h64M544 459h64M416 460h64M544 460h64M416 461h64M544 461h64M416 462h64M544 462h64M416 463h64M544 463h64M416 464h64M544 464h64M416 465h64M544 465h64M416 466h64M544 466h64M416 467h64M544 467h64M416 468h64M544 468h64M416 469h64M544 469h64M416 470h64M544 470h64M416 471h64M544 471h64M416 472h64M544 472h64M416 473h64M544 473h64M416 474h64M544 474h64M416 475h64M544 475h64M416 476h64M544 476h64M416 477h64M544 477h64M416 478h64M544 478h64M416 479h64M544 479h64M448 480h128M448 481h128M448 482h128M448 483h128M448 484h128M448 485h128M448 486h128M448 487h128M448 488h128M448 489h128M448 490h128M448 491h128M448 492h128M448 493h128M448 494h128M448 495h128M448 496h128M448 497h128M448 498h128M448 499h128M448 500h128M448 501h128M448 502h128M448 503h128M448 504h128M448 505h128M448 506h128M448 507h128M448 508h128M448 509h128M448 510h128M448 511h128M448 544h128M448 545h128M448 546h128M448 547h128M448 548h128M448 549h128M448 550h128M448 551h128M448 552h128M448 553h128M448 554h128M448 555h128M448 556h128M448 557h128M448 558h128M448 559h128M448 560h128M448 561h128M448 562h128M448 563h128M448 564h128M448 565h128M448 566h128M448 567h128M448 568h128M448 569h128M448 570h128M448 571h128M448 572h128M448 573h128M448 574h128M448 575h128M512 576h32M512 577h32M512 578h32M512 579h32M512 580h32M512 581h32M512 582h32M512 583h32M512 584h32M512 585h32M512 586h32M512 587h32M512 588h32M512 589h32M512 590h32M512 591h32M512 592h32M512 593h32M512 594h32M512 595h32M512 596h32M512 597h32M512 598h32M512 599h32M512 600h32M512 601h32M512 602h32M512 603h32M512 604h32M512 605h32M512 606h32M512 607h32M384 768h64M576 768h64M384 769h64M576 769h64M384 770h64M576 770h64M384 771h64M576 771h64M384 772h64M576 772h64M384 773h64M576 773h64M384 774h64M576 774h64M384 775h64M576 775h64M384 776h64M576 776h64M384 777h64M576 777h64M384 778h64M576 778h64M384 779h64M576 779h64M384 780h64M576 780h64M384 781h64M576 781h64M384 782h64M576 782h64M384 783h64M576 783h64M384 784h64M576 784h64M384 785h64M576 785h64M384 786h64M576 786h64M384 787h64M576 787h64M384 788h64M576 788h64M384 789h64M576 789h64M384 790h64M576 790h64M384 791h64M576 791h64M384 792h64M576 792h64M384 793h64M576 793h64M384 794h64M576 794h64M384 795h64M576 795h64M384 796h64M576 796h64M384 797h64M576 797h64M384 798h64M576 798h64M384 799h64M576 799h64M448 800h32M544 800h32M448 801h32M544 801h32M448 802h32M544 802h32M448 803h32M544 803h32M448 804h32M544 804h32M448 805h32M544 805h32M448 806h32M544 806h32M448 807h32M544 807h32M448 808h32M544 808h32M448 809h32M544 809h32M448 810h32M544 810h32M448 811h32M544 811h32M448 812h32M544 812h32M448 813h32M544 813h32M448 814h32M544 814h32M448 815h32M544 815h32M448 816h32M544 816h32M448 817h32M544 817h32M448 818h32M544 818h32M448 819h32M544 819h32M448 820h32M544 820h32M448 821h32M544 821h32M448 822h32M544 822h32M448 823h32M544 823h32M448 824h32M544 824h32M448 825h32M544 825h32M448 826h32M544 826h32M448 827h32M544 827h32M448 828h32M544 828h32M448 829h32M544 829h32M448 830h32M544 830h32M448 831h32M544 831h32" />
<path stroke="#ff3bca" d="M384 544h32M608 544h32M384 545h32M608 545h32M384 546h32M608 546h32M384 547h32M608 547h32M384 548h32M608 548h32M384 549h32M608 549h32M384 550h32M608 550h32M384 551h32M608 551h32M384 552h32M608 552h32M384 553h32M608 553h32M384 554h32M608 554h32M384 555h32M608 555h32M384 556h32M608 556h32M384 557h32M608 557h32M384 558h32M608 558h32M384 559h32M608 559h32M384 560h32M608 560h32M384 561h32M608 561h32M384 562h32M608 562h32M384 563h32M608 563h32M384 564h32M608 564h32M384 565h32M608 565h32M384 566h32M608 566h32M384 567h32M608 567h32M384 568h32M608 568h32M384 569h32M608 569h32M384 570h32M608 570h32M384 571h32M608 571h32M384 572h32M608 572h32M384 573h32M608 573h32M384 574h32M608 574h32M384 575h32M608 575h32M352 576h64M448 576h32M576 576h96M352 577h64M448 577h32M576 577h96M352 578h64M448 578h32M576 578h96M352 579h64M448 579h32M576 579h96M352 580h64M448 580h32M576 580h96M352 581h64M448 581h32M576 581h96M352 582h64M448 582h32M576 582h96M352 583h64M448 583h32M576 583h96M352 584h64M448 584h32M576 584h96M352 585h64M448 585h32M576 585h96M352 586h64M448 586h32M576 586h96M352 587h64M448 587h32M576 587h96M352 588h64M448 588h32M576 588h96M352 589h64M448 589h32M576 589h96M352 590h64M448 590h32M576 590h96M352 591h64M448 591h32M576 591h96M352 592h64M448 592h32M576 592h96M352 593h64M448 593h32M576 593h96M352 594h64M448 594h32M576 594h96M352 595h64M448 595h32M576 595h96M352 596h64M448 596h32M576 596h96M352 597h64M448 597h32M576 597h96M352 598h64M448 598h32M576 598h96M352 599h64M448 599h32M576 599h96M352 600h64M448 600h32M576 600h96M352 601h64M448 601h32M576 601h96M352 602h64M448 602h32M576 602h96M352 603h64M448 603h32M576 603h96M352 604h64M448 604h32M576 604h96M352 605h64M448 605h32M576 605h96M352 606h64M448 606h32M576 606h96M352 607h64M448 607h32M576 607h96M352 608h32M416 608h96M544 608h128M352 609h32M416 609h96M544 609h128M352 610h32M416 610h96M544 610h128M352 611h32M416 611h96M544 611h128M352 612h32M416 612h96M544 612h128M352 613h32M416 613h96M544 613h128M352 614h32M416 614h96M544 614h128M352 615h32M416 615h96M544 615h128M352 616h32M416 616h96M544 616h128M352 617h32M416 617h96M544 617h128M352 618h32M416 618h96M544 618h128M352 619h32M416 619h96M544 619h128M352 620h32M416 620h96M544 620h128M352 621h32M416 621h96M544 621h128M352 622h32M416 622h96M544 622h128M352 623h32M416 623h96M544 623h128M352 624h32M416 624h96M544 624h128M352 625h32M416 625h96M544 625h128M352 626h32M416 626h96M544 626h128M352 627h32M416 627h96M544 627h128M352 628h32M416 628h96M544 628h128M352 629h32M416 629h96M544 629h128M352 630h32M416 630h96M544 630h128M352 631h32M416 631h96M544 631h128M352 632h32M416 632h96M544 632h128M352 633h32M416 633h96M544 633h128M352 634h32M416 634h96M544 634h128M352 635h32M416 635h96M544 635h128M352 636h32M416 636h96M544 636h128M352 637h32M416 637h96M544 637h128M352 638h32M416 638h96M544 638h128M352 639h32M416 639h96M544 639h128M352 640h320M352 641h320M352 642h320M352 643h320M352 644h320M352 645h320M352 646h320M352 647h320M352 648h320M352 649h320M352 650h320M352 651h320M352 652h320M352 653h320M352 654h320M352 655h320M352 656h320M352 657h320M352 658h320M352 659h320M352 660h320M352 661h320M352 662h320M352 663h320M352 664h320M352 665h320M352 666h320M352 667h320M352 668h320M352 669h320M352 670h320M352 671h320M384 672h256M384 673h256M384 674h256M384 675h256M384 676h256M384 677h256M384 678h256M384 679h256M384 680h256M384 681h256M384 682h256M384 683h256M384 684h256M384 685h256M384 686h256M384 687h256M384 688h256M384 689h256M384 690h256M384 691h256M384 692h256M384 693h256M384 694h256M384 695h256M384 696h256M384 697h256M384 698h256M384 699h256M384 700h256M384 701h256M384 702h256M384 703h256M384 704h256M384 705h256M384 706h256M384 707h256M384 708h256M384 709h256M384 710h256M384 711h256M384 712h256M384 713h256M384 714h256M384 715h256M384 716h256M384 717h256M384 718h256M384 719h256M384 720h256M384 721h256M384 722h256M384 723h256M384 724h256M384 725h256M384 726h256M384 727h256M384 728h256M384 729h256M384 730h256M384 731h256M384 732h256M384 733h256M384 734h256M384 735h256M448 736h128M448 737h128M448 738h128M448 739h128M448 740h128M448 741h128M448 742h128M448 743h128M448 744h128M448 745h128M448 746h128M448 747h128M448 748h128M448 749h128M448 750h128M448 751h128M448 752h128M448 753h128M448 754h128M448 755h128M448 756h128M448 757h128M448 758h128M448 759h128M448 760h128M448 761h128M448 762h128M448 763h128M448 764h128M448 765h128M448 766h128M448 767h128M480 768h64M480 769h64M480 770h64M480 771h64M480 772h64M480 773h64M480 774h64M480 775h64M480 776h64M480 777h64M480 778h64M480 779h64M480 780h64M480 781h64M480 782h64M480 783h64M480 784h64M480 785h64M480 786h64M480 787h64M480 788h64M480 789h64M480 790h64M480 791h64M480 792h64M480 793h64M480 794h64M480 795h64M480 796h64M480 797h64M480 798h64M480 799h64" />
<path stroke="#ffffff" d="M416 576h32M416 577h32M416 578h32M416 579h32M416 580h32M416 581h32M416 582h32M416 583h32M416 584h32M416 585h32M416 586h32M416 587h32M416 588h32M416 589h32M416 590h32M416 591h32M416 592h32M416 593h32M416 594h32M416 595h32M416 596h32M416 597h32M416 598h32M416 599h32M416 600h32M416 601h32M416 602h32M416 603h32M416 604h32M416 605h32M416 606h32M416 607h32M384 608h32M384 609h32M384 610h32M384 611h32M384 612h32M384 613h32M384 614h32M384 615h32M384 616h32M384 617h32M384 618h32M384 619h32M384 620h32M384 621h32M384 622h32M384 623h32M384 624h32M384 625h32M384 626h32M384 627h32M384 628h32M384 629h32M384 630h32M384 631h32M384 632h32M384 633h32M384 634h32M384 635h32M384 636h32M384 637h32M384 638h32M384 639h32" />
</svg>